%TF.GenerationSoftware,KiCad,Pcbnew,(6.0.7)*%
%TF.CreationDate,2023-01-12T19:29:25+03:00*%
%TF.ProjectId,Wireless Power Receiver & Charger,57697265-6c65-4737-9320-506f77657220,rev?*%
%TF.SameCoordinates,Original*%
%TF.FileFunction,Copper,L1,Top*%
%TF.FilePolarity,Positive*%
%FSLAX46Y46*%
G04 Gerber Fmt 4.6, Leading zero omitted, Abs format (unit mm)*
G04 Created by KiCad (PCBNEW (6.0.7)) date 2023-01-12 19:29:25*
%MOMM*%
%LPD*%
G01*
G04 APERTURE LIST*
G04 Aperture macros list*
%AMRoundRect*
0 Rectangle with rounded corners*
0 $1 Rounding radius*
0 $2 $3 $4 $5 $6 $7 $8 $9 X,Y pos of 4 corners*
0 Add a 4 corners polygon primitive as box body*
4,1,4,$2,$3,$4,$5,$6,$7,$8,$9,$2,$3,0*
0 Add four circle primitives for the rounded corners*
1,1,$1+$1,$2,$3*
1,1,$1+$1,$4,$5*
1,1,$1+$1,$6,$7*
1,1,$1+$1,$8,$9*
0 Add four rect primitives between the rounded corners*
20,1,$1+$1,$2,$3,$4,$5,0*
20,1,$1+$1,$4,$5,$6,$7,0*
20,1,$1+$1,$6,$7,$8,$9,0*
20,1,$1+$1,$8,$9,$2,$3,0*%
%AMFreePoly0*
4,1,11,1.015000,1.170000,0.435000,0.575000,0.435000,-0.575000,1.015000,-1.170000,1.015000,-1.945000,0.125000,-1.945000,-0.435000,-1.395000,-0.435000,1.395000,0.125000,1.945000,1.015000,1.945000,1.015000,1.170000,1.015000,1.170000,$1*%
%AMFreePoly1*
4,1,11,0.435000,1.395000,0.435000,-1.395000,-0.125000,-1.945000,-1.015000,-1.945000,-1.015000,-1.170000,-0.435000,-0.575000,-0.435000,0.575000,-1.015000,1.170000,-1.015000,1.945000,-0.125000,1.945000,0.435000,1.395000,0.435000,1.395000,$1*%
G04 Aperture macros list end*
%ADD10C,0.100000*%
%ADD11C,0.150000*%
%ADD12C,0.300000*%
%ADD13C,0.400000*%
%TA.AperFunction,Profile*%
%ADD14C,0.100000*%
%TD*%
%TA.AperFunction,SMDPad,CuDef*%
%ADD15R,2.400000X1.500000*%
%TD*%
%TA.AperFunction,SMDPad,CuDef*%
%ADD16R,1.050000X1.500000*%
%TD*%
%TA.AperFunction,SMDPad,CuDef*%
%ADD17RoundRect,0.250000X-0.650000X0.325000X-0.650000X-0.325000X0.650000X-0.325000X0.650000X0.325000X0*%
%TD*%
%TA.AperFunction,ComponentPad*%
%ADD18C,0.800000*%
%TD*%
%TA.AperFunction,ComponentPad*%
%ADD19C,5.000000*%
%TD*%
%TA.AperFunction,SMDPad,CuDef*%
%ADD20RoundRect,0.250000X0.312500X0.625000X-0.312500X0.625000X-0.312500X-0.625000X0.312500X-0.625000X0*%
%TD*%
%TA.AperFunction,ComponentPad*%
%ADD21R,1.800000X1.800000*%
%TD*%
%TA.AperFunction,ComponentPad*%
%ADD22C,1.800000*%
%TD*%
%TA.AperFunction,SMDPad,CuDef*%
%ADD23RoundRect,0.075000X-0.350000X-0.075000X0.350000X-0.075000X0.350000X0.075000X-0.350000X0.075000X0*%
%TD*%
%TA.AperFunction,SMDPad,CuDef*%
%ADD24RoundRect,0.075000X-0.075000X-0.350000X0.075000X-0.350000X0.075000X0.350000X-0.075000X0.350000X0*%
%TD*%
%TA.AperFunction,ComponentPad*%
%ADD25C,0.600000*%
%TD*%
%TA.AperFunction,SMDPad,CuDef*%
%ADD26R,2.100000X2.100000*%
%TD*%
%TA.AperFunction,SMDPad,CuDef*%
%ADD27R,0.650000X1.220000*%
%TD*%
%TA.AperFunction,SMDPad,CuDef*%
%ADD28RoundRect,0.250000X-0.625000X0.312500X-0.625000X-0.312500X0.625000X-0.312500X0.625000X0.312500X0*%
%TD*%
%TA.AperFunction,SMDPad,CuDef*%
%ADD29FreePoly0,270.000000*%
%TD*%
%TA.AperFunction,SMDPad,CuDef*%
%ADD30FreePoly1,270.000000*%
%TD*%
%TA.AperFunction,SMDPad,CuDef*%
%ADD31R,1.500000X2.400000*%
%TD*%
%TA.AperFunction,SMDPad,CuDef*%
%ADD32R,1.500000X1.050000*%
%TD*%
%TA.AperFunction,SMDPad,CuDef*%
%ADD33RoundRect,0.250000X0.650000X-0.325000X0.650000X0.325000X-0.650000X0.325000X-0.650000X-0.325000X0*%
%TD*%
%TA.AperFunction,SMDPad,CuDef*%
%ADD34RoundRect,0.250000X0.325000X0.650000X-0.325000X0.650000X-0.325000X-0.650000X0.325000X-0.650000X0*%
%TD*%
%TA.AperFunction,SMDPad,CuDef*%
%ADD35RoundRect,0.250000X0.625000X-0.312500X0.625000X0.312500X-0.625000X0.312500X-0.625000X-0.312500X0*%
%TD*%
%TA.AperFunction,SMDPad,CuDef*%
%ADD36RoundRect,1.587500X-2.082500X-1.587500X2.082500X-1.587500X2.082500X1.587500X-2.082500X1.587500X0*%
%TD*%
%TA.AperFunction,SMDPad,CuDef*%
%ADD37RoundRect,0.250000X0.262500X0.450000X-0.262500X0.450000X-0.262500X-0.450000X0.262500X-0.450000X0*%
%TD*%
%TA.AperFunction,ComponentPad*%
%ADD38RoundRect,0.250000X0.750000X-0.600000X0.750000X0.600000X-0.750000X0.600000X-0.750000X-0.600000X0*%
%TD*%
%TA.AperFunction,ComponentPad*%
%ADD39O,2.000000X1.700000*%
%TD*%
%TA.AperFunction,SMDPad,CuDef*%
%ADD40RoundRect,0.250000X-0.325000X-0.650000X0.325000X-0.650000X0.325000X0.650000X-0.325000X0.650000X0*%
%TD*%
%TA.AperFunction,SMDPad,CuDef*%
%ADD41R,1.200000X0.900000*%
%TD*%
%TA.AperFunction,SMDPad,CuDef*%
%ADD42RoundRect,0.250000X-0.250000X-0.475000X0.250000X-0.475000X0.250000X0.475000X-0.250000X0.475000X0*%
%TD*%
%TA.AperFunction,SMDPad,CuDef*%
%ADD43RoundRect,0.101250X-0.101250X0.393750X-0.101250X-0.393750X0.101250X-0.393750X0.101250X0.393750X0*%
%TD*%
%TA.AperFunction,SMDPad,CuDef*%
%ADD44RoundRect,0.101250X-0.101250X0.278750X-0.101250X-0.278750X0.101250X-0.278750X0.101250X0.278750X0*%
%TD*%
%TA.AperFunction,SMDPad,CuDef*%
%ADD45RoundRect,0.431250X-0.686250X0.431250X-0.686250X-0.431250X0.686250X-0.431250X0.686250X0.431250X0*%
%TD*%
%TA.AperFunction,ComponentPad*%
%ADD46C,2.000000*%
%TD*%
%TA.AperFunction,ViaPad*%
%ADD47C,0.800000*%
%TD*%
%TA.AperFunction,Conductor*%
%ADD48C,0.250000*%
%TD*%
%TA.AperFunction,Conductor*%
%ADD49C,1.700000*%
%TD*%
%TA.AperFunction,Conductor*%
%ADD50C,1.000000*%
%TD*%
G04 APERTURE END LIST*
D10*
D11*
X177002200Y-166007200D02*
X177002200Y-198007200D01*
X285002200Y-198007200D01*
X285002200Y-166007200D01*
X177002200Y-166007200D01*
D10*
D11*
X10000000Y-10000000D02*
X10000000Y-200007200D01*
X287002200Y-200007200D01*
X287002200Y-10000000D01*
X10000000Y-10000000D01*
D10*
D11*
X12000000Y-12000000D02*
X12000000Y-198007200D01*
X285002200Y-198007200D01*
X285002200Y-12000000D01*
X12000000Y-12000000D01*
D10*
D11*
X60000000Y-12000000D02*
X60000000Y-10000000D01*
D10*
D11*
X110000000Y-12000000D02*
X110000000Y-10000000D01*
D10*
D11*
X160000000Y-12000000D02*
X160000000Y-10000000D01*
D10*
D11*
X210000000Y-12000000D02*
X210000000Y-10000000D01*
D10*
D11*
X260000000Y-12000000D02*
X260000000Y-10000000D01*
D10*
D11*
X36065476Y-11588095D02*
X35322619Y-11588095D01*
X35694047Y-11588095D02*
X35694047Y-10288095D01*
X35570238Y-10473809D01*
X35446428Y-10597619D01*
X35322619Y-10659523D01*
D10*
D11*
X85322619Y-10411904D02*
X85384523Y-10350000D01*
X85508333Y-10288095D01*
X85817857Y-10288095D01*
X85941666Y-10350000D01*
X86003571Y-10411904D01*
X86065476Y-10535714D01*
X86065476Y-10659523D01*
X86003571Y-10845238D01*
X85260714Y-11588095D01*
X86065476Y-11588095D01*
D10*
D11*
X135260714Y-10288095D02*
X136065476Y-10288095D01*
X135632142Y-10783333D01*
X135817857Y-10783333D01*
X135941666Y-10845238D01*
X136003571Y-10907142D01*
X136065476Y-11030952D01*
X136065476Y-11340476D01*
X136003571Y-11464285D01*
X135941666Y-11526190D01*
X135817857Y-11588095D01*
X135446428Y-11588095D01*
X135322619Y-11526190D01*
X135260714Y-11464285D01*
D10*
D11*
X185941666Y-10721428D02*
X185941666Y-11588095D01*
X185632142Y-10226190D02*
X185322619Y-11154761D01*
X186127380Y-11154761D01*
D10*
D11*
X236003571Y-10288095D02*
X235384523Y-10288095D01*
X235322619Y-10907142D01*
X235384523Y-10845238D01*
X235508333Y-10783333D01*
X235817857Y-10783333D01*
X235941666Y-10845238D01*
X236003571Y-10907142D01*
X236065476Y-11030952D01*
X236065476Y-11340476D01*
X236003571Y-11464285D01*
X235941666Y-11526190D01*
X235817857Y-11588095D01*
X235508333Y-11588095D01*
X235384523Y-11526190D01*
X235322619Y-11464285D01*
D10*
D11*
X285941666Y-10288095D02*
X285694047Y-10288095D01*
X285570238Y-10350000D01*
X285508333Y-10411904D01*
X285384523Y-10597619D01*
X285322619Y-10845238D01*
X285322619Y-11340476D01*
X285384523Y-11464285D01*
X285446428Y-11526190D01*
X285570238Y-11588095D01*
X285817857Y-11588095D01*
X285941666Y-11526190D01*
X286003571Y-11464285D01*
X286065476Y-11340476D01*
X286065476Y-11030952D01*
X286003571Y-10907142D01*
X285941666Y-10845238D01*
X285817857Y-10783333D01*
X285570238Y-10783333D01*
X285446428Y-10845238D01*
X285384523Y-10907142D01*
X285322619Y-11030952D01*
D10*
D11*
X60000000Y-198007200D02*
X60000000Y-200007200D01*
D10*
D11*
X110000000Y-198007200D02*
X110000000Y-200007200D01*
D10*
D11*
X160000000Y-198007200D02*
X160000000Y-200007200D01*
D10*
D11*
X210000000Y-198007200D02*
X210000000Y-200007200D01*
D10*
D11*
X260000000Y-198007200D02*
X260000000Y-200007200D01*
D10*
D11*
X36065476Y-199595295D02*
X35322619Y-199595295D01*
X35694047Y-199595295D02*
X35694047Y-198295295D01*
X35570238Y-198481009D01*
X35446428Y-198604819D01*
X35322619Y-198666723D01*
D10*
D11*
X85322619Y-198419104D02*
X85384523Y-198357200D01*
X85508333Y-198295295D01*
X85817857Y-198295295D01*
X85941666Y-198357200D01*
X86003571Y-198419104D01*
X86065476Y-198542914D01*
X86065476Y-198666723D01*
X86003571Y-198852438D01*
X85260714Y-199595295D01*
X86065476Y-199595295D01*
D10*
D11*
X135260714Y-198295295D02*
X136065476Y-198295295D01*
X135632142Y-198790533D01*
X135817857Y-198790533D01*
X135941666Y-198852438D01*
X136003571Y-198914342D01*
X136065476Y-199038152D01*
X136065476Y-199347676D01*
X136003571Y-199471485D01*
X135941666Y-199533390D01*
X135817857Y-199595295D01*
X135446428Y-199595295D01*
X135322619Y-199533390D01*
X135260714Y-199471485D01*
D10*
D11*
X185941666Y-198728628D02*
X185941666Y-199595295D01*
X185632142Y-198233390D02*
X185322619Y-199161961D01*
X186127380Y-199161961D01*
D10*
D11*
X236003571Y-198295295D02*
X235384523Y-198295295D01*
X235322619Y-198914342D01*
X235384523Y-198852438D01*
X235508333Y-198790533D01*
X235817857Y-198790533D01*
X235941666Y-198852438D01*
X236003571Y-198914342D01*
X236065476Y-199038152D01*
X236065476Y-199347676D01*
X236003571Y-199471485D01*
X235941666Y-199533390D01*
X235817857Y-199595295D01*
X235508333Y-199595295D01*
X235384523Y-199533390D01*
X235322619Y-199471485D01*
D10*
D11*
X285941666Y-198295295D02*
X285694047Y-198295295D01*
X285570238Y-198357200D01*
X285508333Y-198419104D01*
X285384523Y-198604819D01*
X285322619Y-198852438D01*
X285322619Y-199347676D01*
X285384523Y-199471485D01*
X285446428Y-199533390D01*
X285570238Y-199595295D01*
X285817857Y-199595295D01*
X285941666Y-199533390D01*
X286003571Y-199471485D01*
X286065476Y-199347676D01*
X286065476Y-199038152D01*
X286003571Y-198914342D01*
X285941666Y-198852438D01*
X285817857Y-198790533D01*
X285570238Y-198790533D01*
X285446428Y-198852438D01*
X285384523Y-198914342D01*
X285322619Y-199038152D01*
D10*
D11*
X10000000Y-60000000D02*
X12000000Y-60000000D01*
D10*
D11*
X10000000Y-110000000D02*
X12000000Y-110000000D01*
D10*
D11*
X10000000Y-160000000D02*
X12000000Y-160000000D01*
D10*
D11*
X10690476Y-35216666D02*
X11309523Y-35216666D01*
X10566666Y-35588095D02*
X11000000Y-34288095D01*
X11433333Y-35588095D01*
D10*
D11*
X11092857Y-84907142D02*
X11278571Y-84969047D01*
X11340476Y-85030952D01*
X11402380Y-85154761D01*
X11402380Y-85340476D01*
X11340476Y-85464285D01*
X11278571Y-85526190D01*
X11154761Y-85588095D01*
X10659523Y-85588095D01*
X10659523Y-84288095D01*
X11092857Y-84288095D01*
X11216666Y-84350000D01*
X11278571Y-84411904D01*
X11340476Y-84535714D01*
X11340476Y-84659523D01*
X11278571Y-84783333D01*
X11216666Y-84845238D01*
X11092857Y-84907142D01*
X10659523Y-84907142D01*
D10*
D11*
X11402380Y-135464285D02*
X11340476Y-135526190D01*
X11154761Y-135588095D01*
X11030952Y-135588095D01*
X10845238Y-135526190D01*
X10721428Y-135402380D01*
X10659523Y-135278571D01*
X10597619Y-135030952D01*
X10597619Y-134845238D01*
X10659523Y-134597619D01*
X10721428Y-134473809D01*
X10845238Y-134350000D01*
X11030952Y-134288095D01*
X11154761Y-134288095D01*
X11340476Y-134350000D01*
X11402380Y-134411904D01*
D10*
D11*
X10659523Y-185588095D02*
X10659523Y-184288095D01*
X10969047Y-184288095D01*
X11154761Y-184350000D01*
X11278571Y-184473809D01*
X11340476Y-184597619D01*
X11402380Y-184845238D01*
X11402380Y-185030952D01*
X11340476Y-185278571D01*
X11278571Y-185402380D01*
X11154761Y-185526190D01*
X10969047Y-185588095D01*
X10659523Y-185588095D01*
D10*
D11*
X287002200Y-60000000D02*
X285002200Y-60000000D01*
D10*
D11*
X287002200Y-110000000D02*
X285002200Y-110000000D01*
D10*
D11*
X287002200Y-160000000D02*
X285002200Y-160000000D01*
D10*
D11*
X285692676Y-35216666D02*
X286311723Y-35216666D01*
X285568866Y-35588095D02*
X286002200Y-34288095D01*
X286435533Y-35588095D01*
D10*
D11*
X286095057Y-84907142D02*
X286280771Y-84969047D01*
X286342676Y-85030952D01*
X286404580Y-85154761D01*
X286404580Y-85340476D01*
X286342676Y-85464285D01*
X286280771Y-85526190D01*
X286156961Y-85588095D01*
X285661723Y-85588095D01*
X285661723Y-84288095D01*
X286095057Y-84288095D01*
X286218866Y-84350000D01*
X286280771Y-84411904D01*
X286342676Y-84535714D01*
X286342676Y-84659523D01*
X286280771Y-84783333D01*
X286218866Y-84845238D01*
X286095057Y-84907142D01*
X285661723Y-84907142D01*
D10*
D11*
X286404580Y-135464285D02*
X286342676Y-135526190D01*
X286156961Y-135588095D01*
X286033152Y-135588095D01*
X285847438Y-135526190D01*
X285723628Y-135402380D01*
X285661723Y-135278571D01*
X285599819Y-135030952D01*
X285599819Y-134845238D01*
X285661723Y-134597619D01*
X285723628Y-134473809D01*
X285847438Y-134350000D01*
X286033152Y-134288095D01*
X286156961Y-134288095D01*
X286342676Y-134350000D01*
X286404580Y-134411904D01*
D10*
D11*
X285661723Y-185588095D02*
X285661723Y-184288095D01*
X285971247Y-184288095D01*
X286156961Y-184350000D01*
X286280771Y-184473809D01*
X286342676Y-184597619D01*
X286404580Y-184845238D01*
X286404580Y-185030952D01*
X286342676Y-185278571D01*
X286280771Y-185402380D01*
X286156961Y-185526190D01*
X285971247Y-185588095D01*
X285661723Y-185588095D01*
D10*
D11*
X200434342Y-193785771D02*
X200434342Y-192285771D01*
X200791485Y-192285771D01*
X201005771Y-192357200D01*
X201148628Y-192500057D01*
X201220057Y-192642914D01*
X201291485Y-192928628D01*
X201291485Y-193142914D01*
X201220057Y-193428628D01*
X201148628Y-193571485D01*
X201005771Y-193714342D01*
X200791485Y-193785771D01*
X200434342Y-193785771D01*
X202577200Y-193785771D02*
X202577200Y-193000057D01*
X202505771Y-192857200D01*
X202362914Y-192785771D01*
X202077200Y-192785771D01*
X201934342Y-192857200D01*
X202577200Y-193714342D02*
X202434342Y-193785771D01*
X202077200Y-193785771D01*
X201934342Y-193714342D01*
X201862914Y-193571485D01*
X201862914Y-193428628D01*
X201934342Y-193285771D01*
X202077200Y-193214342D01*
X202434342Y-193214342D01*
X202577200Y-193142914D01*
X203077200Y-192785771D02*
X203648628Y-192785771D01*
X203291485Y-192285771D02*
X203291485Y-193571485D01*
X203362914Y-193714342D01*
X203505771Y-193785771D01*
X203648628Y-193785771D01*
X204720057Y-193714342D02*
X204577200Y-193785771D01*
X204291485Y-193785771D01*
X204148628Y-193714342D01*
X204077200Y-193571485D01*
X204077200Y-193000057D01*
X204148628Y-192857200D01*
X204291485Y-192785771D01*
X204577200Y-192785771D01*
X204720057Y-192857200D01*
X204791485Y-193000057D01*
X204791485Y-193142914D01*
X204077200Y-193285771D01*
X205434342Y-193642914D02*
X205505771Y-193714342D01*
X205434342Y-193785771D01*
X205362914Y-193714342D01*
X205434342Y-193642914D01*
X205434342Y-193785771D01*
X205434342Y-192857200D02*
X205505771Y-192928628D01*
X205434342Y-193000057D01*
X205362914Y-192928628D01*
X205434342Y-192857200D01*
X205434342Y-193000057D01*
X207220057Y-192428628D02*
X207291485Y-192357200D01*
X207434342Y-192285771D01*
X207791485Y-192285771D01*
X207934342Y-192357200D01*
X208005771Y-192428628D01*
X208077200Y-192571485D01*
X208077200Y-192714342D01*
X208005771Y-192928628D01*
X207148628Y-193785771D01*
X208077200Y-193785771D01*
X209005771Y-192285771D02*
X209148628Y-192285771D01*
X209291485Y-192357200D01*
X209362914Y-192428628D01*
X209434342Y-192571485D01*
X209505771Y-192857200D01*
X209505771Y-193214342D01*
X209434342Y-193500057D01*
X209362914Y-193642914D01*
X209291485Y-193714342D01*
X209148628Y-193785771D01*
X209005771Y-193785771D01*
X208862914Y-193714342D01*
X208791485Y-193642914D01*
X208720057Y-193500057D01*
X208648628Y-193214342D01*
X208648628Y-192857200D01*
X208720057Y-192571485D01*
X208791485Y-192428628D01*
X208862914Y-192357200D01*
X209005771Y-192285771D01*
X210077200Y-192428628D02*
X210148628Y-192357200D01*
X210291485Y-192285771D01*
X210648628Y-192285771D01*
X210791485Y-192357200D01*
X210862914Y-192428628D01*
X210934342Y-192571485D01*
X210934342Y-192714342D01*
X210862914Y-192928628D01*
X210005771Y-193785771D01*
X210934342Y-193785771D01*
X211434342Y-192285771D02*
X212362914Y-192285771D01*
X211862914Y-192857200D01*
X212077200Y-192857200D01*
X212220057Y-192928628D01*
X212291485Y-193000057D01*
X212362914Y-193142914D01*
X212362914Y-193500057D01*
X212291485Y-193642914D01*
X212220057Y-193714342D01*
X212077200Y-193785771D01*
X211648628Y-193785771D01*
X211505771Y-193714342D01*
X211434342Y-193642914D01*
X213005771Y-193214342D02*
X214148628Y-193214342D01*
X215148628Y-192285771D02*
X215291485Y-192285771D01*
X215434342Y-192357200D01*
X215505771Y-192428628D01*
X215577200Y-192571485D01*
X215648628Y-192857200D01*
X215648628Y-193214342D01*
X215577200Y-193500057D01*
X215505771Y-193642914D01*
X215434342Y-193714342D01*
X215291485Y-193785771D01*
X215148628Y-193785771D01*
X215005771Y-193714342D01*
X214934342Y-193642914D01*
X214862914Y-193500057D01*
X214791485Y-193214342D01*
X214791485Y-192857200D01*
X214862914Y-192571485D01*
X214934342Y-192428628D01*
X215005771Y-192357200D01*
X215148628Y-192285771D01*
X217077200Y-193785771D02*
X216220057Y-193785771D01*
X216648628Y-193785771D02*
X216648628Y-192285771D01*
X216505771Y-192500057D01*
X216362914Y-192642914D01*
X216220057Y-192714342D01*
X217720057Y-193214342D02*
X218862914Y-193214342D01*
X220362914Y-193785771D02*
X219505771Y-193785771D01*
X219934342Y-193785771D02*
X219934342Y-192285771D01*
X219791485Y-192500057D01*
X219648628Y-192642914D01*
X219505771Y-192714342D01*
X221291485Y-192285771D02*
X221434342Y-192285771D01*
X221577200Y-192357200D01*
X221648628Y-192428628D01*
X221720057Y-192571485D01*
X221791485Y-192857200D01*
X221791485Y-193214342D01*
X221720057Y-193500057D01*
X221648628Y-193642914D01*
X221577200Y-193714342D01*
X221434342Y-193785771D01*
X221291485Y-193785771D01*
X221148628Y-193714342D01*
X221077200Y-193642914D01*
X221005771Y-193500057D01*
X220934342Y-193214342D01*
X220934342Y-192857200D01*
X221005771Y-192571485D01*
X221077200Y-192428628D01*
X221148628Y-192357200D01*
X221291485Y-192285771D01*
D10*
D11*
X177002200Y-194507200D02*
X285002200Y-194507200D01*
D10*
D11*
X178434342Y-196585771D02*
X178434342Y-195085771D01*
X179291485Y-196585771D02*
X178648628Y-195728628D01*
X179291485Y-195085771D02*
X178434342Y-195942914D01*
X179934342Y-196585771D02*
X179934342Y-195585771D01*
X179934342Y-195085771D02*
X179862914Y-195157200D01*
X179934342Y-195228628D01*
X180005771Y-195157200D01*
X179934342Y-195085771D01*
X179934342Y-195228628D01*
X181505771Y-196442914D02*
X181434342Y-196514342D01*
X181220057Y-196585771D01*
X181077200Y-196585771D01*
X180862914Y-196514342D01*
X180720057Y-196371485D01*
X180648628Y-196228628D01*
X180577200Y-195942914D01*
X180577200Y-195728628D01*
X180648628Y-195442914D01*
X180720057Y-195300057D01*
X180862914Y-195157200D01*
X181077200Y-195085771D01*
X181220057Y-195085771D01*
X181434342Y-195157200D01*
X181505771Y-195228628D01*
X182791485Y-196585771D02*
X182791485Y-195800057D01*
X182720057Y-195657200D01*
X182577200Y-195585771D01*
X182291485Y-195585771D01*
X182148628Y-195657200D01*
X182791485Y-196514342D02*
X182648628Y-196585771D01*
X182291485Y-196585771D01*
X182148628Y-196514342D01*
X182077200Y-196371485D01*
X182077200Y-196228628D01*
X182148628Y-196085771D01*
X182291485Y-196014342D01*
X182648628Y-196014342D01*
X182791485Y-195942914D01*
X184148628Y-196585771D02*
X184148628Y-195085771D01*
X184148628Y-196514342D02*
X184005771Y-196585771D01*
X183720057Y-196585771D01*
X183577200Y-196514342D01*
X183505771Y-196442914D01*
X183434342Y-196300057D01*
X183434342Y-195871485D01*
X183505771Y-195728628D01*
X183577200Y-195657200D01*
X183720057Y-195585771D01*
X184005771Y-195585771D01*
X184148628Y-195657200D01*
X186005771Y-195800057D02*
X186505771Y-195800057D01*
X186720057Y-196585771D02*
X186005771Y-196585771D01*
X186005771Y-195085771D01*
X186720057Y-195085771D01*
X187362914Y-196442914D02*
X187434342Y-196514342D01*
X187362914Y-196585771D01*
X187291485Y-196514342D01*
X187362914Y-196442914D01*
X187362914Y-196585771D01*
X188077200Y-196585771D02*
X188077200Y-195085771D01*
X188434342Y-195085771D01*
X188648628Y-195157200D01*
X188791485Y-195300057D01*
X188862914Y-195442914D01*
X188934342Y-195728628D01*
X188934342Y-195942914D01*
X188862914Y-196228628D01*
X188791485Y-196371485D01*
X188648628Y-196514342D01*
X188434342Y-196585771D01*
X188077200Y-196585771D01*
X189577200Y-196442914D02*
X189648628Y-196514342D01*
X189577200Y-196585771D01*
X189505771Y-196514342D01*
X189577200Y-196442914D01*
X189577200Y-196585771D01*
X190220057Y-196157200D02*
X190934342Y-196157200D01*
X190077200Y-196585771D02*
X190577200Y-195085771D01*
X191077200Y-196585771D01*
X191577200Y-196442914D02*
X191648628Y-196514342D01*
X191577200Y-196585771D01*
X191505771Y-196514342D01*
X191577200Y-196442914D01*
X191577200Y-196585771D01*
X194577200Y-196585771D02*
X194577200Y-195085771D01*
X194720057Y-196014342D02*
X195148628Y-196585771D01*
X195148628Y-195585771D02*
X194577200Y-196157200D01*
X195791485Y-196585771D02*
X195791485Y-195585771D01*
X195791485Y-195085771D02*
X195720057Y-195157200D01*
X195791485Y-195228628D01*
X195862914Y-195157200D01*
X195791485Y-195085771D01*
X195791485Y-195228628D01*
X197148628Y-196514342D02*
X197005771Y-196585771D01*
X196720057Y-196585771D01*
X196577200Y-196514342D01*
X196505771Y-196442914D01*
X196434342Y-196300057D01*
X196434342Y-195871485D01*
X196505771Y-195728628D01*
X196577200Y-195657200D01*
X196720057Y-195585771D01*
X197005771Y-195585771D01*
X197148628Y-195657200D01*
X198434342Y-196585771D02*
X198434342Y-195800057D01*
X198362914Y-195657200D01*
X198220057Y-195585771D01*
X197934342Y-195585771D01*
X197791485Y-195657200D01*
X198434342Y-196514342D02*
X198291485Y-196585771D01*
X197934342Y-196585771D01*
X197791485Y-196514342D01*
X197720057Y-196371485D01*
X197720057Y-196228628D01*
X197791485Y-196085771D01*
X197934342Y-196014342D01*
X198291485Y-196014342D01*
X198434342Y-195942914D01*
X199791485Y-196585771D02*
X199791485Y-195085771D01*
X199791485Y-196514342D02*
X199648628Y-196585771D01*
X199362914Y-196585771D01*
X199220057Y-196514342D01*
X199148628Y-196442914D01*
X199077200Y-196300057D01*
X199077200Y-195871485D01*
X199148628Y-195728628D01*
X199220057Y-195657200D01*
X199362914Y-195585771D01*
X199648628Y-195585771D01*
X199791485Y-195657200D01*
X202077200Y-197157200D02*
X202005771Y-197085771D01*
X201862914Y-196871485D01*
X201791485Y-196728628D01*
X201720057Y-196514342D01*
X201648628Y-196157200D01*
X201648628Y-195871485D01*
X201720057Y-195514342D01*
X201791485Y-195300057D01*
X201862914Y-195157200D01*
X202005771Y-194942914D01*
X202077200Y-194871485D01*
X203291485Y-195085771D02*
X203005771Y-195085771D01*
X202862914Y-195157200D01*
X202791485Y-195228628D01*
X202648628Y-195442914D01*
X202577200Y-195728628D01*
X202577200Y-196300057D01*
X202648628Y-196442914D01*
X202720057Y-196514342D01*
X202862914Y-196585771D01*
X203148628Y-196585771D01*
X203291485Y-196514342D01*
X203362914Y-196442914D01*
X203434342Y-196300057D01*
X203434342Y-195942914D01*
X203362914Y-195800057D01*
X203291485Y-195728628D01*
X203148628Y-195657200D01*
X202862914Y-195657200D01*
X202720057Y-195728628D01*
X202648628Y-195800057D01*
X202577200Y-195942914D01*
X204077200Y-196442914D02*
X204148628Y-196514342D01*
X204077200Y-196585771D01*
X204005771Y-196514342D01*
X204077200Y-196442914D01*
X204077200Y-196585771D01*
X205077200Y-195085771D02*
X205220057Y-195085771D01*
X205362914Y-195157200D01*
X205434342Y-195228628D01*
X205505771Y-195371485D01*
X205577200Y-195657200D01*
X205577200Y-196014342D01*
X205505771Y-196300057D01*
X205434342Y-196442914D01*
X205362914Y-196514342D01*
X205220057Y-196585771D01*
X205077200Y-196585771D01*
X204934342Y-196514342D01*
X204862914Y-196442914D01*
X204791485Y-196300057D01*
X204720057Y-196014342D01*
X204720057Y-195657200D01*
X204791485Y-195371485D01*
X204862914Y-195228628D01*
X204934342Y-195157200D01*
X205077200Y-195085771D01*
X206220057Y-196442914D02*
X206291485Y-196514342D01*
X206220057Y-196585771D01*
X206148628Y-196514342D01*
X206220057Y-196442914D01*
X206220057Y-196585771D01*
X206791485Y-195085771D02*
X207791485Y-195085771D01*
X207148628Y-196585771D01*
X208220057Y-197157200D02*
X208291485Y-197085771D01*
X208434342Y-196871485D01*
X208505771Y-196728628D01*
X208577200Y-196514342D01*
X208648628Y-196157200D01*
X208648628Y-195871485D01*
X208577200Y-195514342D01*
X208505771Y-195300057D01*
X208434342Y-195157200D01*
X208291485Y-194942914D01*
X208220057Y-194871485D01*
D10*
D11*
X177002200Y-191507200D02*
X285002200Y-191507200D01*
D10*
D12*
X264411485Y-193785771D02*
X263911485Y-193071485D01*
X263554342Y-193785771D02*
X263554342Y-192285771D01*
X264125771Y-192285771D01*
X264268628Y-192357200D01*
X264340057Y-192428628D01*
X264411485Y-192571485D01*
X264411485Y-192785771D01*
X264340057Y-192928628D01*
X264268628Y-193000057D01*
X264125771Y-193071485D01*
X263554342Y-193071485D01*
X265625771Y-193714342D02*
X265482914Y-193785771D01*
X265197200Y-193785771D01*
X265054342Y-193714342D01*
X264982914Y-193571485D01*
X264982914Y-193000057D01*
X265054342Y-192857200D01*
X265197200Y-192785771D01*
X265482914Y-192785771D01*
X265625771Y-192857200D01*
X265697200Y-193000057D01*
X265697200Y-193142914D01*
X264982914Y-193285771D01*
X266197200Y-192785771D02*
X266554342Y-193785771D01*
X266911485Y-192785771D01*
X267482914Y-193642914D02*
X267554342Y-193714342D01*
X267482914Y-193785771D01*
X267411485Y-193714342D01*
X267482914Y-193642914D01*
X267482914Y-193785771D01*
X267482914Y-192857200D02*
X267554342Y-192928628D01*
X267482914Y-193000057D01*
X267411485Y-192928628D01*
X267482914Y-192857200D01*
X267482914Y-193000057D01*
D10*
D11*
X178362914Y-193714342D02*
X178577200Y-193785771D01*
X178934342Y-193785771D01*
X179077200Y-193714342D01*
X179148628Y-193642914D01*
X179220057Y-193500057D01*
X179220057Y-193357200D01*
X179148628Y-193214342D01*
X179077200Y-193142914D01*
X178934342Y-193071485D01*
X178648628Y-193000057D01*
X178505771Y-192928628D01*
X178434342Y-192857200D01*
X178362914Y-192714342D01*
X178362914Y-192571485D01*
X178434342Y-192428628D01*
X178505771Y-192357200D01*
X178648628Y-192285771D01*
X179005771Y-192285771D01*
X179220057Y-192357200D01*
X179862914Y-193785771D02*
X179862914Y-192785771D01*
X179862914Y-192285771D02*
X179791485Y-192357200D01*
X179862914Y-192428628D01*
X179934342Y-192357200D01*
X179862914Y-192285771D01*
X179862914Y-192428628D01*
X180434342Y-192785771D02*
X181220057Y-192785771D01*
X180434342Y-193785771D01*
X181220057Y-193785771D01*
X182362914Y-193714342D02*
X182220057Y-193785771D01*
X181934342Y-193785771D01*
X181791485Y-193714342D01*
X181720057Y-193571485D01*
X181720057Y-193000057D01*
X181791485Y-192857200D01*
X181934342Y-192785771D01*
X182220057Y-192785771D01*
X182362914Y-192857200D01*
X182434342Y-193000057D01*
X182434342Y-193142914D01*
X181720057Y-193285771D01*
X183077200Y-193642914D02*
X183148628Y-193714342D01*
X183077200Y-193785771D01*
X183005771Y-193714342D01*
X183077200Y-193642914D01*
X183077200Y-193785771D01*
X183077200Y-192857200D02*
X183148628Y-192928628D01*
X183077200Y-193000057D01*
X183005771Y-192928628D01*
X183077200Y-192857200D01*
X183077200Y-193000057D01*
X184862914Y-193357200D02*
X185577200Y-193357200D01*
X184720057Y-193785771D02*
X185220057Y-192285771D01*
X185720057Y-193785771D01*
X186862914Y-192785771D02*
X186862914Y-193785771D01*
X186505771Y-192214342D02*
X186148628Y-193285771D01*
X187077200Y-193285771D01*
D10*
D11*
X263434342Y-196585771D02*
X263434342Y-195085771D01*
X264791485Y-196585771D02*
X264791485Y-195085771D01*
X264791485Y-196514342D02*
X264648628Y-196585771D01*
X264362914Y-196585771D01*
X264220057Y-196514342D01*
X264148628Y-196442914D01*
X264077200Y-196300057D01*
X264077200Y-195871485D01*
X264148628Y-195728628D01*
X264220057Y-195657200D01*
X264362914Y-195585771D01*
X264648628Y-195585771D01*
X264791485Y-195657200D01*
X265505771Y-196442914D02*
X265577200Y-196514342D01*
X265505771Y-196585771D01*
X265434342Y-196514342D01*
X265505771Y-196442914D01*
X265505771Y-196585771D01*
X265505771Y-195657200D02*
X265577200Y-195728628D01*
X265505771Y-195800057D01*
X265434342Y-195728628D01*
X265505771Y-195657200D01*
X265505771Y-195800057D01*
X268148628Y-196585771D02*
X267291485Y-196585771D01*
X267720057Y-196585771D02*
X267720057Y-195085771D01*
X267577200Y-195300057D01*
X267434342Y-195442914D01*
X267291485Y-195514342D01*
X269862914Y-195014342D02*
X268577200Y-196942914D01*
X271148628Y-196585771D02*
X270291485Y-196585771D01*
X270720057Y-196585771D02*
X270720057Y-195085771D01*
X270577200Y-195300057D01*
X270434342Y-195442914D01*
X270291485Y-195514342D01*
D10*
D11*
X177002200Y-187507200D02*
X285002200Y-187507200D01*
D10*
D13*
X178714580Y-188211961D02*
X179857438Y-188211961D01*
X179036009Y-190211961D02*
X179286009Y-188211961D01*
X180274104Y-190211961D02*
X180440771Y-188878628D01*
X180524104Y-188211961D02*
X180416961Y-188307200D01*
X180500295Y-188402438D01*
X180607438Y-188307200D01*
X180524104Y-188211961D01*
X180500295Y-188402438D01*
X181107438Y-188878628D02*
X181869342Y-188878628D01*
X181476485Y-188211961D02*
X181262200Y-189926247D01*
X181333628Y-190116723D01*
X181512200Y-190211961D01*
X181702676Y-190211961D01*
X182655057Y-190211961D02*
X182476485Y-190116723D01*
X182405057Y-189926247D01*
X182619342Y-188211961D01*
X184190771Y-190116723D02*
X183988390Y-190211961D01*
X183607438Y-190211961D01*
X183428866Y-190116723D01*
X183357438Y-189926247D01*
X183452676Y-189164342D01*
X183571723Y-188973866D01*
X183774104Y-188878628D01*
X184155057Y-188878628D01*
X184333628Y-188973866D01*
X184405057Y-189164342D01*
X184381247Y-189354819D01*
X183405057Y-189545295D01*
X185155057Y-190021485D02*
X185238390Y-190116723D01*
X185131247Y-190211961D01*
X185047914Y-190116723D01*
X185155057Y-190021485D01*
X185131247Y-190211961D01*
X185286009Y-188973866D02*
X185369342Y-189069104D01*
X185262200Y-189164342D01*
X185178866Y-189069104D01*
X185286009Y-188973866D01*
X185262200Y-189164342D01*
X187666961Y-188211961D02*
X187893152Y-190211961D01*
X188452676Y-188783390D01*
X188655057Y-190211961D01*
X189381247Y-188211961D01*
X189893152Y-190211961D02*
X190059819Y-188878628D01*
X190143152Y-188211961D02*
X190036009Y-188307200D01*
X190119342Y-188402438D01*
X190226485Y-188307200D01*
X190143152Y-188211961D01*
X190119342Y-188402438D01*
X190845533Y-190211961D02*
X191012200Y-188878628D01*
X190964580Y-189259580D02*
X191083628Y-189069104D01*
X191190771Y-188973866D01*
X191393152Y-188878628D01*
X191583628Y-188878628D01*
X192857438Y-190116723D02*
X192655057Y-190211961D01*
X192274104Y-190211961D01*
X192095533Y-190116723D01*
X192024104Y-189926247D01*
X192119342Y-189164342D01*
X192238390Y-188973866D01*
X192440771Y-188878628D01*
X192821723Y-188878628D01*
X193000295Y-188973866D01*
X193071723Y-189164342D01*
X193047914Y-189354819D01*
X192071723Y-189545295D01*
X194083628Y-190211961D02*
X193905057Y-190116723D01*
X193833628Y-189926247D01*
X194047914Y-188211961D01*
X195619342Y-190116723D02*
X195416961Y-190211961D01*
X195036009Y-190211961D01*
X194857438Y-190116723D01*
X194786009Y-189926247D01*
X194881247Y-189164342D01*
X195000295Y-188973866D01*
X195202676Y-188878628D01*
X195583628Y-188878628D01*
X195762200Y-188973866D01*
X195833628Y-189164342D01*
X195809819Y-189354819D01*
X194833628Y-189545295D01*
X196476485Y-190116723D02*
X196655057Y-190211961D01*
X197036009Y-190211961D01*
X197238390Y-190116723D01*
X197357438Y-189926247D01*
X197369342Y-189831009D01*
X197297914Y-189640533D01*
X197119342Y-189545295D01*
X196833628Y-189545295D01*
X196655057Y-189450057D01*
X196583628Y-189259580D01*
X196595533Y-189164342D01*
X196714580Y-188973866D01*
X196916961Y-188878628D01*
X197202676Y-188878628D01*
X197381247Y-188973866D01*
X198095533Y-190116723D02*
X198274104Y-190211961D01*
X198655057Y-190211961D01*
X198857438Y-190116723D01*
X198976485Y-189926247D01*
X198988390Y-189831009D01*
X198916961Y-189640533D01*
X198738390Y-189545295D01*
X198452676Y-189545295D01*
X198274104Y-189450057D01*
X198202676Y-189259580D01*
X198214580Y-189164342D01*
X198333628Y-188973866D01*
X198536009Y-188878628D01*
X198821723Y-188878628D01*
X199000295Y-188973866D01*
X201321723Y-190211961D02*
X201571723Y-188211961D01*
X202333628Y-188211961D01*
X202512200Y-188307200D01*
X202595533Y-188402438D01*
X202666961Y-188592914D01*
X202631247Y-188878628D01*
X202512200Y-189069104D01*
X202405057Y-189164342D01*
X202202676Y-189259580D01*
X201440771Y-189259580D01*
X203607438Y-190211961D02*
X203428866Y-190116723D01*
X203345533Y-190021485D01*
X203274104Y-189831009D01*
X203345533Y-189259580D01*
X203464580Y-189069104D01*
X203571723Y-188973866D01*
X203774104Y-188878628D01*
X204059819Y-188878628D01*
X204238390Y-188973866D01*
X204321723Y-189069104D01*
X204393152Y-189259580D01*
X204321723Y-189831009D01*
X204202676Y-190021485D01*
X204095533Y-190116723D01*
X203893152Y-190211961D01*
X203607438Y-190211961D01*
X205107438Y-188878628D02*
X205321723Y-190211961D01*
X205821723Y-189259580D01*
X206083628Y-190211961D01*
X206631247Y-188878628D01*
X208000295Y-190116723D02*
X207797914Y-190211961D01*
X207416961Y-190211961D01*
X207238390Y-190116723D01*
X207166961Y-189926247D01*
X207262200Y-189164342D01*
X207381247Y-188973866D01*
X207583628Y-188878628D01*
X207964580Y-188878628D01*
X208143152Y-188973866D01*
X208214580Y-189164342D01*
X208190771Y-189354819D01*
X207214580Y-189545295D01*
X208940771Y-190211961D02*
X209107438Y-188878628D01*
X209059819Y-189259580D02*
X209178866Y-189069104D01*
X209286009Y-188973866D01*
X209488390Y-188878628D01*
X209678866Y-188878628D01*
X212845533Y-190211961D02*
X212297914Y-189259580D01*
X211702676Y-190211961D02*
X211952676Y-188211961D01*
X212714580Y-188211961D01*
X212893152Y-188307200D01*
X212976485Y-188402438D01*
X213047914Y-188592914D01*
X213012200Y-188878628D01*
X212893152Y-189069104D01*
X212786009Y-189164342D01*
X212583628Y-189259580D01*
X211821723Y-189259580D01*
X214476485Y-190116723D02*
X214274104Y-190211961D01*
X213893152Y-190211961D01*
X213714580Y-190116723D01*
X213643152Y-189926247D01*
X213738390Y-189164342D01*
X213857438Y-188973866D01*
X214059819Y-188878628D01*
X214440771Y-188878628D01*
X214619342Y-188973866D01*
X214690771Y-189164342D01*
X214666961Y-189354819D01*
X213690771Y-189545295D01*
X216286009Y-190116723D02*
X216083628Y-190211961D01*
X215702676Y-190211961D01*
X215524104Y-190116723D01*
X215440771Y-190021485D01*
X215369342Y-189831009D01*
X215440771Y-189259580D01*
X215559819Y-189069104D01*
X215666961Y-188973866D01*
X215869342Y-188878628D01*
X216250295Y-188878628D01*
X216428866Y-188973866D01*
X217905057Y-190116723D02*
X217702676Y-190211961D01*
X217321723Y-190211961D01*
X217143152Y-190116723D01*
X217071723Y-189926247D01*
X217166961Y-189164342D01*
X217286009Y-188973866D01*
X217488390Y-188878628D01*
X217869342Y-188878628D01*
X218047914Y-188973866D01*
X218119342Y-189164342D01*
X218095533Y-189354819D01*
X217119342Y-189545295D01*
X218845533Y-190211961D02*
X219012200Y-188878628D01*
X219095533Y-188211961D02*
X218988390Y-188307200D01*
X219071723Y-188402438D01*
X219178866Y-188307200D01*
X219095533Y-188211961D01*
X219071723Y-188402438D01*
X219774104Y-188878628D02*
X220083628Y-190211961D01*
X220726485Y-188878628D01*
X222095533Y-190116723D02*
X221893152Y-190211961D01*
X221512200Y-190211961D01*
X221333628Y-190116723D01*
X221262200Y-189926247D01*
X221357438Y-189164342D01*
X221476485Y-188973866D01*
X221678866Y-188878628D01*
X222059819Y-188878628D01*
X222238390Y-188973866D01*
X222309819Y-189164342D01*
X222286009Y-189354819D01*
X221309819Y-189545295D01*
X223036009Y-190211961D02*
X223202676Y-188878628D01*
X223155057Y-189259580D02*
X223274104Y-189069104D01*
X223381247Y-188973866D01*
X223583628Y-188878628D01*
X223774104Y-188878628D01*
X227416961Y-190211961D02*
X227321723Y-190211961D01*
X227143152Y-190116723D01*
X226893152Y-189831009D01*
X226488390Y-189259580D01*
X226333628Y-188973866D01*
X226274104Y-188688152D01*
X226297914Y-188497676D01*
X226416961Y-188307200D01*
X226619342Y-188211961D01*
X226714580Y-188211961D01*
X226893152Y-188307200D01*
X226964580Y-188497676D01*
X226952676Y-188592914D01*
X226833628Y-188783390D01*
X226726485Y-188878628D01*
X226107438Y-189259580D01*
X226000295Y-189354819D01*
X225881247Y-189545295D01*
X225845533Y-189831009D01*
X225916961Y-190021485D01*
X226000295Y-190116723D01*
X226178866Y-190211961D01*
X226464580Y-190211961D01*
X226666961Y-190116723D01*
X226774104Y-190021485D01*
X227107438Y-189640533D01*
X227238390Y-189354819D01*
X227262200Y-189164342D01*
X230964580Y-190021485D02*
X230857438Y-190116723D01*
X230559819Y-190211961D01*
X230369342Y-190211961D01*
X230095533Y-190116723D01*
X229928866Y-189926247D01*
X229857438Y-189735771D01*
X229809819Y-189354819D01*
X229845533Y-189069104D01*
X229988390Y-188688152D01*
X230107438Y-188497676D01*
X230321723Y-188307200D01*
X230619342Y-188211961D01*
X230809819Y-188211961D01*
X231083628Y-188307200D01*
X231166961Y-188402438D01*
X231797914Y-190211961D02*
X232047914Y-188211961D01*
X232655057Y-190211961D02*
X232786009Y-189164342D01*
X232714580Y-188973866D01*
X232536009Y-188878628D01*
X232250295Y-188878628D01*
X232047914Y-188973866D01*
X231940771Y-189069104D01*
X234464580Y-190211961D02*
X234595533Y-189164342D01*
X234524104Y-188973866D01*
X234345533Y-188878628D01*
X233964580Y-188878628D01*
X233762200Y-188973866D01*
X234476485Y-190116723D02*
X234274104Y-190211961D01*
X233797914Y-190211961D01*
X233619342Y-190116723D01*
X233547914Y-189926247D01*
X233571723Y-189735771D01*
X233690771Y-189545295D01*
X233893152Y-189450057D01*
X234369342Y-189450057D01*
X234571723Y-189354819D01*
X235416961Y-190211961D02*
X235583628Y-188878628D01*
X235536009Y-189259580D02*
X235655057Y-189069104D01*
X235762200Y-188973866D01*
X235964580Y-188878628D01*
X236155057Y-188878628D01*
X237678866Y-188878628D02*
X237476485Y-190497676D01*
X237357438Y-190688152D01*
X237250295Y-190783390D01*
X237047914Y-190878628D01*
X236762200Y-190878628D01*
X236583628Y-190783390D01*
X237524104Y-190116723D02*
X237321723Y-190211961D01*
X236940771Y-190211961D01*
X236762200Y-190116723D01*
X236678866Y-190021485D01*
X236607438Y-189831009D01*
X236678866Y-189259580D01*
X236797914Y-189069104D01*
X236905057Y-188973866D01*
X237107438Y-188878628D01*
X237488390Y-188878628D01*
X237666961Y-188973866D01*
X239238390Y-190116723D02*
X239036009Y-190211961D01*
X238655057Y-190211961D01*
X238476485Y-190116723D01*
X238405057Y-189926247D01*
X238500295Y-189164342D01*
X238619342Y-188973866D01*
X238821723Y-188878628D01*
X239202676Y-188878628D01*
X239381247Y-188973866D01*
X239452676Y-189164342D01*
X239428866Y-189354819D01*
X238452676Y-189545295D01*
X240178866Y-190211961D02*
X240345533Y-188878628D01*
X240297914Y-189259580D02*
X240416961Y-189069104D01*
X240524104Y-188973866D01*
X240726485Y-188878628D01*
X240916961Y-188878628D01*
D10*
D11*
X178934342Y-185600057D02*
X178434342Y-185600057D01*
X178434342Y-186385771D02*
X178434342Y-184885771D01*
X179148628Y-184885771D01*
X179720057Y-186385771D02*
X179720057Y-185385771D01*
X179720057Y-184885771D02*
X179648628Y-184957200D01*
X179720057Y-185028628D01*
X179791485Y-184957200D01*
X179720057Y-184885771D01*
X179720057Y-185028628D01*
X180648628Y-186385771D02*
X180505771Y-186314342D01*
X180434342Y-186171485D01*
X180434342Y-184885771D01*
X181791485Y-186314342D02*
X181648628Y-186385771D01*
X181362914Y-186385771D01*
X181220057Y-186314342D01*
X181148628Y-186171485D01*
X181148628Y-185600057D01*
X181220057Y-185457200D01*
X181362914Y-185385771D01*
X181648628Y-185385771D01*
X181791485Y-185457200D01*
X181862914Y-185600057D01*
X181862914Y-185742914D01*
X181148628Y-185885771D01*
X182505771Y-186242914D02*
X182577200Y-186314342D01*
X182505771Y-186385771D01*
X182434342Y-186314342D01*
X182505771Y-186242914D01*
X182505771Y-186385771D01*
X182505771Y-185457200D02*
X182577200Y-185528628D01*
X182505771Y-185600057D01*
X182434342Y-185528628D01*
X182505771Y-185457200D01*
X182505771Y-185600057D01*
X184220057Y-184885771D02*
X184577200Y-186385771D01*
X184862914Y-185314342D01*
X185148628Y-186385771D01*
X185505771Y-184885771D01*
X186077200Y-186385771D02*
X186077200Y-185385771D01*
X186077200Y-184885771D02*
X186005771Y-184957200D01*
X186077200Y-185028628D01*
X186148628Y-184957200D01*
X186077200Y-184885771D01*
X186077200Y-185028628D01*
X186791485Y-186385771D02*
X186791485Y-185385771D01*
X186791485Y-185671485D02*
X186862914Y-185528628D01*
X186934342Y-185457200D01*
X187077200Y-185385771D01*
X187220057Y-185385771D01*
X188291485Y-186314342D02*
X188148628Y-186385771D01*
X187862914Y-186385771D01*
X187720057Y-186314342D01*
X187648628Y-186171485D01*
X187648628Y-185600057D01*
X187720057Y-185457200D01*
X187862914Y-185385771D01*
X188148628Y-185385771D01*
X188291485Y-185457200D01*
X188362914Y-185600057D01*
X188362914Y-185742914D01*
X187648628Y-185885771D01*
X189220057Y-186385771D02*
X189077200Y-186314342D01*
X189005771Y-186171485D01*
X189005771Y-184885771D01*
X190362914Y-186314342D02*
X190220057Y-186385771D01*
X189934342Y-186385771D01*
X189791485Y-186314342D01*
X189720057Y-186171485D01*
X189720057Y-185600057D01*
X189791485Y-185457200D01*
X189934342Y-185385771D01*
X190220057Y-185385771D01*
X190362914Y-185457200D01*
X190434342Y-185600057D01*
X190434342Y-185742914D01*
X189720057Y-185885771D01*
X191005771Y-186314342D02*
X191148628Y-186385771D01*
X191434342Y-186385771D01*
X191577200Y-186314342D01*
X191648628Y-186171485D01*
X191648628Y-186100057D01*
X191577200Y-185957200D01*
X191434342Y-185885771D01*
X191220057Y-185885771D01*
X191077200Y-185814342D01*
X191005771Y-185671485D01*
X191005771Y-185600057D01*
X191077200Y-185457200D01*
X191220057Y-185385771D01*
X191434342Y-185385771D01*
X191577200Y-185457200D01*
X192220057Y-186314342D02*
X192362914Y-186385771D01*
X192648628Y-186385771D01*
X192791485Y-186314342D01*
X192862914Y-186171485D01*
X192862914Y-186100057D01*
X192791485Y-185957200D01*
X192648628Y-185885771D01*
X192434342Y-185885771D01*
X192291485Y-185814342D01*
X192220057Y-185671485D01*
X192220057Y-185600057D01*
X192291485Y-185457200D01*
X192434342Y-185385771D01*
X192648628Y-185385771D01*
X192791485Y-185457200D01*
X194648628Y-186385771D02*
X194648628Y-184885771D01*
X195220057Y-184885771D01*
X195362914Y-184957200D01*
X195434342Y-185028628D01*
X195505771Y-185171485D01*
X195505771Y-185385771D01*
X195434342Y-185528628D01*
X195362914Y-185600057D01*
X195220057Y-185671485D01*
X194648628Y-185671485D01*
X196362914Y-186385771D02*
X196220057Y-186314342D01*
X196148628Y-186242914D01*
X196077200Y-186100057D01*
X196077200Y-185671485D01*
X196148628Y-185528628D01*
X196220057Y-185457200D01*
X196362914Y-185385771D01*
X196577200Y-185385771D01*
X196720057Y-185457200D01*
X196791485Y-185528628D01*
X196862914Y-185671485D01*
X196862914Y-186100057D01*
X196791485Y-186242914D01*
X196720057Y-186314342D01*
X196577200Y-186385771D01*
X196362914Y-186385771D01*
X197362914Y-185385771D02*
X197648628Y-186385771D01*
X197934342Y-185671485D01*
X198220057Y-186385771D01*
X198505771Y-185385771D01*
X199648628Y-186314342D02*
X199505771Y-186385771D01*
X199220057Y-186385771D01*
X199077200Y-186314342D01*
X199005771Y-186171485D01*
X199005771Y-185600057D01*
X199077200Y-185457200D01*
X199220057Y-185385771D01*
X199505771Y-185385771D01*
X199648628Y-185457200D01*
X199720057Y-185600057D01*
X199720057Y-185742914D01*
X199005771Y-185885771D01*
X200362914Y-186385771D02*
X200362914Y-185385771D01*
X200362914Y-185671485D02*
X200434342Y-185528628D01*
X200505771Y-185457200D01*
X200648628Y-185385771D01*
X200791485Y-185385771D01*
X203291485Y-186385771D02*
X202791485Y-185671485D01*
X202434342Y-186385771D02*
X202434342Y-184885771D01*
X203005771Y-184885771D01*
X203148628Y-184957200D01*
X203220057Y-185028628D01*
X203291485Y-185171485D01*
X203291485Y-185385771D01*
X203220057Y-185528628D01*
X203148628Y-185600057D01*
X203005771Y-185671485D01*
X202434342Y-185671485D01*
X204505771Y-186314342D02*
X204362914Y-186385771D01*
X204077200Y-186385771D01*
X203934342Y-186314342D01*
X203862914Y-186171485D01*
X203862914Y-185600057D01*
X203934342Y-185457200D01*
X204077200Y-185385771D01*
X204362914Y-185385771D01*
X204505771Y-185457200D01*
X204577200Y-185600057D01*
X204577200Y-185742914D01*
X203862914Y-185885771D01*
X205862914Y-186314342D02*
X205720057Y-186385771D01*
X205434342Y-186385771D01*
X205291485Y-186314342D01*
X205220057Y-186242914D01*
X205148628Y-186100057D01*
X205148628Y-185671485D01*
X205220057Y-185528628D01*
X205291485Y-185457200D01*
X205434342Y-185385771D01*
X205720057Y-185385771D01*
X205862914Y-185457200D01*
X207077200Y-186314342D02*
X206934342Y-186385771D01*
X206648628Y-186385771D01*
X206505771Y-186314342D01*
X206434342Y-186171485D01*
X206434342Y-185600057D01*
X206505771Y-185457200D01*
X206648628Y-185385771D01*
X206934342Y-185385771D01*
X207077200Y-185457200D01*
X207148628Y-185600057D01*
X207148628Y-185742914D01*
X206434342Y-185885771D01*
X207791485Y-186385771D02*
X207791485Y-185385771D01*
X207791485Y-184885771D02*
X207720057Y-184957200D01*
X207791485Y-185028628D01*
X207862914Y-184957200D01*
X207791485Y-184885771D01*
X207791485Y-185028628D01*
X208362914Y-185385771D02*
X208720057Y-186385771D01*
X209077200Y-185385771D01*
X210220057Y-186314342D02*
X210077200Y-186385771D01*
X209791485Y-186385771D01*
X209648628Y-186314342D01*
X209577200Y-186171485D01*
X209577200Y-185600057D01*
X209648628Y-185457200D01*
X209791485Y-185385771D01*
X210077200Y-185385771D01*
X210220057Y-185457200D01*
X210291485Y-185600057D01*
X210291485Y-185742914D01*
X209577200Y-185885771D01*
X210934342Y-186385771D02*
X210934342Y-185385771D01*
X210934342Y-185671485D02*
X211005771Y-185528628D01*
X211077200Y-185457200D01*
X211220057Y-185385771D01*
X211362914Y-185385771D01*
X214220057Y-186385771D02*
X214148628Y-186385771D01*
X214005771Y-186314342D01*
X213791485Y-186100057D01*
X213434342Y-185671485D01*
X213291485Y-185457200D01*
X213220057Y-185242914D01*
X213220057Y-185100057D01*
X213291485Y-184957200D01*
X213434342Y-184885771D01*
X213505771Y-184885771D01*
X213648628Y-184957200D01*
X213720057Y-185100057D01*
X213720057Y-185171485D01*
X213648628Y-185314342D01*
X213577200Y-185385771D01*
X213148628Y-185671485D01*
X213077200Y-185742914D01*
X213005771Y-185885771D01*
X213005771Y-186100057D01*
X213077200Y-186242914D01*
X213148628Y-186314342D01*
X213291485Y-186385771D01*
X213505771Y-186385771D01*
X213648628Y-186314342D01*
X213720057Y-186242914D01*
X213934342Y-185957200D01*
X214005771Y-185742914D01*
X214005771Y-185600057D01*
X216862914Y-186242914D02*
X216791485Y-186314342D01*
X216577200Y-186385771D01*
X216434342Y-186385771D01*
X216220057Y-186314342D01*
X216077200Y-186171485D01*
X216005771Y-186028628D01*
X215934342Y-185742914D01*
X215934342Y-185528628D01*
X216005771Y-185242914D01*
X216077200Y-185100057D01*
X216220057Y-184957200D01*
X216434342Y-184885771D01*
X216577200Y-184885771D01*
X216791485Y-184957200D01*
X216862914Y-185028628D01*
X217505771Y-186385771D02*
X217505771Y-184885771D01*
X218148628Y-186385771D02*
X218148628Y-185600057D01*
X218077200Y-185457200D01*
X217934342Y-185385771D01*
X217720057Y-185385771D01*
X217577200Y-185457200D01*
X217505771Y-185528628D01*
X219505771Y-186385771D02*
X219505771Y-185600057D01*
X219434342Y-185457200D01*
X219291485Y-185385771D01*
X219005771Y-185385771D01*
X218862914Y-185457200D01*
X219505771Y-186314342D02*
X219362914Y-186385771D01*
X219005771Y-186385771D01*
X218862914Y-186314342D01*
X218791485Y-186171485D01*
X218791485Y-186028628D01*
X218862914Y-185885771D01*
X219005771Y-185814342D01*
X219362914Y-185814342D01*
X219505771Y-185742914D01*
X220220057Y-186385771D02*
X220220057Y-185385771D01*
X220220057Y-185671485D02*
X220291485Y-185528628D01*
X220362914Y-185457200D01*
X220505771Y-185385771D01*
X220648628Y-185385771D01*
X221791485Y-185385771D02*
X221791485Y-186600057D01*
X221720057Y-186742914D01*
X221648628Y-186814342D01*
X221505771Y-186885771D01*
X221291485Y-186885771D01*
X221148628Y-186814342D01*
X221791485Y-186314342D02*
X221648628Y-186385771D01*
X221362914Y-186385771D01*
X221220057Y-186314342D01*
X221148628Y-186242914D01*
X221077200Y-186100057D01*
X221077200Y-185671485D01*
X221148628Y-185528628D01*
X221220057Y-185457200D01*
X221362914Y-185385771D01*
X221648628Y-185385771D01*
X221791485Y-185457200D01*
X223077200Y-186314342D02*
X222934342Y-186385771D01*
X222648628Y-186385771D01*
X222505771Y-186314342D01*
X222434342Y-186171485D01*
X222434342Y-185600057D01*
X222505771Y-185457200D01*
X222648628Y-185385771D01*
X222934342Y-185385771D01*
X223077200Y-185457200D01*
X223148628Y-185600057D01*
X223148628Y-185742914D01*
X222434342Y-185885771D01*
X223791485Y-186385771D02*
X223791485Y-185385771D01*
X223791485Y-185671485D02*
X223862914Y-185528628D01*
X223934342Y-185457200D01*
X224077200Y-185385771D01*
X224220057Y-185385771D01*
X224720057Y-186242914D02*
X224791485Y-186314342D01*
X224720057Y-186385771D01*
X224648628Y-186314342D01*
X224720057Y-186242914D01*
X224720057Y-186385771D01*
X225434342Y-186385771D02*
X225434342Y-184885771D01*
X225577200Y-185814342D02*
X226005771Y-186385771D01*
X226005771Y-185385771D02*
X225434342Y-185957200D01*
X226648628Y-186385771D02*
X226648628Y-185385771D01*
X226648628Y-184885771D02*
X226577200Y-184957200D01*
X226648628Y-185028628D01*
X226720057Y-184957200D01*
X226648628Y-184885771D01*
X226648628Y-185028628D01*
X228005771Y-186314342D02*
X227862914Y-186385771D01*
X227577200Y-186385771D01*
X227434342Y-186314342D01*
X227362914Y-186242914D01*
X227291485Y-186100057D01*
X227291485Y-185671485D01*
X227362914Y-185528628D01*
X227434342Y-185457200D01*
X227577200Y-185385771D01*
X227862914Y-185385771D01*
X228005771Y-185457200D01*
X229291485Y-186385771D02*
X229291485Y-185600057D01*
X229220057Y-185457200D01*
X229077200Y-185385771D01*
X228791485Y-185385771D01*
X228648628Y-185457200D01*
X229291485Y-186314342D02*
X229148628Y-186385771D01*
X228791485Y-186385771D01*
X228648628Y-186314342D01*
X228577200Y-186171485D01*
X228577200Y-186028628D01*
X228648628Y-185885771D01*
X228791485Y-185814342D01*
X229148628Y-185814342D01*
X229291485Y-185742914D01*
X230648628Y-186385771D02*
X230648628Y-184885771D01*
X230648628Y-186314342D02*
X230505771Y-186385771D01*
X230220057Y-186385771D01*
X230077200Y-186314342D01*
X230005771Y-186242914D01*
X229934342Y-186100057D01*
X229934342Y-185671485D01*
X230005771Y-185528628D01*
X230077200Y-185457200D01*
X230220057Y-185385771D01*
X230505771Y-185385771D01*
X230648628Y-185457200D01*
X231005771Y-186528628D02*
X232148628Y-186528628D01*
X232505771Y-185385771D02*
X232505771Y-186885771D01*
X232505771Y-185457200D02*
X232648628Y-185385771D01*
X232934342Y-185385771D01*
X233077200Y-185457200D01*
X233148628Y-185528628D01*
X233220057Y-185671485D01*
X233220057Y-186100057D01*
X233148628Y-186242914D01*
X233077200Y-186314342D01*
X232934342Y-186385771D01*
X232648628Y-186385771D01*
X232505771Y-186314342D01*
X234505771Y-186314342D02*
X234362914Y-186385771D01*
X234077200Y-186385771D01*
X233934342Y-186314342D01*
X233862914Y-186242914D01*
X233791485Y-186100057D01*
X233791485Y-185671485D01*
X233862914Y-185528628D01*
X233934342Y-185457200D01*
X234077200Y-185385771D01*
X234362914Y-185385771D01*
X234505771Y-185457200D01*
X235148628Y-186385771D02*
X235148628Y-184885771D01*
X235148628Y-185457200D02*
X235291485Y-185385771D01*
X235577200Y-185385771D01*
X235720057Y-185457200D01*
X235791485Y-185528628D01*
X235862914Y-185671485D01*
X235862914Y-186100057D01*
X235791485Y-186242914D01*
X235720057Y-186314342D01*
X235577200Y-186385771D01*
X235291485Y-186385771D01*
X235148628Y-186314342D01*
D10*
D11*
X177002200Y-181507200D02*
X285002200Y-181507200D01*
D10*
D11*
X178362914Y-183614342D02*
X178577200Y-183685771D01*
X178934342Y-183685771D01*
X179077200Y-183614342D01*
X179148628Y-183542914D01*
X179220057Y-183400057D01*
X179220057Y-183257200D01*
X179148628Y-183114342D01*
X179077200Y-183042914D01*
X178934342Y-182971485D01*
X178648628Y-182900057D01*
X178505771Y-182828628D01*
X178434342Y-182757200D01*
X178362914Y-182614342D01*
X178362914Y-182471485D01*
X178434342Y-182328628D01*
X178505771Y-182257200D01*
X178648628Y-182185771D01*
X179005771Y-182185771D01*
X179220057Y-182257200D01*
X179862914Y-183685771D02*
X179862914Y-182185771D01*
X180505771Y-183685771D02*
X180505771Y-182900057D01*
X180434342Y-182757200D01*
X180291485Y-182685771D01*
X180077200Y-182685771D01*
X179934342Y-182757200D01*
X179862914Y-182828628D01*
X181791485Y-183614342D02*
X181648628Y-183685771D01*
X181362914Y-183685771D01*
X181220057Y-183614342D01*
X181148628Y-183471485D01*
X181148628Y-182900057D01*
X181220057Y-182757200D01*
X181362914Y-182685771D01*
X181648628Y-182685771D01*
X181791485Y-182757200D01*
X181862914Y-182900057D01*
X181862914Y-183042914D01*
X181148628Y-183185771D01*
X183077200Y-183614342D02*
X182934342Y-183685771D01*
X182648628Y-183685771D01*
X182505771Y-183614342D01*
X182434342Y-183471485D01*
X182434342Y-182900057D01*
X182505771Y-182757200D01*
X182648628Y-182685771D01*
X182934342Y-182685771D01*
X183077200Y-182757200D01*
X183148628Y-182900057D01*
X183148628Y-183042914D01*
X182434342Y-183185771D01*
X183577200Y-182685771D02*
X184148628Y-182685771D01*
X183791485Y-182185771D02*
X183791485Y-183471485D01*
X183862914Y-183614342D01*
X184005771Y-183685771D01*
X184148628Y-183685771D01*
X184648628Y-183542914D02*
X184720057Y-183614342D01*
X184648628Y-183685771D01*
X184577200Y-183614342D01*
X184648628Y-183542914D01*
X184648628Y-183685771D01*
X184648628Y-182757200D02*
X184720057Y-182828628D01*
X184648628Y-182900057D01*
X184577200Y-182828628D01*
X184648628Y-182757200D01*
X184648628Y-182900057D01*
D10*
D12*
D10*
D11*
D10*
D11*
D10*
D11*
D10*
D11*
D10*
D11*
X197002200Y-191507200D02*
X197002200Y-194507200D01*
D10*
D11*
X261002200Y-191507200D02*
X261002200Y-198007200D01*
D14*
X64375000Y-59400000D02*
X207600000Y-59400000D01*
X207600000Y-59400000D02*
X207600000Y-114825000D01*
X207600000Y-114825000D02*
X64375000Y-114825000D01*
X64375000Y-114825000D02*
X64375000Y-59400000D01*
D15*
%TO.P,D1,1,K*%
%TO.N,/PowerNode*%
X74900000Y-81625000D03*
D16*
%TO.P,D1,2,A*%
%TO.N,GND*%
X77275000Y-81625000D03*
%TD*%
D17*
%TO.P,C3,1*%
%TO.N,GND*%
X85300000Y-78255000D03*
%TO.P,C3,2*%
%TO.N,LED+*%
X85300000Y-81205000D03*
%TD*%
D18*
%TO.P,H3,1,1*%
%TO.N,GND*%
X204950825Y-111450825D03*
X203625000Y-108250000D03*
X201750000Y-110125000D03*
D19*
X203625000Y-110125000D03*
D18*
X204950825Y-108799175D03*
X202299175Y-108799175D03*
X205500000Y-110125000D03*
X203625000Y-112000000D03*
X202299175Y-111450825D03*
%TD*%
D20*
%TO.P,R4,1*%
%TO.N,/Gate*%
X95012500Y-106550000D03*
%TO.P,R4,2*%
%TO.N,/Source*%
X92087500Y-106550000D03*
%TD*%
D21*
%TO.P,D5,1,K*%
%TO.N,FAULT*%
X85525000Y-108325000D03*
D22*
%TO.P,D5,2,A*%
%TO.N,Net-(D5-Pad2)*%
X88065000Y-108325000D03*
%TD*%
D23*
%TO.P,U1,1,INTVcc*%
%TO.N,/Freq*%
X85025000Y-86175000D03*
%TO.P,U1,2,BOOST*%
%TO.N,/BoostCap*%
X85025000Y-86825000D03*
%TO.P,U1,3,IN*%
%TO.N,LED+*%
X85025000Y-87475000D03*
%TO.P,U1,4,SW*%
%TO.N,/SwitchNode*%
X85025000Y-88125000D03*
D24*
%TO.P,U1,5,GND*%
%TO.N,GND*%
X86000000Y-89100000D03*
%TO.P,U1,6,DHC*%
%TO.N,/DHC*%
X86650000Y-89100000D03*
%TO.P,U1,7,FREQ*%
%TO.N,/Freq*%
X87300000Y-89100000D03*
%TO.P,U1,8,CHGSNS*%
%TO.N,/Inductor*%
X87950000Y-89100000D03*
D23*
%TO.P,U1,9,BAT*%
%TO.N,BAT+*%
X88925000Y-88125000D03*
%TO.P,U1,10,BATSNS*%
X88925000Y-87475000D03*
%TO.P,U1,11,NC*%
%TO.N,unconnected-(U1-Pad11)*%
X88925000Y-86825000D03*
%TO.P,U1,12,NTC*%
%TO.N,NTC*%
X88925000Y-86175000D03*
D24*
%TO.P,U1,13,PROG*%
%TO.N,Net-(R1-Pad1)*%
X87950000Y-85200000D03*
%TO.P,U1,14,CHRG*%
%TO.N,CHRG*%
X87300000Y-85200000D03*
%TO.P,U1,15,FAULT*%
%TO.N,FAULT*%
X86650000Y-85200000D03*
%TO.P,U1,16,RUN*%
%TO.N,LED+*%
X86000000Y-85200000D03*
D25*
%TO.P,U1,17,GND*%
%TO.N,GND*%
X86225000Y-87150000D03*
D26*
X86975000Y-87150000D03*
D25*
X86975000Y-86400000D03*
X87725000Y-87900000D03*
X87725000Y-86400000D03*
X86975000Y-87900000D03*
X86225000Y-87900000D03*
X87725000Y-87150000D03*
X86975000Y-87150000D03*
X86225000Y-86400000D03*
%TD*%
D15*
%TO.P,D2,1,K*%
%TO.N,LED+*%
X76600000Y-78175000D03*
D16*
%TO.P,D2,2,A*%
%TO.N,/PowerNode*%
X74225000Y-78175000D03*
%TD*%
D27*
%TO.P,Q1,1,B*%
%TO.N,/DHC*%
X89800000Y-98515000D03*
%TO.P,Q1,2,E*%
%TO.N,GND*%
X87900000Y-98515000D03*
%TO.P,Q1,3,C*%
%TO.N,/Source*%
X88850000Y-101135000D03*
%TD*%
D28*
%TO.P,R2,1*%
%TO.N,NTC*%
X91400000Y-89437500D03*
%TO.P,R2,2*%
%TO.N,/Freq*%
X91400000Y-92362500D03*
%TD*%
D29*
%TO.P,L2,1,1*%
%TO.N,/SwitchNode*%
X81800000Y-91510000D03*
D30*
%TO.P,L2,2,2*%
%TO.N,/Inductor*%
X81800000Y-95040000D03*
%TD*%
D31*
%TO.P,D3,1,K*%
%TO.N,LED+*%
X81600000Y-80380000D03*
D32*
%TO.P,D3,2,A*%
%TO.N,GND*%
X81600000Y-78005000D03*
%TD*%
D33*
%TO.P,C4,1*%
%TO.N,/SwitchNode*%
X82100000Y-89025000D03*
%TO.P,C4,2*%
%TO.N,/BoostCap*%
X82100000Y-86075000D03*
%TD*%
D18*
%TO.P,H2,1,1*%
%TO.N,GND*%
X201700000Y-63625000D03*
X202249175Y-62299175D03*
X204900825Y-62299175D03*
X205450000Y-63625000D03*
X204900825Y-64950825D03*
X203575000Y-65500000D03*
X203575000Y-61750000D03*
D19*
X203575000Y-63625000D03*
D18*
X202249175Y-64950825D03*
%TD*%
%TO.P,H4,1,1*%
%TO.N,GND*%
X70325000Y-110050000D03*
X69775825Y-108724175D03*
X67124175Y-108724175D03*
X66575000Y-110050000D03*
X68450000Y-111925000D03*
D19*
X68450000Y-110050000D03*
D18*
X68450000Y-108175000D03*
X67124175Y-111375825D03*
X69775825Y-111375825D03*
%TD*%
D34*
%TO.P,C1,1*%
%TO.N,/PowerIn*%
X77425000Y-85025000D03*
%TO.P,C1,2*%
%TO.N,/PowerNode*%
X74475000Y-85025000D03*
%TD*%
D35*
%TO.P,R1,1*%
%TO.N,Net-(R1-Pad1)*%
X88850000Y-81212500D03*
%TO.P,R1,2*%
%TO.N,GND*%
X88850000Y-78287500D03*
%TD*%
D36*
%TO.P,U2,1,+*%
%TO.N,BAT+*%
X110800000Y-77695000D03*
%TO.P,U2,2,-*%
%TO.N,GND*%
X110800000Y-96805000D03*
%TO.P,U2,3,+*%
%TO.N,/CellTie*%
X198400000Y-96805000D03*
%TO.P,U2,4,-*%
X198400000Y-77695000D03*
%TD*%
D28*
%TO.P,R5,1*%
%TO.N,LED+*%
X100650000Y-98437500D03*
%TO.P,R5,2*%
%TO.N,Net-(D5-Pad2)*%
X100650000Y-101362500D03*
%TD*%
D37*
%TO.P,R3,1*%
%TO.N,LED+*%
X91887500Y-95525000D03*
%TO.P,R3,2*%
%TO.N,/DHC*%
X90062500Y-95525000D03*
%TD*%
D38*
%TO.P,J2,1,Pin_1*%
%TO.N,GND*%
X101275000Y-91925000D03*
D39*
%TO.P,J2,2,Pin_2*%
%TO.N,NTC*%
X101275000Y-89425000D03*
%TD*%
D21*
%TO.P,D6,1,K*%
%TO.N,CHRG*%
X101125000Y-108325000D03*
D22*
%TO.P,D6,2,A*%
%TO.N,Net-(D6-Pad2)*%
X103665000Y-108325000D03*
%TD*%
D28*
%TO.P,R6,1*%
%TO.N,LED+*%
X104075000Y-98437500D03*
%TO.P,R6,2*%
%TO.N,Net-(D6-Pad2)*%
X104075000Y-101362500D03*
%TD*%
D18*
%TO.P,H1,1,1*%
%TO.N,GND*%
X67124175Y-62249175D03*
X67124175Y-64900825D03*
X68450000Y-65450000D03*
X70325000Y-63575000D03*
X69775825Y-64900825D03*
X68450000Y-61700000D03*
X69775825Y-62249175D03*
X66575000Y-63575000D03*
D19*
X68450000Y-63575000D03*
%TD*%
D40*
%TO.P,C2,1*%
%TO.N,GND*%
X85825000Y-92125000D03*
%TO.P,C2,2*%
%TO.N,/Freq*%
X88775000Y-92125000D03*
%TD*%
D41*
%TO.P,D4,1,K*%
%TO.N,LED+*%
X97400000Y-98425000D03*
%TO.P,D4,2,A*%
%TO.N,/Gate*%
X97400000Y-101725000D03*
%TD*%
D42*
%TO.P,C5,1*%
%TO.N,GND*%
X85700000Y-95550000D03*
%TO.P,C5,2*%
%TO.N,/DHC*%
X87600000Y-95550000D03*
%TD*%
D43*
%TO.P,Q2,1,S*%
%TO.N,/Source*%
X92492500Y-101270000D03*
%TO.P,Q2,2,S*%
X93152500Y-101270000D03*
%TO.P,Q2,3,S*%
X93812500Y-101270000D03*
%TO.P,Q2,4,G*%
%TO.N,/Gate*%
X94472500Y-101270000D03*
D44*
%TO.P,Q2,5,D*%
%TO.N,LED+*%
X94472500Y-104255000D03*
%TO.P,Q2,6,D*%
X93812500Y-104255000D03*
%TO.P,Q2,7,D*%
X93152500Y-104255000D03*
%TO.P,Q2,8,D*%
X92487500Y-104255000D03*
D45*
X93480000Y-103262500D03*
%TD*%
D46*
%TO.P,L1,1,1*%
%TO.N,GND*%
X97075000Y-82150000D03*
%TO.P,L1,2,2*%
%TO.N,/PowerIn*%
X96975000Y-91850000D03*
%TD*%
D47*
%TO.N,GND*%
X85275000Y-75875000D03*
X86525000Y-98550000D03*
X88750000Y-75850000D03*
X80250000Y-83850000D03*
X85650000Y-97400000D03*
X81550000Y-75875000D03*
%TO.N,/Freq*%
X93275000Y-92250000D03*
X83525000Y-83775000D03*
%TO.N,LED+*%
X100650000Y-96525000D03*
X75425000Y-68350000D03*
X84125000Y-68325000D03*
X91175000Y-103250000D03*
X93500000Y-98425000D03*
X103975000Y-96600000D03*
X104000000Y-95100000D03*
X79850000Y-68375000D03*
X77700000Y-68375000D03*
X82050000Y-68350000D03*
X94900000Y-98450000D03*
X86325000Y-68350000D03*
X73025000Y-68375000D03*
X92275000Y-98425000D03*
X100650000Y-95075000D03*
%TO.N,FAULT*%
X86275000Y-83050000D03*
%TO.N,CHRG*%
X87650000Y-83050000D03*
%TO.N,BAT+*%
X90500000Y-88125000D03*
X102025000Y-75700000D03*
X105850000Y-77900000D03*
X103925000Y-77875000D03*
X102050000Y-77925000D03*
X90500000Y-87000000D03*
X105725000Y-79975000D03*
X103975000Y-79900000D03*
X103900000Y-75750000D03*
X102125000Y-79950000D03*
X105700000Y-75750000D03*
%TO.N,/Inductor*%
X81875000Y-96550000D03*
X83225000Y-96550000D03*
X89750000Y-90375000D03*
X80475000Y-96550000D03*
%TO.N,/PowerIn*%
X79625000Y-86525000D03*
%TD*%
D48*
%TO.N,GND*%
X80250000Y-83350000D02*
X80250000Y-83850000D01*
X85825000Y-92125000D02*
X85825000Y-95425000D01*
X86000000Y-90250000D02*
X85825000Y-90425000D01*
X85825000Y-90425000D02*
X85825000Y-92125000D01*
D49*
X101275000Y-91925000D02*
X110075000Y-91925000D01*
X110075000Y-91925000D02*
X110825000Y-92675000D01*
X110825000Y-92675000D02*
X110825000Y-96780000D01*
D48*
X77275000Y-81625000D02*
X78525000Y-81625000D01*
X86000000Y-89100000D02*
X86000000Y-90250000D01*
X110825000Y-96780000D02*
X110800000Y-96805000D01*
X78525000Y-81625000D02*
X80250000Y-83350000D01*
X85825000Y-95425000D02*
X85700000Y-95550000D01*
%TO.N,/Freq*%
X88775000Y-92125000D02*
X88775000Y-90800000D01*
X83525000Y-85025000D02*
X83525000Y-83775000D01*
X87750000Y-90425000D02*
X87300000Y-89975000D01*
X85025000Y-86175000D02*
X84675000Y-86175000D01*
X88775000Y-90800000D02*
X88400000Y-90425000D01*
X88400000Y-90425000D02*
X87750000Y-90425000D01*
X87300000Y-89975000D02*
X87300000Y-89100000D01*
X84675000Y-86175000D02*
X83525000Y-85025000D01*
%TO.N,LED+*%
X86000000Y-84250000D02*
X85300000Y-83550000D01*
X80500000Y-85025000D02*
X80500000Y-86725000D01*
X86000000Y-85200000D02*
X86000000Y-84250000D01*
X81600000Y-80380000D02*
X81600000Y-83750000D01*
X81600000Y-82900000D02*
X81600000Y-80380000D01*
X81575000Y-83775000D02*
X81575000Y-83950000D01*
X81575000Y-82925000D02*
X81575000Y-83775000D01*
X81575000Y-83950000D02*
X80500000Y-85025000D01*
X80500000Y-86725000D02*
X81250000Y-87475000D01*
X81250000Y-87475000D02*
X85025000Y-87475000D01*
X81575000Y-82925000D02*
X81600000Y-82900000D01*
X85300000Y-83550000D02*
X85300000Y-81205000D01*
X81600000Y-83750000D02*
X81575000Y-83775000D01*
%TO.N,FAULT*%
X86650000Y-83425000D02*
X86275000Y-83050000D01*
X86650000Y-85200000D02*
X86650000Y-83425000D01*
%TO.N,Net-(D5-Pad2)*%
X100650000Y-105450000D02*
X100650000Y-101362500D01*
X88065000Y-108325000D02*
X97775000Y-108325000D01*
X97775000Y-108325000D02*
X100650000Y-105450000D01*
%TO.N,CHRG*%
X87300000Y-85200000D02*
X87300000Y-83400000D01*
X87300000Y-83400000D02*
X87650000Y-83050000D01*
%TO.N,Net-(D6-Pad2)*%
X103665000Y-108325000D02*
X103665000Y-105235000D01*
X103665000Y-105235000D02*
X104075000Y-104825000D01*
X104075000Y-104825000D02*
X104075000Y-101362500D01*
%TO.N,BAT+*%
X90025000Y-87475000D02*
X90500000Y-87000000D01*
X88925000Y-88125000D02*
X90500000Y-88125000D01*
X88925000Y-87475000D02*
X90025000Y-87475000D01*
%TO.N,NTC*%
X88925000Y-86175000D02*
X90725000Y-86175000D01*
X90725000Y-86175000D02*
X91500000Y-86950000D01*
X91400000Y-89437500D02*
X91412500Y-89425000D01*
X91500000Y-89462500D02*
X91425000Y-89537500D01*
X91500000Y-86950000D02*
X91500000Y-89462500D01*
D50*
X91412500Y-89425000D02*
X101275000Y-89425000D01*
D48*
%TO.N,Net-(R1-Pad1)*%
X87950000Y-85200000D02*
X87950000Y-84175000D01*
X88850000Y-83275000D02*
X88850000Y-81212500D01*
X87950000Y-84175000D02*
X88850000Y-83275000D01*
%TO.N,/DHC*%
X87600000Y-95550000D02*
X87600000Y-93000000D01*
X86650000Y-90200000D02*
X86650000Y-89100000D01*
X87250000Y-90800000D02*
X86650000Y-90200000D01*
X87600000Y-93000000D02*
X87250000Y-92650000D01*
X87250000Y-92650000D02*
X87250000Y-90800000D01*
D50*
%TO.N,/Gate*%
X97400000Y-105725000D02*
X96575000Y-106550000D01*
X96575000Y-106550000D02*
X95012500Y-106550000D01*
X97400000Y-101725000D02*
X97400000Y-105725000D01*
D48*
%TO.N,/SwitchNode*%
X84500000Y-88125000D02*
X83600000Y-89025000D01*
X83600000Y-89025000D02*
X82100000Y-89025000D01*
X85025000Y-88125000D02*
X84500000Y-88125000D01*
%TO.N,/BoostCap*%
X83575000Y-86050000D02*
X82125000Y-86050000D01*
X84350000Y-86825000D02*
X83575000Y-86050000D01*
X85025000Y-86825000D02*
X84350000Y-86825000D01*
X82125000Y-86050000D02*
X82100000Y-86075000D01*
%TO.N,/Inductor*%
X87950000Y-89850000D02*
X88075000Y-89975000D01*
X88075000Y-89975000D02*
X89350000Y-89975000D01*
X87950000Y-89100000D02*
X87950000Y-89850000D01*
X89350000Y-89975000D02*
X89750000Y-90375000D01*
%TO.N,/PowerIn*%
X79025000Y-84975000D02*
X77475000Y-84975000D01*
X79625000Y-86525000D02*
X79625000Y-85575000D01*
X79625000Y-85575000D02*
X79025000Y-84975000D01*
X77475000Y-84975000D02*
X77425000Y-85025000D01*
%TD*%
%TA.AperFunction,Conductor*%
%TO.N,LED+*%
G36*
X105517132Y-94145002D02*
G01*
X105563625Y-94198658D01*
X105575011Y-94250989D01*
X105575448Y-99254089D01*
X105555452Y-99322211D01*
X105501800Y-99368709D01*
X105450519Y-99380095D01*
X98525118Y-99438965D01*
X98523548Y-99438969D01*
X98141235Y-99437454D01*
X91324366Y-99410437D01*
X91256327Y-99390165D01*
X91210047Y-99336326D01*
X91198867Y-99284410D01*
X91199972Y-94250972D01*
X91219989Y-94182856D01*
X91273655Y-94136375D01*
X91325972Y-94125000D01*
X105449011Y-94125000D01*
X105517132Y-94145002D01*
G37*
%TD.AperFunction*%
%TD*%
%TA.AperFunction,Conductor*%
%TO.N,GND*%
G36*
X107700000Y-73811500D02*
G01*
X101351000Y-73811500D01*
X101347654Y-73811860D01*
X101347649Y-73811860D01*
X101245215Y-73822872D01*
X101245208Y-73822873D01*
X101241851Y-73823234D01*
X101238551Y-73823952D01*
X101238550Y-73823952D01*
X101192790Y-73833906D01*
X101192785Y-73833907D01*
X101189509Y-73834620D01*
X101085343Y-73869290D01*
X100962388Y-73948308D01*
X100908732Y-73994801D01*
X100905792Y-73998194D01*
X100818919Y-74098450D01*
X100818917Y-74098453D01*
X100813018Y-74105261D01*
X100752302Y-74238210D01*
X100732300Y-74306331D01*
X100711500Y-74451000D01*
X100711500Y-80949000D01*
X100723234Y-81058149D01*
X100723952Y-81061449D01*
X100723952Y-81061450D01*
X100730961Y-81093669D01*
X100734620Y-81110491D01*
X100769290Y-81214657D01*
X100848308Y-81337612D01*
X100894801Y-81391268D01*
X100898194Y-81394208D01*
X100998450Y-81481081D01*
X100998453Y-81481083D01*
X101005261Y-81486982D01*
X101138210Y-81547698D01*
X101161964Y-81554673D01*
X101202008Y-81566431D01*
X101202012Y-81566432D01*
X101206331Y-81567700D01*
X101210780Y-81568340D01*
X101210786Y-81568341D01*
X101346553Y-81587861D01*
X101346558Y-81587861D01*
X101351000Y-81588500D01*
X107700000Y-81588500D01*
X107700000Y-88250000D01*
X102140339Y-88250000D01*
X102078007Y-88233502D01*
X102074482Y-88231495D01*
X101996886Y-88187325D01*
X101780175Y-88108663D01*
X101774926Y-88107714D01*
X101774923Y-88107713D01*
X101557392Y-88068377D01*
X101557385Y-88068376D01*
X101553308Y-88067639D01*
X101535586Y-88066803D01*
X101530644Y-88066570D01*
X101530637Y-88066570D01*
X101529156Y-88066500D01*
X101067110Y-88066500D01*
X101000191Y-88072178D01*
X100900591Y-88080629D01*
X100900587Y-88080630D01*
X100895280Y-88081080D01*
X100890125Y-88082418D01*
X100890119Y-88082419D01*
X100677297Y-88137657D01*
X100677293Y-88137658D01*
X100672128Y-88138999D01*
X100667262Y-88141191D01*
X100667259Y-88141192D01*
X100466793Y-88231495D01*
X100461925Y-88233688D01*
X100460816Y-88234434D01*
X100400843Y-88250000D01*
X92259500Y-88250000D01*
X92191379Y-88229998D01*
X92144886Y-88176342D01*
X92133500Y-88124000D01*
X92133500Y-87028768D01*
X92134027Y-87017585D01*
X92135702Y-87010092D01*
X92133562Y-86942001D01*
X92133500Y-86938044D01*
X92133500Y-86910144D01*
X92132996Y-86906153D01*
X92132063Y-86894311D01*
X92130923Y-86858036D01*
X92130674Y-86850111D01*
X92125021Y-86830652D01*
X92121012Y-86811293D01*
X92120846Y-86809983D01*
X92118474Y-86791203D01*
X92115558Y-86783837D01*
X92115556Y-86783831D01*
X92102200Y-86750098D01*
X92098355Y-86738868D01*
X92088230Y-86704017D01*
X92088230Y-86704016D01*
X92086019Y-86696407D01*
X92075705Y-86678966D01*
X92067008Y-86661213D01*
X92062472Y-86649758D01*
X92059552Y-86642383D01*
X92033563Y-86606612D01*
X92027047Y-86596692D01*
X92008578Y-86565463D01*
X92004542Y-86558638D01*
X91990221Y-86544317D01*
X91977380Y-86529283D01*
X91970131Y-86519306D01*
X91965472Y-86512893D01*
X91959367Y-86507842D01*
X91959362Y-86507837D01*
X91931396Y-86484701D01*
X91922618Y-86476713D01*
X91228652Y-85782747D01*
X91221112Y-85774461D01*
X91217000Y-85767982D01*
X91167348Y-85721356D01*
X91164507Y-85718602D01*
X91144770Y-85698865D01*
X91141573Y-85696385D01*
X91132551Y-85688680D01*
X91106100Y-85663841D01*
X91100321Y-85658414D01*
X91093375Y-85654595D01*
X91093372Y-85654593D01*
X91082566Y-85648652D01*
X91066047Y-85637801D01*
X91065583Y-85637441D01*
X91050041Y-85625386D01*
X91042772Y-85622241D01*
X91042768Y-85622238D01*
X91009463Y-85607826D01*
X90998813Y-85602609D01*
X90960060Y-85581305D01*
X90940437Y-85576267D01*
X90921734Y-85569863D01*
X90910420Y-85564967D01*
X90910419Y-85564967D01*
X90903145Y-85561819D01*
X90895322Y-85560580D01*
X90895312Y-85560577D01*
X90859476Y-85554901D01*
X90847856Y-85552495D01*
X90812711Y-85543472D01*
X90812710Y-85543472D01*
X90805030Y-85541500D01*
X90784776Y-85541500D01*
X90765065Y-85539949D01*
X90752886Y-85538020D01*
X90745057Y-85536780D01*
X90737165Y-85537526D01*
X90701039Y-85540941D01*
X90689181Y-85541500D01*
X89476485Y-85541500D01*
X89443440Y-85534930D01*
X89442934Y-85536817D01*
X89434949Y-85534678D01*
X89427324Y-85531519D01*
X89419140Y-85530442D01*
X89419138Y-85530441D01*
X89317331Y-85517038D01*
X89317330Y-85517038D01*
X89313244Y-85516500D01*
X88734500Y-85516500D01*
X88666379Y-85496498D01*
X88619886Y-85442842D01*
X88608500Y-85390500D01*
X88608500Y-84811756D01*
X88593481Y-84697676D01*
X88590322Y-84690051D01*
X88588183Y-84682066D01*
X88590070Y-84681560D01*
X88583500Y-84648515D01*
X88583500Y-84489594D01*
X88603502Y-84421473D01*
X88620405Y-84400499D01*
X89242247Y-83778657D01*
X89250537Y-83771113D01*
X89257018Y-83767000D01*
X89303659Y-83717332D01*
X89306413Y-83714491D01*
X89326134Y-83694770D01*
X89328612Y-83691575D01*
X89336318Y-83682553D01*
X89361158Y-83656101D01*
X89366586Y-83650321D01*
X89376346Y-83632568D01*
X89387199Y-83616045D01*
X89394753Y-83606306D01*
X89399613Y-83600041D01*
X89417176Y-83559457D01*
X89422383Y-83548827D01*
X89443695Y-83510060D01*
X89445666Y-83502383D01*
X89445668Y-83502378D01*
X89448732Y-83490442D01*
X89455138Y-83471730D01*
X89460033Y-83460419D01*
X89463181Y-83453145D01*
X89464421Y-83445317D01*
X89464423Y-83445310D01*
X89470099Y-83409476D01*
X89472505Y-83397856D01*
X89481528Y-83362711D01*
X89481528Y-83362710D01*
X89483500Y-83355030D01*
X89483500Y-83334776D01*
X89485051Y-83315065D01*
X89486980Y-83302886D01*
X89488220Y-83295057D01*
X89484059Y-83251038D01*
X89483500Y-83239181D01*
X89483500Y-82401450D01*
X89503502Y-82333329D01*
X89557158Y-82286836D01*
X89596496Y-82276123D01*
X89604135Y-82275331D01*
X89624308Y-82273238D01*
X89624312Y-82273237D01*
X89631166Y-82272526D01*
X89637702Y-82270345D01*
X89637704Y-82270345D01*
X89791998Y-82218868D01*
X89798946Y-82216550D01*
X89949348Y-82123478D01*
X90074305Y-81998303D01*
X90167115Y-81847738D01*
X90222797Y-81679861D01*
X90233500Y-81575400D01*
X90233500Y-80849600D01*
X90222526Y-80743834D01*
X90166550Y-80576054D01*
X90073478Y-80425652D01*
X89948303Y-80300695D01*
X89797738Y-80207885D01*
X89717995Y-80181436D01*
X89636389Y-80154368D01*
X89636387Y-80154368D01*
X89629861Y-80152203D01*
X89623025Y-80151503D01*
X89623022Y-80151502D01*
X89579969Y-80147091D01*
X89525400Y-80141500D01*
X88174600Y-80141500D01*
X88171354Y-80141837D01*
X88171350Y-80141837D01*
X88075692Y-80151762D01*
X88075688Y-80151763D01*
X88068834Y-80152474D01*
X88062298Y-80154655D01*
X88062296Y-80154655D01*
X88015876Y-80170142D01*
X87944926Y-80172726D01*
X87883842Y-80136542D01*
X87852018Y-80073078D01*
X87850000Y-80050618D01*
X87850000Y-79700000D01*
X100500000Y-79700000D01*
X100500000Y-73175000D01*
X87850000Y-73175000D01*
X87850000Y-60926000D01*
X87870002Y-60857879D01*
X87923658Y-60811386D01*
X87976000Y-60800000D01*
X107700000Y-60800000D01*
X107700000Y-73811500D01*
G37*
%TD.AperFunction*%
%TD*%
%TA.AperFunction,Conductor*%
%TO.N,GND*%
G36*
X78842121Y-87995002D02*
G01*
X78888614Y-88048658D01*
X78900000Y-88101000D01*
X78900000Y-112775000D01*
X65851000Y-112775000D01*
X65782879Y-112754998D01*
X65736386Y-112701342D01*
X65725000Y-112649000D01*
X65725000Y-88101000D01*
X65745002Y-88032879D01*
X65798658Y-87986386D01*
X65851000Y-87975000D01*
X78774000Y-87975000D01*
X78842121Y-87995002D01*
G37*
%TD.AperFunction*%
%TD*%
%TA.AperFunction,Conductor*%
%TO.N,GND*%
G36*
X86503621Y-101270002D02*
G01*
X86550114Y-101323658D01*
X86561500Y-101376000D01*
X86561500Y-106790500D01*
X86541498Y-106858621D01*
X86487842Y-106905114D01*
X86435500Y-106916500D01*
X84576866Y-106916500D01*
X84514684Y-106923255D01*
X84378295Y-106974385D01*
X84261739Y-107061739D01*
X84174385Y-107178295D01*
X84123255Y-107314684D01*
X84116500Y-107376866D01*
X84116500Y-109273134D01*
X84123255Y-109335316D01*
X84174385Y-109471705D01*
X84261739Y-109588261D01*
X84378295Y-109675615D01*
X84514684Y-109726745D01*
X84576866Y-109733500D01*
X86473134Y-109733500D01*
X86535316Y-109726745D01*
X86671705Y-109675615D01*
X86788261Y-109588261D01*
X86875615Y-109471705D01*
X86900180Y-109406178D01*
X86942822Y-109349414D01*
X87009383Y-109324714D01*
X87078732Y-109339921D01*
X87098647Y-109353464D01*
X87163724Y-109407492D01*
X87254349Y-109482730D01*
X87454322Y-109599584D01*
X87670694Y-109682209D01*
X87675760Y-109683240D01*
X87675761Y-109683240D01*
X87728846Y-109694040D01*
X87897656Y-109728385D01*
X88027089Y-109733131D01*
X88123949Y-109736683D01*
X88123953Y-109736683D01*
X88129113Y-109736872D01*
X88134233Y-109736216D01*
X88134235Y-109736216D01*
X88208166Y-109726745D01*
X88358847Y-109707442D01*
X88363795Y-109705957D01*
X88363802Y-109705956D01*
X88575747Y-109642369D01*
X88580690Y-109640886D01*
X88661236Y-109601427D01*
X88784049Y-109541262D01*
X88784052Y-109541260D01*
X88788684Y-109538991D01*
X88977243Y-109404494D01*
X89141303Y-109241005D01*
X89276458Y-109052917D01*
X89288440Y-109028672D01*
X89336553Y-108976466D01*
X89401397Y-108958500D01*
X97696233Y-108958500D01*
X97707416Y-108959027D01*
X97714909Y-108960702D01*
X97722835Y-108960453D01*
X97722836Y-108960453D01*
X97782986Y-108958562D01*
X97786945Y-108958500D01*
X97814856Y-108958500D01*
X97818791Y-108958003D01*
X97818856Y-108957995D01*
X97830693Y-108957062D01*
X97862951Y-108956048D01*
X97866970Y-108955922D01*
X97874889Y-108955673D01*
X97894343Y-108950021D01*
X97913700Y-108946013D01*
X97925930Y-108944468D01*
X97925931Y-108944468D01*
X97933797Y-108943474D01*
X97941168Y-108940555D01*
X97941170Y-108940555D01*
X97974912Y-108927196D01*
X97986142Y-108923351D01*
X98020983Y-108913229D01*
X98020984Y-108913229D01*
X98028593Y-108911018D01*
X98035412Y-108906985D01*
X98035417Y-108906983D01*
X98046028Y-108900707D01*
X98063776Y-108892012D01*
X98082617Y-108884552D01*
X98118387Y-108858564D01*
X98128307Y-108852048D01*
X98159535Y-108833580D01*
X98159538Y-108833578D01*
X98166362Y-108829542D01*
X98180683Y-108815221D01*
X98195717Y-108802380D01*
X98205694Y-108795131D01*
X98212107Y-108790472D01*
X98240298Y-108756395D01*
X98248288Y-108747616D01*
X99501405Y-107494499D01*
X99563717Y-107460473D01*
X99634532Y-107465538D01*
X99691368Y-107508085D01*
X99716179Y-107574605D01*
X99716500Y-107583594D01*
X99716500Y-109273134D01*
X99723255Y-109335316D01*
X99774385Y-109471705D01*
X99861739Y-109588261D01*
X99978295Y-109675615D01*
X100114684Y-109726745D01*
X100176866Y-109733500D01*
X102073134Y-109733500D01*
X102135316Y-109726745D01*
X102271705Y-109675615D01*
X102388261Y-109588261D01*
X102475615Y-109471705D01*
X102500180Y-109406178D01*
X102542822Y-109349414D01*
X102609383Y-109324714D01*
X102678732Y-109339921D01*
X102698647Y-109353464D01*
X102763724Y-109407492D01*
X102854349Y-109482730D01*
X103054322Y-109599584D01*
X103270694Y-109682209D01*
X103275760Y-109683240D01*
X103275761Y-109683240D01*
X103328846Y-109694040D01*
X103497656Y-109728385D01*
X103627089Y-109733131D01*
X103723949Y-109736683D01*
X103723953Y-109736683D01*
X103729113Y-109736872D01*
X103734233Y-109736216D01*
X103734235Y-109736216D01*
X103808166Y-109726745D01*
X103958847Y-109707442D01*
X103963795Y-109705957D01*
X103963802Y-109705956D01*
X104175747Y-109642369D01*
X104180690Y-109640886D01*
X104261236Y-109601427D01*
X104384049Y-109541262D01*
X104384052Y-109541260D01*
X104388684Y-109538991D01*
X104577243Y-109404494D01*
X104741303Y-109241005D01*
X104876458Y-109052917D01*
X104922157Y-108960453D01*
X104976784Y-108849922D01*
X104976785Y-108849920D01*
X104979078Y-108845280D01*
X105046408Y-108623671D01*
X105076640Y-108394041D01*
X105078327Y-108325000D01*
X105072032Y-108248434D01*
X105059773Y-108099318D01*
X105059772Y-108099312D01*
X105059349Y-108094167D01*
X105002925Y-107869533D01*
X104925514Y-107691500D01*
X104912630Y-107661868D01*
X104912628Y-107661865D01*
X104910570Y-107657131D01*
X104784764Y-107462665D01*
X104766840Y-107442966D01*
X104653481Y-107318387D01*
X104628887Y-107291358D01*
X104624836Y-107288159D01*
X104624832Y-107288155D01*
X104451178Y-107151012D01*
X104451175Y-107151010D01*
X104447123Y-107147810D01*
X104363607Y-107101707D01*
X104313636Y-107051274D01*
X104298500Y-106991398D01*
X104298500Y-105549594D01*
X104318502Y-105481473D01*
X104335405Y-105460499D01*
X104467247Y-105328657D01*
X104475537Y-105321113D01*
X104482018Y-105317000D01*
X104528659Y-105267332D01*
X104531413Y-105264491D01*
X104551135Y-105244769D01*
X104553612Y-105241576D01*
X104561317Y-105232555D01*
X104586159Y-105206100D01*
X104591586Y-105200321D01*
X104595407Y-105193371D01*
X104601346Y-105182568D01*
X104612202Y-105166041D01*
X104619757Y-105156302D01*
X104619758Y-105156300D01*
X104624614Y-105150040D01*
X104642174Y-105109460D01*
X104647391Y-105098812D01*
X104664875Y-105067009D01*
X104664876Y-105067007D01*
X104668695Y-105060060D01*
X104673733Y-105040437D01*
X104680137Y-105021734D01*
X104685033Y-105010420D01*
X104685033Y-105010419D01*
X104688181Y-105003145D01*
X104689420Y-104995322D01*
X104689423Y-104995312D01*
X104695099Y-104959476D01*
X104697505Y-104947856D01*
X104706528Y-104912711D01*
X104706528Y-104912710D01*
X104708500Y-104905030D01*
X104708500Y-104884776D01*
X104710051Y-104865065D01*
X104711980Y-104852886D01*
X104713220Y-104845057D01*
X104709059Y-104801038D01*
X104708500Y-104789181D01*
X104708500Y-102551450D01*
X104728502Y-102483329D01*
X104782158Y-102436836D01*
X104821496Y-102426123D01*
X104829135Y-102425331D01*
X104849308Y-102423238D01*
X104849312Y-102423237D01*
X104856166Y-102422526D01*
X104862702Y-102420345D01*
X104862704Y-102420345D01*
X104994806Y-102376272D01*
X105023946Y-102366550D01*
X105174348Y-102273478D01*
X105299305Y-102148303D01*
X105303146Y-102142072D01*
X105388275Y-102003968D01*
X105388276Y-102003966D01*
X105392115Y-101997738D01*
X105447797Y-101829861D01*
X105458500Y-101725400D01*
X105458500Y-101376000D01*
X105478502Y-101307879D01*
X105532158Y-101261386D01*
X105584500Y-101250000D01*
X108225000Y-101250000D01*
X108225000Y-112800000D01*
X72643053Y-112800000D01*
X72575000Y-112780018D01*
X72575000Y-101250000D01*
X86435500Y-101250000D01*
X86503621Y-101270002D01*
G37*
%TD.AperFunction*%
%TD*%
%TA.AperFunction,Conductor*%
%TO.N,/CellTie*%
G36*
X202217121Y-74320002D02*
G01*
X202263614Y-74373658D01*
X202275000Y-74426000D01*
X202275000Y-100049000D01*
X202254998Y-100117121D01*
X202201342Y-100163614D01*
X202149000Y-100175000D01*
X194626000Y-100175000D01*
X194557879Y-100154998D01*
X194511386Y-100101342D01*
X194500000Y-100049000D01*
X194500000Y-74426000D01*
X194520002Y-74357879D01*
X194573658Y-74311386D01*
X194626000Y-74300000D01*
X202149000Y-74300000D01*
X202217121Y-74320002D01*
G37*
%TD.AperFunction*%
%TD*%
%TA.AperFunction,Conductor*%
%TO.N,LED+*%
G36*
X93692121Y-102420002D02*
G01*
X93738614Y-102473658D01*
X93750000Y-102526000D01*
X93750000Y-103999000D01*
X93729998Y-104067121D01*
X93676342Y-104113614D01*
X93624000Y-104125000D01*
X90376000Y-104125000D01*
X90307879Y-104104998D01*
X90261386Y-104051342D01*
X90250000Y-103999000D01*
X90250000Y-102526000D01*
X90270002Y-102457879D01*
X90323658Y-102411386D01*
X90376000Y-102400000D01*
X93624000Y-102400000D01*
X93692121Y-102420002D01*
G37*
%TD.AperFunction*%
%TD*%
%TA.AperFunction,Conductor*%
%TO.N,/DHC*%
G36*
X90517121Y-94120002D02*
G01*
X90563614Y-94173658D01*
X90575000Y-94226000D01*
X90575000Y-96475000D01*
X87226000Y-96475000D01*
X87157879Y-96454998D01*
X87111386Y-96401342D01*
X87100000Y-96349000D01*
X87100000Y-94226000D01*
X87120002Y-94157879D01*
X87173658Y-94111386D01*
X87226000Y-94100000D01*
X90449000Y-94100000D01*
X90517121Y-94120002D01*
G37*
%TD.AperFunction*%
%TD*%
%TA.AperFunction,Conductor*%
%TO.N,/SwitchNode*%
G36*
X83967121Y-88270002D02*
G01*
X84013614Y-88323658D01*
X84025000Y-88376000D01*
X84025000Y-92599000D01*
X84004998Y-92667121D01*
X83951342Y-92713614D01*
X83899000Y-92725000D01*
X79726000Y-92725000D01*
X79657879Y-92704998D01*
X79611386Y-92651342D01*
X79600000Y-92599000D01*
X79600000Y-88376000D01*
X79620002Y-88307879D01*
X79673658Y-88261386D01*
X79726000Y-88250000D01*
X83899000Y-88250000D01*
X83967121Y-88270002D01*
G37*
%TD.AperFunction*%
%TD*%
%TA.AperFunction,Conductor*%
%TO.N,GND*%
G36*
X100500000Y-79700000D02*
G01*
X82984500Y-79700000D01*
X82916379Y-79679998D01*
X82869886Y-79626342D01*
X82858500Y-79574000D01*
X82858500Y-79131866D01*
X82851745Y-79069684D01*
X82800615Y-78933295D01*
X82713261Y-78816739D01*
X82596705Y-78729385D01*
X82460316Y-78678255D01*
X82398134Y-78671500D01*
X80801866Y-78671500D01*
X80739684Y-78678255D01*
X80603295Y-78729385D01*
X80486739Y-78816739D01*
X80399385Y-78933295D01*
X80348255Y-79069684D01*
X80341500Y-79131866D01*
X80341500Y-79574000D01*
X80321498Y-79642121D01*
X80267842Y-79688614D01*
X80215500Y-79700000D01*
X80176000Y-79700000D01*
X80107879Y-79679998D01*
X80061386Y-79626342D01*
X80050000Y-79574000D01*
X80050000Y-73301000D01*
X80070002Y-73232879D01*
X80123658Y-73186386D01*
X80176000Y-73175000D01*
X100500000Y-73175000D01*
X100500000Y-79700000D01*
G37*
%TD.AperFunction*%
%TD*%
%TA.AperFunction,Conductor*%
%TO.N,/Freq*%
G36*
X89127474Y-91045002D02*
G01*
X89138009Y-91053046D01*
X89138747Y-91053866D01*
X89144089Y-91057747D01*
X89144091Y-91057749D01*
X89272440Y-91151000D01*
X89293248Y-91166118D01*
X89299276Y-91168802D01*
X89299278Y-91168803D01*
X89461681Y-91241109D01*
X89467712Y-91243794D01*
X89561112Y-91263647D01*
X89648056Y-91282128D01*
X89648061Y-91282128D01*
X89654513Y-91283500D01*
X89845487Y-91283500D01*
X89851939Y-91282128D01*
X89851944Y-91282128D01*
X89938888Y-91263647D01*
X90032288Y-91243794D01*
X90038319Y-91241109D01*
X90200722Y-91168803D01*
X90200724Y-91168802D01*
X90206752Y-91166118D01*
X90227560Y-91151000D01*
X90355909Y-91057749D01*
X90355911Y-91057747D01*
X90356634Y-91057222D01*
X90356636Y-91057221D01*
X90361253Y-91053866D01*
X90361866Y-91054710D01*
X90420342Y-91026647D01*
X90440647Y-91025000D01*
X93899000Y-91025000D01*
X93967121Y-91045002D01*
X94013614Y-91098658D01*
X94025000Y-91151000D01*
X94025000Y-93449000D01*
X94004998Y-93517121D01*
X93951342Y-93563614D01*
X93899000Y-93575000D01*
X88359500Y-93575000D01*
X88291379Y-93554998D01*
X88244886Y-93501342D01*
X88233500Y-93449000D01*
X88233500Y-93078768D01*
X88234027Y-93067585D01*
X88235702Y-93060092D01*
X88233562Y-92992001D01*
X88233500Y-92988044D01*
X88233500Y-92960144D01*
X88232996Y-92956153D01*
X88232063Y-92944311D01*
X88230923Y-92908036D01*
X88230674Y-92900111D01*
X88228462Y-92892497D01*
X88228461Y-92892492D01*
X88225023Y-92880659D01*
X88221012Y-92861295D01*
X88219467Y-92849064D01*
X88218474Y-92841203D01*
X88215557Y-92833836D01*
X88215556Y-92833831D01*
X88202198Y-92800092D01*
X88198354Y-92788865D01*
X88188230Y-92754022D01*
X88186018Y-92746407D01*
X88175707Y-92728972D01*
X88167012Y-92711224D01*
X88159552Y-92692383D01*
X88133564Y-92656613D01*
X88127048Y-92646693D01*
X88108578Y-92615463D01*
X88104542Y-92608638D01*
X88098936Y-92603031D01*
X88090220Y-92594315D01*
X88077379Y-92579281D01*
X88070131Y-92569305D01*
X88070130Y-92569304D01*
X88065472Y-92562893D01*
X88045685Y-92546524D01*
X88005947Y-92487691D01*
X88000000Y-92449439D01*
X88000000Y-91151000D01*
X88020002Y-91082879D01*
X88073658Y-91036386D01*
X88126000Y-91025000D01*
X89059353Y-91025000D01*
X89127474Y-91045002D01*
G37*
%TD.AperFunction*%
%TD*%
%TA.AperFunction,Conductor*%
%TO.N,/PowerNode*%
G36*
X77842121Y-72320002D02*
G01*
X77888614Y-72373658D01*
X77900000Y-72426000D01*
X77900000Y-76790500D01*
X77879998Y-76858621D01*
X77826342Y-76905114D01*
X77774000Y-76916500D01*
X75351866Y-76916500D01*
X75289684Y-76923255D01*
X75153295Y-76974385D01*
X75036739Y-77061739D01*
X74949385Y-77178295D01*
X74898255Y-77314684D01*
X74891500Y-77376866D01*
X74891500Y-78973134D01*
X74898255Y-79035316D01*
X74949385Y-79171705D01*
X75036739Y-79288261D01*
X75153295Y-79375615D01*
X75289684Y-79426745D01*
X75351866Y-79433500D01*
X77774000Y-79433500D01*
X77842121Y-79453502D01*
X77888614Y-79507158D01*
X77900000Y-79559500D01*
X77900000Y-80240500D01*
X77879998Y-80308621D01*
X77826342Y-80355114D01*
X77774000Y-80366500D01*
X76701866Y-80366500D01*
X76639684Y-80373255D01*
X76503295Y-80424385D01*
X76386739Y-80511739D01*
X76299385Y-80628295D01*
X76248255Y-80764684D01*
X76241500Y-80826866D01*
X76241500Y-82423134D01*
X76248255Y-82485316D01*
X76299385Y-82621705D01*
X76386739Y-82738261D01*
X76503295Y-82825615D01*
X76639684Y-82876745D01*
X76701866Y-82883500D01*
X77774000Y-82883500D01*
X77842121Y-82903502D01*
X77888614Y-82957158D01*
X77900000Y-83009500D01*
X77900000Y-83490500D01*
X77879998Y-83558621D01*
X77826342Y-83605114D01*
X77774000Y-83616500D01*
X77049600Y-83616500D01*
X77046354Y-83616837D01*
X77046350Y-83616837D01*
X76950692Y-83626762D01*
X76950688Y-83626763D01*
X76943834Y-83627474D01*
X76937298Y-83629655D01*
X76937296Y-83629655D01*
X76805194Y-83673728D01*
X76776054Y-83683450D01*
X76625652Y-83776522D01*
X76500695Y-83901697D01*
X76496855Y-83907927D01*
X76496854Y-83907928D01*
X76462796Y-83963181D01*
X76407885Y-84052262D01*
X76352203Y-84220139D01*
X76341500Y-84324600D01*
X76341500Y-85725400D01*
X76352474Y-85831166D01*
X76408450Y-85998946D01*
X76501522Y-86149348D01*
X76626697Y-86274305D01*
X76777262Y-86367115D01*
X76857005Y-86393564D01*
X76938611Y-86420632D01*
X76938613Y-86420632D01*
X76945139Y-86422797D01*
X76951975Y-86423497D01*
X76951978Y-86423498D01*
X76995031Y-86427909D01*
X77049600Y-86433500D01*
X77774000Y-86433500D01*
X77842121Y-86453502D01*
X77888614Y-86507158D01*
X77900000Y-86559500D01*
X77900000Y-87224000D01*
X77879998Y-87292121D01*
X77826342Y-87338614D01*
X77774000Y-87350000D01*
X65826000Y-87350000D01*
X65757879Y-87329998D01*
X65711386Y-87276342D01*
X65700000Y-87224000D01*
X65700000Y-72426000D01*
X65720002Y-72357879D01*
X65773658Y-72311386D01*
X65826000Y-72300000D01*
X77774000Y-72300000D01*
X77842121Y-72320002D01*
G37*
%TD.AperFunction*%
%TD*%
%TA.AperFunction,Conductor*%
%TO.N,GND*%
G36*
X206317121Y-60820002D02*
G01*
X206363614Y-60873658D01*
X206375000Y-60926000D01*
X206375000Y-112774000D01*
X206354998Y-112842121D01*
X206301342Y-112888614D01*
X206249000Y-112900000D01*
X107026000Y-112900000D01*
X106957879Y-112879998D01*
X106911386Y-112826342D01*
X106900000Y-112774000D01*
X106900000Y-100049000D01*
X193986500Y-100049000D01*
X193998234Y-100158149D01*
X193998952Y-100161449D01*
X193998952Y-100161450D01*
X194005961Y-100193669D01*
X194009620Y-100210491D01*
X194044290Y-100314657D01*
X194123308Y-100437612D01*
X194169801Y-100491268D01*
X194173194Y-100494208D01*
X194273450Y-100581081D01*
X194273453Y-100581083D01*
X194280261Y-100586982D01*
X194413210Y-100647698D01*
X194436964Y-100654673D01*
X194477008Y-100666431D01*
X194477012Y-100666432D01*
X194481331Y-100667700D01*
X194485780Y-100668340D01*
X194485786Y-100668341D01*
X194621553Y-100687861D01*
X194621558Y-100687861D01*
X194626000Y-100688500D01*
X202149000Y-100688500D01*
X202152346Y-100688140D01*
X202152351Y-100688140D01*
X202254785Y-100677128D01*
X202254792Y-100677127D01*
X202258149Y-100676766D01*
X202261450Y-100676048D01*
X202307210Y-100666094D01*
X202307215Y-100666093D01*
X202310491Y-100665380D01*
X202414657Y-100630710D01*
X202537612Y-100551692D01*
X202591268Y-100505199D01*
X202646888Y-100441010D01*
X202681081Y-100401550D01*
X202681083Y-100401547D01*
X202686982Y-100394739D01*
X202747698Y-100261790D01*
X202767700Y-100193669D01*
X202772333Y-100161450D01*
X202787861Y-100053447D01*
X202787861Y-100053442D01*
X202788500Y-100049000D01*
X202788500Y-74426000D01*
X202788022Y-74421553D01*
X202777128Y-74320215D01*
X202777127Y-74320208D01*
X202776766Y-74316851D01*
X202770818Y-74289509D01*
X202766094Y-74267790D01*
X202766093Y-74267785D01*
X202765380Y-74264509D01*
X202730710Y-74160343D01*
X202651692Y-74037388D01*
X202605199Y-73983732D01*
X202595933Y-73975703D01*
X202501550Y-73893919D01*
X202501547Y-73893917D01*
X202494739Y-73888018D01*
X202361790Y-73827302D01*
X202338036Y-73820327D01*
X202297992Y-73808569D01*
X202297988Y-73808568D01*
X202293669Y-73807300D01*
X202289220Y-73806660D01*
X202289214Y-73806659D01*
X202153447Y-73787139D01*
X202153442Y-73787139D01*
X202149000Y-73786500D01*
X194626000Y-73786500D01*
X194622654Y-73786860D01*
X194622649Y-73786860D01*
X194520215Y-73797872D01*
X194520208Y-73797873D01*
X194516851Y-73798234D01*
X194513551Y-73798952D01*
X194513550Y-73798952D01*
X194467790Y-73808906D01*
X194467785Y-73808907D01*
X194464509Y-73809620D01*
X194360343Y-73844290D01*
X194237388Y-73923308D01*
X194183732Y-73969801D01*
X194180792Y-73973194D01*
X194093919Y-74073450D01*
X194093917Y-74073453D01*
X194088018Y-74080261D01*
X194027302Y-74213210D01*
X194007300Y-74281331D01*
X194006660Y-74285780D01*
X194006659Y-74285786D01*
X193998115Y-74345215D01*
X193986500Y-74426000D01*
X193986500Y-100049000D01*
X106900000Y-100049000D01*
X106900000Y-81588500D01*
X114574000Y-81588500D01*
X114577346Y-81588140D01*
X114577351Y-81588140D01*
X114679785Y-81577128D01*
X114679792Y-81577127D01*
X114683149Y-81576766D01*
X114686450Y-81576048D01*
X114732210Y-81566094D01*
X114732215Y-81566093D01*
X114735491Y-81565380D01*
X114839657Y-81530710D01*
X114962612Y-81451692D01*
X115016268Y-81405199D01*
X115028339Y-81391268D01*
X115106081Y-81301550D01*
X115106083Y-81301547D01*
X115111982Y-81294739D01*
X115172698Y-81161790D01*
X115192700Y-81093669D01*
X115213500Y-80949000D01*
X115213500Y-74451000D01*
X115211175Y-74429369D01*
X115202128Y-74345215D01*
X115202127Y-74345208D01*
X115201766Y-74341851D01*
X115195610Y-74313550D01*
X115191094Y-74292790D01*
X115191093Y-74292785D01*
X115190380Y-74289509D01*
X115155710Y-74185343D01*
X115076692Y-74062388D01*
X115055030Y-74037388D01*
X115033139Y-74012125D01*
X115030199Y-74008732D01*
X115005263Y-73987125D01*
X114926550Y-73918919D01*
X114926547Y-73918917D01*
X114919739Y-73913018D01*
X114786790Y-73852302D01*
X114763036Y-73845327D01*
X114722992Y-73833569D01*
X114722988Y-73833568D01*
X114718669Y-73832300D01*
X114714220Y-73831660D01*
X114714214Y-73831659D01*
X114578447Y-73812139D01*
X114578442Y-73812139D01*
X114574000Y-73811500D01*
X106900000Y-73811500D01*
X106900000Y-60800000D01*
X206249000Y-60800000D01*
X206317121Y-60820002D01*
G37*
%TD.AperFunction*%
%TD*%
%TA.AperFunction,Conductor*%
%TO.N,/Gate*%
G36*
X98642121Y-100270002D02*
G01*
X98688614Y-100323658D01*
X98700000Y-100376000D01*
X98700000Y-102424000D01*
X98679998Y-102492121D01*
X98626342Y-102538614D01*
X98574000Y-102550000D01*
X95154864Y-102550000D01*
X95086743Y-102529998D01*
X95042597Y-102481202D01*
X94961731Y-102322491D01*
X94961729Y-102322488D01*
X94958732Y-102316606D01*
X94834414Y-102163086D01*
X94680894Y-102038768D01*
X94675012Y-102035771D01*
X94675009Y-102035769D01*
X94563727Y-101979069D01*
X94512111Y-101930321D01*
X94495045Y-101861406D01*
X94499932Y-101831649D01*
X94518985Y-101766070D01*
X94518985Y-101766067D01*
X94520779Y-101759894D01*
X94523500Y-101725322D01*
X94523500Y-100814678D01*
X94520779Y-100780106D01*
X94477798Y-100632164D01*
X94461904Y-100605289D01*
X94403414Y-100506387D01*
X94403412Y-100506384D01*
X94399376Y-100499560D01*
X94364911Y-100465095D01*
X94330885Y-100402783D01*
X94335950Y-100331968D01*
X94378497Y-100275132D01*
X94445017Y-100250321D01*
X94454006Y-100250000D01*
X98574000Y-100250000D01*
X98642121Y-100270002D01*
G37*
%TD.AperFunction*%
%TD*%
%TA.AperFunction,Conductor*%
%TO.N,/DHC*%
G36*
X90575000Y-99199000D02*
G01*
X90554998Y-99267121D01*
X90501342Y-99313614D01*
X90449000Y-99325000D01*
X89401000Y-99325000D01*
X89332879Y-99304998D01*
X89286386Y-99251342D01*
X89275000Y-99199000D01*
X89275000Y-95000000D01*
X90575000Y-95000000D01*
X90575000Y-99199000D01*
G37*
%TD.AperFunction*%
%TD*%
%TA.AperFunction,Conductor*%
%TO.N,BAT+*%
G36*
X114642121Y-74345002D02*
G01*
X114688614Y-74398658D01*
X114700000Y-74451000D01*
X114700000Y-80949000D01*
X114679998Y-81017121D01*
X114626342Y-81063614D01*
X114574000Y-81075000D01*
X101351000Y-81075000D01*
X101282879Y-81054998D01*
X101236386Y-81001342D01*
X101225000Y-80949000D01*
X101225000Y-74451000D01*
X101245002Y-74382879D01*
X101298658Y-74336386D01*
X101351000Y-74325000D01*
X114574000Y-74325000D01*
X114642121Y-74345002D01*
G37*
%TD.AperFunction*%
%TD*%
%TA.AperFunction,Conductor*%
%TO.N,/Inductor*%
G36*
X83967121Y-93845002D02*
G01*
X84013614Y-93898658D01*
X84025000Y-93951000D01*
X84025000Y-100449000D01*
X84004998Y-100517121D01*
X83951342Y-100563614D01*
X83899000Y-100575000D01*
X79751000Y-100575000D01*
X79682879Y-100554998D01*
X79636386Y-100501342D01*
X79625000Y-100449000D01*
X79625000Y-93951000D01*
X79645002Y-93882879D01*
X79698658Y-93836386D01*
X79751000Y-93825000D01*
X83899000Y-93825000D01*
X83967121Y-93845002D01*
G37*
%TD.AperFunction*%
%TD*%
%TA.AperFunction,Conductor*%
%TO.N,GND*%
G36*
X88367121Y-97720002D02*
G01*
X88413614Y-97773658D01*
X88425000Y-97826000D01*
X88425000Y-99199000D01*
X88404998Y-99267121D01*
X88351342Y-99313614D01*
X88299000Y-99325000D01*
X85076000Y-99325000D01*
X85007879Y-99304998D01*
X84961386Y-99251342D01*
X84950000Y-99199000D01*
X84950000Y-97700000D01*
X88299000Y-97700000D01*
X88367121Y-97720002D01*
G37*
%TD.AperFunction*%
%TD*%
%TA.AperFunction,Conductor*%
%TO.N,GND*%
G36*
X86442121Y-94645002D02*
G01*
X86488614Y-94698658D01*
X86500000Y-94751000D01*
X86500000Y-99325000D01*
X85076000Y-99325000D01*
X85007879Y-99304998D01*
X84961386Y-99251342D01*
X84950000Y-99199000D01*
X84950000Y-94751000D01*
X84970002Y-94682879D01*
X85023658Y-94636386D01*
X85076000Y-94625000D01*
X86374000Y-94625000D01*
X86442121Y-94645002D01*
G37*
%TD.AperFunction*%
%TD*%
%TA.AperFunction,Conductor*%
%TO.N,LED+*%
G36*
X86992121Y-60820002D02*
G01*
X87038614Y-60873658D01*
X87050000Y-60926000D01*
X87050000Y-72535500D01*
X87029998Y-72603621D01*
X86976342Y-72650114D01*
X86924000Y-72661500D01*
X80176000Y-72661500D01*
X80172654Y-72661860D01*
X80172649Y-72661860D01*
X80070215Y-72672872D01*
X80070208Y-72672873D01*
X80066851Y-72673234D01*
X80063551Y-72673952D01*
X80063550Y-72673952D01*
X80017790Y-72683906D01*
X80017785Y-72683907D01*
X80014509Y-72684620D01*
X79910343Y-72719290D01*
X79787388Y-72798308D01*
X79733732Y-72844801D01*
X79730792Y-72848194D01*
X79643919Y-72948450D01*
X79643917Y-72948453D01*
X79638018Y-72955261D01*
X79577302Y-73088210D01*
X79557300Y-73156331D01*
X79556660Y-73160780D01*
X79556659Y-73160786D01*
X79537139Y-73296553D01*
X79536500Y-73301000D01*
X79536500Y-79574000D01*
X79548234Y-79683149D01*
X79548952Y-79686449D01*
X79548952Y-79686450D01*
X79555961Y-79718669D01*
X79559620Y-79735491D01*
X79594290Y-79839657D01*
X79673308Y-79962612D01*
X79676250Y-79966007D01*
X79676252Y-79966010D01*
X79712978Y-80008394D01*
X79719801Y-80016268D01*
X79723194Y-80019208D01*
X79823450Y-80106081D01*
X79823453Y-80106083D01*
X79830261Y-80111982D01*
X79963210Y-80172698D01*
X79986964Y-80179673D01*
X80027008Y-80191431D01*
X80027012Y-80191432D01*
X80031331Y-80192700D01*
X80035780Y-80193340D01*
X80035786Y-80193341D01*
X80171553Y-80212861D01*
X80171558Y-80212861D01*
X80176000Y-80213500D01*
X80215500Y-80213500D01*
X80218846Y-80213140D01*
X80218851Y-80213140D01*
X80321285Y-80202128D01*
X80321292Y-80202127D01*
X80324649Y-80201766D01*
X80327950Y-80201048D01*
X80373710Y-80191094D01*
X80373715Y-80191093D01*
X80376991Y-80190380D01*
X80481157Y-80155710D01*
X80604112Y-80076692D01*
X80657768Y-80030199D01*
X80713388Y-79966010D01*
X80747581Y-79926550D01*
X80747583Y-79926547D01*
X80753482Y-79919739D01*
X80814198Y-79786790D01*
X80834200Y-79718669D01*
X80836885Y-79700000D01*
X80854361Y-79578447D01*
X80854361Y-79578442D01*
X80855000Y-79574000D01*
X80855000Y-79311000D01*
X80875002Y-79242879D01*
X80928658Y-79196386D01*
X80981000Y-79185000D01*
X82219000Y-79185000D01*
X82287121Y-79205002D01*
X82333614Y-79258658D01*
X82345000Y-79311000D01*
X82345000Y-79574000D01*
X82356734Y-79683149D01*
X82357452Y-79686449D01*
X82357452Y-79686450D01*
X82364461Y-79718669D01*
X82368120Y-79735491D01*
X82402790Y-79839657D01*
X82481808Y-79962612D01*
X82484750Y-79966007D01*
X82484752Y-79966010D01*
X82521478Y-80008394D01*
X82528301Y-80016268D01*
X82531694Y-80019208D01*
X82631950Y-80106081D01*
X82631953Y-80106083D01*
X82638761Y-80111982D01*
X82771710Y-80172698D01*
X82795464Y-80179673D01*
X82835508Y-80191431D01*
X82835512Y-80191432D01*
X82839831Y-80192700D01*
X82844280Y-80193340D01*
X82844286Y-80193341D01*
X82980053Y-80212861D01*
X82980058Y-80212861D01*
X82984500Y-80213500D01*
X86924000Y-80213500D01*
X86992121Y-80233502D01*
X87038614Y-80287158D01*
X87050000Y-80339500D01*
X87050000Y-82242814D01*
X87029998Y-82310935D01*
X86976342Y-82357428D01*
X86906068Y-82367532D01*
X86849939Y-82344750D01*
X86737094Y-82262763D01*
X86737093Y-82262762D01*
X86731752Y-82258882D01*
X86725724Y-82256198D01*
X86725722Y-82256197D01*
X86563319Y-82183891D01*
X86563318Y-82183891D01*
X86557288Y-82181206D01*
X86463887Y-82161353D01*
X86376944Y-82142872D01*
X86376939Y-82142872D01*
X86370487Y-82141500D01*
X86179513Y-82141500D01*
X86173061Y-82142872D01*
X86173056Y-82142872D01*
X86086113Y-82161353D01*
X85992712Y-82181206D01*
X85986682Y-82183891D01*
X85986681Y-82183891D01*
X85824278Y-82256197D01*
X85824276Y-82256198D01*
X85818248Y-82258882D01*
X85663747Y-82371134D01*
X85659326Y-82376044D01*
X85659325Y-82376045D01*
X85569947Y-82475310D01*
X85535960Y-82513056D01*
X85440473Y-82678444D01*
X85381458Y-82860072D01*
X85380768Y-82866633D01*
X85380768Y-82866635D01*
X85370381Y-82965460D01*
X85361496Y-83050000D01*
X85362186Y-83056565D01*
X85374228Y-83171134D01*
X85381458Y-83239928D01*
X85440473Y-83421556D01*
X85443776Y-83427278D01*
X85443777Y-83427279D01*
X85448769Y-83435925D01*
X85535960Y-83586944D01*
X85540378Y-83591851D01*
X85540379Y-83591852D01*
X85579382Y-83635169D01*
X85663747Y-83728866D01*
X85718209Y-83768435D01*
X85811533Y-83836239D01*
X85818248Y-83841118D01*
X85824276Y-83843802D01*
X85824278Y-83843803D01*
X85941749Y-83896104D01*
X85995845Y-83942084D01*
X86016500Y-84011211D01*
X86016500Y-84099000D01*
X85996498Y-84167121D01*
X85942842Y-84213614D01*
X85890500Y-84225000D01*
X84507463Y-84225000D01*
X84439342Y-84204998D01*
X84392849Y-84151342D01*
X84382745Y-84081068D01*
X84387629Y-84060069D01*
X84418542Y-83964928D01*
X84422860Y-83923850D01*
X84437814Y-83781565D01*
X84438504Y-83775000D01*
X84424262Y-83639492D01*
X84419232Y-83591635D01*
X84419232Y-83591633D01*
X84418542Y-83585072D01*
X84359527Y-83403444D01*
X84264040Y-83238056D01*
X84136253Y-83096134D01*
X83981752Y-82983882D01*
X83975724Y-82981198D01*
X83975722Y-82981197D01*
X83813319Y-82908891D01*
X83813318Y-82908891D01*
X83807288Y-82906206D01*
X83706167Y-82884712D01*
X83626944Y-82867872D01*
X83626939Y-82867872D01*
X83620487Y-82866500D01*
X83429513Y-82866500D01*
X83423061Y-82867872D01*
X83423056Y-82867872D01*
X83343833Y-82884712D01*
X83242712Y-82906206D01*
X83236682Y-82908891D01*
X83236681Y-82908891D01*
X83074278Y-82981197D01*
X83074276Y-82981198D01*
X83068248Y-82983882D01*
X82913747Y-83096134D01*
X82785960Y-83238056D01*
X82690473Y-83403444D01*
X82631458Y-83585072D01*
X82630768Y-83591633D01*
X82630768Y-83591635D01*
X82625738Y-83639492D01*
X82611496Y-83775000D01*
X82612186Y-83781565D01*
X82627141Y-83923850D01*
X82631458Y-83964928D01*
X82662370Y-84060065D01*
X82664398Y-84131031D01*
X82627735Y-84191829D01*
X82564023Y-84223154D01*
X82542537Y-84225000D01*
X81256832Y-84225000D01*
X81188711Y-84204998D01*
X81142218Y-84151342D01*
X81132114Y-84081068D01*
X81137000Y-84060062D01*
X81141502Y-84046208D01*
X81141503Y-84046203D01*
X81143542Y-84039928D01*
X81163504Y-83850000D01*
X81156311Y-83781565D01*
X81144232Y-83666635D01*
X81144232Y-83666633D01*
X81143542Y-83660072D01*
X81084527Y-83478444D01*
X80989040Y-83313056D01*
X80928848Y-83246206D01*
X80875359Y-83186800D01*
X80847998Y-83137642D01*
X80838229Y-83104018D01*
X80836018Y-83096406D01*
X80831985Y-83089587D01*
X80831983Y-83089582D01*
X80825707Y-83078971D01*
X80817010Y-83061221D01*
X80809552Y-83042383D01*
X80783571Y-83006623D01*
X80777053Y-82996701D01*
X80758578Y-82965460D01*
X80758574Y-82965455D01*
X80754542Y-82958637D01*
X80740218Y-82944313D01*
X80727376Y-82929278D01*
X80715472Y-82912893D01*
X80681406Y-82884711D01*
X80672627Y-82876722D01*
X79028652Y-81232747D01*
X79021112Y-81224461D01*
X79017000Y-81217982D01*
X78967348Y-81171356D01*
X78964507Y-81168602D01*
X78944770Y-81148865D01*
X78941573Y-81146385D01*
X78932551Y-81138680D01*
X78906100Y-81113841D01*
X78900321Y-81108414D01*
X78893375Y-81104595D01*
X78893372Y-81104593D01*
X78882566Y-81098652D01*
X78866047Y-81087801D01*
X78865583Y-81087441D01*
X78850041Y-81075386D01*
X78842772Y-81072241D01*
X78842768Y-81072238D01*
X78809463Y-81057826D01*
X78798813Y-81052609D01*
X78760060Y-81031305D01*
X78740437Y-81026267D01*
X78721734Y-81019863D01*
X78710420Y-81014967D01*
X78710419Y-81014967D01*
X78703145Y-81011819D01*
X78695322Y-81010580D01*
X78695312Y-81010577D01*
X78659476Y-81004901D01*
X78647856Y-81002495D01*
X78612711Y-80993472D01*
X78612710Y-80993472D01*
X78605030Y-80991500D01*
X78584776Y-80991500D01*
X78565065Y-80989949D01*
X78552886Y-80988020D01*
X78545057Y-80986780D01*
X78537165Y-80987526D01*
X78501039Y-80990941D01*
X78489181Y-80991500D01*
X78434500Y-80991500D01*
X78366379Y-80971498D01*
X78319886Y-80917842D01*
X78308500Y-80865500D01*
X78308500Y-80826866D01*
X78301745Y-80764684D01*
X78298973Y-80757289D01*
X78298971Y-80757282D01*
X78284435Y-80718508D01*
X78279252Y-80647701D01*
X78302387Y-80601387D01*
X78301209Y-80600630D01*
X78306081Y-80593050D01*
X78311982Y-80586239D01*
X78372698Y-80453290D01*
X78392700Y-80385169D01*
X78399267Y-80339500D01*
X78412861Y-80244947D01*
X78412861Y-80244942D01*
X78413500Y-80240500D01*
X78413500Y-79559500D01*
X78401766Y-79450351D01*
X78390380Y-79398009D01*
X78355710Y-79293843D01*
X78276692Y-79170888D01*
X78230199Y-79117232D01*
X78220933Y-79109203D01*
X78126550Y-79027419D01*
X78126547Y-79027417D01*
X78119739Y-79021518D01*
X77986790Y-78960802D01*
X77963036Y-78953827D01*
X77922992Y-78942069D01*
X77922988Y-78942068D01*
X77918669Y-78940800D01*
X77914220Y-78940160D01*
X77914214Y-78940159D01*
X77778447Y-78920639D01*
X77778442Y-78920639D01*
X77774000Y-78920000D01*
X75531000Y-78920000D01*
X75462879Y-78899998D01*
X75416386Y-78846342D01*
X75405000Y-78794000D01*
X75405000Y-77556000D01*
X75425002Y-77487879D01*
X75478658Y-77441386D01*
X75531000Y-77430000D01*
X77774000Y-77430000D01*
X77777346Y-77429640D01*
X77777351Y-77429640D01*
X77879785Y-77418628D01*
X77879792Y-77418627D01*
X77883149Y-77418266D01*
X77886450Y-77417548D01*
X77932210Y-77407594D01*
X77932215Y-77407593D01*
X77935491Y-77406880D01*
X78039657Y-77372210D01*
X78162612Y-77293192D01*
X78216268Y-77246699D01*
X78224297Y-77237433D01*
X78306081Y-77143050D01*
X78306083Y-77143047D01*
X78311982Y-77136239D01*
X78372698Y-77003290D01*
X78392700Y-76935169D01*
X78413500Y-76790500D01*
X78413500Y-72426000D01*
X78401766Y-72316851D01*
X78401048Y-72313550D01*
X78391094Y-72267790D01*
X78391093Y-72267785D01*
X78390380Y-72264509D01*
X78355710Y-72160343D01*
X78276692Y-72037388D01*
X78230199Y-71983732D01*
X78160466Y-71923308D01*
X78126550Y-71893919D01*
X78126547Y-71893917D01*
X78119739Y-71888018D01*
X77986790Y-71827302D01*
X77963036Y-71820327D01*
X77922992Y-71808569D01*
X77922988Y-71808568D01*
X77918669Y-71807300D01*
X77914220Y-71806660D01*
X77914214Y-71806659D01*
X77778447Y-71787139D01*
X77778442Y-71787139D01*
X77774000Y-71786500D01*
X65826000Y-71786500D01*
X65757879Y-71766498D01*
X65711386Y-71712842D01*
X65700000Y-71660500D01*
X65700000Y-65291250D01*
X65720002Y-65223129D01*
X65773658Y-65176636D01*
X65843932Y-65166532D01*
X65908512Y-65196026D01*
X65929840Y-65219883D01*
X66066733Y-65419064D01*
X66066739Y-65419071D01*
X66068790Y-65422056D01*
X66296866Y-65683505D01*
X66299551Y-65685948D01*
X66509268Y-65876775D01*
X66553481Y-65917006D01*
X66835233Y-66119466D01*
X67138388Y-66288200D01*
X67458928Y-66420972D01*
X67462422Y-66421967D01*
X67462424Y-66421968D01*
X67789103Y-66515025D01*
X67789108Y-66515026D01*
X67792604Y-66516022D01*
X67989304Y-66548233D01*
X68131412Y-66571504D01*
X68131419Y-66571505D01*
X68134993Y-66572090D01*
X68308275Y-66580262D01*
X68477931Y-66588263D01*
X68477932Y-66588263D01*
X68481558Y-66588434D01*
X68490415Y-66587830D01*
X68824073Y-66565084D01*
X68824081Y-66565083D01*
X68827704Y-66564836D01*
X68831279Y-66564173D01*
X68831282Y-66564173D01*
X69165279Y-66502270D01*
X69165283Y-66502269D01*
X69168844Y-66501609D01*
X69500456Y-66399592D01*
X69818145Y-66260136D01*
X70062511Y-66117341D01*
X70114560Y-66086926D01*
X70114562Y-66086925D01*
X70117700Y-66085091D01*
X70120609Y-66082907D01*
X70392244Y-65878958D01*
X70392248Y-65878955D01*
X70395151Y-65876775D01*
X70646819Y-65637950D01*
X70869370Y-65371783D01*
X71059853Y-65081799D01*
X71186745Y-64829503D01*
X71214117Y-64775080D01*
X71214120Y-64775072D01*
X71215744Y-64771844D01*
X71334977Y-64446026D01*
X71335822Y-64442504D01*
X71335825Y-64442496D01*
X71415124Y-64112191D01*
X71415125Y-64112187D01*
X71415971Y-64108662D01*
X71457652Y-63764225D01*
X71463599Y-63575000D01*
X71443627Y-63228626D01*
X71383976Y-62886842D01*
X71285437Y-62554180D01*
X71149316Y-62235048D01*
X70977417Y-61933676D01*
X70969986Y-61923559D01*
X70774161Y-61656978D01*
X70772018Y-61654060D01*
X70535842Y-61399904D01*
X70272019Y-61174578D01*
X70057730Y-61030582D01*
X70012345Y-60975986D01*
X70003682Y-60905520D01*
X70034490Y-60841556D01*
X70094989Y-60804403D01*
X70128006Y-60800000D01*
X86924000Y-60800000D01*
X86992121Y-60820002D01*
G37*
%TD.AperFunction*%
%TD*%
%TA.AperFunction,Conductor*%
%TO.N,/Source*%
G36*
X93770138Y-100395002D02*
G01*
X93816631Y-100448658D01*
X93827696Y-100492009D01*
X93829122Y-100511942D01*
X93832269Y-100520379D01*
X93832790Y-100522774D01*
X93827726Y-100593589D01*
X93818124Y-100613695D01*
X93812116Y-100623856D01*
X93807202Y-100632164D01*
X93764221Y-100780106D01*
X93761500Y-100814678D01*
X93761500Y-101725322D01*
X93761693Y-101727769D01*
X93761693Y-101727779D01*
X93763569Y-101751612D01*
X93748973Y-101821093D01*
X93699130Y-101871652D01*
X93628970Y-101887177D01*
X93628451Y-101887140D01*
X93624000Y-101886500D01*
X90376000Y-101886500D01*
X90372654Y-101886860D01*
X90372649Y-101886860D01*
X90270215Y-101897872D01*
X90270208Y-101897873D01*
X90266851Y-101898234D01*
X90263551Y-101898952D01*
X90263550Y-101898952D01*
X90217790Y-101908906D01*
X90217785Y-101908907D01*
X90214509Y-101909620D01*
X90110343Y-101944290D01*
X89987388Y-102023308D01*
X89933732Y-102069801D01*
X89930792Y-102073194D01*
X89843919Y-102173450D01*
X89843917Y-102173453D01*
X89838018Y-102180261D01*
X89777302Y-102313210D01*
X89757300Y-102381331D01*
X89736500Y-102526000D01*
X89736500Y-103999000D01*
X89748234Y-104108149D01*
X89759620Y-104160491D01*
X89794290Y-104264657D01*
X89873308Y-104387612D01*
X89919801Y-104441268D01*
X89923194Y-104444208D01*
X90023450Y-104531081D01*
X90023453Y-104531083D01*
X90030261Y-104536982D01*
X90163210Y-104597698D01*
X90186964Y-104604673D01*
X90227008Y-104616431D01*
X90227012Y-104616432D01*
X90231331Y-104617700D01*
X90235780Y-104618340D01*
X90235786Y-104618341D01*
X90371553Y-104637861D01*
X90371558Y-104637861D01*
X90376000Y-104638500D01*
X91687118Y-104638500D01*
X91755239Y-104658502D01*
X91801732Y-104712158D01*
X91808114Y-104729347D01*
X91822202Y-104777836D01*
X91838096Y-104804711D01*
X91896586Y-104903613D01*
X91896588Y-104903616D01*
X91900624Y-104910440D01*
X92009560Y-105019376D01*
X92016384Y-105023412D01*
X92016387Y-105023414D01*
X92115289Y-105081904D01*
X92142164Y-105097798D01*
X92149775Y-105100009D01*
X92149777Y-105100010D01*
X92190153Y-105111740D01*
X92290106Y-105140779D01*
X92296511Y-105141283D01*
X92296516Y-105141284D01*
X92322222Y-105143307D01*
X92322230Y-105143307D01*
X92324678Y-105143500D01*
X92650322Y-105143500D01*
X92652770Y-105143307D01*
X92652778Y-105143307D01*
X92678484Y-105141284D01*
X92678489Y-105141283D01*
X92684894Y-105140779D01*
X92691066Y-105138986D01*
X92691071Y-105138985D01*
X92784847Y-105111740D01*
X92855153Y-105111740D01*
X92948929Y-105138985D01*
X92948934Y-105138986D01*
X92955106Y-105140779D01*
X92961511Y-105141283D01*
X92961516Y-105141284D01*
X92987222Y-105143307D01*
X92987230Y-105143307D01*
X92989678Y-105143500D01*
X93315322Y-105143500D01*
X93317770Y-105143307D01*
X93317778Y-105143307D01*
X93343481Y-105141284D01*
X93343484Y-105141284D01*
X93349894Y-105140779D01*
X93447350Y-105112466D01*
X93517650Y-105112466D01*
X93615106Y-105140779D01*
X93621516Y-105141284D01*
X93621519Y-105141284D01*
X93647222Y-105143307D01*
X93647230Y-105143307D01*
X93649678Y-105143500D01*
X93975322Y-105143500D01*
X93977770Y-105143307D01*
X93977778Y-105143307D01*
X94003481Y-105141284D01*
X94003484Y-105141284D01*
X94009894Y-105140779D01*
X94016070Y-105138985D01*
X94016074Y-105138984D01*
X94105891Y-105112890D01*
X94176887Y-105113093D01*
X94236503Y-105151647D01*
X94265811Y-105216312D01*
X94255506Y-105286557D01*
X94224786Y-105325657D01*
X94225652Y-105326522D01*
X94100695Y-105451697D01*
X94007885Y-105602262D01*
X93952203Y-105770139D01*
X93941500Y-105874600D01*
X93941500Y-107225400D01*
X93941837Y-107228646D01*
X93941837Y-107228650D01*
X93949579Y-107303262D01*
X93952474Y-107331166D01*
X93954655Y-107337702D01*
X93954655Y-107337704D01*
X93995069Y-107458838D01*
X94008450Y-107498946D01*
X94012306Y-107505177D01*
X94015407Y-107511797D01*
X94012471Y-107513172D01*
X94027441Y-107567767D01*
X94006216Y-107635516D01*
X93951733Y-107681037D01*
X93901461Y-107691500D01*
X89401359Y-107691500D01*
X89333238Y-107671498D01*
X89295567Y-107633940D01*
X89249883Y-107563324D01*
X89184764Y-107462665D01*
X89166840Y-107442966D01*
X89122344Y-107394066D01*
X89028887Y-107291358D01*
X89024836Y-107288159D01*
X89024832Y-107288155D01*
X88851177Y-107151011D01*
X88851172Y-107151008D01*
X88847123Y-107147810D01*
X88842607Y-107145317D01*
X88842604Y-107145315D01*
X88648879Y-107038373D01*
X88648875Y-107038371D01*
X88644355Y-107035876D01*
X88639486Y-107034152D01*
X88639482Y-107034150D01*
X88430903Y-106960288D01*
X88430899Y-106960287D01*
X88426028Y-106958562D01*
X88420935Y-106957655D01*
X88420932Y-106957654D01*
X88203095Y-106918851D01*
X88203089Y-106918850D01*
X88198006Y-106917945D01*
X88125096Y-106917054D01*
X87971581Y-106915179D01*
X87971579Y-106915179D01*
X87966411Y-106915116D01*
X87737464Y-106950150D01*
X87517314Y-107022106D01*
X87512726Y-107024494D01*
X87512722Y-107024496D01*
X87316461Y-107126663D01*
X87311872Y-107129052D01*
X87276651Y-107155497D01*
X87210168Y-107180401D01*
X87140772Y-107165408D01*
X87090499Y-107115278D01*
X87075000Y-107054735D01*
X87075000Y-100501000D01*
X87095002Y-100432879D01*
X87148658Y-100386386D01*
X87201000Y-100375000D01*
X93702017Y-100375000D01*
X93770138Y-100395002D01*
G37*
%TD.AperFunction*%
%TD*%
M02*
