%TF.GenerationSoftware,KiCad,Pcbnew,(6.0.7)*%
%TF.CreationDate,2023-01-12T19:29:26+03:00*%
%TF.ProjectId,Wireless Power Receiver & Charger,57697265-6c65-4737-9320-506f77657220,rev?*%
%TF.SameCoordinates,Original*%
%TF.FileFunction,Legend,Bot*%
%TF.FilePolarity,Positive*%
%FSLAX46Y46*%
G04 Gerber Fmt 4.6, Leading zero omitted, Abs format (unit mm)*
G04 Created by KiCad (PCBNEW (6.0.7)) date 2023-01-12 19:29:26*
%MOMM*%
%LPD*%
G01*
G04 APERTURE LIST*
%ADD10C,0.100000*%
%ADD11C,0.150000*%
%ADD12C,0.300000*%
%ADD13C,0.400000*%
%TA.AperFunction,Profile*%
%ADD14C,0.100000*%
%TD*%
%ADD15C,0.120000*%
G04 APERTURE END LIST*
D10*
D11*
X177002200Y-166007200D02*
X177002200Y-198007200D01*
X285002200Y-198007200D01*
X285002200Y-166007200D01*
X177002200Y-166007200D01*
D10*
D11*
X10000000Y-10000000D02*
X10000000Y-200007200D01*
X287002200Y-200007200D01*
X287002200Y-10000000D01*
X10000000Y-10000000D01*
D10*
D11*
X12000000Y-12000000D02*
X12000000Y-198007200D01*
X285002200Y-198007200D01*
X285002200Y-12000000D01*
X12000000Y-12000000D01*
D10*
D11*
X60000000Y-12000000D02*
X60000000Y-10000000D01*
D10*
D11*
X110000000Y-12000000D02*
X110000000Y-10000000D01*
D10*
D11*
X160000000Y-12000000D02*
X160000000Y-10000000D01*
D10*
D11*
X210000000Y-12000000D02*
X210000000Y-10000000D01*
D10*
D11*
X260000000Y-12000000D02*
X260000000Y-10000000D01*
D10*
D11*
X36065476Y-11588095D02*
X35322619Y-11588095D01*
X35694047Y-11588095D02*
X35694047Y-10288095D01*
X35570238Y-10473809D01*
X35446428Y-10597619D01*
X35322619Y-10659523D01*
D10*
D11*
X85322619Y-10411904D02*
X85384523Y-10350000D01*
X85508333Y-10288095D01*
X85817857Y-10288095D01*
X85941666Y-10350000D01*
X86003571Y-10411904D01*
X86065476Y-10535714D01*
X86065476Y-10659523D01*
X86003571Y-10845238D01*
X85260714Y-11588095D01*
X86065476Y-11588095D01*
D10*
D11*
X135260714Y-10288095D02*
X136065476Y-10288095D01*
X135632142Y-10783333D01*
X135817857Y-10783333D01*
X135941666Y-10845238D01*
X136003571Y-10907142D01*
X136065476Y-11030952D01*
X136065476Y-11340476D01*
X136003571Y-11464285D01*
X135941666Y-11526190D01*
X135817857Y-11588095D01*
X135446428Y-11588095D01*
X135322619Y-11526190D01*
X135260714Y-11464285D01*
D10*
D11*
X185941666Y-10721428D02*
X185941666Y-11588095D01*
X185632142Y-10226190D02*
X185322619Y-11154761D01*
X186127380Y-11154761D01*
D10*
D11*
X236003571Y-10288095D02*
X235384523Y-10288095D01*
X235322619Y-10907142D01*
X235384523Y-10845238D01*
X235508333Y-10783333D01*
X235817857Y-10783333D01*
X235941666Y-10845238D01*
X236003571Y-10907142D01*
X236065476Y-11030952D01*
X236065476Y-11340476D01*
X236003571Y-11464285D01*
X235941666Y-11526190D01*
X235817857Y-11588095D01*
X235508333Y-11588095D01*
X235384523Y-11526190D01*
X235322619Y-11464285D01*
D10*
D11*
X285941666Y-10288095D02*
X285694047Y-10288095D01*
X285570238Y-10350000D01*
X285508333Y-10411904D01*
X285384523Y-10597619D01*
X285322619Y-10845238D01*
X285322619Y-11340476D01*
X285384523Y-11464285D01*
X285446428Y-11526190D01*
X285570238Y-11588095D01*
X285817857Y-11588095D01*
X285941666Y-11526190D01*
X286003571Y-11464285D01*
X286065476Y-11340476D01*
X286065476Y-11030952D01*
X286003571Y-10907142D01*
X285941666Y-10845238D01*
X285817857Y-10783333D01*
X285570238Y-10783333D01*
X285446428Y-10845238D01*
X285384523Y-10907142D01*
X285322619Y-11030952D01*
D10*
D11*
X60000000Y-198007200D02*
X60000000Y-200007200D01*
D10*
D11*
X110000000Y-198007200D02*
X110000000Y-200007200D01*
D10*
D11*
X160000000Y-198007200D02*
X160000000Y-200007200D01*
D10*
D11*
X210000000Y-198007200D02*
X210000000Y-200007200D01*
D10*
D11*
X260000000Y-198007200D02*
X260000000Y-200007200D01*
D10*
D11*
X36065476Y-199595295D02*
X35322619Y-199595295D01*
X35694047Y-199595295D02*
X35694047Y-198295295D01*
X35570238Y-198481009D01*
X35446428Y-198604819D01*
X35322619Y-198666723D01*
D10*
D11*
X85322619Y-198419104D02*
X85384523Y-198357200D01*
X85508333Y-198295295D01*
X85817857Y-198295295D01*
X85941666Y-198357200D01*
X86003571Y-198419104D01*
X86065476Y-198542914D01*
X86065476Y-198666723D01*
X86003571Y-198852438D01*
X85260714Y-199595295D01*
X86065476Y-199595295D01*
D10*
D11*
X135260714Y-198295295D02*
X136065476Y-198295295D01*
X135632142Y-198790533D01*
X135817857Y-198790533D01*
X135941666Y-198852438D01*
X136003571Y-198914342D01*
X136065476Y-199038152D01*
X136065476Y-199347676D01*
X136003571Y-199471485D01*
X135941666Y-199533390D01*
X135817857Y-199595295D01*
X135446428Y-199595295D01*
X135322619Y-199533390D01*
X135260714Y-199471485D01*
D10*
D11*
X185941666Y-198728628D02*
X185941666Y-199595295D01*
X185632142Y-198233390D02*
X185322619Y-199161961D01*
X186127380Y-199161961D01*
D10*
D11*
X236003571Y-198295295D02*
X235384523Y-198295295D01*
X235322619Y-198914342D01*
X235384523Y-198852438D01*
X235508333Y-198790533D01*
X235817857Y-198790533D01*
X235941666Y-198852438D01*
X236003571Y-198914342D01*
X236065476Y-199038152D01*
X236065476Y-199347676D01*
X236003571Y-199471485D01*
X235941666Y-199533390D01*
X235817857Y-199595295D01*
X235508333Y-199595295D01*
X235384523Y-199533390D01*
X235322619Y-199471485D01*
D10*
D11*
X285941666Y-198295295D02*
X285694047Y-198295295D01*
X285570238Y-198357200D01*
X285508333Y-198419104D01*
X285384523Y-198604819D01*
X285322619Y-198852438D01*
X285322619Y-199347676D01*
X285384523Y-199471485D01*
X285446428Y-199533390D01*
X285570238Y-199595295D01*
X285817857Y-199595295D01*
X285941666Y-199533390D01*
X286003571Y-199471485D01*
X286065476Y-199347676D01*
X286065476Y-199038152D01*
X286003571Y-198914342D01*
X285941666Y-198852438D01*
X285817857Y-198790533D01*
X285570238Y-198790533D01*
X285446428Y-198852438D01*
X285384523Y-198914342D01*
X285322619Y-199038152D01*
D10*
D11*
X10000000Y-60000000D02*
X12000000Y-60000000D01*
D10*
D11*
X10000000Y-110000000D02*
X12000000Y-110000000D01*
D10*
D11*
X10000000Y-160000000D02*
X12000000Y-160000000D01*
D10*
D11*
X10690476Y-35216666D02*
X11309523Y-35216666D01*
X10566666Y-35588095D02*
X11000000Y-34288095D01*
X11433333Y-35588095D01*
D10*
D11*
X11092857Y-84907142D02*
X11278571Y-84969047D01*
X11340476Y-85030952D01*
X11402380Y-85154761D01*
X11402380Y-85340476D01*
X11340476Y-85464285D01*
X11278571Y-85526190D01*
X11154761Y-85588095D01*
X10659523Y-85588095D01*
X10659523Y-84288095D01*
X11092857Y-84288095D01*
X11216666Y-84350000D01*
X11278571Y-84411904D01*
X11340476Y-84535714D01*
X11340476Y-84659523D01*
X11278571Y-84783333D01*
X11216666Y-84845238D01*
X11092857Y-84907142D01*
X10659523Y-84907142D01*
D10*
D11*
X11402380Y-135464285D02*
X11340476Y-135526190D01*
X11154761Y-135588095D01*
X11030952Y-135588095D01*
X10845238Y-135526190D01*
X10721428Y-135402380D01*
X10659523Y-135278571D01*
X10597619Y-135030952D01*
X10597619Y-134845238D01*
X10659523Y-134597619D01*
X10721428Y-134473809D01*
X10845238Y-134350000D01*
X11030952Y-134288095D01*
X11154761Y-134288095D01*
X11340476Y-134350000D01*
X11402380Y-134411904D01*
D10*
D11*
X10659523Y-185588095D02*
X10659523Y-184288095D01*
X10969047Y-184288095D01*
X11154761Y-184350000D01*
X11278571Y-184473809D01*
X11340476Y-184597619D01*
X11402380Y-184845238D01*
X11402380Y-185030952D01*
X11340476Y-185278571D01*
X11278571Y-185402380D01*
X11154761Y-185526190D01*
X10969047Y-185588095D01*
X10659523Y-185588095D01*
D10*
D11*
X287002200Y-60000000D02*
X285002200Y-60000000D01*
D10*
D11*
X287002200Y-110000000D02*
X285002200Y-110000000D01*
D10*
D11*
X287002200Y-160000000D02*
X285002200Y-160000000D01*
D10*
D11*
X285692676Y-35216666D02*
X286311723Y-35216666D01*
X285568866Y-35588095D02*
X286002200Y-34288095D01*
X286435533Y-35588095D01*
D10*
D11*
X286095057Y-84907142D02*
X286280771Y-84969047D01*
X286342676Y-85030952D01*
X286404580Y-85154761D01*
X286404580Y-85340476D01*
X286342676Y-85464285D01*
X286280771Y-85526190D01*
X286156961Y-85588095D01*
X285661723Y-85588095D01*
X285661723Y-84288095D01*
X286095057Y-84288095D01*
X286218866Y-84350000D01*
X286280771Y-84411904D01*
X286342676Y-84535714D01*
X286342676Y-84659523D01*
X286280771Y-84783333D01*
X286218866Y-84845238D01*
X286095057Y-84907142D01*
X285661723Y-84907142D01*
D10*
D11*
X286404580Y-135464285D02*
X286342676Y-135526190D01*
X286156961Y-135588095D01*
X286033152Y-135588095D01*
X285847438Y-135526190D01*
X285723628Y-135402380D01*
X285661723Y-135278571D01*
X285599819Y-135030952D01*
X285599819Y-134845238D01*
X285661723Y-134597619D01*
X285723628Y-134473809D01*
X285847438Y-134350000D01*
X286033152Y-134288095D01*
X286156961Y-134288095D01*
X286342676Y-134350000D01*
X286404580Y-134411904D01*
D10*
D11*
X285661723Y-185588095D02*
X285661723Y-184288095D01*
X285971247Y-184288095D01*
X286156961Y-184350000D01*
X286280771Y-184473809D01*
X286342676Y-184597619D01*
X286404580Y-184845238D01*
X286404580Y-185030952D01*
X286342676Y-185278571D01*
X286280771Y-185402380D01*
X286156961Y-185526190D01*
X285971247Y-185588095D01*
X285661723Y-185588095D01*
D10*
D11*
X200434342Y-193785771D02*
X200434342Y-192285771D01*
X200791485Y-192285771D01*
X201005771Y-192357200D01*
X201148628Y-192500057D01*
X201220057Y-192642914D01*
X201291485Y-192928628D01*
X201291485Y-193142914D01*
X201220057Y-193428628D01*
X201148628Y-193571485D01*
X201005771Y-193714342D01*
X200791485Y-193785771D01*
X200434342Y-193785771D01*
X202577200Y-193785771D02*
X202577200Y-193000057D01*
X202505771Y-192857200D01*
X202362914Y-192785771D01*
X202077200Y-192785771D01*
X201934342Y-192857200D01*
X202577200Y-193714342D02*
X202434342Y-193785771D01*
X202077200Y-193785771D01*
X201934342Y-193714342D01*
X201862914Y-193571485D01*
X201862914Y-193428628D01*
X201934342Y-193285771D01*
X202077200Y-193214342D01*
X202434342Y-193214342D01*
X202577200Y-193142914D01*
X203077200Y-192785771D02*
X203648628Y-192785771D01*
X203291485Y-192285771D02*
X203291485Y-193571485D01*
X203362914Y-193714342D01*
X203505771Y-193785771D01*
X203648628Y-193785771D01*
X204720057Y-193714342D02*
X204577200Y-193785771D01*
X204291485Y-193785771D01*
X204148628Y-193714342D01*
X204077200Y-193571485D01*
X204077200Y-193000057D01*
X204148628Y-192857200D01*
X204291485Y-192785771D01*
X204577200Y-192785771D01*
X204720057Y-192857200D01*
X204791485Y-193000057D01*
X204791485Y-193142914D01*
X204077200Y-193285771D01*
X205434342Y-193642914D02*
X205505771Y-193714342D01*
X205434342Y-193785771D01*
X205362914Y-193714342D01*
X205434342Y-193642914D01*
X205434342Y-193785771D01*
X205434342Y-192857200D02*
X205505771Y-192928628D01*
X205434342Y-193000057D01*
X205362914Y-192928628D01*
X205434342Y-192857200D01*
X205434342Y-193000057D01*
X207220057Y-192428628D02*
X207291485Y-192357200D01*
X207434342Y-192285771D01*
X207791485Y-192285771D01*
X207934342Y-192357200D01*
X208005771Y-192428628D01*
X208077200Y-192571485D01*
X208077200Y-192714342D01*
X208005771Y-192928628D01*
X207148628Y-193785771D01*
X208077200Y-193785771D01*
X209005771Y-192285771D02*
X209148628Y-192285771D01*
X209291485Y-192357200D01*
X209362914Y-192428628D01*
X209434342Y-192571485D01*
X209505771Y-192857200D01*
X209505771Y-193214342D01*
X209434342Y-193500057D01*
X209362914Y-193642914D01*
X209291485Y-193714342D01*
X209148628Y-193785771D01*
X209005771Y-193785771D01*
X208862914Y-193714342D01*
X208791485Y-193642914D01*
X208720057Y-193500057D01*
X208648628Y-193214342D01*
X208648628Y-192857200D01*
X208720057Y-192571485D01*
X208791485Y-192428628D01*
X208862914Y-192357200D01*
X209005771Y-192285771D01*
X210077200Y-192428628D02*
X210148628Y-192357200D01*
X210291485Y-192285771D01*
X210648628Y-192285771D01*
X210791485Y-192357200D01*
X210862914Y-192428628D01*
X210934342Y-192571485D01*
X210934342Y-192714342D01*
X210862914Y-192928628D01*
X210005771Y-193785771D01*
X210934342Y-193785771D01*
X211434342Y-192285771D02*
X212362914Y-192285771D01*
X211862914Y-192857200D01*
X212077200Y-192857200D01*
X212220057Y-192928628D01*
X212291485Y-193000057D01*
X212362914Y-193142914D01*
X212362914Y-193500057D01*
X212291485Y-193642914D01*
X212220057Y-193714342D01*
X212077200Y-193785771D01*
X211648628Y-193785771D01*
X211505771Y-193714342D01*
X211434342Y-193642914D01*
X213005771Y-193214342D02*
X214148628Y-193214342D01*
X215148628Y-192285771D02*
X215291485Y-192285771D01*
X215434342Y-192357200D01*
X215505771Y-192428628D01*
X215577200Y-192571485D01*
X215648628Y-192857200D01*
X215648628Y-193214342D01*
X215577200Y-193500057D01*
X215505771Y-193642914D01*
X215434342Y-193714342D01*
X215291485Y-193785771D01*
X215148628Y-193785771D01*
X215005771Y-193714342D01*
X214934342Y-193642914D01*
X214862914Y-193500057D01*
X214791485Y-193214342D01*
X214791485Y-192857200D01*
X214862914Y-192571485D01*
X214934342Y-192428628D01*
X215005771Y-192357200D01*
X215148628Y-192285771D01*
X217077200Y-193785771D02*
X216220057Y-193785771D01*
X216648628Y-193785771D02*
X216648628Y-192285771D01*
X216505771Y-192500057D01*
X216362914Y-192642914D01*
X216220057Y-192714342D01*
X217720057Y-193214342D02*
X218862914Y-193214342D01*
X220362914Y-193785771D02*
X219505771Y-193785771D01*
X219934342Y-193785771D02*
X219934342Y-192285771D01*
X219791485Y-192500057D01*
X219648628Y-192642914D01*
X219505771Y-192714342D01*
X221291485Y-192285771D02*
X221434342Y-192285771D01*
X221577200Y-192357200D01*
X221648628Y-192428628D01*
X221720057Y-192571485D01*
X221791485Y-192857200D01*
X221791485Y-193214342D01*
X221720057Y-193500057D01*
X221648628Y-193642914D01*
X221577200Y-193714342D01*
X221434342Y-193785771D01*
X221291485Y-193785771D01*
X221148628Y-193714342D01*
X221077200Y-193642914D01*
X221005771Y-193500057D01*
X220934342Y-193214342D01*
X220934342Y-192857200D01*
X221005771Y-192571485D01*
X221077200Y-192428628D01*
X221148628Y-192357200D01*
X221291485Y-192285771D01*
D10*
D11*
X177002200Y-194507200D02*
X285002200Y-194507200D01*
D10*
D11*
X178434342Y-196585771D02*
X178434342Y-195085771D01*
X179291485Y-196585771D02*
X178648628Y-195728628D01*
X179291485Y-195085771D02*
X178434342Y-195942914D01*
X179934342Y-196585771D02*
X179934342Y-195585771D01*
X179934342Y-195085771D02*
X179862914Y-195157200D01*
X179934342Y-195228628D01*
X180005771Y-195157200D01*
X179934342Y-195085771D01*
X179934342Y-195228628D01*
X181505771Y-196442914D02*
X181434342Y-196514342D01*
X181220057Y-196585771D01*
X181077200Y-196585771D01*
X180862914Y-196514342D01*
X180720057Y-196371485D01*
X180648628Y-196228628D01*
X180577200Y-195942914D01*
X180577200Y-195728628D01*
X180648628Y-195442914D01*
X180720057Y-195300057D01*
X180862914Y-195157200D01*
X181077200Y-195085771D01*
X181220057Y-195085771D01*
X181434342Y-195157200D01*
X181505771Y-195228628D01*
X182791485Y-196585771D02*
X182791485Y-195800057D01*
X182720057Y-195657200D01*
X182577200Y-195585771D01*
X182291485Y-195585771D01*
X182148628Y-195657200D01*
X182791485Y-196514342D02*
X182648628Y-196585771D01*
X182291485Y-196585771D01*
X182148628Y-196514342D01*
X182077200Y-196371485D01*
X182077200Y-196228628D01*
X182148628Y-196085771D01*
X182291485Y-196014342D01*
X182648628Y-196014342D01*
X182791485Y-195942914D01*
X184148628Y-196585771D02*
X184148628Y-195085771D01*
X184148628Y-196514342D02*
X184005771Y-196585771D01*
X183720057Y-196585771D01*
X183577200Y-196514342D01*
X183505771Y-196442914D01*
X183434342Y-196300057D01*
X183434342Y-195871485D01*
X183505771Y-195728628D01*
X183577200Y-195657200D01*
X183720057Y-195585771D01*
X184005771Y-195585771D01*
X184148628Y-195657200D01*
X186005771Y-195800057D02*
X186505771Y-195800057D01*
X186720057Y-196585771D02*
X186005771Y-196585771D01*
X186005771Y-195085771D01*
X186720057Y-195085771D01*
X187362914Y-196442914D02*
X187434342Y-196514342D01*
X187362914Y-196585771D01*
X187291485Y-196514342D01*
X187362914Y-196442914D01*
X187362914Y-196585771D01*
X188077200Y-196585771D02*
X188077200Y-195085771D01*
X188434342Y-195085771D01*
X188648628Y-195157200D01*
X188791485Y-195300057D01*
X188862914Y-195442914D01*
X188934342Y-195728628D01*
X188934342Y-195942914D01*
X188862914Y-196228628D01*
X188791485Y-196371485D01*
X188648628Y-196514342D01*
X188434342Y-196585771D01*
X188077200Y-196585771D01*
X189577200Y-196442914D02*
X189648628Y-196514342D01*
X189577200Y-196585771D01*
X189505771Y-196514342D01*
X189577200Y-196442914D01*
X189577200Y-196585771D01*
X190220057Y-196157200D02*
X190934342Y-196157200D01*
X190077200Y-196585771D02*
X190577200Y-195085771D01*
X191077200Y-196585771D01*
X191577200Y-196442914D02*
X191648628Y-196514342D01*
X191577200Y-196585771D01*
X191505771Y-196514342D01*
X191577200Y-196442914D01*
X191577200Y-196585771D01*
X194577200Y-196585771D02*
X194577200Y-195085771D01*
X194720057Y-196014342D02*
X195148628Y-196585771D01*
X195148628Y-195585771D02*
X194577200Y-196157200D01*
X195791485Y-196585771D02*
X195791485Y-195585771D01*
X195791485Y-195085771D02*
X195720057Y-195157200D01*
X195791485Y-195228628D01*
X195862914Y-195157200D01*
X195791485Y-195085771D01*
X195791485Y-195228628D01*
X197148628Y-196514342D02*
X197005771Y-196585771D01*
X196720057Y-196585771D01*
X196577200Y-196514342D01*
X196505771Y-196442914D01*
X196434342Y-196300057D01*
X196434342Y-195871485D01*
X196505771Y-195728628D01*
X196577200Y-195657200D01*
X196720057Y-195585771D01*
X197005771Y-195585771D01*
X197148628Y-195657200D01*
X198434342Y-196585771D02*
X198434342Y-195800057D01*
X198362914Y-195657200D01*
X198220057Y-195585771D01*
X197934342Y-195585771D01*
X197791485Y-195657200D01*
X198434342Y-196514342D02*
X198291485Y-196585771D01*
X197934342Y-196585771D01*
X197791485Y-196514342D01*
X197720057Y-196371485D01*
X197720057Y-196228628D01*
X197791485Y-196085771D01*
X197934342Y-196014342D01*
X198291485Y-196014342D01*
X198434342Y-195942914D01*
X199791485Y-196585771D02*
X199791485Y-195085771D01*
X199791485Y-196514342D02*
X199648628Y-196585771D01*
X199362914Y-196585771D01*
X199220057Y-196514342D01*
X199148628Y-196442914D01*
X199077200Y-196300057D01*
X199077200Y-195871485D01*
X199148628Y-195728628D01*
X199220057Y-195657200D01*
X199362914Y-195585771D01*
X199648628Y-195585771D01*
X199791485Y-195657200D01*
X202077200Y-197157200D02*
X202005771Y-197085771D01*
X201862914Y-196871485D01*
X201791485Y-196728628D01*
X201720057Y-196514342D01*
X201648628Y-196157200D01*
X201648628Y-195871485D01*
X201720057Y-195514342D01*
X201791485Y-195300057D01*
X201862914Y-195157200D01*
X202005771Y-194942914D01*
X202077200Y-194871485D01*
X203291485Y-195085771D02*
X203005771Y-195085771D01*
X202862914Y-195157200D01*
X202791485Y-195228628D01*
X202648628Y-195442914D01*
X202577200Y-195728628D01*
X202577200Y-196300057D01*
X202648628Y-196442914D01*
X202720057Y-196514342D01*
X202862914Y-196585771D01*
X203148628Y-196585771D01*
X203291485Y-196514342D01*
X203362914Y-196442914D01*
X203434342Y-196300057D01*
X203434342Y-195942914D01*
X203362914Y-195800057D01*
X203291485Y-195728628D01*
X203148628Y-195657200D01*
X202862914Y-195657200D01*
X202720057Y-195728628D01*
X202648628Y-195800057D01*
X202577200Y-195942914D01*
X204077200Y-196442914D02*
X204148628Y-196514342D01*
X204077200Y-196585771D01*
X204005771Y-196514342D01*
X204077200Y-196442914D01*
X204077200Y-196585771D01*
X205077200Y-195085771D02*
X205220057Y-195085771D01*
X205362914Y-195157200D01*
X205434342Y-195228628D01*
X205505771Y-195371485D01*
X205577200Y-195657200D01*
X205577200Y-196014342D01*
X205505771Y-196300057D01*
X205434342Y-196442914D01*
X205362914Y-196514342D01*
X205220057Y-196585771D01*
X205077200Y-196585771D01*
X204934342Y-196514342D01*
X204862914Y-196442914D01*
X204791485Y-196300057D01*
X204720057Y-196014342D01*
X204720057Y-195657200D01*
X204791485Y-195371485D01*
X204862914Y-195228628D01*
X204934342Y-195157200D01*
X205077200Y-195085771D01*
X206220057Y-196442914D02*
X206291485Y-196514342D01*
X206220057Y-196585771D01*
X206148628Y-196514342D01*
X206220057Y-196442914D01*
X206220057Y-196585771D01*
X206791485Y-195085771D02*
X207791485Y-195085771D01*
X207148628Y-196585771D01*
X208220057Y-197157200D02*
X208291485Y-197085771D01*
X208434342Y-196871485D01*
X208505771Y-196728628D01*
X208577200Y-196514342D01*
X208648628Y-196157200D01*
X208648628Y-195871485D01*
X208577200Y-195514342D01*
X208505771Y-195300057D01*
X208434342Y-195157200D01*
X208291485Y-194942914D01*
X208220057Y-194871485D01*
D10*
D11*
X177002200Y-191507200D02*
X285002200Y-191507200D01*
D10*
D12*
X264411485Y-193785771D02*
X263911485Y-193071485D01*
X263554342Y-193785771D02*
X263554342Y-192285771D01*
X264125771Y-192285771D01*
X264268628Y-192357200D01*
X264340057Y-192428628D01*
X264411485Y-192571485D01*
X264411485Y-192785771D01*
X264340057Y-192928628D01*
X264268628Y-193000057D01*
X264125771Y-193071485D01*
X263554342Y-193071485D01*
X265625771Y-193714342D02*
X265482914Y-193785771D01*
X265197200Y-193785771D01*
X265054342Y-193714342D01*
X264982914Y-193571485D01*
X264982914Y-193000057D01*
X265054342Y-192857200D01*
X265197200Y-192785771D01*
X265482914Y-192785771D01*
X265625771Y-192857200D01*
X265697200Y-193000057D01*
X265697200Y-193142914D01*
X264982914Y-193285771D01*
X266197200Y-192785771D02*
X266554342Y-193785771D01*
X266911485Y-192785771D01*
X267482914Y-193642914D02*
X267554342Y-193714342D01*
X267482914Y-193785771D01*
X267411485Y-193714342D01*
X267482914Y-193642914D01*
X267482914Y-193785771D01*
X267482914Y-192857200D02*
X267554342Y-192928628D01*
X267482914Y-193000057D01*
X267411485Y-192928628D01*
X267482914Y-192857200D01*
X267482914Y-193000057D01*
D10*
D11*
X178362914Y-193714342D02*
X178577200Y-193785771D01*
X178934342Y-193785771D01*
X179077200Y-193714342D01*
X179148628Y-193642914D01*
X179220057Y-193500057D01*
X179220057Y-193357200D01*
X179148628Y-193214342D01*
X179077200Y-193142914D01*
X178934342Y-193071485D01*
X178648628Y-193000057D01*
X178505771Y-192928628D01*
X178434342Y-192857200D01*
X178362914Y-192714342D01*
X178362914Y-192571485D01*
X178434342Y-192428628D01*
X178505771Y-192357200D01*
X178648628Y-192285771D01*
X179005771Y-192285771D01*
X179220057Y-192357200D01*
X179862914Y-193785771D02*
X179862914Y-192785771D01*
X179862914Y-192285771D02*
X179791485Y-192357200D01*
X179862914Y-192428628D01*
X179934342Y-192357200D01*
X179862914Y-192285771D01*
X179862914Y-192428628D01*
X180434342Y-192785771D02*
X181220057Y-192785771D01*
X180434342Y-193785771D01*
X181220057Y-193785771D01*
X182362914Y-193714342D02*
X182220057Y-193785771D01*
X181934342Y-193785771D01*
X181791485Y-193714342D01*
X181720057Y-193571485D01*
X181720057Y-193000057D01*
X181791485Y-192857200D01*
X181934342Y-192785771D01*
X182220057Y-192785771D01*
X182362914Y-192857200D01*
X182434342Y-193000057D01*
X182434342Y-193142914D01*
X181720057Y-193285771D01*
X183077200Y-193642914D02*
X183148628Y-193714342D01*
X183077200Y-193785771D01*
X183005771Y-193714342D01*
X183077200Y-193642914D01*
X183077200Y-193785771D01*
X183077200Y-192857200D02*
X183148628Y-192928628D01*
X183077200Y-193000057D01*
X183005771Y-192928628D01*
X183077200Y-192857200D01*
X183077200Y-193000057D01*
X184862914Y-193357200D02*
X185577200Y-193357200D01*
X184720057Y-193785771D02*
X185220057Y-192285771D01*
X185720057Y-193785771D01*
X186862914Y-192785771D02*
X186862914Y-193785771D01*
X186505771Y-192214342D02*
X186148628Y-193285771D01*
X187077200Y-193285771D01*
D10*
D11*
X263434342Y-196585771D02*
X263434342Y-195085771D01*
X264791485Y-196585771D02*
X264791485Y-195085771D01*
X264791485Y-196514342D02*
X264648628Y-196585771D01*
X264362914Y-196585771D01*
X264220057Y-196514342D01*
X264148628Y-196442914D01*
X264077200Y-196300057D01*
X264077200Y-195871485D01*
X264148628Y-195728628D01*
X264220057Y-195657200D01*
X264362914Y-195585771D01*
X264648628Y-195585771D01*
X264791485Y-195657200D01*
X265505771Y-196442914D02*
X265577200Y-196514342D01*
X265505771Y-196585771D01*
X265434342Y-196514342D01*
X265505771Y-196442914D01*
X265505771Y-196585771D01*
X265505771Y-195657200D02*
X265577200Y-195728628D01*
X265505771Y-195800057D01*
X265434342Y-195728628D01*
X265505771Y-195657200D01*
X265505771Y-195800057D01*
X268148628Y-196585771D02*
X267291485Y-196585771D01*
X267720057Y-196585771D02*
X267720057Y-195085771D01*
X267577200Y-195300057D01*
X267434342Y-195442914D01*
X267291485Y-195514342D01*
X269862914Y-195014342D02*
X268577200Y-196942914D01*
X271148628Y-196585771D02*
X270291485Y-196585771D01*
X270720057Y-196585771D02*
X270720057Y-195085771D01*
X270577200Y-195300057D01*
X270434342Y-195442914D01*
X270291485Y-195514342D01*
D10*
D11*
X177002200Y-187507200D02*
X285002200Y-187507200D01*
D10*
D13*
X178714580Y-188211961D02*
X179857438Y-188211961D01*
X179036009Y-190211961D02*
X179286009Y-188211961D01*
X180274104Y-190211961D02*
X180440771Y-188878628D01*
X180524104Y-188211961D02*
X180416961Y-188307200D01*
X180500295Y-188402438D01*
X180607438Y-188307200D01*
X180524104Y-188211961D01*
X180500295Y-188402438D01*
X181107438Y-188878628D02*
X181869342Y-188878628D01*
X181476485Y-188211961D02*
X181262200Y-189926247D01*
X181333628Y-190116723D01*
X181512200Y-190211961D01*
X181702676Y-190211961D01*
X182655057Y-190211961D02*
X182476485Y-190116723D01*
X182405057Y-189926247D01*
X182619342Y-188211961D01*
X184190771Y-190116723D02*
X183988390Y-190211961D01*
X183607438Y-190211961D01*
X183428866Y-190116723D01*
X183357438Y-189926247D01*
X183452676Y-189164342D01*
X183571723Y-188973866D01*
X183774104Y-188878628D01*
X184155057Y-188878628D01*
X184333628Y-188973866D01*
X184405057Y-189164342D01*
X184381247Y-189354819D01*
X183405057Y-189545295D01*
X185155057Y-190021485D02*
X185238390Y-190116723D01*
X185131247Y-190211961D01*
X185047914Y-190116723D01*
X185155057Y-190021485D01*
X185131247Y-190211961D01*
X185286009Y-188973866D02*
X185369342Y-189069104D01*
X185262200Y-189164342D01*
X185178866Y-189069104D01*
X185286009Y-188973866D01*
X185262200Y-189164342D01*
X187666961Y-188211961D02*
X187893152Y-190211961D01*
X188452676Y-188783390D01*
X188655057Y-190211961D01*
X189381247Y-188211961D01*
X189893152Y-190211961D02*
X190059819Y-188878628D01*
X190143152Y-188211961D02*
X190036009Y-188307200D01*
X190119342Y-188402438D01*
X190226485Y-188307200D01*
X190143152Y-188211961D01*
X190119342Y-188402438D01*
X190845533Y-190211961D02*
X191012200Y-188878628D01*
X190964580Y-189259580D02*
X191083628Y-189069104D01*
X191190771Y-188973866D01*
X191393152Y-188878628D01*
X191583628Y-188878628D01*
X192857438Y-190116723D02*
X192655057Y-190211961D01*
X192274104Y-190211961D01*
X192095533Y-190116723D01*
X192024104Y-189926247D01*
X192119342Y-189164342D01*
X192238390Y-188973866D01*
X192440771Y-188878628D01*
X192821723Y-188878628D01*
X193000295Y-188973866D01*
X193071723Y-189164342D01*
X193047914Y-189354819D01*
X192071723Y-189545295D01*
X194083628Y-190211961D02*
X193905057Y-190116723D01*
X193833628Y-189926247D01*
X194047914Y-188211961D01*
X195619342Y-190116723D02*
X195416961Y-190211961D01*
X195036009Y-190211961D01*
X194857438Y-190116723D01*
X194786009Y-189926247D01*
X194881247Y-189164342D01*
X195000295Y-188973866D01*
X195202676Y-188878628D01*
X195583628Y-188878628D01*
X195762200Y-188973866D01*
X195833628Y-189164342D01*
X195809819Y-189354819D01*
X194833628Y-189545295D01*
X196476485Y-190116723D02*
X196655057Y-190211961D01*
X197036009Y-190211961D01*
X197238390Y-190116723D01*
X197357438Y-189926247D01*
X197369342Y-189831009D01*
X197297914Y-189640533D01*
X197119342Y-189545295D01*
X196833628Y-189545295D01*
X196655057Y-189450057D01*
X196583628Y-189259580D01*
X196595533Y-189164342D01*
X196714580Y-188973866D01*
X196916961Y-188878628D01*
X197202676Y-188878628D01*
X197381247Y-188973866D01*
X198095533Y-190116723D02*
X198274104Y-190211961D01*
X198655057Y-190211961D01*
X198857438Y-190116723D01*
X198976485Y-189926247D01*
X198988390Y-189831009D01*
X198916961Y-189640533D01*
X198738390Y-189545295D01*
X198452676Y-189545295D01*
X198274104Y-189450057D01*
X198202676Y-189259580D01*
X198214580Y-189164342D01*
X198333628Y-188973866D01*
X198536009Y-188878628D01*
X198821723Y-188878628D01*
X199000295Y-188973866D01*
X201321723Y-190211961D02*
X201571723Y-188211961D01*
X202333628Y-188211961D01*
X202512200Y-188307200D01*
X202595533Y-188402438D01*
X202666961Y-188592914D01*
X202631247Y-188878628D01*
X202512200Y-189069104D01*
X202405057Y-189164342D01*
X202202676Y-189259580D01*
X201440771Y-189259580D01*
X203607438Y-190211961D02*
X203428866Y-190116723D01*
X203345533Y-190021485D01*
X203274104Y-189831009D01*
X203345533Y-189259580D01*
X203464580Y-189069104D01*
X203571723Y-188973866D01*
X203774104Y-188878628D01*
X204059819Y-188878628D01*
X204238390Y-188973866D01*
X204321723Y-189069104D01*
X204393152Y-189259580D01*
X204321723Y-189831009D01*
X204202676Y-190021485D01*
X204095533Y-190116723D01*
X203893152Y-190211961D01*
X203607438Y-190211961D01*
X205107438Y-188878628D02*
X205321723Y-190211961D01*
X205821723Y-189259580D01*
X206083628Y-190211961D01*
X206631247Y-188878628D01*
X208000295Y-190116723D02*
X207797914Y-190211961D01*
X207416961Y-190211961D01*
X207238390Y-190116723D01*
X207166961Y-189926247D01*
X207262200Y-189164342D01*
X207381247Y-188973866D01*
X207583628Y-188878628D01*
X207964580Y-188878628D01*
X208143152Y-188973866D01*
X208214580Y-189164342D01*
X208190771Y-189354819D01*
X207214580Y-189545295D01*
X208940771Y-190211961D02*
X209107438Y-188878628D01*
X209059819Y-189259580D02*
X209178866Y-189069104D01*
X209286009Y-188973866D01*
X209488390Y-188878628D01*
X209678866Y-188878628D01*
X212845533Y-190211961D02*
X212297914Y-189259580D01*
X211702676Y-190211961D02*
X211952676Y-188211961D01*
X212714580Y-188211961D01*
X212893152Y-188307200D01*
X212976485Y-188402438D01*
X213047914Y-188592914D01*
X213012200Y-188878628D01*
X212893152Y-189069104D01*
X212786009Y-189164342D01*
X212583628Y-189259580D01*
X211821723Y-189259580D01*
X214476485Y-190116723D02*
X214274104Y-190211961D01*
X213893152Y-190211961D01*
X213714580Y-190116723D01*
X213643152Y-189926247D01*
X213738390Y-189164342D01*
X213857438Y-188973866D01*
X214059819Y-188878628D01*
X214440771Y-188878628D01*
X214619342Y-188973866D01*
X214690771Y-189164342D01*
X214666961Y-189354819D01*
X213690771Y-189545295D01*
X216286009Y-190116723D02*
X216083628Y-190211961D01*
X215702676Y-190211961D01*
X215524104Y-190116723D01*
X215440771Y-190021485D01*
X215369342Y-189831009D01*
X215440771Y-189259580D01*
X215559819Y-189069104D01*
X215666961Y-188973866D01*
X215869342Y-188878628D01*
X216250295Y-188878628D01*
X216428866Y-188973866D01*
X217905057Y-190116723D02*
X217702676Y-190211961D01*
X217321723Y-190211961D01*
X217143152Y-190116723D01*
X217071723Y-189926247D01*
X217166961Y-189164342D01*
X217286009Y-188973866D01*
X217488390Y-188878628D01*
X217869342Y-188878628D01*
X218047914Y-188973866D01*
X218119342Y-189164342D01*
X218095533Y-189354819D01*
X217119342Y-189545295D01*
X218845533Y-190211961D02*
X219012200Y-188878628D01*
X219095533Y-188211961D02*
X218988390Y-188307200D01*
X219071723Y-188402438D01*
X219178866Y-188307200D01*
X219095533Y-188211961D01*
X219071723Y-188402438D01*
X219774104Y-188878628D02*
X220083628Y-190211961D01*
X220726485Y-188878628D01*
X222095533Y-190116723D02*
X221893152Y-190211961D01*
X221512200Y-190211961D01*
X221333628Y-190116723D01*
X221262200Y-189926247D01*
X221357438Y-189164342D01*
X221476485Y-188973866D01*
X221678866Y-188878628D01*
X222059819Y-188878628D01*
X222238390Y-188973866D01*
X222309819Y-189164342D01*
X222286009Y-189354819D01*
X221309819Y-189545295D01*
X223036009Y-190211961D02*
X223202676Y-188878628D01*
X223155057Y-189259580D02*
X223274104Y-189069104D01*
X223381247Y-188973866D01*
X223583628Y-188878628D01*
X223774104Y-188878628D01*
X227416961Y-190211961D02*
X227321723Y-190211961D01*
X227143152Y-190116723D01*
X226893152Y-189831009D01*
X226488390Y-189259580D01*
X226333628Y-188973866D01*
X226274104Y-188688152D01*
X226297914Y-188497676D01*
X226416961Y-188307200D01*
X226619342Y-188211961D01*
X226714580Y-188211961D01*
X226893152Y-188307200D01*
X226964580Y-188497676D01*
X226952676Y-188592914D01*
X226833628Y-188783390D01*
X226726485Y-188878628D01*
X226107438Y-189259580D01*
X226000295Y-189354819D01*
X225881247Y-189545295D01*
X225845533Y-189831009D01*
X225916961Y-190021485D01*
X226000295Y-190116723D01*
X226178866Y-190211961D01*
X226464580Y-190211961D01*
X226666961Y-190116723D01*
X226774104Y-190021485D01*
X227107438Y-189640533D01*
X227238390Y-189354819D01*
X227262200Y-189164342D01*
X230964580Y-190021485D02*
X230857438Y-190116723D01*
X230559819Y-190211961D01*
X230369342Y-190211961D01*
X230095533Y-190116723D01*
X229928866Y-189926247D01*
X229857438Y-189735771D01*
X229809819Y-189354819D01*
X229845533Y-189069104D01*
X229988390Y-188688152D01*
X230107438Y-188497676D01*
X230321723Y-188307200D01*
X230619342Y-188211961D01*
X230809819Y-188211961D01*
X231083628Y-188307200D01*
X231166961Y-188402438D01*
X231797914Y-190211961D02*
X232047914Y-188211961D01*
X232655057Y-190211961D02*
X232786009Y-189164342D01*
X232714580Y-188973866D01*
X232536009Y-188878628D01*
X232250295Y-188878628D01*
X232047914Y-188973866D01*
X231940771Y-189069104D01*
X234464580Y-190211961D02*
X234595533Y-189164342D01*
X234524104Y-188973866D01*
X234345533Y-188878628D01*
X233964580Y-188878628D01*
X233762200Y-188973866D01*
X234476485Y-190116723D02*
X234274104Y-190211961D01*
X233797914Y-190211961D01*
X233619342Y-190116723D01*
X233547914Y-189926247D01*
X233571723Y-189735771D01*
X233690771Y-189545295D01*
X233893152Y-189450057D01*
X234369342Y-189450057D01*
X234571723Y-189354819D01*
X235416961Y-190211961D02*
X235583628Y-188878628D01*
X235536009Y-189259580D02*
X235655057Y-189069104D01*
X235762200Y-188973866D01*
X235964580Y-188878628D01*
X236155057Y-188878628D01*
X237678866Y-188878628D02*
X237476485Y-190497676D01*
X237357438Y-190688152D01*
X237250295Y-190783390D01*
X237047914Y-190878628D01*
X236762200Y-190878628D01*
X236583628Y-190783390D01*
X237524104Y-190116723D02*
X237321723Y-190211961D01*
X236940771Y-190211961D01*
X236762200Y-190116723D01*
X236678866Y-190021485D01*
X236607438Y-189831009D01*
X236678866Y-189259580D01*
X236797914Y-189069104D01*
X236905057Y-188973866D01*
X237107438Y-188878628D01*
X237488390Y-188878628D01*
X237666961Y-188973866D01*
X239238390Y-190116723D02*
X239036009Y-190211961D01*
X238655057Y-190211961D01*
X238476485Y-190116723D01*
X238405057Y-189926247D01*
X238500295Y-189164342D01*
X238619342Y-188973866D01*
X238821723Y-188878628D01*
X239202676Y-188878628D01*
X239381247Y-188973866D01*
X239452676Y-189164342D01*
X239428866Y-189354819D01*
X238452676Y-189545295D01*
X240178866Y-190211961D02*
X240345533Y-188878628D01*
X240297914Y-189259580D02*
X240416961Y-189069104D01*
X240524104Y-188973866D01*
X240726485Y-188878628D01*
X240916961Y-188878628D01*
D10*
D11*
X178934342Y-185600057D02*
X178434342Y-185600057D01*
X178434342Y-186385771D02*
X178434342Y-184885771D01*
X179148628Y-184885771D01*
X179720057Y-186385771D02*
X179720057Y-185385771D01*
X179720057Y-184885771D02*
X179648628Y-184957200D01*
X179720057Y-185028628D01*
X179791485Y-184957200D01*
X179720057Y-184885771D01*
X179720057Y-185028628D01*
X180648628Y-186385771D02*
X180505771Y-186314342D01*
X180434342Y-186171485D01*
X180434342Y-184885771D01*
X181791485Y-186314342D02*
X181648628Y-186385771D01*
X181362914Y-186385771D01*
X181220057Y-186314342D01*
X181148628Y-186171485D01*
X181148628Y-185600057D01*
X181220057Y-185457200D01*
X181362914Y-185385771D01*
X181648628Y-185385771D01*
X181791485Y-185457200D01*
X181862914Y-185600057D01*
X181862914Y-185742914D01*
X181148628Y-185885771D01*
X182505771Y-186242914D02*
X182577200Y-186314342D01*
X182505771Y-186385771D01*
X182434342Y-186314342D01*
X182505771Y-186242914D01*
X182505771Y-186385771D01*
X182505771Y-185457200D02*
X182577200Y-185528628D01*
X182505771Y-185600057D01*
X182434342Y-185528628D01*
X182505771Y-185457200D01*
X182505771Y-185600057D01*
X184220057Y-184885771D02*
X184577200Y-186385771D01*
X184862914Y-185314342D01*
X185148628Y-186385771D01*
X185505771Y-184885771D01*
X186077200Y-186385771D02*
X186077200Y-185385771D01*
X186077200Y-184885771D02*
X186005771Y-184957200D01*
X186077200Y-185028628D01*
X186148628Y-184957200D01*
X186077200Y-184885771D01*
X186077200Y-185028628D01*
X186791485Y-186385771D02*
X186791485Y-185385771D01*
X186791485Y-185671485D02*
X186862914Y-185528628D01*
X186934342Y-185457200D01*
X187077200Y-185385771D01*
X187220057Y-185385771D01*
X188291485Y-186314342D02*
X188148628Y-186385771D01*
X187862914Y-186385771D01*
X187720057Y-186314342D01*
X187648628Y-186171485D01*
X187648628Y-185600057D01*
X187720057Y-185457200D01*
X187862914Y-185385771D01*
X188148628Y-185385771D01*
X188291485Y-185457200D01*
X188362914Y-185600057D01*
X188362914Y-185742914D01*
X187648628Y-185885771D01*
X189220057Y-186385771D02*
X189077200Y-186314342D01*
X189005771Y-186171485D01*
X189005771Y-184885771D01*
X190362914Y-186314342D02*
X190220057Y-186385771D01*
X189934342Y-186385771D01*
X189791485Y-186314342D01*
X189720057Y-186171485D01*
X189720057Y-185600057D01*
X189791485Y-185457200D01*
X189934342Y-185385771D01*
X190220057Y-185385771D01*
X190362914Y-185457200D01*
X190434342Y-185600057D01*
X190434342Y-185742914D01*
X189720057Y-185885771D01*
X191005771Y-186314342D02*
X191148628Y-186385771D01*
X191434342Y-186385771D01*
X191577200Y-186314342D01*
X191648628Y-186171485D01*
X191648628Y-186100057D01*
X191577200Y-185957200D01*
X191434342Y-185885771D01*
X191220057Y-185885771D01*
X191077200Y-185814342D01*
X191005771Y-185671485D01*
X191005771Y-185600057D01*
X191077200Y-185457200D01*
X191220057Y-185385771D01*
X191434342Y-185385771D01*
X191577200Y-185457200D01*
X192220057Y-186314342D02*
X192362914Y-186385771D01*
X192648628Y-186385771D01*
X192791485Y-186314342D01*
X192862914Y-186171485D01*
X192862914Y-186100057D01*
X192791485Y-185957200D01*
X192648628Y-185885771D01*
X192434342Y-185885771D01*
X192291485Y-185814342D01*
X192220057Y-185671485D01*
X192220057Y-185600057D01*
X192291485Y-185457200D01*
X192434342Y-185385771D01*
X192648628Y-185385771D01*
X192791485Y-185457200D01*
X194648628Y-186385771D02*
X194648628Y-184885771D01*
X195220057Y-184885771D01*
X195362914Y-184957200D01*
X195434342Y-185028628D01*
X195505771Y-185171485D01*
X195505771Y-185385771D01*
X195434342Y-185528628D01*
X195362914Y-185600057D01*
X195220057Y-185671485D01*
X194648628Y-185671485D01*
X196362914Y-186385771D02*
X196220057Y-186314342D01*
X196148628Y-186242914D01*
X196077200Y-186100057D01*
X196077200Y-185671485D01*
X196148628Y-185528628D01*
X196220057Y-185457200D01*
X196362914Y-185385771D01*
X196577200Y-185385771D01*
X196720057Y-185457200D01*
X196791485Y-185528628D01*
X196862914Y-185671485D01*
X196862914Y-186100057D01*
X196791485Y-186242914D01*
X196720057Y-186314342D01*
X196577200Y-186385771D01*
X196362914Y-186385771D01*
X197362914Y-185385771D02*
X197648628Y-186385771D01*
X197934342Y-185671485D01*
X198220057Y-186385771D01*
X198505771Y-185385771D01*
X199648628Y-186314342D02*
X199505771Y-186385771D01*
X199220057Y-186385771D01*
X199077200Y-186314342D01*
X199005771Y-186171485D01*
X199005771Y-185600057D01*
X199077200Y-185457200D01*
X199220057Y-185385771D01*
X199505771Y-185385771D01*
X199648628Y-185457200D01*
X199720057Y-185600057D01*
X199720057Y-185742914D01*
X199005771Y-185885771D01*
X200362914Y-186385771D02*
X200362914Y-185385771D01*
X200362914Y-185671485D02*
X200434342Y-185528628D01*
X200505771Y-185457200D01*
X200648628Y-185385771D01*
X200791485Y-185385771D01*
X203291485Y-186385771D02*
X202791485Y-185671485D01*
X202434342Y-186385771D02*
X202434342Y-184885771D01*
X203005771Y-184885771D01*
X203148628Y-184957200D01*
X203220057Y-185028628D01*
X203291485Y-185171485D01*
X203291485Y-185385771D01*
X203220057Y-185528628D01*
X203148628Y-185600057D01*
X203005771Y-185671485D01*
X202434342Y-185671485D01*
X204505771Y-186314342D02*
X204362914Y-186385771D01*
X204077200Y-186385771D01*
X203934342Y-186314342D01*
X203862914Y-186171485D01*
X203862914Y-185600057D01*
X203934342Y-185457200D01*
X204077200Y-185385771D01*
X204362914Y-185385771D01*
X204505771Y-185457200D01*
X204577200Y-185600057D01*
X204577200Y-185742914D01*
X203862914Y-185885771D01*
X205862914Y-186314342D02*
X205720057Y-186385771D01*
X205434342Y-186385771D01*
X205291485Y-186314342D01*
X205220057Y-186242914D01*
X205148628Y-186100057D01*
X205148628Y-185671485D01*
X205220057Y-185528628D01*
X205291485Y-185457200D01*
X205434342Y-185385771D01*
X205720057Y-185385771D01*
X205862914Y-185457200D01*
X207077200Y-186314342D02*
X206934342Y-186385771D01*
X206648628Y-186385771D01*
X206505771Y-186314342D01*
X206434342Y-186171485D01*
X206434342Y-185600057D01*
X206505771Y-185457200D01*
X206648628Y-185385771D01*
X206934342Y-185385771D01*
X207077200Y-185457200D01*
X207148628Y-185600057D01*
X207148628Y-185742914D01*
X206434342Y-185885771D01*
X207791485Y-186385771D02*
X207791485Y-185385771D01*
X207791485Y-184885771D02*
X207720057Y-184957200D01*
X207791485Y-185028628D01*
X207862914Y-184957200D01*
X207791485Y-184885771D01*
X207791485Y-185028628D01*
X208362914Y-185385771D02*
X208720057Y-186385771D01*
X209077200Y-185385771D01*
X210220057Y-186314342D02*
X210077200Y-186385771D01*
X209791485Y-186385771D01*
X209648628Y-186314342D01*
X209577200Y-186171485D01*
X209577200Y-185600057D01*
X209648628Y-185457200D01*
X209791485Y-185385771D01*
X210077200Y-185385771D01*
X210220057Y-185457200D01*
X210291485Y-185600057D01*
X210291485Y-185742914D01*
X209577200Y-185885771D01*
X210934342Y-186385771D02*
X210934342Y-185385771D01*
X210934342Y-185671485D02*
X211005771Y-185528628D01*
X211077200Y-185457200D01*
X211220057Y-185385771D01*
X211362914Y-185385771D01*
X214220057Y-186385771D02*
X214148628Y-186385771D01*
X214005771Y-186314342D01*
X213791485Y-186100057D01*
X213434342Y-185671485D01*
X213291485Y-185457200D01*
X213220057Y-185242914D01*
X213220057Y-185100057D01*
X213291485Y-184957200D01*
X213434342Y-184885771D01*
X213505771Y-184885771D01*
X213648628Y-184957200D01*
X213720057Y-185100057D01*
X213720057Y-185171485D01*
X213648628Y-185314342D01*
X213577200Y-185385771D01*
X213148628Y-185671485D01*
X213077200Y-185742914D01*
X213005771Y-185885771D01*
X213005771Y-186100057D01*
X213077200Y-186242914D01*
X213148628Y-186314342D01*
X213291485Y-186385771D01*
X213505771Y-186385771D01*
X213648628Y-186314342D01*
X213720057Y-186242914D01*
X213934342Y-185957200D01*
X214005771Y-185742914D01*
X214005771Y-185600057D01*
X216862914Y-186242914D02*
X216791485Y-186314342D01*
X216577200Y-186385771D01*
X216434342Y-186385771D01*
X216220057Y-186314342D01*
X216077200Y-186171485D01*
X216005771Y-186028628D01*
X215934342Y-185742914D01*
X215934342Y-185528628D01*
X216005771Y-185242914D01*
X216077200Y-185100057D01*
X216220057Y-184957200D01*
X216434342Y-184885771D01*
X216577200Y-184885771D01*
X216791485Y-184957200D01*
X216862914Y-185028628D01*
X217505771Y-186385771D02*
X217505771Y-184885771D01*
X218148628Y-186385771D02*
X218148628Y-185600057D01*
X218077200Y-185457200D01*
X217934342Y-185385771D01*
X217720057Y-185385771D01*
X217577200Y-185457200D01*
X217505771Y-185528628D01*
X219505771Y-186385771D02*
X219505771Y-185600057D01*
X219434342Y-185457200D01*
X219291485Y-185385771D01*
X219005771Y-185385771D01*
X218862914Y-185457200D01*
X219505771Y-186314342D02*
X219362914Y-186385771D01*
X219005771Y-186385771D01*
X218862914Y-186314342D01*
X218791485Y-186171485D01*
X218791485Y-186028628D01*
X218862914Y-185885771D01*
X219005771Y-185814342D01*
X219362914Y-185814342D01*
X219505771Y-185742914D01*
X220220057Y-186385771D02*
X220220057Y-185385771D01*
X220220057Y-185671485D02*
X220291485Y-185528628D01*
X220362914Y-185457200D01*
X220505771Y-185385771D01*
X220648628Y-185385771D01*
X221791485Y-185385771D02*
X221791485Y-186600057D01*
X221720057Y-186742914D01*
X221648628Y-186814342D01*
X221505771Y-186885771D01*
X221291485Y-186885771D01*
X221148628Y-186814342D01*
X221791485Y-186314342D02*
X221648628Y-186385771D01*
X221362914Y-186385771D01*
X221220057Y-186314342D01*
X221148628Y-186242914D01*
X221077200Y-186100057D01*
X221077200Y-185671485D01*
X221148628Y-185528628D01*
X221220057Y-185457200D01*
X221362914Y-185385771D01*
X221648628Y-185385771D01*
X221791485Y-185457200D01*
X223077200Y-186314342D02*
X222934342Y-186385771D01*
X222648628Y-186385771D01*
X222505771Y-186314342D01*
X222434342Y-186171485D01*
X222434342Y-185600057D01*
X222505771Y-185457200D01*
X222648628Y-185385771D01*
X222934342Y-185385771D01*
X223077200Y-185457200D01*
X223148628Y-185600057D01*
X223148628Y-185742914D01*
X222434342Y-185885771D01*
X223791485Y-186385771D02*
X223791485Y-185385771D01*
X223791485Y-185671485D02*
X223862914Y-185528628D01*
X223934342Y-185457200D01*
X224077200Y-185385771D01*
X224220057Y-185385771D01*
X224720057Y-186242914D02*
X224791485Y-186314342D01*
X224720057Y-186385771D01*
X224648628Y-186314342D01*
X224720057Y-186242914D01*
X224720057Y-186385771D01*
X225434342Y-186385771D02*
X225434342Y-184885771D01*
X225577200Y-185814342D02*
X226005771Y-186385771D01*
X226005771Y-185385771D02*
X225434342Y-185957200D01*
X226648628Y-186385771D02*
X226648628Y-185385771D01*
X226648628Y-184885771D02*
X226577200Y-184957200D01*
X226648628Y-185028628D01*
X226720057Y-184957200D01*
X226648628Y-184885771D01*
X226648628Y-185028628D01*
X228005771Y-186314342D02*
X227862914Y-186385771D01*
X227577200Y-186385771D01*
X227434342Y-186314342D01*
X227362914Y-186242914D01*
X227291485Y-186100057D01*
X227291485Y-185671485D01*
X227362914Y-185528628D01*
X227434342Y-185457200D01*
X227577200Y-185385771D01*
X227862914Y-185385771D01*
X228005771Y-185457200D01*
X229291485Y-186385771D02*
X229291485Y-185600057D01*
X229220057Y-185457200D01*
X229077200Y-185385771D01*
X228791485Y-185385771D01*
X228648628Y-185457200D01*
X229291485Y-186314342D02*
X229148628Y-186385771D01*
X228791485Y-186385771D01*
X228648628Y-186314342D01*
X228577200Y-186171485D01*
X228577200Y-186028628D01*
X228648628Y-185885771D01*
X228791485Y-185814342D01*
X229148628Y-185814342D01*
X229291485Y-185742914D01*
X230648628Y-186385771D02*
X230648628Y-184885771D01*
X230648628Y-186314342D02*
X230505771Y-186385771D01*
X230220057Y-186385771D01*
X230077200Y-186314342D01*
X230005771Y-186242914D01*
X229934342Y-186100057D01*
X229934342Y-185671485D01*
X230005771Y-185528628D01*
X230077200Y-185457200D01*
X230220057Y-185385771D01*
X230505771Y-185385771D01*
X230648628Y-185457200D01*
X231005771Y-186528628D02*
X232148628Y-186528628D01*
X232505771Y-185385771D02*
X232505771Y-186885771D01*
X232505771Y-185457200D02*
X232648628Y-185385771D01*
X232934342Y-185385771D01*
X233077200Y-185457200D01*
X233148628Y-185528628D01*
X233220057Y-185671485D01*
X233220057Y-186100057D01*
X233148628Y-186242914D01*
X233077200Y-186314342D01*
X232934342Y-186385771D01*
X232648628Y-186385771D01*
X232505771Y-186314342D01*
X234505771Y-186314342D02*
X234362914Y-186385771D01*
X234077200Y-186385771D01*
X233934342Y-186314342D01*
X233862914Y-186242914D01*
X233791485Y-186100057D01*
X233791485Y-185671485D01*
X233862914Y-185528628D01*
X233934342Y-185457200D01*
X234077200Y-185385771D01*
X234362914Y-185385771D01*
X234505771Y-185457200D01*
X235148628Y-186385771D02*
X235148628Y-184885771D01*
X235148628Y-185457200D02*
X235291485Y-185385771D01*
X235577200Y-185385771D01*
X235720057Y-185457200D01*
X235791485Y-185528628D01*
X235862914Y-185671485D01*
X235862914Y-186100057D01*
X235791485Y-186242914D01*
X235720057Y-186314342D01*
X235577200Y-186385771D01*
X235291485Y-186385771D01*
X235148628Y-186314342D01*
D10*
D11*
X177002200Y-181507200D02*
X285002200Y-181507200D01*
D10*
D11*
X178362914Y-183614342D02*
X178577200Y-183685771D01*
X178934342Y-183685771D01*
X179077200Y-183614342D01*
X179148628Y-183542914D01*
X179220057Y-183400057D01*
X179220057Y-183257200D01*
X179148628Y-183114342D01*
X179077200Y-183042914D01*
X178934342Y-182971485D01*
X178648628Y-182900057D01*
X178505771Y-182828628D01*
X178434342Y-182757200D01*
X178362914Y-182614342D01*
X178362914Y-182471485D01*
X178434342Y-182328628D01*
X178505771Y-182257200D01*
X178648628Y-182185771D01*
X179005771Y-182185771D01*
X179220057Y-182257200D01*
X179862914Y-183685771D02*
X179862914Y-182185771D01*
X180505771Y-183685771D02*
X180505771Y-182900057D01*
X180434342Y-182757200D01*
X180291485Y-182685771D01*
X180077200Y-182685771D01*
X179934342Y-182757200D01*
X179862914Y-182828628D01*
X181791485Y-183614342D02*
X181648628Y-183685771D01*
X181362914Y-183685771D01*
X181220057Y-183614342D01*
X181148628Y-183471485D01*
X181148628Y-182900057D01*
X181220057Y-182757200D01*
X181362914Y-182685771D01*
X181648628Y-182685771D01*
X181791485Y-182757200D01*
X181862914Y-182900057D01*
X181862914Y-183042914D01*
X181148628Y-183185771D01*
X183077200Y-183614342D02*
X182934342Y-183685771D01*
X182648628Y-183685771D01*
X182505771Y-183614342D01*
X182434342Y-183471485D01*
X182434342Y-182900057D01*
X182505771Y-182757200D01*
X182648628Y-182685771D01*
X182934342Y-182685771D01*
X183077200Y-182757200D01*
X183148628Y-182900057D01*
X183148628Y-183042914D01*
X182434342Y-183185771D01*
X183577200Y-182685771D02*
X184148628Y-182685771D01*
X183791485Y-182185771D02*
X183791485Y-183471485D01*
X183862914Y-183614342D01*
X184005771Y-183685771D01*
X184148628Y-183685771D01*
X184648628Y-183542914D02*
X184720057Y-183614342D01*
X184648628Y-183685771D01*
X184577200Y-183614342D01*
X184648628Y-183542914D01*
X184648628Y-183685771D01*
X184648628Y-182757200D02*
X184720057Y-182828628D01*
X184648628Y-182900057D01*
X184577200Y-182828628D01*
X184648628Y-182757200D01*
X184648628Y-182900057D01*
D10*
D12*
D10*
D11*
D10*
D11*
D10*
D11*
D10*
D11*
D10*
D11*
X197002200Y-191507200D02*
X197002200Y-194507200D01*
D10*
D11*
X261002200Y-191507200D02*
X261002200Y-198007200D01*
X65675000Y-60800000D02*
X206375000Y-60800000D01*
X206375000Y-60800000D02*
X206375000Y-112900000D01*
X206375000Y-112900000D02*
X65675000Y-112900000D01*
X65675000Y-112900000D02*
X65675000Y-60800000D01*
D14*
X64375000Y-59400000D02*
X207600000Y-59400000D01*
X207600000Y-59400000D02*
X207600000Y-114825000D01*
X207600000Y-114825000D02*
X64375000Y-114825000D01*
X64375000Y-114825000D02*
X64375000Y-59400000D01*
D11*
X164295238Y-61304761D02*
X163819047Y-63304761D01*
X163438095Y-61876190D01*
X163057142Y-63304761D01*
X162580952Y-61304761D01*
X161819047Y-63304761D02*
X161819047Y-61304761D01*
X159723809Y-63304761D02*
X160390476Y-62352380D01*
X160866666Y-63304761D02*
X160866666Y-61304761D01*
X160104761Y-61304761D01*
X159914285Y-61400000D01*
X159819047Y-61495238D01*
X159723809Y-61685714D01*
X159723809Y-61971428D01*
X159819047Y-62161904D01*
X159914285Y-62257142D01*
X160104761Y-62352380D01*
X160866666Y-62352380D01*
X158866666Y-62257142D02*
X158200000Y-62257142D01*
X157914285Y-63304761D02*
X158866666Y-63304761D01*
X158866666Y-61304761D01*
X157914285Y-61304761D01*
X156104761Y-63304761D02*
X157057142Y-63304761D01*
X157057142Y-61304761D01*
X155438095Y-62257142D02*
X154771428Y-62257142D01*
X154485714Y-63304761D02*
X155438095Y-63304761D01*
X155438095Y-61304761D01*
X154485714Y-61304761D01*
X153723809Y-63209523D02*
X153438095Y-63304761D01*
X152961904Y-63304761D01*
X152771428Y-63209523D01*
X152676190Y-63114285D01*
X152580952Y-62923809D01*
X152580952Y-62733333D01*
X152676190Y-62542857D01*
X152771428Y-62447619D01*
X152961904Y-62352380D01*
X153342857Y-62257142D01*
X153533333Y-62161904D01*
X153628571Y-62066666D01*
X153723809Y-61876190D01*
X153723809Y-61685714D01*
X153628571Y-61495238D01*
X153533333Y-61400000D01*
X153342857Y-61304761D01*
X152866666Y-61304761D01*
X152580952Y-61400000D01*
X151819047Y-63209523D02*
X151533333Y-63304761D01*
X151057142Y-63304761D01*
X150866666Y-63209523D01*
X150771428Y-63114285D01*
X150676190Y-62923809D01*
X150676190Y-62733333D01*
X150771428Y-62542857D01*
X150866666Y-62447619D01*
X151057142Y-62352380D01*
X151438095Y-62257142D01*
X151628571Y-62161904D01*
X151723809Y-62066666D01*
X151819047Y-61876190D01*
X151819047Y-61685714D01*
X151723809Y-61495238D01*
X151628571Y-61400000D01*
X151438095Y-61304761D01*
X150961904Y-61304761D01*
X150676190Y-61400000D01*
X148295238Y-63304761D02*
X148295238Y-61304761D01*
X147533333Y-61304761D01*
X147342857Y-61400000D01*
X147247619Y-61495238D01*
X147152380Y-61685714D01*
X147152380Y-61971428D01*
X147247619Y-62161904D01*
X147342857Y-62257142D01*
X147533333Y-62352380D01*
X148295238Y-62352380D01*
X145914285Y-61304761D02*
X145533333Y-61304761D01*
X145342857Y-61400000D01*
X145152380Y-61590476D01*
X145057142Y-61971428D01*
X145057142Y-62638095D01*
X145152380Y-63019047D01*
X145342857Y-63209523D01*
X145533333Y-63304761D01*
X145914285Y-63304761D01*
X146104761Y-63209523D01*
X146295238Y-63019047D01*
X146390476Y-62638095D01*
X146390476Y-61971428D01*
X146295238Y-61590476D01*
X146104761Y-61400000D01*
X145914285Y-61304761D01*
X144390476Y-61304761D02*
X143914285Y-63304761D01*
X143533333Y-61876190D01*
X143152380Y-63304761D01*
X142676190Y-61304761D01*
X141914285Y-62257142D02*
X141247619Y-62257142D01*
X140961904Y-63304761D02*
X141914285Y-63304761D01*
X141914285Y-61304761D01*
X140961904Y-61304761D01*
X138961904Y-63304761D02*
X139628571Y-62352380D01*
X140104761Y-63304761D02*
X140104761Y-61304761D01*
X139342857Y-61304761D01*
X139152380Y-61400000D01*
X139057142Y-61495238D01*
X138961904Y-61685714D01*
X138961904Y-61971428D01*
X139057142Y-62161904D01*
X139152380Y-62257142D01*
X139342857Y-62352380D01*
X140104761Y-62352380D01*
X135438095Y-63304761D02*
X136104761Y-62352380D01*
X136580952Y-63304761D02*
X136580952Y-61304761D01*
X135819047Y-61304761D01*
X135628571Y-61400000D01*
X135533333Y-61495238D01*
X135438095Y-61685714D01*
X135438095Y-61971428D01*
X135533333Y-62161904D01*
X135628571Y-62257142D01*
X135819047Y-62352380D01*
X136580952Y-62352380D01*
X134580952Y-62257142D02*
X133914285Y-62257142D01*
X133628571Y-63304761D02*
X134580952Y-63304761D01*
X134580952Y-61304761D01*
X133628571Y-61304761D01*
X131628571Y-63114285D02*
X131723809Y-63209523D01*
X132009523Y-63304761D01*
X132200000Y-63304761D01*
X132485714Y-63209523D01*
X132676190Y-63019047D01*
X132771428Y-62828571D01*
X132866666Y-62447619D01*
X132866666Y-62161904D01*
X132771428Y-61780952D01*
X132676190Y-61590476D01*
X132485714Y-61400000D01*
X132200000Y-61304761D01*
X132009523Y-61304761D01*
X131723809Y-61400000D01*
X131628571Y-61495238D01*
X130771428Y-62257142D02*
X130104761Y-62257142D01*
X129819047Y-63304761D02*
X130771428Y-63304761D01*
X130771428Y-61304761D01*
X129819047Y-61304761D01*
X128961904Y-63304761D02*
X128961904Y-61304761D01*
X128295238Y-61304761D02*
X127628571Y-63304761D01*
X126961904Y-61304761D01*
X126295238Y-62257142D02*
X125628571Y-62257142D01*
X125342857Y-63304761D02*
X126295238Y-63304761D01*
X126295238Y-61304761D01*
X125342857Y-61304761D01*
X123342857Y-63304761D02*
X124009523Y-62352380D01*
X124485714Y-63304761D02*
X124485714Y-61304761D01*
X123723809Y-61304761D01*
X123533333Y-61400000D01*
X123438095Y-61495238D01*
X123342857Y-61685714D01*
X123342857Y-61971428D01*
X123438095Y-62161904D01*
X123533333Y-62257142D01*
X123723809Y-62352380D01*
X124485714Y-62352380D01*
X119342857Y-63304761D02*
X119438095Y-63304761D01*
X119628571Y-63209523D01*
X119914285Y-62923809D01*
X120390476Y-62352380D01*
X120580952Y-62066666D01*
X120676190Y-61780952D01*
X120676190Y-61590476D01*
X120580952Y-61400000D01*
X120390476Y-61304761D01*
X120295238Y-61304761D01*
X120104761Y-61400000D01*
X120009523Y-61590476D01*
X120009523Y-61685714D01*
X120104761Y-61876190D01*
X120200000Y-61971428D01*
X120771428Y-62352380D01*
X120866666Y-62447619D01*
X120961904Y-62638095D01*
X120961904Y-62923809D01*
X120866666Y-63114285D01*
X120771428Y-63209523D01*
X120580952Y-63304761D01*
X120295238Y-63304761D01*
X120104761Y-63209523D01*
X120009523Y-63114285D01*
X119723809Y-62733333D01*
X119628571Y-62447619D01*
X119628571Y-62257142D01*
X115819047Y-63114285D02*
X115914285Y-63209523D01*
X116200000Y-63304761D01*
X116390476Y-63304761D01*
X116676190Y-63209523D01*
X116866666Y-63019047D01*
X116961904Y-62828571D01*
X117057142Y-62447619D01*
X117057142Y-62161904D01*
X116961904Y-61780952D01*
X116866666Y-61590476D01*
X116676190Y-61400000D01*
X116390476Y-61304761D01*
X116200000Y-61304761D01*
X115914285Y-61400000D01*
X115819047Y-61495238D01*
X114961904Y-63304761D02*
X114961904Y-61304761D01*
X114961904Y-62257142D02*
X113819047Y-62257142D01*
X113819047Y-63304761D02*
X113819047Y-61304761D01*
X112961904Y-62733333D02*
X112009523Y-62733333D01*
X113152380Y-63304761D02*
X112485714Y-61304761D01*
X111819047Y-63304761D01*
X110009523Y-63304761D02*
X110676190Y-62352380D01*
X111152380Y-63304761D02*
X111152380Y-61304761D01*
X110390476Y-61304761D01*
X110200000Y-61400000D01*
X110104761Y-61495238D01*
X110009523Y-61685714D01*
X110009523Y-61971428D01*
X110104761Y-62161904D01*
X110200000Y-62257142D01*
X110390476Y-62352380D01*
X111152380Y-62352380D01*
X108104761Y-61400000D02*
X108295238Y-61304761D01*
X108580952Y-61304761D01*
X108866666Y-61400000D01*
X109057142Y-61590476D01*
X109152380Y-61780952D01*
X109247619Y-62161904D01*
X109247619Y-62447619D01*
X109152380Y-62828571D01*
X109057142Y-63019047D01*
X108866666Y-63209523D01*
X108580952Y-63304761D01*
X108390476Y-63304761D01*
X108104761Y-63209523D01*
X108009523Y-63114285D01*
X108009523Y-62447619D01*
X108390476Y-62447619D01*
X107152380Y-62257142D02*
X106485714Y-62257142D01*
X106200000Y-63304761D02*
X107152380Y-63304761D01*
X107152380Y-61304761D01*
X106200000Y-61304761D01*
X104200000Y-63304761D02*
X104866666Y-62352380D01*
X105342857Y-63304761D02*
X105342857Y-61304761D01*
X104580952Y-61304761D01*
X104390476Y-61400000D01*
X104295238Y-61495238D01*
X104200000Y-61685714D01*
X104200000Y-61971428D01*
X104295238Y-62161904D01*
X104390476Y-62257142D01*
X104580952Y-62352380D01*
X105342857Y-62352380D01*
%TO.C,L1*%
X144841666Y-86852380D02*
X145317857Y-86852380D01*
X145317857Y-85852380D01*
X143984523Y-86852380D02*
X144555952Y-86852380D01*
X144270238Y-86852380D02*
X144270238Y-85852380D01*
X144365476Y-85995238D01*
X144460714Y-86090476D01*
X144555952Y-86138095D01*
D15*
X84675000Y-96900000D02*
X127325000Y-96900000D01*
X84675000Y-76900000D02*
X84675000Y-96900000D01*
X127325000Y-76900000D02*
X84675000Y-76900000D01*
X164675000Y-86900000D02*
G75*
G03*
X164675000Y-86900000I-20000000J0D01*
G01*
%TD*%
M02*
