%TF.GenerationSoftware,KiCad,Pcbnew,(6.0.7)*%
%TF.CreationDate,2023-01-12T19:29:26+03:00*%
%TF.ProjectId,Wireless Power Receiver & Charger,57697265-6c65-4737-9320-506f77657220,rev?*%
%TF.SameCoordinates,Original*%
%TF.FileFunction,Legend,Top*%
%TF.FilePolarity,Positive*%
%FSLAX46Y46*%
G04 Gerber Fmt 4.6, Leading zero omitted, Abs format (unit mm)*
G04 Created by KiCad (PCBNEW (6.0.7)) date 2023-01-12 19:29:26*
%MOMM*%
%LPD*%
G01*
G04 APERTURE LIST*
%ADD10C,0.100000*%
%ADD11C,0.150000*%
%ADD12C,0.300000*%
%ADD13C,0.400000*%
%TA.AperFunction,Profile*%
%ADD14C,0.100000*%
%TD*%
%ADD15C,0.120000*%
G04 APERTURE END LIST*
D10*
D11*
X177002200Y-166007200D02*
X177002200Y-198007200D01*
X285002200Y-198007200D01*
X285002200Y-166007200D01*
X177002200Y-166007200D01*
D10*
D11*
X10000000Y-10000000D02*
X10000000Y-200007200D01*
X287002200Y-200007200D01*
X287002200Y-10000000D01*
X10000000Y-10000000D01*
D10*
D11*
X12000000Y-12000000D02*
X12000000Y-198007200D01*
X285002200Y-198007200D01*
X285002200Y-12000000D01*
X12000000Y-12000000D01*
D10*
D11*
X60000000Y-12000000D02*
X60000000Y-10000000D01*
D10*
D11*
X110000000Y-12000000D02*
X110000000Y-10000000D01*
D10*
D11*
X160000000Y-12000000D02*
X160000000Y-10000000D01*
D10*
D11*
X210000000Y-12000000D02*
X210000000Y-10000000D01*
D10*
D11*
X260000000Y-12000000D02*
X260000000Y-10000000D01*
D10*
D11*
X36065476Y-11588095D02*
X35322619Y-11588095D01*
X35694047Y-11588095D02*
X35694047Y-10288095D01*
X35570238Y-10473809D01*
X35446428Y-10597619D01*
X35322619Y-10659523D01*
D10*
D11*
X85322619Y-10411904D02*
X85384523Y-10350000D01*
X85508333Y-10288095D01*
X85817857Y-10288095D01*
X85941666Y-10350000D01*
X86003571Y-10411904D01*
X86065476Y-10535714D01*
X86065476Y-10659523D01*
X86003571Y-10845238D01*
X85260714Y-11588095D01*
X86065476Y-11588095D01*
D10*
D11*
X135260714Y-10288095D02*
X136065476Y-10288095D01*
X135632142Y-10783333D01*
X135817857Y-10783333D01*
X135941666Y-10845238D01*
X136003571Y-10907142D01*
X136065476Y-11030952D01*
X136065476Y-11340476D01*
X136003571Y-11464285D01*
X135941666Y-11526190D01*
X135817857Y-11588095D01*
X135446428Y-11588095D01*
X135322619Y-11526190D01*
X135260714Y-11464285D01*
D10*
D11*
X185941666Y-10721428D02*
X185941666Y-11588095D01*
X185632142Y-10226190D02*
X185322619Y-11154761D01*
X186127380Y-11154761D01*
D10*
D11*
X236003571Y-10288095D02*
X235384523Y-10288095D01*
X235322619Y-10907142D01*
X235384523Y-10845238D01*
X235508333Y-10783333D01*
X235817857Y-10783333D01*
X235941666Y-10845238D01*
X236003571Y-10907142D01*
X236065476Y-11030952D01*
X236065476Y-11340476D01*
X236003571Y-11464285D01*
X235941666Y-11526190D01*
X235817857Y-11588095D01*
X235508333Y-11588095D01*
X235384523Y-11526190D01*
X235322619Y-11464285D01*
D10*
D11*
X285941666Y-10288095D02*
X285694047Y-10288095D01*
X285570238Y-10350000D01*
X285508333Y-10411904D01*
X285384523Y-10597619D01*
X285322619Y-10845238D01*
X285322619Y-11340476D01*
X285384523Y-11464285D01*
X285446428Y-11526190D01*
X285570238Y-11588095D01*
X285817857Y-11588095D01*
X285941666Y-11526190D01*
X286003571Y-11464285D01*
X286065476Y-11340476D01*
X286065476Y-11030952D01*
X286003571Y-10907142D01*
X285941666Y-10845238D01*
X285817857Y-10783333D01*
X285570238Y-10783333D01*
X285446428Y-10845238D01*
X285384523Y-10907142D01*
X285322619Y-11030952D01*
D10*
D11*
X60000000Y-198007200D02*
X60000000Y-200007200D01*
D10*
D11*
X110000000Y-198007200D02*
X110000000Y-200007200D01*
D10*
D11*
X160000000Y-198007200D02*
X160000000Y-200007200D01*
D10*
D11*
X210000000Y-198007200D02*
X210000000Y-200007200D01*
D10*
D11*
X260000000Y-198007200D02*
X260000000Y-200007200D01*
D10*
D11*
X36065476Y-199595295D02*
X35322619Y-199595295D01*
X35694047Y-199595295D02*
X35694047Y-198295295D01*
X35570238Y-198481009D01*
X35446428Y-198604819D01*
X35322619Y-198666723D01*
D10*
D11*
X85322619Y-198419104D02*
X85384523Y-198357200D01*
X85508333Y-198295295D01*
X85817857Y-198295295D01*
X85941666Y-198357200D01*
X86003571Y-198419104D01*
X86065476Y-198542914D01*
X86065476Y-198666723D01*
X86003571Y-198852438D01*
X85260714Y-199595295D01*
X86065476Y-199595295D01*
D10*
D11*
X135260714Y-198295295D02*
X136065476Y-198295295D01*
X135632142Y-198790533D01*
X135817857Y-198790533D01*
X135941666Y-198852438D01*
X136003571Y-198914342D01*
X136065476Y-199038152D01*
X136065476Y-199347676D01*
X136003571Y-199471485D01*
X135941666Y-199533390D01*
X135817857Y-199595295D01*
X135446428Y-199595295D01*
X135322619Y-199533390D01*
X135260714Y-199471485D01*
D10*
D11*
X185941666Y-198728628D02*
X185941666Y-199595295D01*
X185632142Y-198233390D02*
X185322619Y-199161961D01*
X186127380Y-199161961D01*
D10*
D11*
X236003571Y-198295295D02*
X235384523Y-198295295D01*
X235322619Y-198914342D01*
X235384523Y-198852438D01*
X235508333Y-198790533D01*
X235817857Y-198790533D01*
X235941666Y-198852438D01*
X236003571Y-198914342D01*
X236065476Y-199038152D01*
X236065476Y-199347676D01*
X236003571Y-199471485D01*
X235941666Y-199533390D01*
X235817857Y-199595295D01*
X235508333Y-199595295D01*
X235384523Y-199533390D01*
X235322619Y-199471485D01*
D10*
D11*
X285941666Y-198295295D02*
X285694047Y-198295295D01*
X285570238Y-198357200D01*
X285508333Y-198419104D01*
X285384523Y-198604819D01*
X285322619Y-198852438D01*
X285322619Y-199347676D01*
X285384523Y-199471485D01*
X285446428Y-199533390D01*
X285570238Y-199595295D01*
X285817857Y-199595295D01*
X285941666Y-199533390D01*
X286003571Y-199471485D01*
X286065476Y-199347676D01*
X286065476Y-199038152D01*
X286003571Y-198914342D01*
X285941666Y-198852438D01*
X285817857Y-198790533D01*
X285570238Y-198790533D01*
X285446428Y-198852438D01*
X285384523Y-198914342D01*
X285322619Y-199038152D01*
D10*
D11*
X10000000Y-60000000D02*
X12000000Y-60000000D01*
D10*
D11*
X10000000Y-110000000D02*
X12000000Y-110000000D01*
D10*
D11*
X10000000Y-160000000D02*
X12000000Y-160000000D01*
D10*
D11*
X10690476Y-35216666D02*
X11309523Y-35216666D01*
X10566666Y-35588095D02*
X11000000Y-34288095D01*
X11433333Y-35588095D01*
D10*
D11*
X11092857Y-84907142D02*
X11278571Y-84969047D01*
X11340476Y-85030952D01*
X11402380Y-85154761D01*
X11402380Y-85340476D01*
X11340476Y-85464285D01*
X11278571Y-85526190D01*
X11154761Y-85588095D01*
X10659523Y-85588095D01*
X10659523Y-84288095D01*
X11092857Y-84288095D01*
X11216666Y-84350000D01*
X11278571Y-84411904D01*
X11340476Y-84535714D01*
X11340476Y-84659523D01*
X11278571Y-84783333D01*
X11216666Y-84845238D01*
X11092857Y-84907142D01*
X10659523Y-84907142D01*
D10*
D11*
X11402380Y-135464285D02*
X11340476Y-135526190D01*
X11154761Y-135588095D01*
X11030952Y-135588095D01*
X10845238Y-135526190D01*
X10721428Y-135402380D01*
X10659523Y-135278571D01*
X10597619Y-135030952D01*
X10597619Y-134845238D01*
X10659523Y-134597619D01*
X10721428Y-134473809D01*
X10845238Y-134350000D01*
X11030952Y-134288095D01*
X11154761Y-134288095D01*
X11340476Y-134350000D01*
X11402380Y-134411904D01*
D10*
D11*
X10659523Y-185588095D02*
X10659523Y-184288095D01*
X10969047Y-184288095D01*
X11154761Y-184350000D01*
X11278571Y-184473809D01*
X11340476Y-184597619D01*
X11402380Y-184845238D01*
X11402380Y-185030952D01*
X11340476Y-185278571D01*
X11278571Y-185402380D01*
X11154761Y-185526190D01*
X10969047Y-185588095D01*
X10659523Y-185588095D01*
D10*
D11*
X287002200Y-60000000D02*
X285002200Y-60000000D01*
D10*
D11*
X287002200Y-110000000D02*
X285002200Y-110000000D01*
D10*
D11*
X287002200Y-160000000D02*
X285002200Y-160000000D01*
D10*
D11*
X285692676Y-35216666D02*
X286311723Y-35216666D01*
X285568866Y-35588095D02*
X286002200Y-34288095D01*
X286435533Y-35588095D01*
D10*
D11*
X286095057Y-84907142D02*
X286280771Y-84969047D01*
X286342676Y-85030952D01*
X286404580Y-85154761D01*
X286404580Y-85340476D01*
X286342676Y-85464285D01*
X286280771Y-85526190D01*
X286156961Y-85588095D01*
X285661723Y-85588095D01*
X285661723Y-84288095D01*
X286095057Y-84288095D01*
X286218866Y-84350000D01*
X286280771Y-84411904D01*
X286342676Y-84535714D01*
X286342676Y-84659523D01*
X286280771Y-84783333D01*
X286218866Y-84845238D01*
X286095057Y-84907142D01*
X285661723Y-84907142D01*
D10*
D11*
X286404580Y-135464285D02*
X286342676Y-135526190D01*
X286156961Y-135588095D01*
X286033152Y-135588095D01*
X285847438Y-135526190D01*
X285723628Y-135402380D01*
X285661723Y-135278571D01*
X285599819Y-135030952D01*
X285599819Y-134845238D01*
X285661723Y-134597619D01*
X285723628Y-134473809D01*
X285847438Y-134350000D01*
X286033152Y-134288095D01*
X286156961Y-134288095D01*
X286342676Y-134350000D01*
X286404580Y-134411904D01*
D10*
D11*
X285661723Y-185588095D02*
X285661723Y-184288095D01*
X285971247Y-184288095D01*
X286156961Y-184350000D01*
X286280771Y-184473809D01*
X286342676Y-184597619D01*
X286404580Y-184845238D01*
X286404580Y-185030952D01*
X286342676Y-185278571D01*
X286280771Y-185402380D01*
X286156961Y-185526190D01*
X285971247Y-185588095D01*
X285661723Y-185588095D01*
D10*
D11*
X200434342Y-193785771D02*
X200434342Y-192285771D01*
X200791485Y-192285771D01*
X201005771Y-192357200D01*
X201148628Y-192500057D01*
X201220057Y-192642914D01*
X201291485Y-192928628D01*
X201291485Y-193142914D01*
X201220057Y-193428628D01*
X201148628Y-193571485D01*
X201005771Y-193714342D01*
X200791485Y-193785771D01*
X200434342Y-193785771D01*
X202577200Y-193785771D02*
X202577200Y-193000057D01*
X202505771Y-192857200D01*
X202362914Y-192785771D01*
X202077200Y-192785771D01*
X201934342Y-192857200D01*
X202577200Y-193714342D02*
X202434342Y-193785771D01*
X202077200Y-193785771D01*
X201934342Y-193714342D01*
X201862914Y-193571485D01*
X201862914Y-193428628D01*
X201934342Y-193285771D01*
X202077200Y-193214342D01*
X202434342Y-193214342D01*
X202577200Y-193142914D01*
X203077200Y-192785771D02*
X203648628Y-192785771D01*
X203291485Y-192285771D02*
X203291485Y-193571485D01*
X203362914Y-193714342D01*
X203505771Y-193785771D01*
X203648628Y-193785771D01*
X204720057Y-193714342D02*
X204577200Y-193785771D01*
X204291485Y-193785771D01*
X204148628Y-193714342D01*
X204077200Y-193571485D01*
X204077200Y-193000057D01*
X204148628Y-192857200D01*
X204291485Y-192785771D01*
X204577200Y-192785771D01*
X204720057Y-192857200D01*
X204791485Y-193000057D01*
X204791485Y-193142914D01*
X204077200Y-193285771D01*
X205434342Y-193642914D02*
X205505771Y-193714342D01*
X205434342Y-193785771D01*
X205362914Y-193714342D01*
X205434342Y-193642914D01*
X205434342Y-193785771D01*
X205434342Y-192857200D02*
X205505771Y-192928628D01*
X205434342Y-193000057D01*
X205362914Y-192928628D01*
X205434342Y-192857200D01*
X205434342Y-193000057D01*
X207220057Y-192428628D02*
X207291485Y-192357200D01*
X207434342Y-192285771D01*
X207791485Y-192285771D01*
X207934342Y-192357200D01*
X208005771Y-192428628D01*
X208077200Y-192571485D01*
X208077200Y-192714342D01*
X208005771Y-192928628D01*
X207148628Y-193785771D01*
X208077200Y-193785771D01*
X209005771Y-192285771D02*
X209148628Y-192285771D01*
X209291485Y-192357200D01*
X209362914Y-192428628D01*
X209434342Y-192571485D01*
X209505771Y-192857200D01*
X209505771Y-193214342D01*
X209434342Y-193500057D01*
X209362914Y-193642914D01*
X209291485Y-193714342D01*
X209148628Y-193785771D01*
X209005771Y-193785771D01*
X208862914Y-193714342D01*
X208791485Y-193642914D01*
X208720057Y-193500057D01*
X208648628Y-193214342D01*
X208648628Y-192857200D01*
X208720057Y-192571485D01*
X208791485Y-192428628D01*
X208862914Y-192357200D01*
X209005771Y-192285771D01*
X210077200Y-192428628D02*
X210148628Y-192357200D01*
X210291485Y-192285771D01*
X210648628Y-192285771D01*
X210791485Y-192357200D01*
X210862914Y-192428628D01*
X210934342Y-192571485D01*
X210934342Y-192714342D01*
X210862914Y-192928628D01*
X210005771Y-193785771D01*
X210934342Y-193785771D01*
X211434342Y-192285771D02*
X212362914Y-192285771D01*
X211862914Y-192857200D01*
X212077200Y-192857200D01*
X212220057Y-192928628D01*
X212291485Y-193000057D01*
X212362914Y-193142914D01*
X212362914Y-193500057D01*
X212291485Y-193642914D01*
X212220057Y-193714342D01*
X212077200Y-193785771D01*
X211648628Y-193785771D01*
X211505771Y-193714342D01*
X211434342Y-193642914D01*
X213005771Y-193214342D02*
X214148628Y-193214342D01*
X215148628Y-192285771D02*
X215291485Y-192285771D01*
X215434342Y-192357200D01*
X215505771Y-192428628D01*
X215577200Y-192571485D01*
X215648628Y-192857200D01*
X215648628Y-193214342D01*
X215577200Y-193500057D01*
X215505771Y-193642914D01*
X215434342Y-193714342D01*
X215291485Y-193785771D01*
X215148628Y-193785771D01*
X215005771Y-193714342D01*
X214934342Y-193642914D01*
X214862914Y-193500057D01*
X214791485Y-193214342D01*
X214791485Y-192857200D01*
X214862914Y-192571485D01*
X214934342Y-192428628D01*
X215005771Y-192357200D01*
X215148628Y-192285771D01*
X217077200Y-193785771D02*
X216220057Y-193785771D01*
X216648628Y-193785771D02*
X216648628Y-192285771D01*
X216505771Y-192500057D01*
X216362914Y-192642914D01*
X216220057Y-192714342D01*
X217720057Y-193214342D02*
X218862914Y-193214342D01*
X220362914Y-193785771D02*
X219505771Y-193785771D01*
X219934342Y-193785771D02*
X219934342Y-192285771D01*
X219791485Y-192500057D01*
X219648628Y-192642914D01*
X219505771Y-192714342D01*
X221291485Y-192285771D02*
X221434342Y-192285771D01*
X221577200Y-192357200D01*
X221648628Y-192428628D01*
X221720057Y-192571485D01*
X221791485Y-192857200D01*
X221791485Y-193214342D01*
X221720057Y-193500057D01*
X221648628Y-193642914D01*
X221577200Y-193714342D01*
X221434342Y-193785771D01*
X221291485Y-193785771D01*
X221148628Y-193714342D01*
X221077200Y-193642914D01*
X221005771Y-193500057D01*
X220934342Y-193214342D01*
X220934342Y-192857200D01*
X221005771Y-192571485D01*
X221077200Y-192428628D01*
X221148628Y-192357200D01*
X221291485Y-192285771D01*
D10*
D11*
X177002200Y-194507200D02*
X285002200Y-194507200D01*
D10*
D11*
X178434342Y-196585771D02*
X178434342Y-195085771D01*
X179291485Y-196585771D02*
X178648628Y-195728628D01*
X179291485Y-195085771D02*
X178434342Y-195942914D01*
X179934342Y-196585771D02*
X179934342Y-195585771D01*
X179934342Y-195085771D02*
X179862914Y-195157200D01*
X179934342Y-195228628D01*
X180005771Y-195157200D01*
X179934342Y-195085771D01*
X179934342Y-195228628D01*
X181505771Y-196442914D02*
X181434342Y-196514342D01*
X181220057Y-196585771D01*
X181077200Y-196585771D01*
X180862914Y-196514342D01*
X180720057Y-196371485D01*
X180648628Y-196228628D01*
X180577200Y-195942914D01*
X180577200Y-195728628D01*
X180648628Y-195442914D01*
X180720057Y-195300057D01*
X180862914Y-195157200D01*
X181077200Y-195085771D01*
X181220057Y-195085771D01*
X181434342Y-195157200D01*
X181505771Y-195228628D01*
X182791485Y-196585771D02*
X182791485Y-195800057D01*
X182720057Y-195657200D01*
X182577200Y-195585771D01*
X182291485Y-195585771D01*
X182148628Y-195657200D01*
X182791485Y-196514342D02*
X182648628Y-196585771D01*
X182291485Y-196585771D01*
X182148628Y-196514342D01*
X182077200Y-196371485D01*
X182077200Y-196228628D01*
X182148628Y-196085771D01*
X182291485Y-196014342D01*
X182648628Y-196014342D01*
X182791485Y-195942914D01*
X184148628Y-196585771D02*
X184148628Y-195085771D01*
X184148628Y-196514342D02*
X184005771Y-196585771D01*
X183720057Y-196585771D01*
X183577200Y-196514342D01*
X183505771Y-196442914D01*
X183434342Y-196300057D01*
X183434342Y-195871485D01*
X183505771Y-195728628D01*
X183577200Y-195657200D01*
X183720057Y-195585771D01*
X184005771Y-195585771D01*
X184148628Y-195657200D01*
X186005771Y-195800057D02*
X186505771Y-195800057D01*
X186720057Y-196585771D02*
X186005771Y-196585771D01*
X186005771Y-195085771D01*
X186720057Y-195085771D01*
X187362914Y-196442914D02*
X187434342Y-196514342D01*
X187362914Y-196585771D01*
X187291485Y-196514342D01*
X187362914Y-196442914D01*
X187362914Y-196585771D01*
X188077200Y-196585771D02*
X188077200Y-195085771D01*
X188434342Y-195085771D01*
X188648628Y-195157200D01*
X188791485Y-195300057D01*
X188862914Y-195442914D01*
X188934342Y-195728628D01*
X188934342Y-195942914D01*
X188862914Y-196228628D01*
X188791485Y-196371485D01*
X188648628Y-196514342D01*
X188434342Y-196585771D01*
X188077200Y-196585771D01*
X189577200Y-196442914D02*
X189648628Y-196514342D01*
X189577200Y-196585771D01*
X189505771Y-196514342D01*
X189577200Y-196442914D01*
X189577200Y-196585771D01*
X190220057Y-196157200D02*
X190934342Y-196157200D01*
X190077200Y-196585771D02*
X190577200Y-195085771D01*
X191077200Y-196585771D01*
X191577200Y-196442914D02*
X191648628Y-196514342D01*
X191577200Y-196585771D01*
X191505771Y-196514342D01*
X191577200Y-196442914D01*
X191577200Y-196585771D01*
X194577200Y-196585771D02*
X194577200Y-195085771D01*
X194720057Y-196014342D02*
X195148628Y-196585771D01*
X195148628Y-195585771D02*
X194577200Y-196157200D01*
X195791485Y-196585771D02*
X195791485Y-195585771D01*
X195791485Y-195085771D02*
X195720057Y-195157200D01*
X195791485Y-195228628D01*
X195862914Y-195157200D01*
X195791485Y-195085771D01*
X195791485Y-195228628D01*
X197148628Y-196514342D02*
X197005771Y-196585771D01*
X196720057Y-196585771D01*
X196577200Y-196514342D01*
X196505771Y-196442914D01*
X196434342Y-196300057D01*
X196434342Y-195871485D01*
X196505771Y-195728628D01*
X196577200Y-195657200D01*
X196720057Y-195585771D01*
X197005771Y-195585771D01*
X197148628Y-195657200D01*
X198434342Y-196585771D02*
X198434342Y-195800057D01*
X198362914Y-195657200D01*
X198220057Y-195585771D01*
X197934342Y-195585771D01*
X197791485Y-195657200D01*
X198434342Y-196514342D02*
X198291485Y-196585771D01*
X197934342Y-196585771D01*
X197791485Y-196514342D01*
X197720057Y-196371485D01*
X197720057Y-196228628D01*
X197791485Y-196085771D01*
X197934342Y-196014342D01*
X198291485Y-196014342D01*
X198434342Y-195942914D01*
X199791485Y-196585771D02*
X199791485Y-195085771D01*
X199791485Y-196514342D02*
X199648628Y-196585771D01*
X199362914Y-196585771D01*
X199220057Y-196514342D01*
X199148628Y-196442914D01*
X199077200Y-196300057D01*
X199077200Y-195871485D01*
X199148628Y-195728628D01*
X199220057Y-195657200D01*
X199362914Y-195585771D01*
X199648628Y-195585771D01*
X199791485Y-195657200D01*
X202077200Y-197157200D02*
X202005771Y-197085771D01*
X201862914Y-196871485D01*
X201791485Y-196728628D01*
X201720057Y-196514342D01*
X201648628Y-196157200D01*
X201648628Y-195871485D01*
X201720057Y-195514342D01*
X201791485Y-195300057D01*
X201862914Y-195157200D01*
X202005771Y-194942914D01*
X202077200Y-194871485D01*
X203291485Y-195085771D02*
X203005771Y-195085771D01*
X202862914Y-195157200D01*
X202791485Y-195228628D01*
X202648628Y-195442914D01*
X202577200Y-195728628D01*
X202577200Y-196300057D01*
X202648628Y-196442914D01*
X202720057Y-196514342D01*
X202862914Y-196585771D01*
X203148628Y-196585771D01*
X203291485Y-196514342D01*
X203362914Y-196442914D01*
X203434342Y-196300057D01*
X203434342Y-195942914D01*
X203362914Y-195800057D01*
X203291485Y-195728628D01*
X203148628Y-195657200D01*
X202862914Y-195657200D01*
X202720057Y-195728628D01*
X202648628Y-195800057D01*
X202577200Y-195942914D01*
X204077200Y-196442914D02*
X204148628Y-196514342D01*
X204077200Y-196585771D01*
X204005771Y-196514342D01*
X204077200Y-196442914D01*
X204077200Y-196585771D01*
X205077200Y-195085771D02*
X205220057Y-195085771D01*
X205362914Y-195157200D01*
X205434342Y-195228628D01*
X205505771Y-195371485D01*
X205577200Y-195657200D01*
X205577200Y-196014342D01*
X205505771Y-196300057D01*
X205434342Y-196442914D01*
X205362914Y-196514342D01*
X205220057Y-196585771D01*
X205077200Y-196585771D01*
X204934342Y-196514342D01*
X204862914Y-196442914D01*
X204791485Y-196300057D01*
X204720057Y-196014342D01*
X204720057Y-195657200D01*
X204791485Y-195371485D01*
X204862914Y-195228628D01*
X204934342Y-195157200D01*
X205077200Y-195085771D01*
X206220057Y-196442914D02*
X206291485Y-196514342D01*
X206220057Y-196585771D01*
X206148628Y-196514342D01*
X206220057Y-196442914D01*
X206220057Y-196585771D01*
X206791485Y-195085771D02*
X207791485Y-195085771D01*
X207148628Y-196585771D01*
X208220057Y-197157200D02*
X208291485Y-197085771D01*
X208434342Y-196871485D01*
X208505771Y-196728628D01*
X208577200Y-196514342D01*
X208648628Y-196157200D01*
X208648628Y-195871485D01*
X208577200Y-195514342D01*
X208505771Y-195300057D01*
X208434342Y-195157200D01*
X208291485Y-194942914D01*
X208220057Y-194871485D01*
D10*
D11*
X177002200Y-191507200D02*
X285002200Y-191507200D01*
D10*
D12*
X264411485Y-193785771D02*
X263911485Y-193071485D01*
X263554342Y-193785771D02*
X263554342Y-192285771D01*
X264125771Y-192285771D01*
X264268628Y-192357200D01*
X264340057Y-192428628D01*
X264411485Y-192571485D01*
X264411485Y-192785771D01*
X264340057Y-192928628D01*
X264268628Y-193000057D01*
X264125771Y-193071485D01*
X263554342Y-193071485D01*
X265625771Y-193714342D02*
X265482914Y-193785771D01*
X265197200Y-193785771D01*
X265054342Y-193714342D01*
X264982914Y-193571485D01*
X264982914Y-193000057D01*
X265054342Y-192857200D01*
X265197200Y-192785771D01*
X265482914Y-192785771D01*
X265625771Y-192857200D01*
X265697200Y-193000057D01*
X265697200Y-193142914D01*
X264982914Y-193285771D01*
X266197200Y-192785771D02*
X266554342Y-193785771D01*
X266911485Y-192785771D01*
X267482914Y-193642914D02*
X267554342Y-193714342D01*
X267482914Y-193785771D01*
X267411485Y-193714342D01*
X267482914Y-193642914D01*
X267482914Y-193785771D01*
X267482914Y-192857200D02*
X267554342Y-192928628D01*
X267482914Y-193000057D01*
X267411485Y-192928628D01*
X267482914Y-192857200D01*
X267482914Y-193000057D01*
D10*
D11*
X178362914Y-193714342D02*
X178577200Y-193785771D01*
X178934342Y-193785771D01*
X179077200Y-193714342D01*
X179148628Y-193642914D01*
X179220057Y-193500057D01*
X179220057Y-193357200D01*
X179148628Y-193214342D01*
X179077200Y-193142914D01*
X178934342Y-193071485D01*
X178648628Y-193000057D01*
X178505771Y-192928628D01*
X178434342Y-192857200D01*
X178362914Y-192714342D01*
X178362914Y-192571485D01*
X178434342Y-192428628D01*
X178505771Y-192357200D01*
X178648628Y-192285771D01*
X179005771Y-192285771D01*
X179220057Y-192357200D01*
X179862914Y-193785771D02*
X179862914Y-192785771D01*
X179862914Y-192285771D02*
X179791485Y-192357200D01*
X179862914Y-192428628D01*
X179934342Y-192357200D01*
X179862914Y-192285771D01*
X179862914Y-192428628D01*
X180434342Y-192785771D02*
X181220057Y-192785771D01*
X180434342Y-193785771D01*
X181220057Y-193785771D01*
X182362914Y-193714342D02*
X182220057Y-193785771D01*
X181934342Y-193785771D01*
X181791485Y-193714342D01*
X181720057Y-193571485D01*
X181720057Y-193000057D01*
X181791485Y-192857200D01*
X181934342Y-192785771D01*
X182220057Y-192785771D01*
X182362914Y-192857200D01*
X182434342Y-193000057D01*
X182434342Y-193142914D01*
X181720057Y-193285771D01*
X183077200Y-193642914D02*
X183148628Y-193714342D01*
X183077200Y-193785771D01*
X183005771Y-193714342D01*
X183077200Y-193642914D01*
X183077200Y-193785771D01*
X183077200Y-192857200D02*
X183148628Y-192928628D01*
X183077200Y-193000057D01*
X183005771Y-192928628D01*
X183077200Y-192857200D01*
X183077200Y-193000057D01*
X184862914Y-193357200D02*
X185577200Y-193357200D01*
X184720057Y-193785771D02*
X185220057Y-192285771D01*
X185720057Y-193785771D01*
X186862914Y-192785771D02*
X186862914Y-193785771D01*
X186505771Y-192214342D02*
X186148628Y-193285771D01*
X187077200Y-193285771D01*
D10*
D11*
X263434342Y-196585771D02*
X263434342Y-195085771D01*
X264791485Y-196585771D02*
X264791485Y-195085771D01*
X264791485Y-196514342D02*
X264648628Y-196585771D01*
X264362914Y-196585771D01*
X264220057Y-196514342D01*
X264148628Y-196442914D01*
X264077200Y-196300057D01*
X264077200Y-195871485D01*
X264148628Y-195728628D01*
X264220057Y-195657200D01*
X264362914Y-195585771D01*
X264648628Y-195585771D01*
X264791485Y-195657200D01*
X265505771Y-196442914D02*
X265577200Y-196514342D01*
X265505771Y-196585771D01*
X265434342Y-196514342D01*
X265505771Y-196442914D01*
X265505771Y-196585771D01*
X265505771Y-195657200D02*
X265577200Y-195728628D01*
X265505771Y-195800057D01*
X265434342Y-195728628D01*
X265505771Y-195657200D01*
X265505771Y-195800057D01*
X268148628Y-196585771D02*
X267291485Y-196585771D01*
X267720057Y-196585771D02*
X267720057Y-195085771D01*
X267577200Y-195300057D01*
X267434342Y-195442914D01*
X267291485Y-195514342D01*
X269862914Y-195014342D02*
X268577200Y-196942914D01*
X271148628Y-196585771D02*
X270291485Y-196585771D01*
X270720057Y-196585771D02*
X270720057Y-195085771D01*
X270577200Y-195300057D01*
X270434342Y-195442914D01*
X270291485Y-195514342D01*
D10*
D11*
X177002200Y-187507200D02*
X285002200Y-187507200D01*
D10*
D13*
X178714580Y-188211961D02*
X179857438Y-188211961D01*
X179036009Y-190211961D02*
X179286009Y-188211961D01*
X180274104Y-190211961D02*
X180440771Y-188878628D01*
X180524104Y-188211961D02*
X180416961Y-188307200D01*
X180500295Y-188402438D01*
X180607438Y-188307200D01*
X180524104Y-188211961D01*
X180500295Y-188402438D01*
X181107438Y-188878628D02*
X181869342Y-188878628D01*
X181476485Y-188211961D02*
X181262200Y-189926247D01*
X181333628Y-190116723D01*
X181512200Y-190211961D01*
X181702676Y-190211961D01*
X182655057Y-190211961D02*
X182476485Y-190116723D01*
X182405057Y-189926247D01*
X182619342Y-188211961D01*
X184190771Y-190116723D02*
X183988390Y-190211961D01*
X183607438Y-190211961D01*
X183428866Y-190116723D01*
X183357438Y-189926247D01*
X183452676Y-189164342D01*
X183571723Y-188973866D01*
X183774104Y-188878628D01*
X184155057Y-188878628D01*
X184333628Y-188973866D01*
X184405057Y-189164342D01*
X184381247Y-189354819D01*
X183405057Y-189545295D01*
X185155057Y-190021485D02*
X185238390Y-190116723D01*
X185131247Y-190211961D01*
X185047914Y-190116723D01*
X185155057Y-190021485D01*
X185131247Y-190211961D01*
X185286009Y-188973866D02*
X185369342Y-189069104D01*
X185262200Y-189164342D01*
X185178866Y-189069104D01*
X185286009Y-188973866D01*
X185262200Y-189164342D01*
X187666961Y-188211961D02*
X187893152Y-190211961D01*
X188452676Y-188783390D01*
X188655057Y-190211961D01*
X189381247Y-188211961D01*
X189893152Y-190211961D02*
X190059819Y-188878628D01*
X190143152Y-188211961D02*
X190036009Y-188307200D01*
X190119342Y-188402438D01*
X190226485Y-188307200D01*
X190143152Y-188211961D01*
X190119342Y-188402438D01*
X190845533Y-190211961D02*
X191012200Y-188878628D01*
X190964580Y-189259580D02*
X191083628Y-189069104D01*
X191190771Y-188973866D01*
X191393152Y-188878628D01*
X191583628Y-188878628D01*
X192857438Y-190116723D02*
X192655057Y-190211961D01*
X192274104Y-190211961D01*
X192095533Y-190116723D01*
X192024104Y-189926247D01*
X192119342Y-189164342D01*
X192238390Y-188973866D01*
X192440771Y-188878628D01*
X192821723Y-188878628D01*
X193000295Y-188973866D01*
X193071723Y-189164342D01*
X193047914Y-189354819D01*
X192071723Y-189545295D01*
X194083628Y-190211961D02*
X193905057Y-190116723D01*
X193833628Y-189926247D01*
X194047914Y-188211961D01*
X195619342Y-190116723D02*
X195416961Y-190211961D01*
X195036009Y-190211961D01*
X194857438Y-190116723D01*
X194786009Y-189926247D01*
X194881247Y-189164342D01*
X195000295Y-188973866D01*
X195202676Y-188878628D01*
X195583628Y-188878628D01*
X195762200Y-188973866D01*
X195833628Y-189164342D01*
X195809819Y-189354819D01*
X194833628Y-189545295D01*
X196476485Y-190116723D02*
X196655057Y-190211961D01*
X197036009Y-190211961D01*
X197238390Y-190116723D01*
X197357438Y-189926247D01*
X197369342Y-189831009D01*
X197297914Y-189640533D01*
X197119342Y-189545295D01*
X196833628Y-189545295D01*
X196655057Y-189450057D01*
X196583628Y-189259580D01*
X196595533Y-189164342D01*
X196714580Y-188973866D01*
X196916961Y-188878628D01*
X197202676Y-188878628D01*
X197381247Y-188973866D01*
X198095533Y-190116723D02*
X198274104Y-190211961D01*
X198655057Y-190211961D01*
X198857438Y-190116723D01*
X198976485Y-189926247D01*
X198988390Y-189831009D01*
X198916961Y-189640533D01*
X198738390Y-189545295D01*
X198452676Y-189545295D01*
X198274104Y-189450057D01*
X198202676Y-189259580D01*
X198214580Y-189164342D01*
X198333628Y-188973866D01*
X198536009Y-188878628D01*
X198821723Y-188878628D01*
X199000295Y-188973866D01*
X201321723Y-190211961D02*
X201571723Y-188211961D01*
X202333628Y-188211961D01*
X202512200Y-188307200D01*
X202595533Y-188402438D01*
X202666961Y-188592914D01*
X202631247Y-188878628D01*
X202512200Y-189069104D01*
X202405057Y-189164342D01*
X202202676Y-189259580D01*
X201440771Y-189259580D01*
X203607438Y-190211961D02*
X203428866Y-190116723D01*
X203345533Y-190021485D01*
X203274104Y-189831009D01*
X203345533Y-189259580D01*
X203464580Y-189069104D01*
X203571723Y-188973866D01*
X203774104Y-188878628D01*
X204059819Y-188878628D01*
X204238390Y-188973866D01*
X204321723Y-189069104D01*
X204393152Y-189259580D01*
X204321723Y-189831009D01*
X204202676Y-190021485D01*
X204095533Y-190116723D01*
X203893152Y-190211961D01*
X203607438Y-190211961D01*
X205107438Y-188878628D02*
X205321723Y-190211961D01*
X205821723Y-189259580D01*
X206083628Y-190211961D01*
X206631247Y-188878628D01*
X208000295Y-190116723D02*
X207797914Y-190211961D01*
X207416961Y-190211961D01*
X207238390Y-190116723D01*
X207166961Y-189926247D01*
X207262200Y-189164342D01*
X207381247Y-188973866D01*
X207583628Y-188878628D01*
X207964580Y-188878628D01*
X208143152Y-188973866D01*
X208214580Y-189164342D01*
X208190771Y-189354819D01*
X207214580Y-189545295D01*
X208940771Y-190211961D02*
X209107438Y-188878628D01*
X209059819Y-189259580D02*
X209178866Y-189069104D01*
X209286009Y-188973866D01*
X209488390Y-188878628D01*
X209678866Y-188878628D01*
X212845533Y-190211961D02*
X212297914Y-189259580D01*
X211702676Y-190211961D02*
X211952676Y-188211961D01*
X212714580Y-188211961D01*
X212893152Y-188307200D01*
X212976485Y-188402438D01*
X213047914Y-188592914D01*
X213012200Y-188878628D01*
X212893152Y-189069104D01*
X212786009Y-189164342D01*
X212583628Y-189259580D01*
X211821723Y-189259580D01*
X214476485Y-190116723D02*
X214274104Y-190211961D01*
X213893152Y-190211961D01*
X213714580Y-190116723D01*
X213643152Y-189926247D01*
X213738390Y-189164342D01*
X213857438Y-188973866D01*
X214059819Y-188878628D01*
X214440771Y-188878628D01*
X214619342Y-188973866D01*
X214690771Y-189164342D01*
X214666961Y-189354819D01*
X213690771Y-189545295D01*
X216286009Y-190116723D02*
X216083628Y-190211961D01*
X215702676Y-190211961D01*
X215524104Y-190116723D01*
X215440771Y-190021485D01*
X215369342Y-189831009D01*
X215440771Y-189259580D01*
X215559819Y-189069104D01*
X215666961Y-188973866D01*
X215869342Y-188878628D01*
X216250295Y-188878628D01*
X216428866Y-188973866D01*
X217905057Y-190116723D02*
X217702676Y-190211961D01*
X217321723Y-190211961D01*
X217143152Y-190116723D01*
X217071723Y-189926247D01*
X217166961Y-189164342D01*
X217286009Y-188973866D01*
X217488390Y-188878628D01*
X217869342Y-188878628D01*
X218047914Y-188973866D01*
X218119342Y-189164342D01*
X218095533Y-189354819D01*
X217119342Y-189545295D01*
X218845533Y-190211961D02*
X219012200Y-188878628D01*
X219095533Y-188211961D02*
X218988390Y-188307200D01*
X219071723Y-188402438D01*
X219178866Y-188307200D01*
X219095533Y-188211961D01*
X219071723Y-188402438D01*
X219774104Y-188878628D02*
X220083628Y-190211961D01*
X220726485Y-188878628D01*
X222095533Y-190116723D02*
X221893152Y-190211961D01*
X221512200Y-190211961D01*
X221333628Y-190116723D01*
X221262200Y-189926247D01*
X221357438Y-189164342D01*
X221476485Y-188973866D01*
X221678866Y-188878628D01*
X222059819Y-188878628D01*
X222238390Y-188973866D01*
X222309819Y-189164342D01*
X222286009Y-189354819D01*
X221309819Y-189545295D01*
X223036009Y-190211961D02*
X223202676Y-188878628D01*
X223155057Y-189259580D02*
X223274104Y-189069104D01*
X223381247Y-188973866D01*
X223583628Y-188878628D01*
X223774104Y-188878628D01*
X227416961Y-190211961D02*
X227321723Y-190211961D01*
X227143152Y-190116723D01*
X226893152Y-189831009D01*
X226488390Y-189259580D01*
X226333628Y-188973866D01*
X226274104Y-188688152D01*
X226297914Y-188497676D01*
X226416961Y-188307200D01*
X226619342Y-188211961D01*
X226714580Y-188211961D01*
X226893152Y-188307200D01*
X226964580Y-188497676D01*
X226952676Y-188592914D01*
X226833628Y-188783390D01*
X226726485Y-188878628D01*
X226107438Y-189259580D01*
X226000295Y-189354819D01*
X225881247Y-189545295D01*
X225845533Y-189831009D01*
X225916961Y-190021485D01*
X226000295Y-190116723D01*
X226178866Y-190211961D01*
X226464580Y-190211961D01*
X226666961Y-190116723D01*
X226774104Y-190021485D01*
X227107438Y-189640533D01*
X227238390Y-189354819D01*
X227262200Y-189164342D01*
X230964580Y-190021485D02*
X230857438Y-190116723D01*
X230559819Y-190211961D01*
X230369342Y-190211961D01*
X230095533Y-190116723D01*
X229928866Y-189926247D01*
X229857438Y-189735771D01*
X229809819Y-189354819D01*
X229845533Y-189069104D01*
X229988390Y-188688152D01*
X230107438Y-188497676D01*
X230321723Y-188307200D01*
X230619342Y-188211961D01*
X230809819Y-188211961D01*
X231083628Y-188307200D01*
X231166961Y-188402438D01*
X231797914Y-190211961D02*
X232047914Y-188211961D01*
X232655057Y-190211961D02*
X232786009Y-189164342D01*
X232714580Y-188973866D01*
X232536009Y-188878628D01*
X232250295Y-188878628D01*
X232047914Y-188973866D01*
X231940771Y-189069104D01*
X234464580Y-190211961D02*
X234595533Y-189164342D01*
X234524104Y-188973866D01*
X234345533Y-188878628D01*
X233964580Y-188878628D01*
X233762200Y-188973866D01*
X234476485Y-190116723D02*
X234274104Y-190211961D01*
X233797914Y-190211961D01*
X233619342Y-190116723D01*
X233547914Y-189926247D01*
X233571723Y-189735771D01*
X233690771Y-189545295D01*
X233893152Y-189450057D01*
X234369342Y-189450057D01*
X234571723Y-189354819D01*
X235416961Y-190211961D02*
X235583628Y-188878628D01*
X235536009Y-189259580D02*
X235655057Y-189069104D01*
X235762200Y-188973866D01*
X235964580Y-188878628D01*
X236155057Y-188878628D01*
X237678866Y-188878628D02*
X237476485Y-190497676D01*
X237357438Y-190688152D01*
X237250295Y-190783390D01*
X237047914Y-190878628D01*
X236762200Y-190878628D01*
X236583628Y-190783390D01*
X237524104Y-190116723D02*
X237321723Y-190211961D01*
X236940771Y-190211961D01*
X236762200Y-190116723D01*
X236678866Y-190021485D01*
X236607438Y-189831009D01*
X236678866Y-189259580D01*
X236797914Y-189069104D01*
X236905057Y-188973866D01*
X237107438Y-188878628D01*
X237488390Y-188878628D01*
X237666961Y-188973866D01*
X239238390Y-190116723D02*
X239036009Y-190211961D01*
X238655057Y-190211961D01*
X238476485Y-190116723D01*
X238405057Y-189926247D01*
X238500295Y-189164342D01*
X238619342Y-188973866D01*
X238821723Y-188878628D01*
X239202676Y-188878628D01*
X239381247Y-188973866D01*
X239452676Y-189164342D01*
X239428866Y-189354819D01*
X238452676Y-189545295D01*
X240178866Y-190211961D02*
X240345533Y-188878628D01*
X240297914Y-189259580D02*
X240416961Y-189069104D01*
X240524104Y-188973866D01*
X240726485Y-188878628D01*
X240916961Y-188878628D01*
D10*
D11*
X178934342Y-185600057D02*
X178434342Y-185600057D01*
X178434342Y-186385771D02*
X178434342Y-184885771D01*
X179148628Y-184885771D01*
X179720057Y-186385771D02*
X179720057Y-185385771D01*
X179720057Y-184885771D02*
X179648628Y-184957200D01*
X179720057Y-185028628D01*
X179791485Y-184957200D01*
X179720057Y-184885771D01*
X179720057Y-185028628D01*
X180648628Y-186385771D02*
X180505771Y-186314342D01*
X180434342Y-186171485D01*
X180434342Y-184885771D01*
X181791485Y-186314342D02*
X181648628Y-186385771D01*
X181362914Y-186385771D01*
X181220057Y-186314342D01*
X181148628Y-186171485D01*
X181148628Y-185600057D01*
X181220057Y-185457200D01*
X181362914Y-185385771D01*
X181648628Y-185385771D01*
X181791485Y-185457200D01*
X181862914Y-185600057D01*
X181862914Y-185742914D01*
X181148628Y-185885771D01*
X182505771Y-186242914D02*
X182577200Y-186314342D01*
X182505771Y-186385771D01*
X182434342Y-186314342D01*
X182505771Y-186242914D01*
X182505771Y-186385771D01*
X182505771Y-185457200D02*
X182577200Y-185528628D01*
X182505771Y-185600057D01*
X182434342Y-185528628D01*
X182505771Y-185457200D01*
X182505771Y-185600057D01*
X184220057Y-184885771D02*
X184577200Y-186385771D01*
X184862914Y-185314342D01*
X185148628Y-186385771D01*
X185505771Y-184885771D01*
X186077200Y-186385771D02*
X186077200Y-185385771D01*
X186077200Y-184885771D02*
X186005771Y-184957200D01*
X186077200Y-185028628D01*
X186148628Y-184957200D01*
X186077200Y-184885771D01*
X186077200Y-185028628D01*
X186791485Y-186385771D02*
X186791485Y-185385771D01*
X186791485Y-185671485D02*
X186862914Y-185528628D01*
X186934342Y-185457200D01*
X187077200Y-185385771D01*
X187220057Y-185385771D01*
X188291485Y-186314342D02*
X188148628Y-186385771D01*
X187862914Y-186385771D01*
X187720057Y-186314342D01*
X187648628Y-186171485D01*
X187648628Y-185600057D01*
X187720057Y-185457200D01*
X187862914Y-185385771D01*
X188148628Y-185385771D01*
X188291485Y-185457200D01*
X188362914Y-185600057D01*
X188362914Y-185742914D01*
X187648628Y-185885771D01*
X189220057Y-186385771D02*
X189077200Y-186314342D01*
X189005771Y-186171485D01*
X189005771Y-184885771D01*
X190362914Y-186314342D02*
X190220057Y-186385771D01*
X189934342Y-186385771D01*
X189791485Y-186314342D01*
X189720057Y-186171485D01*
X189720057Y-185600057D01*
X189791485Y-185457200D01*
X189934342Y-185385771D01*
X190220057Y-185385771D01*
X190362914Y-185457200D01*
X190434342Y-185600057D01*
X190434342Y-185742914D01*
X189720057Y-185885771D01*
X191005771Y-186314342D02*
X191148628Y-186385771D01*
X191434342Y-186385771D01*
X191577200Y-186314342D01*
X191648628Y-186171485D01*
X191648628Y-186100057D01*
X191577200Y-185957200D01*
X191434342Y-185885771D01*
X191220057Y-185885771D01*
X191077200Y-185814342D01*
X191005771Y-185671485D01*
X191005771Y-185600057D01*
X191077200Y-185457200D01*
X191220057Y-185385771D01*
X191434342Y-185385771D01*
X191577200Y-185457200D01*
X192220057Y-186314342D02*
X192362914Y-186385771D01*
X192648628Y-186385771D01*
X192791485Y-186314342D01*
X192862914Y-186171485D01*
X192862914Y-186100057D01*
X192791485Y-185957200D01*
X192648628Y-185885771D01*
X192434342Y-185885771D01*
X192291485Y-185814342D01*
X192220057Y-185671485D01*
X192220057Y-185600057D01*
X192291485Y-185457200D01*
X192434342Y-185385771D01*
X192648628Y-185385771D01*
X192791485Y-185457200D01*
X194648628Y-186385771D02*
X194648628Y-184885771D01*
X195220057Y-184885771D01*
X195362914Y-184957200D01*
X195434342Y-185028628D01*
X195505771Y-185171485D01*
X195505771Y-185385771D01*
X195434342Y-185528628D01*
X195362914Y-185600057D01*
X195220057Y-185671485D01*
X194648628Y-185671485D01*
X196362914Y-186385771D02*
X196220057Y-186314342D01*
X196148628Y-186242914D01*
X196077200Y-186100057D01*
X196077200Y-185671485D01*
X196148628Y-185528628D01*
X196220057Y-185457200D01*
X196362914Y-185385771D01*
X196577200Y-185385771D01*
X196720057Y-185457200D01*
X196791485Y-185528628D01*
X196862914Y-185671485D01*
X196862914Y-186100057D01*
X196791485Y-186242914D01*
X196720057Y-186314342D01*
X196577200Y-186385771D01*
X196362914Y-186385771D01*
X197362914Y-185385771D02*
X197648628Y-186385771D01*
X197934342Y-185671485D01*
X198220057Y-186385771D01*
X198505771Y-185385771D01*
X199648628Y-186314342D02*
X199505771Y-186385771D01*
X199220057Y-186385771D01*
X199077200Y-186314342D01*
X199005771Y-186171485D01*
X199005771Y-185600057D01*
X199077200Y-185457200D01*
X199220057Y-185385771D01*
X199505771Y-185385771D01*
X199648628Y-185457200D01*
X199720057Y-185600057D01*
X199720057Y-185742914D01*
X199005771Y-185885771D01*
X200362914Y-186385771D02*
X200362914Y-185385771D01*
X200362914Y-185671485D02*
X200434342Y-185528628D01*
X200505771Y-185457200D01*
X200648628Y-185385771D01*
X200791485Y-185385771D01*
X203291485Y-186385771D02*
X202791485Y-185671485D01*
X202434342Y-186385771D02*
X202434342Y-184885771D01*
X203005771Y-184885771D01*
X203148628Y-184957200D01*
X203220057Y-185028628D01*
X203291485Y-185171485D01*
X203291485Y-185385771D01*
X203220057Y-185528628D01*
X203148628Y-185600057D01*
X203005771Y-185671485D01*
X202434342Y-185671485D01*
X204505771Y-186314342D02*
X204362914Y-186385771D01*
X204077200Y-186385771D01*
X203934342Y-186314342D01*
X203862914Y-186171485D01*
X203862914Y-185600057D01*
X203934342Y-185457200D01*
X204077200Y-185385771D01*
X204362914Y-185385771D01*
X204505771Y-185457200D01*
X204577200Y-185600057D01*
X204577200Y-185742914D01*
X203862914Y-185885771D01*
X205862914Y-186314342D02*
X205720057Y-186385771D01*
X205434342Y-186385771D01*
X205291485Y-186314342D01*
X205220057Y-186242914D01*
X205148628Y-186100057D01*
X205148628Y-185671485D01*
X205220057Y-185528628D01*
X205291485Y-185457200D01*
X205434342Y-185385771D01*
X205720057Y-185385771D01*
X205862914Y-185457200D01*
X207077200Y-186314342D02*
X206934342Y-186385771D01*
X206648628Y-186385771D01*
X206505771Y-186314342D01*
X206434342Y-186171485D01*
X206434342Y-185600057D01*
X206505771Y-185457200D01*
X206648628Y-185385771D01*
X206934342Y-185385771D01*
X207077200Y-185457200D01*
X207148628Y-185600057D01*
X207148628Y-185742914D01*
X206434342Y-185885771D01*
X207791485Y-186385771D02*
X207791485Y-185385771D01*
X207791485Y-184885771D02*
X207720057Y-184957200D01*
X207791485Y-185028628D01*
X207862914Y-184957200D01*
X207791485Y-184885771D01*
X207791485Y-185028628D01*
X208362914Y-185385771D02*
X208720057Y-186385771D01*
X209077200Y-185385771D01*
X210220057Y-186314342D02*
X210077200Y-186385771D01*
X209791485Y-186385771D01*
X209648628Y-186314342D01*
X209577200Y-186171485D01*
X209577200Y-185600057D01*
X209648628Y-185457200D01*
X209791485Y-185385771D01*
X210077200Y-185385771D01*
X210220057Y-185457200D01*
X210291485Y-185600057D01*
X210291485Y-185742914D01*
X209577200Y-185885771D01*
X210934342Y-186385771D02*
X210934342Y-185385771D01*
X210934342Y-185671485D02*
X211005771Y-185528628D01*
X211077200Y-185457200D01*
X211220057Y-185385771D01*
X211362914Y-185385771D01*
X214220057Y-186385771D02*
X214148628Y-186385771D01*
X214005771Y-186314342D01*
X213791485Y-186100057D01*
X213434342Y-185671485D01*
X213291485Y-185457200D01*
X213220057Y-185242914D01*
X213220057Y-185100057D01*
X213291485Y-184957200D01*
X213434342Y-184885771D01*
X213505771Y-184885771D01*
X213648628Y-184957200D01*
X213720057Y-185100057D01*
X213720057Y-185171485D01*
X213648628Y-185314342D01*
X213577200Y-185385771D01*
X213148628Y-185671485D01*
X213077200Y-185742914D01*
X213005771Y-185885771D01*
X213005771Y-186100057D01*
X213077200Y-186242914D01*
X213148628Y-186314342D01*
X213291485Y-186385771D01*
X213505771Y-186385771D01*
X213648628Y-186314342D01*
X213720057Y-186242914D01*
X213934342Y-185957200D01*
X214005771Y-185742914D01*
X214005771Y-185600057D01*
X216862914Y-186242914D02*
X216791485Y-186314342D01*
X216577200Y-186385771D01*
X216434342Y-186385771D01*
X216220057Y-186314342D01*
X216077200Y-186171485D01*
X216005771Y-186028628D01*
X215934342Y-185742914D01*
X215934342Y-185528628D01*
X216005771Y-185242914D01*
X216077200Y-185100057D01*
X216220057Y-184957200D01*
X216434342Y-184885771D01*
X216577200Y-184885771D01*
X216791485Y-184957200D01*
X216862914Y-185028628D01*
X217505771Y-186385771D02*
X217505771Y-184885771D01*
X218148628Y-186385771D02*
X218148628Y-185600057D01*
X218077200Y-185457200D01*
X217934342Y-185385771D01*
X217720057Y-185385771D01*
X217577200Y-185457200D01*
X217505771Y-185528628D01*
X219505771Y-186385771D02*
X219505771Y-185600057D01*
X219434342Y-185457200D01*
X219291485Y-185385771D01*
X219005771Y-185385771D01*
X218862914Y-185457200D01*
X219505771Y-186314342D02*
X219362914Y-186385771D01*
X219005771Y-186385771D01*
X218862914Y-186314342D01*
X218791485Y-186171485D01*
X218791485Y-186028628D01*
X218862914Y-185885771D01*
X219005771Y-185814342D01*
X219362914Y-185814342D01*
X219505771Y-185742914D01*
X220220057Y-186385771D02*
X220220057Y-185385771D01*
X220220057Y-185671485D02*
X220291485Y-185528628D01*
X220362914Y-185457200D01*
X220505771Y-185385771D01*
X220648628Y-185385771D01*
X221791485Y-185385771D02*
X221791485Y-186600057D01*
X221720057Y-186742914D01*
X221648628Y-186814342D01*
X221505771Y-186885771D01*
X221291485Y-186885771D01*
X221148628Y-186814342D01*
X221791485Y-186314342D02*
X221648628Y-186385771D01*
X221362914Y-186385771D01*
X221220057Y-186314342D01*
X221148628Y-186242914D01*
X221077200Y-186100057D01*
X221077200Y-185671485D01*
X221148628Y-185528628D01*
X221220057Y-185457200D01*
X221362914Y-185385771D01*
X221648628Y-185385771D01*
X221791485Y-185457200D01*
X223077200Y-186314342D02*
X222934342Y-186385771D01*
X222648628Y-186385771D01*
X222505771Y-186314342D01*
X222434342Y-186171485D01*
X222434342Y-185600057D01*
X222505771Y-185457200D01*
X222648628Y-185385771D01*
X222934342Y-185385771D01*
X223077200Y-185457200D01*
X223148628Y-185600057D01*
X223148628Y-185742914D01*
X222434342Y-185885771D01*
X223791485Y-186385771D02*
X223791485Y-185385771D01*
X223791485Y-185671485D02*
X223862914Y-185528628D01*
X223934342Y-185457200D01*
X224077200Y-185385771D01*
X224220057Y-185385771D01*
X224720057Y-186242914D02*
X224791485Y-186314342D01*
X224720057Y-186385771D01*
X224648628Y-186314342D01*
X224720057Y-186242914D01*
X224720057Y-186385771D01*
X225434342Y-186385771D02*
X225434342Y-184885771D01*
X225577200Y-185814342D02*
X226005771Y-186385771D01*
X226005771Y-185385771D02*
X225434342Y-185957200D01*
X226648628Y-186385771D02*
X226648628Y-185385771D01*
X226648628Y-184885771D02*
X226577200Y-184957200D01*
X226648628Y-185028628D01*
X226720057Y-184957200D01*
X226648628Y-184885771D01*
X226648628Y-185028628D01*
X228005771Y-186314342D02*
X227862914Y-186385771D01*
X227577200Y-186385771D01*
X227434342Y-186314342D01*
X227362914Y-186242914D01*
X227291485Y-186100057D01*
X227291485Y-185671485D01*
X227362914Y-185528628D01*
X227434342Y-185457200D01*
X227577200Y-185385771D01*
X227862914Y-185385771D01*
X228005771Y-185457200D01*
X229291485Y-186385771D02*
X229291485Y-185600057D01*
X229220057Y-185457200D01*
X229077200Y-185385771D01*
X228791485Y-185385771D01*
X228648628Y-185457200D01*
X229291485Y-186314342D02*
X229148628Y-186385771D01*
X228791485Y-186385771D01*
X228648628Y-186314342D01*
X228577200Y-186171485D01*
X228577200Y-186028628D01*
X228648628Y-185885771D01*
X228791485Y-185814342D01*
X229148628Y-185814342D01*
X229291485Y-185742914D01*
X230648628Y-186385771D02*
X230648628Y-184885771D01*
X230648628Y-186314342D02*
X230505771Y-186385771D01*
X230220057Y-186385771D01*
X230077200Y-186314342D01*
X230005771Y-186242914D01*
X229934342Y-186100057D01*
X229934342Y-185671485D01*
X230005771Y-185528628D01*
X230077200Y-185457200D01*
X230220057Y-185385771D01*
X230505771Y-185385771D01*
X230648628Y-185457200D01*
X231005771Y-186528628D02*
X232148628Y-186528628D01*
X232505771Y-185385771D02*
X232505771Y-186885771D01*
X232505771Y-185457200D02*
X232648628Y-185385771D01*
X232934342Y-185385771D01*
X233077200Y-185457200D01*
X233148628Y-185528628D01*
X233220057Y-185671485D01*
X233220057Y-186100057D01*
X233148628Y-186242914D01*
X233077200Y-186314342D01*
X232934342Y-186385771D01*
X232648628Y-186385771D01*
X232505771Y-186314342D01*
X234505771Y-186314342D02*
X234362914Y-186385771D01*
X234077200Y-186385771D01*
X233934342Y-186314342D01*
X233862914Y-186242914D01*
X233791485Y-186100057D01*
X233791485Y-185671485D01*
X233862914Y-185528628D01*
X233934342Y-185457200D01*
X234077200Y-185385771D01*
X234362914Y-185385771D01*
X234505771Y-185457200D01*
X235148628Y-186385771D02*
X235148628Y-184885771D01*
X235148628Y-185457200D02*
X235291485Y-185385771D01*
X235577200Y-185385771D01*
X235720057Y-185457200D01*
X235791485Y-185528628D01*
X235862914Y-185671485D01*
X235862914Y-186100057D01*
X235791485Y-186242914D01*
X235720057Y-186314342D01*
X235577200Y-186385771D01*
X235291485Y-186385771D01*
X235148628Y-186314342D01*
D10*
D11*
X177002200Y-181507200D02*
X285002200Y-181507200D01*
D10*
D11*
X178362914Y-183614342D02*
X178577200Y-183685771D01*
X178934342Y-183685771D01*
X179077200Y-183614342D01*
X179148628Y-183542914D01*
X179220057Y-183400057D01*
X179220057Y-183257200D01*
X179148628Y-183114342D01*
X179077200Y-183042914D01*
X178934342Y-182971485D01*
X178648628Y-182900057D01*
X178505771Y-182828628D01*
X178434342Y-182757200D01*
X178362914Y-182614342D01*
X178362914Y-182471485D01*
X178434342Y-182328628D01*
X178505771Y-182257200D01*
X178648628Y-182185771D01*
X179005771Y-182185771D01*
X179220057Y-182257200D01*
X179862914Y-183685771D02*
X179862914Y-182185771D01*
X180505771Y-183685771D02*
X180505771Y-182900057D01*
X180434342Y-182757200D01*
X180291485Y-182685771D01*
X180077200Y-182685771D01*
X179934342Y-182757200D01*
X179862914Y-182828628D01*
X181791485Y-183614342D02*
X181648628Y-183685771D01*
X181362914Y-183685771D01*
X181220057Y-183614342D01*
X181148628Y-183471485D01*
X181148628Y-182900057D01*
X181220057Y-182757200D01*
X181362914Y-182685771D01*
X181648628Y-182685771D01*
X181791485Y-182757200D01*
X181862914Y-182900057D01*
X181862914Y-183042914D01*
X181148628Y-183185771D01*
X183077200Y-183614342D02*
X182934342Y-183685771D01*
X182648628Y-183685771D01*
X182505771Y-183614342D01*
X182434342Y-183471485D01*
X182434342Y-182900057D01*
X182505771Y-182757200D01*
X182648628Y-182685771D01*
X182934342Y-182685771D01*
X183077200Y-182757200D01*
X183148628Y-182900057D01*
X183148628Y-183042914D01*
X182434342Y-183185771D01*
X183577200Y-182685771D02*
X184148628Y-182685771D01*
X183791485Y-182185771D02*
X183791485Y-183471485D01*
X183862914Y-183614342D01*
X184005771Y-183685771D01*
X184148628Y-183685771D01*
X184648628Y-183542914D02*
X184720057Y-183614342D01*
X184648628Y-183685771D01*
X184577200Y-183614342D01*
X184648628Y-183542914D01*
X184648628Y-183685771D01*
X184648628Y-182757200D02*
X184720057Y-182828628D01*
X184648628Y-182900057D01*
X184577200Y-182828628D01*
X184648628Y-182757200D01*
X184648628Y-182900057D01*
D10*
D12*
D10*
D11*
D10*
D11*
D10*
D11*
D10*
D11*
D10*
D11*
X197002200Y-191507200D02*
X197002200Y-194507200D01*
D10*
D11*
X261002200Y-191507200D02*
X261002200Y-198007200D01*
X65675000Y-60800000D02*
X206375000Y-60800000D01*
X206375000Y-60800000D02*
X206375000Y-112900000D01*
X206375000Y-112900000D02*
X65675000Y-112900000D01*
X65675000Y-112900000D02*
X65675000Y-60800000D01*
D14*
X64375000Y-59400000D02*
X207600000Y-59400000D01*
X207600000Y-59400000D02*
X207600000Y-114825000D01*
X207600000Y-114825000D02*
X64375000Y-114825000D01*
X64375000Y-114825000D02*
X64375000Y-59400000D01*
D12*
X107017857Y-111735714D02*
X106946428Y-111807142D01*
X106732142Y-111878571D01*
X106589285Y-111878571D01*
X106375000Y-111807142D01*
X106232142Y-111664285D01*
X106160714Y-111521428D01*
X106089285Y-111235714D01*
X106089285Y-111021428D01*
X106160714Y-110735714D01*
X106232142Y-110592857D01*
X106375000Y-110450000D01*
X106589285Y-110378571D01*
X106732142Y-110378571D01*
X106946428Y-110450000D01*
X107017857Y-110521428D01*
X107660714Y-111878571D02*
X107660714Y-110378571D01*
X108303571Y-111878571D02*
X108303571Y-111092857D01*
X108232142Y-110950000D01*
X108089285Y-110878571D01*
X107875000Y-110878571D01*
X107732142Y-110950000D01*
X107660714Y-111021428D01*
X109660714Y-111878571D02*
X109660714Y-111092857D01*
X109589285Y-110950000D01*
X109446428Y-110878571D01*
X109160714Y-110878571D01*
X109017857Y-110950000D01*
X109660714Y-111807142D02*
X109517857Y-111878571D01*
X109160714Y-111878571D01*
X109017857Y-111807142D01*
X108946428Y-111664285D01*
X108946428Y-111521428D01*
X109017857Y-111378571D01*
X109160714Y-111307142D01*
X109517857Y-111307142D01*
X109660714Y-111235714D01*
X110375000Y-111878571D02*
X110375000Y-110878571D01*
X110375000Y-111164285D02*
X110446428Y-111021428D01*
X110517857Y-110950000D01*
X110660714Y-110878571D01*
X110803571Y-110878571D01*
X111946428Y-110878571D02*
X111946428Y-112092857D01*
X111875000Y-112235714D01*
X111803571Y-112307142D01*
X111660714Y-112378571D01*
X111446428Y-112378571D01*
X111303571Y-112307142D01*
X111946428Y-111807142D02*
X111803571Y-111878571D01*
X111517857Y-111878571D01*
X111375000Y-111807142D01*
X111303571Y-111735714D01*
X111232142Y-111592857D01*
X111232142Y-111164285D01*
X111303571Y-111021428D01*
X111375000Y-110950000D01*
X111517857Y-110878571D01*
X111803571Y-110878571D01*
X111946428Y-110950000D01*
X112660714Y-111878571D02*
X112660714Y-110878571D01*
X112660714Y-110378571D02*
X112589285Y-110450000D01*
X112660714Y-110521428D01*
X112732142Y-110450000D01*
X112660714Y-110378571D01*
X112660714Y-110521428D01*
X113375000Y-110878571D02*
X113375000Y-111878571D01*
X113375000Y-111021428D02*
X113446428Y-110950000D01*
X113589285Y-110878571D01*
X113803571Y-110878571D01*
X113946428Y-110950000D01*
X114017857Y-111092857D01*
X114017857Y-111878571D01*
X115375000Y-110878571D02*
X115375000Y-112092857D01*
X115303571Y-112235714D01*
X115232142Y-112307142D01*
X115089285Y-112378571D01*
X114875000Y-112378571D01*
X114732142Y-112307142D01*
X115375000Y-111807142D02*
X115232142Y-111878571D01*
X114946428Y-111878571D01*
X114803571Y-111807142D01*
X114732142Y-111735714D01*
X114660714Y-111592857D01*
X114660714Y-111164285D01*
X114732142Y-111021428D01*
X114803571Y-110950000D01*
X114946428Y-110878571D01*
X115232142Y-110878571D01*
X115375000Y-110950000D01*
X117160714Y-111807142D02*
X117375000Y-111878571D01*
X117732142Y-111878571D01*
X117875000Y-111807142D01*
X117946428Y-111735714D01*
X118017857Y-111592857D01*
X118017857Y-111450000D01*
X117946428Y-111307142D01*
X117875000Y-111235714D01*
X117732142Y-111164285D01*
X117446428Y-111092857D01*
X117303571Y-111021428D01*
X117232142Y-110950000D01*
X117160714Y-110807142D01*
X117160714Y-110664285D01*
X117232142Y-110521428D01*
X117303571Y-110450000D01*
X117446428Y-110378571D01*
X117803571Y-110378571D01*
X118017857Y-110450000D01*
X118446428Y-110878571D02*
X119017857Y-110878571D01*
X118660714Y-110378571D02*
X118660714Y-111664285D01*
X118732142Y-111807142D01*
X118875000Y-111878571D01*
X119017857Y-111878571D01*
X120160714Y-111878571D02*
X120160714Y-111092857D01*
X120089285Y-110950000D01*
X119946428Y-110878571D01*
X119660714Y-110878571D01*
X119517857Y-110950000D01*
X120160714Y-111807142D02*
X120017857Y-111878571D01*
X119660714Y-111878571D01*
X119517857Y-111807142D01*
X119446428Y-111664285D01*
X119446428Y-111521428D01*
X119517857Y-111378571D01*
X119660714Y-111307142D01*
X120017857Y-111307142D01*
X120160714Y-111235714D01*
X120660714Y-110878571D02*
X121232142Y-110878571D01*
X120875000Y-110378571D02*
X120875000Y-111664285D01*
X120946428Y-111807142D01*
X121089285Y-111878571D01*
X121232142Y-111878571D01*
X122375000Y-110878571D02*
X122375000Y-111878571D01*
X121732142Y-110878571D02*
X121732142Y-111664285D01*
X121803571Y-111807142D01*
X121946428Y-111878571D01*
X122160714Y-111878571D01*
X122303571Y-111807142D01*
X122375000Y-111735714D01*
X123017857Y-111807142D02*
X123160714Y-111878571D01*
X123446428Y-111878571D01*
X123589285Y-111807142D01*
X123660714Y-111664285D01*
X123660714Y-111592857D01*
X123589285Y-111450000D01*
X123446428Y-111378571D01*
X123232142Y-111378571D01*
X123089285Y-111307142D01*
X123017857Y-111164285D01*
X123017857Y-111092857D01*
X123089285Y-110950000D01*
X123232142Y-110878571D01*
X123446428Y-110878571D01*
X123589285Y-110950000D01*
D11*
X104454761Y-62029761D02*
X104930952Y-64029761D01*
X105311904Y-62601190D01*
X105692857Y-64029761D01*
X106169047Y-62029761D01*
X106930952Y-64029761D02*
X106930952Y-62029761D01*
X109026190Y-64029761D02*
X108359523Y-63077380D01*
X107883333Y-64029761D02*
X107883333Y-62029761D01*
X108645238Y-62029761D01*
X108835714Y-62125000D01*
X108930952Y-62220238D01*
X109026190Y-62410714D01*
X109026190Y-62696428D01*
X108930952Y-62886904D01*
X108835714Y-62982142D01*
X108645238Y-63077380D01*
X107883333Y-63077380D01*
X109883333Y-62982142D02*
X110550000Y-62982142D01*
X110835714Y-64029761D02*
X109883333Y-64029761D01*
X109883333Y-62029761D01*
X110835714Y-62029761D01*
X112645238Y-64029761D02*
X111692857Y-64029761D01*
X111692857Y-62029761D01*
X113311904Y-62982142D02*
X113978571Y-62982142D01*
X114264285Y-64029761D02*
X113311904Y-64029761D01*
X113311904Y-62029761D01*
X114264285Y-62029761D01*
X115026190Y-63934523D02*
X115311904Y-64029761D01*
X115788095Y-64029761D01*
X115978571Y-63934523D01*
X116073809Y-63839285D01*
X116169047Y-63648809D01*
X116169047Y-63458333D01*
X116073809Y-63267857D01*
X115978571Y-63172619D01*
X115788095Y-63077380D01*
X115407142Y-62982142D01*
X115216666Y-62886904D01*
X115121428Y-62791666D01*
X115026190Y-62601190D01*
X115026190Y-62410714D01*
X115121428Y-62220238D01*
X115216666Y-62125000D01*
X115407142Y-62029761D01*
X115883333Y-62029761D01*
X116169047Y-62125000D01*
X116930952Y-63934523D02*
X117216666Y-64029761D01*
X117692857Y-64029761D01*
X117883333Y-63934523D01*
X117978571Y-63839285D01*
X118073809Y-63648809D01*
X118073809Y-63458333D01*
X117978571Y-63267857D01*
X117883333Y-63172619D01*
X117692857Y-63077380D01*
X117311904Y-62982142D01*
X117121428Y-62886904D01*
X117026190Y-62791666D01*
X116930952Y-62601190D01*
X116930952Y-62410714D01*
X117026190Y-62220238D01*
X117121428Y-62125000D01*
X117311904Y-62029761D01*
X117788095Y-62029761D01*
X118073809Y-62125000D01*
X120454761Y-64029761D02*
X120454761Y-62029761D01*
X121216666Y-62029761D01*
X121407142Y-62125000D01*
X121502380Y-62220238D01*
X121597619Y-62410714D01*
X121597619Y-62696428D01*
X121502380Y-62886904D01*
X121407142Y-62982142D01*
X121216666Y-63077380D01*
X120454761Y-63077380D01*
X122835714Y-62029761D02*
X123216666Y-62029761D01*
X123407142Y-62125000D01*
X123597619Y-62315476D01*
X123692857Y-62696428D01*
X123692857Y-63363095D01*
X123597619Y-63744047D01*
X123407142Y-63934523D01*
X123216666Y-64029761D01*
X122835714Y-64029761D01*
X122645238Y-63934523D01*
X122454761Y-63744047D01*
X122359523Y-63363095D01*
X122359523Y-62696428D01*
X122454761Y-62315476D01*
X122645238Y-62125000D01*
X122835714Y-62029761D01*
X124359523Y-62029761D02*
X124835714Y-64029761D01*
X125216666Y-62601190D01*
X125597619Y-64029761D01*
X126073809Y-62029761D01*
X126835714Y-62982142D02*
X127502380Y-62982142D01*
X127788095Y-64029761D02*
X126835714Y-64029761D01*
X126835714Y-62029761D01*
X127788095Y-62029761D01*
X129788095Y-64029761D02*
X129121428Y-63077380D01*
X128645238Y-64029761D02*
X128645238Y-62029761D01*
X129407142Y-62029761D01*
X129597619Y-62125000D01*
X129692857Y-62220238D01*
X129788095Y-62410714D01*
X129788095Y-62696428D01*
X129692857Y-62886904D01*
X129597619Y-62982142D01*
X129407142Y-63077380D01*
X128645238Y-63077380D01*
X133311904Y-64029761D02*
X132645238Y-63077380D01*
X132169047Y-64029761D02*
X132169047Y-62029761D01*
X132930952Y-62029761D01*
X133121428Y-62125000D01*
X133216666Y-62220238D01*
X133311904Y-62410714D01*
X133311904Y-62696428D01*
X133216666Y-62886904D01*
X133121428Y-62982142D01*
X132930952Y-63077380D01*
X132169047Y-63077380D01*
X134169047Y-62982142D02*
X134835714Y-62982142D01*
X135121428Y-64029761D02*
X134169047Y-64029761D01*
X134169047Y-62029761D01*
X135121428Y-62029761D01*
X137121428Y-63839285D02*
X137026190Y-63934523D01*
X136740476Y-64029761D01*
X136550000Y-64029761D01*
X136264285Y-63934523D01*
X136073809Y-63744047D01*
X135978571Y-63553571D01*
X135883333Y-63172619D01*
X135883333Y-62886904D01*
X135978571Y-62505952D01*
X136073809Y-62315476D01*
X136264285Y-62125000D01*
X136550000Y-62029761D01*
X136740476Y-62029761D01*
X137026190Y-62125000D01*
X137121428Y-62220238D01*
X137978571Y-62982142D02*
X138645238Y-62982142D01*
X138930952Y-64029761D02*
X137978571Y-64029761D01*
X137978571Y-62029761D01*
X138930952Y-62029761D01*
X139788095Y-64029761D02*
X139788095Y-62029761D01*
X140454761Y-62029761D02*
X141121428Y-64029761D01*
X141788095Y-62029761D01*
X142454761Y-62982142D02*
X143121428Y-62982142D01*
X143407142Y-64029761D02*
X142454761Y-64029761D01*
X142454761Y-62029761D01*
X143407142Y-62029761D01*
X145407142Y-64029761D02*
X144740476Y-63077380D01*
X144264285Y-64029761D02*
X144264285Y-62029761D01*
X145026190Y-62029761D01*
X145216666Y-62125000D01*
X145311904Y-62220238D01*
X145407142Y-62410714D01*
X145407142Y-62696428D01*
X145311904Y-62886904D01*
X145216666Y-62982142D01*
X145026190Y-63077380D01*
X144264285Y-63077380D01*
X149407142Y-64029761D02*
X149311904Y-64029761D01*
X149121428Y-63934523D01*
X148835714Y-63648809D01*
X148359523Y-63077380D01*
X148169047Y-62791666D01*
X148073809Y-62505952D01*
X148073809Y-62315476D01*
X148169047Y-62125000D01*
X148359523Y-62029761D01*
X148454761Y-62029761D01*
X148645238Y-62125000D01*
X148740476Y-62315476D01*
X148740476Y-62410714D01*
X148645238Y-62601190D01*
X148550000Y-62696428D01*
X147978571Y-63077380D01*
X147883333Y-63172619D01*
X147788095Y-63363095D01*
X147788095Y-63648809D01*
X147883333Y-63839285D01*
X147978571Y-63934523D01*
X148169047Y-64029761D01*
X148454761Y-64029761D01*
X148645238Y-63934523D01*
X148740476Y-63839285D01*
X149026190Y-63458333D01*
X149121428Y-63172619D01*
X149121428Y-62982142D01*
X152930952Y-63839285D02*
X152835714Y-63934523D01*
X152550000Y-64029761D01*
X152359523Y-64029761D01*
X152073809Y-63934523D01*
X151883333Y-63744047D01*
X151788095Y-63553571D01*
X151692857Y-63172619D01*
X151692857Y-62886904D01*
X151788095Y-62505952D01*
X151883333Y-62315476D01*
X152073809Y-62125000D01*
X152359523Y-62029761D01*
X152550000Y-62029761D01*
X152835714Y-62125000D01*
X152930952Y-62220238D01*
X153788095Y-64029761D02*
X153788095Y-62029761D01*
X153788095Y-62982142D02*
X154930952Y-62982142D01*
X154930952Y-64029761D02*
X154930952Y-62029761D01*
X155788095Y-63458333D02*
X156740476Y-63458333D01*
X155597619Y-64029761D02*
X156264285Y-62029761D01*
X156930952Y-64029761D01*
X158740476Y-64029761D02*
X158073809Y-63077380D01*
X157597619Y-64029761D02*
X157597619Y-62029761D01*
X158359523Y-62029761D01*
X158550000Y-62125000D01*
X158645238Y-62220238D01*
X158740476Y-62410714D01*
X158740476Y-62696428D01*
X158645238Y-62886904D01*
X158550000Y-62982142D01*
X158359523Y-63077380D01*
X157597619Y-63077380D01*
X160645238Y-62125000D02*
X160454761Y-62029761D01*
X160169047Y-62029761D01*
X159883333Y-62125000D01*
X159692857Y-62315476D01*
X159597619Y-62505952D01*
X159502380Y-62886904D01*
X159502380Y-63172619D01*
X159597619Y-63553571D01*
X159692857Y-63744047D01*
X159883333Y-63934523D01*
X160169047Y-64029761D01*
X160359523Y-64029761D01*
X160645238Y-63934523D01*
X160740476Y-63839285D01*
X160740476Y-63172619D01*
X160359523Y-63172619D01*
X161597619Y-62982142D02*
X162264285Y-62982142D01*
X162550000Y-64029761D02*
X161597619Y-64029761D01*
X161597619Y-62029761D01*
X162550000Y-62029761D01*
X164550000Y-64029761D02*
X163883333Y-63077380D01*
X163407142Y-64029761D02*
X163407142Y-62029761D01*
X164169047Y-62029761D01*
X164359523Y-62125000D01*
X164454761Y-62220238D01*
X164550000Y-62410714D01*
X164550000Y-62696428D01*
X164454761Y-62886904D01*
X164359523Y-62982142D01*
X164169047Y-63077380D01*
X163407142Y-63077380D01*
D12*
X78760714Y-109042857D02*
X78260714Y-109042857D01*
X78260714Y-109828571D02*
X78260714Y-108328571D01*
X78975000Y-108328571D01*
X80189285Y-109828571D02*
X80189285Y-109042857D01*
X80117857Y-108900000D01*
X79975000Y-108828571D01*
X79689285Y-108828571D01*
X79546428Y-108900000D01*
X80189285Y-109757142D02*
X80046428Y-109828571D01*
X79689285Y-109828571D01*
X79546428Y-109757142D01*
X79475000Y-109614285D01*
X79475000Y-109471428D01*
X79546428Y-109328571D01*
X79689285Y-109257142D01*
X80046428Y-109257142D01*
X80189285Y-109185714D01*
X81546428Y-108828571D02*
X81546428Y-109828571D01*
X80903571Y-108828571D02*
X80903571Y-109614285D01*
X80975000Y-109757142D01*
X81117857Y-109828571D01*
X81332142Y-109828571D01*
X81475000Y-109757142D01*
X81546428Y-109685714D01*
X82475000Y-109828571D02*
X82332142Y-109757142D01*
X82260714Y-109614285D01*
X82260714Y-108328571D01*
X82832142Y-108828571D02*
X83403571Y-108828571D01*
X83046428Y-108328571D02*
X83046428Y-109614285D01*
X83117857Y-109757142D01*
X83260714Y-109828571D01*
X83403571Y-109828571D01*
D11*
%TO.C,D1*%
X71286904Y-82152380D02*
X71286904Y-81152380D01*
X71525000Y-81152380D01*
X71667857Y-81200000D01*
X71763095Y-81295238D01*
X71810714Y-81390476D01*
X71858333Y-81580952D01*
X71858333Y-81723809D01*
X71810714Y-81914285D01*
X71763095Y-82009523D01*
X71667857Y-82104761D01*
X71525000Y-82152380D01*
X71286904Y-82152380D01*
X72810714Y-82152380D02*
X72239285Y-82152380D01*
X72525000Y-82152380D02*
X72525000Y-81152380D01*
X72429761Y-81295238D01*
X72334523Y-81390476D01*
X72239285Y-81438095D01*
%TO.C,C3*%
X86558333Y-76907142D02*
X86510714Y-76954761D01*
X86367857Y-77002380D01*
X86272619Y-77002380D01*
X86129761Y-76954761D01*
X86034523Y-76859523D01*
X85986904Y-76764285D01*
X85939285Y-76573809D01*
X85939285Y-76430952D01*
X85986904Y-76240476D01*
X86034523Y-76145238D01*
X86129761Y-76050000D01*
X86272619Y-76002380D01*
X86367857Y-76002380D01*
X86510714Y-76050000D01*
X86558333Y-76097619D01*
X86891666Y-76002380D02*
X87510714Y-76002380D01*
X87177380Y-76383333D01*
X87320238Y-76383333D01*
X87415476Y-76430952D01*
X87463095Y-76478571D01*
X87510714Y-76573809D01*
X87510714Y-76811904D01*
X87463095Y-76907142D01*
X87415476Y-76954761D01*
X87320238Y-77002380D01*
X87034523Y-77002380D01*
X86939285Y-76954761D01*
X86891666Y-76907142D01*
%TO.C,H3*%
X202863095Y-107077380D02*
X202863095Y-106077380D01*
X202863095Y-106553571D02*
X203434523Y-106553571D01*
X203434523Y-107077380D02*
X203434523Y-106077380D01*
X203815476Y-106077380D02*
X204434523Y-106077380D01*
X204101190Y-106458333D01*
X204244047Y-106458333D01*
X204339285Y-106505952D01*
X204386904Y-106553571D01*
X204434523Y-106648809D01*
X204434523Y-106886904D01*
X204386904Y-106982142D01*
X204339285Y-107029761D01*
X204244047Y-107077380D01*
X203958333Y-107077380D01*
X203863095Y-107029761D01*
X203815476Y-106982142D01*
%TO.C,R4*%
X93358333Y-109102380D02*
X93025000Y-108626190D01*
X92786904Y-109102380D02*
X92786904Y-108102380D01*
X93167857Y-108102380D01*
X93263095Y-108150000D01*
X93310714Y-108197619D01*
X93358333Y-108292857D01*
X93358333Y-108435714D01*
X93310714Y-108530952D01*
X93263095Y-108578571D01*
X93167857Y-108626190D01*
X92786904Y-108626190D01*
X94215476Y-108435714D02*
X94215476Y-109102380D01*
X93977380Y-108054761D02*
X93739285Y-108769047D01*
X94358333Y-108769047D01*
%TO.C,D5*%
X86061904Y-106577380D02*
X86061904Y-105577380D01*
X86300000Y-105577380D01*
X86442857Y-105625000D01*
X86538095Y-105720238D01*
X86585714Y-105815476D01*
X86633333Y-106005952D01*
X86633333Y-106148809D01*
X86585714Y-106339285D01*
X86538095Y-106434523D01*
X86442857Y-106529761D01*
X86300000Y-106577380D01*
X86061904Y-106577380D01*
X87538095Y-105577380D02*
X87061904Y-105577380D01*
X87014285Y-106053571D01*
X87061904Y-106005952D01*
X87157142Y-105958333D01*
X87395238Y-105958333D01*
X87490476Y-106005952D01*
X87538095Y-106053571D01*
X87585714Y-106148809D01*
X87585714Y-106386904D01*
X87538095Y-106482142D01*
X87490476Y-106529761D01*
X87395238Y-106577380D01*
X87157142Y-106577380D01*
X87061904Y-106529761D01*
X87014285Y-106482142D01*
%TO.C,U1*%
X90138095Y-83702380D02*
X90138095Y-84511904D01*
X90185714Y-84607142D01*
X90233333Y-84654761D01*
X90328571Y-84702380D01*
X90519047Y-84702380D01*
X90614285Y-84654761D01*
X90661904Y-84607142D01*
X90709523Y-84511904D01*
X90709523Y-83702380D01*
X91709523Y-84702380D02*
X91138095Y-84702380D01*
X91423809Y-84702380D02*
X91423809Y-83702380D01*
X91328571Y-83845238D01*
X91233333Y-83940476D01*
X91138095Y-83988095D01*
%TO.C,D2*%
X71186904Y-78702380D02*
X71186904Y-77702380D01*
X71425000Y-77702380D01*
X71567857Y-77750000D01*
X71663095Y-77845238D01*
X71710714Y-77940476D01*
X71758333Y-78130952D01*
X71758333Y-78273809D01*
X71710714Y-78464285D01*
X71663095Y-78559523D01*
X71567857Y-78654761D01*
X71425000Y-78702380D01*
X71186904Y-78702380D01*
X72139285Y-77797619D02*
X72186904Y-77750000D01*
X72282142Y-77702380D01*
X72520238Y-77702380D01*
X72615476Y-77750000D01*
X72663095Y-77797619D01*
X72710714Y-77892857D01*
X72710714Y-77988095D01*
X72663095Y-78130952D01*
X72091666Y-78702380D01*
X72710714Y-78702380D01*
%TO.C,Q1*%
X85854761Y-101947619D02*
X85759523Y-101900000D01*
X85664285Y-101804761D01*
X85521428Y-101661904D01*
X85426190Y-101614285D01*
X85330952Y-101614285D01*
X85378571Y-101852380D02*
X85283333Y-101804761D01*
X85188095Y-101709523D01*
X85140476Y-101519047D01*
X85140476Y-101185714D01*
X85188095Y-100995238D01*
X85283333Y-100900000D01*
X85378571Y-100852380D01*
X85569047Y-100852380D01*
X85664285Y-100900000D01*
X85759523Y-100995238D01*
X85807142Y-101185714D01*
X85807142Y-101519047D01*
X85759523Y-101709523D01*
X85664285Y-101804761D01*
X85569047Y-101852380D01*
X85378571Y-101852380D01*
X86759523Y-101852380D02*
X86188095Y-101852380D01*
X86473809Y-101852380D02*
X86473809Y-100852380D01*
X86378571Y-100995238D01*
X86283333Y-101090476D01*
X86188095Y-101138095D01*
%TO.C,R2*%
X93458333Y-90552380D02*
X93125000Y-90076190D01*
X92886904Y-90552380D02*
X92886904Y-89552380D01*
X93267857Y-89552380D01*
X93363095Y-89600000D01*
X93410714Y-89647619D01*
X93458333Y-89742857D01*
X93458333Y-89885714D01*
X93410714Y-89980952D01*
X93363095Y-90028571D01*
X93267857Y-90076190D01*
X92886904Y-90076190D01*
X93839285Y-89647619D02*
X93886904Y-89600000D01*
X93982142Y-89552380D01*
X94220238Y-89552380D01*
X94315476Y-89600000D01*
X94363095Y-89647619D01*
X94410714Y-89742857D01*
X94410714Y-89838095D01*
X94363095Y-89980952D01*
X93791666Y-90552380D01*
X94410714Y-90552380D01*
%TO.C,L2*%
X78283333Y-94577380D02*
X77807142Y-94577380D01*
X77807142Y-93577380D01*
X78569047Y-93672619D02*
X78616666Y-93625000D01*
X78711904Y-93577380D01*
X78950000Y-93577380D01*
X79045238Y-93625000D01*
X79092857Y-93672619D01*
X79140476Y-93767857D01*
X79140476Y-93863095D01*
X79092857Y-94005952D01*
X78521428Y-94577380D01*
X79140476Y-94577380D01*
%TO.C,D3*%
X80486904Y-75227380D02*
X80486904Y-74227380D01*
X80725000Y-74227380D01*
X80867857Y-74275000D01*
X80963095Y-74370238D01*
X81010714Y-74465476D01*
X81058333Y-74655952D01*
X81058333Y-74798809D01*
X81010714Y-74989285D01*
X80963095Y-75084523D01*
X80867857Y-75179761D01*
X80725000Y-75227380D01*
X80486904Y-75227380D01*
X81391666Y-74227380D02*
X82010714Y-74227380D01*
X81677380Y-74608333D01*
X81820238Y-74608333D01*
X81915476Y-74655952D01*
X81963095Y-74703571D01*
X82010714Y-74798809D01*
X82010714Y-75036904D01*
X81963095Y-75132142D01*
X81915476Y-75179761D01*
X81820238Y-75227380D01*
X81534523Y-75227380D01*
X81439285Y-75179761D01*
X81391666Y-75132142D01*
%TO.C,C4*%
X79408333Y-88482142D02*
X79360714Y-88529761D01*
X79217857Y-88577380D01*
X79122619Y-88577380D01*
X78979761Y-88529761D01*
X78884523Y-88434523D01*
X78836904Y-88339285D01*
X78789285Y-88148809D01*
X78789285Y-88005952D01*
X78836904Y-87815476D01*
X78884523Y-87720238D01*
X78979761Y-87625000D01*
X79122619Y-87577380D01*
X79217857Y-87577380D01*
X79360714Y-87625000D01*
X79408333Y-87672619D01*
X80265476Y-87910714D02*
X80265476Y-88577380D01*
X80027380Y-87529761D02*
X79789285Y-88244047D01*
X80408333Y-88244047D01*
%TO.C,H2*%
X202813095Y-60577380D02*
X202813095Y-59577380D01*
X202813095Y-60053571D02*
X203384523Y-60053571D01*
X203384523Y-60577380D02*
X203384523Y-59577380D01*
X203813095Y-59672619D02*
X203860714Y-59625000D01*
X203955952Y-59577380D01*
X204194047Y-59577380D01*
X204289285Y-59625000D01*
X204336904Y-59672619D01*
X204384523Y-59767857D01*
X204384523Y-59863095D01*
X204336904Y-60005952D01*
X203765476Y-60577380D01*
X204384523Y-60577380D01*
%TO.C,H4*%
X67688095Y-107002380D02*
X67688095Y-106002380D01*
X67688095Y-106478571D02*
X68259523Y-106478571D01*
X68259523Y-107002380D02*
X68259523Y-106002380D01*
X69164285Y-106335714D02*
X69164285Y-107002380D01*
X68926190Y-105954761D02*
X68688095Y-106669047D01*
X69307142Y-106669047D01*
%TO.C,C1*%
X72333333Y-85282142D02*
X72285714Y-85329761D01*
X72142857Y-85377380D01*
X72047619Y-85377380D01*
X71904761Y-85329761D01*
X71809523Y-85234523D01*
X71761904Y-85139285D01*
X71714285Y-84948809D01*
X71714285Y-84805952D01*
X71761904Y-84615476D01*
X71809523Y-84520238D01*
X71904761Y-84425000D01*
X72047619Y-84377380D01*
X72142857Y-84377380D01*
X72285714Y-84425000D01*
X72333333Y-84472619D01*
X73285714Y-85377380D02*
X72714285Y-85377380D01*
X73000000Y-85377380D02*
X73000000Y-84377380D01*
X72904761Y-84520238D01*
X72809523Y-84615476D01*
X72714285Y-84663095D01*
%TO.C,R1*%
X90983333Y-81327380D02*
X90650000Y-80851190D01*
X90411904Y-81327380D02*
X90411904Y-80327380D01*
X90792857Y-80327380D01*
X90888095Y-80375000D01*
X90935714Y-80422619D01*
X90983333Y-80517857D01*
X90983333Y-80660714D01*
X90935714Y-80755952D01*
X90888095Y-80803571D01*
X90792857Y-80851190D01*
X90411904Y-80851190D01*
X91935714Y-81327380D02*
X91364285Y-81327380D01*
X91650000Y-81327380D02*
X91650000Y-80327380D01*
X91554761Y-80470238D01*
X91459523Y-80565476D01*
X91364285Y-80613095D01*
%TO.C,U2*%
X159858095Y-84962380D02*
X159858095Y-85771904D01*
X159905714Y-85867142D01*
X159953333Y-85914761D01*
X160048571Y-85962380D01*
X160239047Y-85962380D01*
X160334285Y-85914761D01*
X160381904Y-85867142D01*
X160429523Y-85771904D01*
X160429523Y-84962380D01*
X160858095Y-85057619D02*
X160905714Y-85010000D01*
X161000952Y-84962380D01*
X161239047Y-84962380D01*
X161334285Y-85010000D01*
X161381904Y-85057619D01*
X161429523Y-85152857D01*
X161429523Y-85248095D01*
X161381904Y-85390952D01*
X160810476Y-85962380D01*
X161429523Y-85962380D01*
%TO.C,R5*%
X100558333Y-103952380D02*
X100225000Y-103476190D01*
X99986904Y-103952380D02*
X99986904Y-102952380D01*
X100367857Y-102952380D01*
X100463095Y-103000000D01*
X100510714Y-103047619D01*
X100558333Y-103142857D01*
X100558333Y-103285714D01*
X100510714Y-103380952D01*
X100463095Y-103428571D01*
X100367857Y-103476190D01*
X99986904Y-103476190D01*
X101463095Y-102952380D02*
X100986904Y-102952380D01*
X100939285Y-103428571D01*
X100986904Y-103380952D01*
X101082142Y-103333333D01*
X101320238Y-103333333D01*
X101415476Y-103380952D01*
X101463095Y-103428571D01*
X101510714Y-103523809D01*
X101510714Y-103761904D01*
X101463095Y-103857142D01*
X101415476Y-103904761D01*
X101320238Y-103952380D01*
X101082142Y-103952380D01*
X100986904Y-103904761D01*
X100939285Y-103857142D01*
%TO.C,R3*%
X93683333Y-96452380D02*
X93350000Y-95976190D01*
X93111904Y-96452380D02*
X93111904Y-95452380D01*
X93492857Y-95452380D01*
X93588095Y-95500000D01*
X93635714Y-95547619D01*
X93683333Y-95642857D01*
X93683333Y-95785714D01*
X93635714Y-95880952D01*
X93588095Y-95928571D01*
X93492857Y-95976190D01*
X93111904Y-95976190D01*
X94016666Y-95452380D02*
X94635714Y-95452380D01*
X94302380Y-95833333D01*
X94445238Y-95833333D01*
X94540476Y-95880952D01*
X94588095Y-95928571D01*
X94635714Y-96023809D01*
X94635714Y-96261904D01*
X94588095Y-96357142D01*
X94540476Y-96404761D01*
X94445238Y-96452380D01*
X94159523Y-96452380D01*
X94064285Y-96404761D01*
X94016666Y-96357142D01*
%TO.C,J2*%
X100866666Y-84902380D02*
X100866666Y-85616666D01*
X100819047Y-85759523D01*
X100723809Y-85854761D01*
X100580952Y-85902380D01*
X100485714Y-85902380D01*
X101295238Y-84997619D02*
X101342857Y-84950000D01*
X101438095Y-84902380D01*
X101676190Y-84902380D01*
X101771428Y-84950000D01*
X101819047Y-84997619D01*
X101866666Y-85092857D01*
X101866666Y-85188095D01*
X101819047Y-85330952D01*
X101247619Y-85902380D01*
X101866666Y-85902380D01*
%TO.C,D6*%
X101636904Y-106652380D02*
X101636904Y-105652380D01*
X101875000Y-105652380D01*
X102017857Y-105700000D01*
X102113095Y-105795238D01*
X102160714Y-105890476D01*
X102208333Y-106080952D01*
X102208333Y-106223809D01*
X102160714Y-106414285D01*
X102113095Y-106509523D01*
X102017857Y-106604761D01*
X101875000Y-106652380D01*
X101636904Y-106652380D01*
X103065476Y-105652380D02*
X102875000Y-105652380D01*
X102779761Y-105700000D01*
X102732142Y-105747619D01*
X102636904Y-105890476D01*
X102589285Y-106080952D01*
X102589285Y-106461904D01*
X102636904Y-106557142D01*
X102684523Y-106604761D01*
X102779761Y-106652380D01*
X102970238Y-106652380D01*
X103065476Y-106604761D01*
X103113095Y-106557142D01*
X103160714Y-106461904D01*
X103160714Y-106223809D01*
X103113095Y-106128571D01*
X103065476Y-106080952D01*
X102970238Y-106033333D01*
X102779761Y-106033333D01*
X102684523Y-106080952D01*
X102636904Y-106128571D01*
X102589285Y-106223809D01*
%TO.C,R6*%
X103883333Y-103952380D02*
X103550000Y-103476190D01*
X103311904Y-103952380D02*
X103311904Y-102952380D01*
X103692857Y-102952380D01*
X103788095Y-103000000D01*
X103835714Y-103047619D01*
X103883333Y-103142857D01*
X103883333Y-103285714D01*
X103835714Y-103380952D01*
X103788095Y-103428571D01*
X103692857Y-103476190D01*
X103311904Y-103476190D01*
X104740476Y-102952380D02*
X104550000Y-102952380D01*
X104454761Y-103000000D01*
X104407142Y-103047619D01*
X104311904Y-103190476D01*
X104264285Y-103380952D01*
X104264285Y-103761904D01*
X104311904Y-103857142D01*
X104359523Y-103904761D01*
X104454761Y-103952380D01*
X104645238Y-103952380D01*
X104740476Y-103904761D01*
X104788095Y-103857142D01*
X104835714Y-103761904D01*
X104835714Y-103523809D01*
X104788095Y-103428571D01*
X104740476Y-103380952D01*
X104645238Y-103333333D01*
X104454761Y-103333333D01*
X104359523Y-103380952D01*
X104311904Y-103428571D01*
X104264285Y-103523809D01*
%TO.C,H1*%
X67688095Y-60527380D02*
X67688095Y-59527380D01*
X67688095Y-60003571D02*
X68259523Y-60003571D01*
X68259523Y-60527380D02*
X68259523Y-59527380D01*
X69259523Y-60527380D02*
X68688095Y-60527380D01*
X68973809Y-60527380D02*
X68973809Y-59527380D01*
X68878571Y-59670238D01*
X68783333Y-59765476D01*
X68688095Y-59813095D01*
%TO.C,C2*%
X93683333Y-94682142D02*
X93635714Y-94729761D01*
X93492857Y-94777380D01*
X93397619Y-94777380D01*
X93254761Y-94729761D01*
X93159523Y-94634523D01*
X93111904Y-94539285D01*
X93064285Y-94348809D01*
X93064285Y-94205952D01*
X93111904Y-94015476D01*
X93159523Y-93920238D01*
X93254761Y-93825000D01*
X93397619Y-93777380D01*
X93492857Y-93777380D01*
X93635714Y-93825000D01*
X93683333Y-93872619D01*
X94064285Y-93872619D02*
X94111904Y-93825000D01*
X94207142Y-93777380D01*
X94445238Y-93777380D01*
X94540476Y-93825000D01*
X94588095Y-93872619D01*
X94635714Y-93967857D01*
X94635714Y-94063095D01*
X94588095Y-94205952D01*
X94016666Y-94777380D01*
X94635714Y-94777380D01*
%TO.C,D4*%
X96636904Y-97227380D02*
X96636904Y-96227380D01*
X96875000Y-96227380D01*
X97017857Y-96275000D01*
X97113095Y-96370238D01*
X97160714Y-96465476D01*
X97208333Y-96655952D01*
X97208333Y-96798809D01*
X97160714Y-96989285D01*
X97113095Y-97084523D01*
X97017857Y-97179761D01*
X96875000Y-97227380D01*
X96636904Y-97227380D01*
X98065476Y-96560714D02*
X98065476Y-97227380D01*
X97827380Y-96179761D02*
X97589285Y-96894047D01*
X98208333Y-96894047D01*
%TO.C,C5*%
X83558333Y-98432142D02*
X83510714Y-98479761D01*
X83367857Y-98527380D01*
X83272619Y-98527380D01*
X83129761Y-98479761D01*
X83034523Y-98384523D01*
X82986904Y-98289285D01*
X82939285Y-98098809D01*
X82939285Y-97955952D01*
X82986904Y-97765476D01*
X83034523Y-97670238D01*
X83129761Y-97575000D01*
X83272619Y-97527380D01*
X83367857Y-97527380D01*
X83510714Y-97575000D01*
X83558333Y-97622619D01*
X84463095Y-97527380D02*
X83986904Y-97527380D01*
X83939285Y-98003571D01*
X83986904Y-97955952D01*
X84082142Y-97908333D01*
X84320238Y-97908333D01*
X84415476Y-97955952D01*
X84463095Y-98003571D01*
X84510714Y-98098809D01*
X84510714Y-98336904D01*
X84463095Y-98432142D01*
X84415476Y-98479761D01*
X84320238Y-98527380D01*
X84082142Y-98527380D01*
X83986904Y-98479761D01*
X83939285Y-98432142D01*
%TO.C,Q2*%
X96254761Y-104872619D02*
X96159523Y-104825000D01*
X96064285Y-104729761D01*
X95921428Y-104586904D01*
X95826190Y-104539285D01*
X95730952Y-104539285D01*
X95778571Y-104777380D02*
X95683333Y-104729761D01*
X95588095Y-104634523D01*
X95540476Y-104444047D01*
X95540476Y-104110714D01*
X95588095Y-103920238D01*
X95683333Y-103825000D01*
X95778571Y-103777380D01*
X95969047Y-103777380D01*
X96064285Y-103825000D01*
X96159523Y-103920238D01*
X96207142Y-104110714D01*
X96207142Y-104444047D01*
X96159523Y-104634523D01*
X96064285Y-104729761D01*
X95969047Y-104777380D01*
X95778571Y-104777380D01*
X96588095Y-103872619D02*
X96635714Y-103825000D01*
X96730952Y-103777380D01*
X96969047Y-103777380D01*
X97064285Y-103825000D01*
X97111904Y-103872619D01*
X97159523Y-103967857D01*
X97159523Y-104063095D01*
X97111904Y-104205952D01*
X96540476Y-104777380D01*
X97159523Y-104777380D01*
D15*
%TO.C,D1*%
X73550000Y-82625000D02*
X73550000Y-80625000D01*
X76750000Y-80625000D02*
X73550000Y-80625000D01*
X73550000Y-82625000D02*
X76750000Y-82625000D01*
%TO.C,C3*%
X84390000Y-79018748D02*
X84390000Y-80441252D01*
X86210000Y-79018748D02*
X86210000Y-80441252D01*
%TO.C,R4*%
X94277064Y-105640000D02*
X92822936Y-105640000D01*
X94277064Y-107460000D02*
X92822936Y-107460000D01*
%TO.C,D5*%
X87755000Y-112655000D02*
X87755000Y-111255000D01*
X88505000Y-109535000D02*
X85085000Y-109535000D01*
X85325000Y-109535000D02*
X85325000Y-111255000D01*
X85525000Y-109405000D02*
X85525000Y-109405000D01*
X85525000Y-109535000D02*
X85525000Y-109405000D01*
X85205000Y-109535000D02*
X85205000Y-111255000D01*
X85835000Y-111255000D02*
X85835000Y-112655000D01*
X85835000Y-112655000D02*
X87755000Y-112655000D01*
X88065000Y-109405000D02*
X88065000Y-109405000D01*
X88065000Y-109535000D02*
X88065000Y-109405000D01*
X85525000Y-109405000D02*
X85525000Y-109535000D01*
X88505000Y-111255000D02*
X88505000Y-109535000D01*
X85525000Y-109535000D02*
X85525000Y-109535000D01*
X88065000Y-109535000D02*
X88065000Y-109535000D01*
X85085000Y-111255000D02*
X88505000Y-111255000D01*
X88065000Y-109405000D02*
X88065000Y-109535000D01*
X87755000Y-111255000D02*
X85835000Y-111255000D01*
X85085000Y-109535000D02*
X85085000Y-111255000D01*
%TO.C,U1*%
X84865000Y-89260000D02*
X84865000Y-88535000D01*
X85590000Y-85040000D02*
X84865000Y-85040000D01*
X85590000Y-89260000D02*
X84865000Y-89260000D01*
X89085000Y-85040000D02*
X89085000Y-85765000D01*
X88360000Y-85040000D02*
X89085000Y-85040000D01*
X88360000Y-89260000D02*
X89085000Y-89260000D01*
X89085000Y-89260000D02*
X89085000Y-88535000D01*
%TO.C,D2*%
X77950000Y-77175000D02*
X77950000Y-79175000D01*
X74750000Y-79175000D02*
X77950000Y-79175000D01*
X77950000Y-77175000D02*
X74750000Y-77175000D01*
%TO.C,Q1*%
X90350000Y-100775000D02*
X89350000Y-100775000D01*
X90360000Y-100755000D02*
X90360000Y-98325000D01*
X88350000Y-100775000D02*
X87300000Y-100775000D01*
X87300000Y-100775000D02*
X87300000Y-98925000D01*
%TO.C,R2*%
X90490000Y-90172936D02*
X90490000Y-91627064D01*
X92310000Y-90172936D02*
X92310000Y-91627064D01*
%TO.C,L2*%
X83860000Y-92705000D02*
X83860000Y-93845000D01*
X79740000Y-92705000D02*
X79740000Y-93845000D01*
%TO.C,D3*%
X82600000Y-81730000D02*
X82600000Y-78530000D01*
X80600000Y-78530000D02*
X80600000Y-81730000D01*
X82600000Y-81730000D02*
X80600000Y-81730000D01*
%TO.C,C4*%
X81190000Y-88261252D02*
X81190000Y-86838748D01*
X83010000Y-88261252D02*
X83010000Y-86838748D01*
%TO.C,C1*%
X76661252Y-84115000D02*
X75238748Y-84115000D01*
X76661252Y-85935000D02*
X75238748Y-85935000D01*
%TO.C,R1*%
X87940000Y-80477064D02*
X87940000Y-79022936D01*
X89760000Y-80477064D02*
X89760000Y-79022936D01*
%TO.C,U2*%
X116070000Y-67360000D02*
X193130000Y-67360000D01*
X193130000Y-67360000D02*
X193130000Y-107140000D01*
X193130000Y-107140000D02*
X116070000Y-107140000D01*
X116070000Y-107140000D02*
X116070000Y-67360000D01*
%TO.C,R5*%
X99740000Y-99172936D02*
X99740000Y-100627064D01*
X101560000Y-99172936D02*
X101560000Y-100627064D01*
%TO.C,R3*%
X91202064Y-96260000D02*
X90747936Y-96260000D01*
X91202064Y-94790000D02*
X90747936Y-94790000D01*
%TO.C,J2*%
X101275000Y-87315000D02*
X101275000Y-86815000D01*
X100065000Y-94035000D02*
X100065000Y-87315000D01*
X102085000Y-87815000D02*
X103585000Y-87815000D01*
X101385000Y-94835000D02*
X103885000Y-94835000D01*
X103585000Y-94535000D02*
X103585000Y-86815000D01*
X102085000Y-93535000D02*
X103585000Y-93535000D01*
X102085000Y-86815000D02*
X102085000Y-87815000D01*
X101275000Y-94535000D02*
X101275000Y-94035000D01*
X103585000Y-86815000D02*
X99565000Y-86815000D01*
X99565000Y-94535000D02*
X103585000Y-94535000D01*
X102085000Y-94535000D02*
X102085000Y-93535000D01*
X99565000Y-86815000D02*
X99565000Y-94535000D01*
X101275000Y-94035000D02*
X100065000Y-94035000D01*
X100065000Y-87315000D02*
X101275000Y-87315000D01*
X103885000Y-94835000D02*
X103885000Y-92335000D01*
%TO.C,D6*%
X103665000Y-109535000D02*
X103665000Y-109405000D01*
X103665000Y-109405000D02*
X103665000Y-109535000D01*
X101435000Y-112655000D02*
X103355000Y-112655000D01*
X101435000Y-111255000D02*
X101435000Y-112655000D01*
X104105000Y-109535000D02*
X100685000Y-109535000D01*
X101125000Y-109535000D02*
X101125000Y-109535000D01*
X100925000Y-109535000D02*
X100925000Y-111255000D01*
X100685000Y-109535000D02*
X100685000Y-111255000D01*
X101125000Y-109405000D02*
X101125000Y-109405000D01*
X101125000Y-109405000D02*
X101125000Y-109535000D01*
X103665000Y-109535000D02*
X103665000Y-109535000D01*
X101125000Y-109535000D02*
X101125000Y-109405000D01*
X103355000Y-112655000D02*
X103355000Y-111255000D01*
X104105000Y-111255000D02*
X104105000Y-109535000D01*
X100685000Y-111255000D02*
X104105000Y-111255000D01*
X103355000Y-111255000D02*
X101435000Y-111255000D01*
X100805000Y-109535000D02*
X100805000Y-111255000D01*
X103665000Y-109405000D02*
X103665000Y-109405000D01*
%TO.C,R6*%
X104985000Y-99172936D02*
X104985000Y-100627064D01*
X103165000Y-99172936D02*
X103165000Y-100627064D01*
%TO.C,C2*%
X86588748Y-91215000D02*
X88011252Y-91215000D01*
X86588748Y-93035000D02*
X88011252Y-93035000D01*
%TO.C,D4*%
X98400000Y-97825000D02*
X98400000Y-101725000D01*
X96400000Y-97825000D02*
X96400000Y-101725000D01*
X98400000Y-97825000D02*
X96400000Y-97825000D01*
%TO.C,C5*%
X86388748Y-96285000D02*
X86911252Y-96285000D01*
X86388748Y-94815000D02*
X86911252Y-94815000D01*
%TO.C,Q2*%
X94875000Y-100575000D02*
X92075000Y-100575000D01*
X92075000Y-100575000D02*
X92075000Y-104825000D01*
X92075000Y-104825000D02*
X94875000Y-104825000D01*
X94875000Y-104825000D02*
X94875000Y-100575000D01*
%TD*%
M02*
