%TF.GenerationSoftware,KiCad,Pcbnew,(6.0.7)*%
%TF.CreationDate,2023-01-12T19:29:25+03:00*%
%TF.ProjectId,Wireless Power Receiver & Charger,57697265-6c65-4737-9320-506f77657220,rev?*%
%TF.SameCoordinates,Original*%
%TF.FileFunction,Copper,L2,Inr*%
%TF.FilePolarity,Positive*%
%FSLAX46Y46*%
G04 Gerber Fmt 4.6, Leading zero omitted, Abs format (unit mm)*
G04 Created by KiCad (PCBNEW (6.0.7)) date 2023-01-12 19:29:25*
%MOMM*%
%LPD*%
G01*
G04 APERTURE LIST*
G04 Aperture macros list*
%AMRoundRect*
0 Rectangle with rounded corners*
0 $1 Rounding radius*
0 $2 $3 $4 $5 $6 $7 $8 $9 X,Y pos of 4 corners*
0 Add a 4 corners polygon primitive as box body*
4,1,4,$2,$3,$4,$5,$6,$7,$8,$9,$2,$3,0*
0 Add four circle primitives for the rounded corners*
1,1,$1+$1,$2,$3*
1,1,$1+$1,$4,$5*
1,1,$1+$1,$6,$7*
1,1,$1+$1,$8,$9*
0 Add four rect primitives between the rounded corners*
20,1,$1+$1,$2,$3,$4,$5,0*
20,1,$1+$1,$4,$5,$6,$7,0*
20,1,$1+$1,$6,$7,$8,$9,0*
20,1,$1+$1,$8,$9,$2,$3,0*%
G04 Aperture macros list end*
%ADD10C,0.100000*%
%ADD11C,0.150000*%
%ADD12C,0.300000*%
%ADD13C,0.400000*%
%TA.AperFunction,Profile*%
%ADD14C,0.100000*%
%TD*%
%TA.AperFunction,ComponentPad*%
%ADD15C,0.800000*%
%TD*%
%TA.AperFunction,ComponentPad*%
%ADD16C,5.000000*%
%TD*%
%TA.AperFunction,ComponentPad*%
%ADD17R,1.800000X1.800000*%
%TD*%
%TA.AperFunction,ComponentPad*%
%ADD18C,1.800000*%
%TD*%
%TA.AperFunction,ComponentPad*%
%ADD19C,0.600000*%
%TD*%
%TA.AperFunction,ComponentPad*%
%ADD20RoundRect,0.250000X0.750000X-0.600000X0.750000X0.600000X-0.750000X0.600000X-0.750000X-0.600000X0*%
%TD*%
%TA.AperFunction,ComponentPad*%
%ADD21O,2.000000X1.700000*%
%TD*%
%TA.AperFunction,ComponentPad*%
%ADD22C,2.000000*%
%TD*%
%TA.AperFunction,ViaPad*%
%ADD23C,0.800000*%
%TD*%
%TA.AperFunction,Conductor*%
%ADD24C,0.250000*%
%TD*%
G04 APERTURE END LIST*
D10*
D11*
X177002200Y-166007200D02*
X177002200Y-198007200D01*
X285002200Y-198007200D01*
X285002200Y-166007200D01*
X177002200Y-166007200D01*
D10*
D11*
X10000000Y-10000000D02*
X10000000Y-200007200D01*
X287002200Y-200007200D01*
X287002200Y-10000000D01*
X10000000Y-10000000D01*
D10*
D11*
X12000000Y-12000000D02*
X12000000Y-198007200D01*
X285002200Y-198007200D01*
X285002200Y-12000000D01*
X12000000Y-12000000D01*
D10*
D11*
X60000000Y-12000000D02*
X60000000Y-10000000D01*
D10*
D11*
X110000000Y-12000000D02*
X110000000Y-10000000D01*
D10*
D11*
X160000000Y-12000000D02*
X160000000Y-10000000D01*
D10*
D11*
X210000000Y-12000000D02*
X210000000Y-10000000D01*
D10*
D11*
X260000000Y-12000000D02*
X260000000Y-10000000D01*
D10*
D11*
X36065476Y-11588095D02*
X35322619Y-11588095D01*
X35694047Y-11588095D02*
X35694047Y-10288095D01*
X35570238Y-10473809D01*
X35446428Y-10597619D01*
X35322619Y-10659523D01*
D10*
D11*
X85322619Y-10411904D02*
X85384523Y-10350000D01*
X85508333Y-10288095D01*
X85817857Y-10288095D01*
X85941666Y-10350000D01*
X86003571Y-10411904D01*
X86065476Y-10535714D01*
X86065476Y-10659523D01*
X86003571Y-10845238D01*
X85260714Y-11588095D01*
X86065476Y-11588095D01*
D10*
D11*
X135260714Y-10288095D02*
X136065476Y-10288095D01*
X135632142Y-10783333D01*
X135817857Y-10783333D01*
X135941666Y-10845238D01*
X136003571Y-10907142D01*
X136065476Y-11030952D01*
X136065476Y-11340476D01*
X136003571Y-11464285D01*
X135941666Y-11526190D01*
X135817857Y-11588095D01*
X135446428Y-11588095D01*
X135322619Y-11526190D01*
X135260714Y-11464285D01*
D10*
D11*
X185941666Y-10721428D02*
X185941666Y-11588095D01*
X185632142Y-10226190D02*
X185322619Y-11154761D01*
X186127380Y-11154761D01*
D10*
D11*
X236003571Y-10288095D02*
X235384523Y-10288095D01*
X235322619Y-10907142D01*
X235384523Y-10845238D01*
X235508333Y-10783333D01*
X235817857Y-10783333D01*
X235941666Y-10845238D01*
X236003571Y-10907142D01*
X236065476Y-11030952D01*
X236065476Y-11340476D01*
X236003571Y-11464285D01*
X235941666Y-11526190D01*
X235817857Y-11588095D01*
X235508333Y-11588095D01*
X235384523Y-11526190D01*
X235322619Y-11464285D01*
D10*
D11*
X285941666Y-10288095D02*
X285694047Y-10288095D01*
X285570238Y-10350000D01*
X285508333Y-10411904D01*
X285384523Y-10597619D01*
X285322619Y-10845238D01*
X285322619Y-11340476D01*
X285384523Y-11464285D01*
X285446428Y-11526190D01*
X285570238Y-11588095D01*
X285817857Y-11588095D01*
X285941666Y-11526190D01*
X286003571Y-11464285D01*
X286065476Y-11340476D01*
X286065476Y-11030952D01*
X286003571Y-10907142D01*
X285941666Y-10845238D01*
X285817857Y-10783333D01*
X285570238Y-10783333D01*
X285446428Y-10845238D01*
X285384523Y-10907142D01*
X285322619Y-11030952D01*
D10*
D11*
X60000000Y-198007200D02*
X60000000Y-200007200D01*
D10*
D11*
X110000000Y-198007200D02*
X110000000Y-200007200D01*
D10*
D11*
X160000000Y-198007200D02*
X160000000Y-200007200D01*
D10*
D11*
X210000000Y-198007200D02*
X210000000Y-200007200D01*
D10*
D11*
X260000000Y-198007200D02*
X260000000Y-200007200D01*
D10*
D11*
X36065476Y-199595295D02*
X35322619Y-199595295D01*
X35694047Y-199595295D02*
X35694047Y-198295295D01*
X35570238Y-198481009D01*
X35446428Y-198604819D01*
X35322619Y-198666723D01*
D10*
D11*
X85322619Y-198419104D02*
X85384523Y-198357200D01*
X85508333Y-198295295D01*
X85817857Y-198295295D01*
X85941666Y-198357200D01*
X86003571Y-198419104D01*
X86065476Y-198542914D01*
X86065476Y-198666723D01*
X86003571Y-198852438D01*
X85260714Y-199595295D01*
X86065476Y-199595295D01*
D10*
D11*
X135260714Y-198295295D02*
X136065476Y-198295295D01*
X135632142Y-198790533D01*
X135817857Y-198790533D01*
X135941666Y-198852438D01*
X136003571Y-198914342D01*
X136065476Y-199038152D01*
X136065476Y-199347676D01*
X136003571Y-199471485D01*
X135941666Y-199533390D01*
X135817857Y-199595295D01*
X135446428Y-199595295D01*
X135322619Y-199533390D01*
X135260714Y-199471485D01*
D10*
D11*
X185941666Y-198728628D02*
X185941666Y-199595295D01*
X185632142Y-198233390D02*
X185322619Y-199161961D01*
X186127380Y-199161961D01*
D10*
D11*
X236003571Y-198295295D02*
X235384523Y-198295295D01*
X235322619Y-198914342D01*
X235384523Y-198852438D01*
X235508333Y-198790533D01*
X235817857Y-198790533D01*
X235941666Y-198852438D01*
X236003571Y-198914342D01*
X236065476Y-199038152D01*
X236065476Y-199347676D01*
X236003571Y-199471485D01*
X235941666Y-199533390D01*
X235817857Y-199595295D01*
X235508333Y-199595295D01*
X235384523Y-199533390D01*
X235322619Y-199471485D01*
D10*
D11*
X285941666Y-198295295D02*
X285694047Y-198295295D01*
X285570238Y-198357200D01*
X285508333Y-198419104D01*
X285384523Y-198604819D01*
X285322619Y-198852438D01*
X285322619Y-199347676D01*
X285384523Y-199471485D01*
X285446428Y-199533390D01*
X285570238Y-199595295D01*
X285817857Y-199595295D01*
X285941666Y-199533390D01*
X286003571Y-199471485D01*
X286065476Y-199347676D01*
X286065476Y-199038152D01*
X286003571Y-198914342D01*
X285941666Y-198852438D01*
X285817857Y-198790533D01*
X285570238Y-198790533D01*
X285446428Y-198852438D01*
X285384523Y-198914342D01*
X285322619Y-199038152D01*
D10*
D11*
X10000000Y-60000000D02*
X12000000Y-60000000D01*
D10*
D11*
X10000000Y-110000000D02*
X12000000Y-110000000D01*
D10*
D11*
X10000000Y-160000000D02*
X12000000Y-160000000D01*
D10*
D11*
X10690476Y-35216666D02*
X11309523Y-35216666D01*
X10566666Y-35588095D02*
X11000000Y-34288095D01*
X11433333Y-35588095D01*
D10*
D11*
X11092857Y-84907142D02*
X11278571Y-84969047D01*
X11340476Y-85030952D01*
X11402380Y-85154761D01*
X11402380Y-85340476D01*
X11340476Y-85464285D01*
X11278571Y-85526190D01*
X11154761Y-85588095D01*
X10659523Y-85588095D01*
X10659523Y-84288095D01*
X11092857Y-84288095D01*
X11216666Y-84350000D01*
X11278571Y-84411904D01*
X11340476Y-84535714D01*
X11340476Y-84659523D01*
X11278571Y-84783333D01*
X11216666Y-84845238D01*
X11092857Y-84907142D01*
X10659523Y-84907142D01*
D10*
D11*
X11402380Y-135464285D02*
X11340476Y-135526190D01*
X11154761Y-135588095D01*
X11030952Y-135588095D01*
X10845238Y-135526190D01*
X10721428Y-135402380D01*
X10659523Y-135278571D01*
X10597619Y-135030952D01*
X10597619Y-134845238D01*
X10659523Y-134597619D01*
X10721428Y-134473809D01*
X10845238Y-134350000D01*
X11030952Y-134288095D01*
X11154761Y-134288095D01*
X11340476Y-134350000D01*
X11402380Y-134411904D01*
D10*
D11*
X10659523Y-185588095D02*
X10659523Y-184288095D01*
X10969047Y-184288095D01*
X11154761Y-184350000D01*
X11278571Y-184473809D01*
X11340476Y-184597619D01*
X11402380Y-184845238D01*
X11402380Y-185030952D01*
X11340476Y-185278571D01*
X11278571Y-185402380D01*
X11154761Y-185526190D01*
X10969047Y-185588095D01*
X10659523Y-185588095D01*
D10*
D11*
X287002200Y-60000000D02*
X285002200Y-60000000D01*
D10*
D11*
X287002200Y-110000000D02*
X285002200Y-110000000D01*
D10*
D11*
X287002200Y-160000000D02*
X285002200Y-160000000D01*
D10*
D11*
X285692676Y-35216666D02*
X286311723Y-35216666D01*
X285568866Y-35588095D02*
X286002200Y-34288095D01*
X286435533Y-35588095D01*
D10*
D11*
X286095057Y-84907142D02*
X286280771Y-84969047D01*
X286342676Y-85030952D01*
X286404580Y-85154761D01*
X286404580Y-85340476D01*
X286342676Y-85464285D01*
X286280771Y-85526190D01*
X286156961Y-85588095D01*
X285661723Y-85588095D01*
X285661723Y-84288095D01*
X286095057Y-84288095D01*
X286218866Y-84350000D01*
X286280771Y-84411904D01*
X286342676Y-84535714D01*
X286342676Y-84659523D01*
X286280771Y-84783333D01*
X286218866Y-84845238D01*
X286095057Y-84907142D01*
X285661723Y-84907142D01*
D10*
D11*
X286404580Y-135464285D02*
X286342676Y-135526190D01*
X286156961Y-135588095D01*
X286033152Y-135588095D01*
X285847438Y-135526190D01*
X285723628Y-135402380D01*
X285661723Y-135278571D01*
X285599819Y-135030952D01*
X285599819Y-134845238D01*
X285661723Y-134597619D01*
X285723628Y-134473809D01*
X285847438Y-134350000D01*
X286033152Y-134288095D01*
X286156961Y-134288095D01*
X286342676Y-134350000D01*
X286404580Y-134411904D01*
D10*
D11*
X285661723Y-185588095D02*
X285661723Y-184288095D01*
X285971247Y-184288095D01*
X286156961Y-184350000D01*
X286280771Y-184473809D01*
X286342676Y-184597619D01*
X286404580Y-184845238D01*
X286404580Y-185030952D01*
X286342676Y-185278571D01*
X286280771Y-185402380D01*
X286156961Y-185526190D01*
X285971247Y-185588095D01*
X285661723Y-185588095D01*
D10*
D11*
X200434342Y-193785771D02*
X200434342Y-192285771D01*
X200791485Y-192285771D01*
X201005771Y-192357200D01*
X201148628Y-192500057D01*
X201220057Y-192642914D01*
X201291485Y-192928628D01*
X201291485Y-193142914D01*
X201220057Y-193428628D01*
X201148628Y-193571485D01*
X201005771Y-193714342D01*
X200791485Y-193785771D01*
X200434342Y-193785771D01*
X202577200Y-193785771D02*
X202577200Y-193000057D01*
X202505771Y-192857200D01*
X202362914Y-192785771D01*
X202077200Y-192785771D01*
X201934342Y-192857200D01*
X202577200Y-193714342D02*
X202434342Y-193785771D01*
X202077200Y-193785771D01*
X201934342Y-193714342D01*
X201862914Y-193571485D01*
X201862914Y-193428628D01*
X201934342Y-193285771D01*
X202077200Y-193214342D01*
X202434342Y-193214342D01*
X202577200Y-193142914D01*
X203077200Y-192785771D02*
X203648628Y-192785771D01*
X203291485Y-192285771D02*
X203291485Y-193571485D01*
X203362914Y-193714342D01*
X203505771Y-193785771D01*
X203648628Y-193785771D01*
X204720057Y-193714342D02*
X204577200Y-193785771D01*
X204291485Y-193785771D01*
X204148628Y-193714342D01*
X204077200Y-193571485D01*
X204077200Y-193000057D01*
X204148628Y-192857200D01*
X204291485Y-192785771D01*
X204577200Y-192785771D01*
X204720057Y-192857200D01*
X204791485Y-193000057D01*
X204791485Y-193142914D01*
X204077200Y-193285771D01*
X205434342Y-193642914D02*
X205505771Y-193714342D01*
X205434342Y-193785771D01*
X205362914Y-193714342D01*
X205434342Y-193642914D01*
X205434342Y-193785771D01*
X205434342Y-192857200D02*
X205505771Y-192928628D01*
X205434342Y-193000057D01*
X205362914Y-192928628D01*
X205434342Y-192857200D01*
X205434342Y-193000057D01*
X207220057Y-192428628D02*
X207291485Y-192357200D01*
X207434342Y-192285771D01*
X207791485Y-192285771D01*
X207934342Y-192357200D01*
X208005771Y-192428628D01*
X208077200Y-192571485D01*
X208077200Y-192714342D01*
X208005771Y-192928628D01*
X207148628Y-193785771D01*
X208077200Y-193785771D01*
X209005771Y-192285771D02*
X209148628Y-192285771D01*
X209291485Y-192357200D01*
X209362914Y-192428628D01*
X209434342Y-192571485D01*
X209505771Y-192857200D01*
X209505771Y-193214342D01*
X209434342Y-193500057D01*
X209362914Y-193642914D01*
X209291485Y-193714342D01*
X209148628Y-193785771D01*
X209005771Y-193785771D01*
X208862914Y-193714342D01*
X208791485Y-193642914D01*
X208720057Y-193500057D01*
X208648628Y-193214342D01*
X208648628Y-192857200D01*
X208720057Y-192571485D01*
X208791485Y-192428628D01*
X208862914Y-192357200D01*
X209005771Y-192285771D01*
X210077200Y-192428628D02*
X210148628Y-192357200D01*
X210291485Y-192285771D01*
X210648628Y-192285771D01*
X210791485Y-192357200D01*
X210862914Y-192428628D01*
X210934342Y-192571485D01*
X210934342Y-192714342D01*
X210862914Y-192928628D01*
X210005771Y-193785771D01*
X210934342Y-193785771D01*
X211434342Y-192285771D02*
X212362914Y-192285771D01*
X211862914Y-192857200D01*
X212077200Y-192857200D01*
X212220057Y-192928628D01*
X212291485Y-193000057D01*
X212362914Y-193142914D01*
X212362914Y-193500057D01*
X212291485Y-193642914D01*
X212220057Y-193714342D01*
X212077200Y-193785771D01*
X211648628Y-193785771D01*
X211505771Y-193714342D01*
X211434342Y-193642914D01*
X213005771Y-193214342D02*
X214148628Y-193214342D01*
X215148628Y-192285771D02*
X215291485Y-192285771D01*
X215434342Y-192357200D01*
X215505771Y-192428628D01*
X215577200Y-192571485D01*
X215648628Y-192857200D01*
X215648628Y-193214342D01*
X215577200Y-193500057D01*
X215505771Y-193642914D01*
X215434342Y-193714342D01*
X215291485Y-193785771D01*
X215148628Y-193785771D01*
X215005771Y-193714342D01*
X214934342Y-193642914D01*
X214862914Y-193500057D01*
X214791485Y-193214342D01*
X214791485Y-192857200D01*
X214862914Y-192571485D01*
X214934342Y-192428628D01*
X215005771Y-192357200D01*
X215148628Y-192285771D01*
X217077200Y-193785771D02*
X216220057Y-193785771D01*
X216648628Y-193785771D02*
X216648628Y-192285771D01*
X216505771Y-192500057D01*
X216362914Y-192642914D01*
X216220057Y-192714342D01*
X217720057Y-193214342D02*
X218862914Y-193214342D01*
X220362914Y-193785771D02*
X219505771Y-193785771D01*
X219934342Y-193785771D02*
X219934342Y-192285771D01*
X219791485Y-192500057D01*
X219648628Y-192642914D01*
X219505771Y-192714342D01*
X221291485Y-192285771D02*
X221434342Y-192285771D01*
X221577200Y-192357200D01*
X221648628Y-192428628D01*
X221720057Y-192571485D01*
X221791485Y-192857200D01*
X221791485Y-193214342D01*
X221720057Y-193500057D01*
X221648628Y-193642914D01*
X221577200Y-193714342D01*
X221434342Y-193785771D01*
X221291485Y-193785771D01*
X221148628Y-193714342D01*
X221077200Y-193642914D01*
X221005771Y-193500057D01*
X220934342Y-193214342D01*
X220934342Y-192857200D01*
X221005771Y-192571485D01*
X221077200Y-192428628D01*
X221148628Y-192357200D01*
X221291485Y-192285771D01*
D10*
D11*
X177002200Y-194507200D02*
X285002200Y-194507200D01*
D10*
D11*
X178434342Y-196585771D02*
X178434342Y-195085771D01*
X179291485Y-196585771D02*
X178648628Y-195728628D01*
X179291485Y-195085771D02*
X178434342Y-195942914D01*
X179934342Y-196585771D02*
X179934342Y-195585771D01*
X179934342Y-195085771D02*
X179862914Y-195157200D01*
X179934342Y-195228628D01*
X180005771Y-195157200D01*
X179934342Y-195085771D01*
X179934342Y-195228628D01*
X181505771Y-196442914D02*
X181434342Y-196514342D01*
X181220057Y-196585771D01*
X181077200Y-196585771D01*
X180862914Y-196514342D01*
X180720057Y-196371485D01*
X180648628Y-196228628D01*
X180577200Y-195942914D01*
X180577200Y-195728628D01*
X180648628Y-195442914D01*
X180720057Y-195300057D01*
X180862914Y-195157200D01*
X181077200Y-195085771D01*
X181220057Y-195085771D01*
X181434342Y-195157200D01*
X181505771Y-195228628D01*
X182791485Y-196585771D02*
X182791485Y-195800057D01*
X182720057Y-195657200D01*
X182577200Y-195585771D01*
X182291485Y-195585771D01*
X182148628Y-195657200D01*
X182791485Y-196514342D02*
X182648628Y-196585771D01*
X182291485Y-196585771D01*
X182148628Y-196514342D01*
X182077200Y-196371485D01*
X182077200Y-196228628D01*
X182148628Y-196085771D01*
X182291485Y-196014342D01*
X182648628Y-196014342D01*
X182791485Y-195942914D01*
X184148628Y-196585771D02*
X184148628Y-195085771D01*
X184148628Y-196514342D02*
X184005771Y-196585771D01*
X183720057Y-196585771D01*
X183577200Y-196514342D01*
X183505771Y-196442914D01*
X183434342Y-196300057D01*
X183434342Y-195871485D01*
X183505771Y-195728628D01*
X183577200Y-195657200D01*
X183720057Y-195585771D01*
X184005771Y-195585771D01*
X184148628Y-195657200D01*
X186005771Y-195800057D02*
X186505771Y-195800057D01*
X186720057Y-196585771D02*
X186005771Y-196585771D01*
X186005771Y-195085771D01*
X186720057Y-195085771D01*
X187362914Y-196442914D02*
X187434342Y-196514342D01*
X187362914Y-196585771D01*
X187291485Y-196514342D01*
X187362914Y-196442914D01*
X187362914Y-196585771D01*
X188077200Y-196585771D02*
X188077200Y-195085771D01*
X188434342Y-195085771D01*
X188648628Y-195157200D01*
X188791485Y-195300057D01*
X188862914Y-195442914D01*
X188934342Y-195728628D01*
X188934342Y-195942914D01*
X188862914Y-196228628D01*
X188791485Y-196371485D01*
X188648628Y-196514342D01*
X188434342Y-196585771D01*
X188077200Y-196585771D01*
X189577200Y-196442914D02*
X189648628Y-196514342D01*
X189577200Y-196585771D01*
X189505771Y-196514342D01*
X189577200Y-196442914D01*
X189577200Y-196585771D01*
X190220057Y-196157200D02*
X190934342Y-196157200D01*
X190077200Y-196585771D02*
X190577200Y-195085771D01*
X191077200Y-196585771D01*
X191577200Y-196442914D02*
X191648628Y-196514342D01*
X191577200Y-196585771D01*
X191505771Y-196514342D01*
X191577200Y-196442914D01*
X191577200Y-196585771D01*
X194577200Y-196585771D02*
X194577200Y-195085771D01*
X194720057Y-196014342D02*
X195148628Y-196585771D01*
X195148628Y-195585771D02*
X194577200Y-196157200D01*
X195791485Y-196585771D02*
X195791485Y-195585771D01*
X195791485Y-195085771D02*
X195720057Y-195157200D01*
X195791485Y-195228628D01*
X195862914Y-195157200D01*
X195791485Y-195085771D01*
X195791485Y-195228628D01*
X197148628Y-196514342D02*
X197005771Y-196585771D01*
X196720057Y-196585771D01*
X196577200Y-196514342D01*
X196505771Y-196442914D01*
X196434342Y-196300057D01*
X196434342Y-195871485D01*
X196505771Y-195728628D01*
X196577200Y-195657200D01*
X196720057Y-195585771D01*
X197005771Y-195585771D01*
X197148628Y-195657200D01*
X198434342Y-196585771D02*
X198434342Y-195800057D01*
X198362914Y-195657200D01*
X198220057Y-195585771D01*
X197934342Y-195585771D01*
X197791485Y-195657200D01*
X198434342Y-196514342D02*
X198291485Y-196585771D01*
X197934342Y-196585771D01*
X197791485Y-196514342D01*
X197720057Y-196371485D01*
X197720057Y-196228628D01*
X197791485Y-196085771D01*
X197934342Y-196014342D01*
X198291485Y-196014342D01*
X198434342Y-195942914D01*
X199791485Y-196585771D02*
X199791485Y-195085771D01*
X199791485Y-196514342D02*
X199648628Y-196585771D01*
X199362914Y-196585771D01*
X199220057Y-196514342D01*
X199148628Y-196442914D01*
X199077200Y-196300057D01*
X199077200Y-195871485D01*
X199148628Y-195728628D01*
X199220057Y-195657200D01*
X199362914Y-195585771D01*
X199648628Y-195585771D01*
X199791485Y-195657200D01*
X202077200Y-197157200D02*
X202005771Y-197085771D01*
X201862914Y-196871485D01*
X201791485Y-196728628D01*
X201720057Y-196514342D01*
X201648628Y-196157200D01*
X201648628Y-195871485D01*
X201720057Y-195514342D01*
X201791485Y-195300057D01*
X201862914Y-195157200D01*
X202005771Y-194942914D01*
X202077200Y-194871485D01*
X203291485Y-195085771D02*
X203005771Y-195085771D01*
X202862914Y-195157200D01*
X202791485Y-195228628D01*
X202648628Y-195442914D01*
X202577200Y-195728628D01*
X202577200Y-196300057D01*
X202648628Y-196442914D01*
X202720057Y-196514342D01*
X202862914Y-196585771D01*
X203148628Y-196585771D01*
X203291485Y-196514342D01*
X203362914Y-196442914D01*
X203434342Y-196300057D01*
X203434342Y-195942914D01*
X203362914Y-195800057D01*
X203291485Y-195728628D01*
X203148628Y-195657200D01*
X202862914Y-195657200D01*
X202720057Y-195728628D01*
X202648628Y-195800057D01*
X202577200Y-195942914D01*
X204077200Y-196442914D02*
X204148628Y-196514342D01*
X204077200Y-196585771D01*
X204005771Y-196514342D01*
X204077200Y-196442914D01*
X204077200Y-196585771D01*
X205077200Y-195085771D02*
X205220057Y-195085771D01*
X205362914Y-195157200D01*
X205434342Y-195228628D01*
X205505771Y-195371485D01*
X205577200Y-195657200D01*
X205577200Y-196014342D01*
X205505771Y-196300057D01*
X205434342Y-196442914D01*
X205362914Y-196514342D01*
X205220057Y-196585771D01*
X205077200Y-196585771D01*
X204934342Y-196514342D01*
X204862914Y-196442914D01*
X204791485Y-196300057D01*
X204720057Y-196014342D01*
X204720057Y-195657200D01*
X204791485Y-195371485D01*
X204862914Y-195228628D01*
X204934342Y-195157200D01*
X205077200Y-195085771D01*
X206220057Y-196442914D02*
X206291485Y-196514342D01*
X206220057Y-196585771D01*
X206148628Y-196514342D01*
X206220057Y-196442914D01*
X206220057Y-196585771D01*
X206791485Y-195085771D02*
X207791485Y-195085771D01*
X207148628Y-196585771D01*
X208220057Y-197157200D02*
X208291485Y-197085771D01*
X208434342Y-196871485D01*
X208505771Y-196728628D01*
X208577200Y-196514342D01*
X208648628Y-196157200D01*
X208648628Y-195871485D01*
X208577200Y-195514342D01*
X208505771Y-195300057D01*
X208434342Y-195157200D01*
X208291485Y-194942914D01*
X208220057Y-194871485D01*
D10*
D11*
X177002200Y-191507200D02*
X285002200Y-191507200D01*
D10*
D12*
X264411485Y-193785771D02*
X263911485Y-193071485D01*
X263554342Y-193785771D02*
X263554342Y-192285771D01*
X264125771Y-192285771D01*
X264268628Y-192357200D01*
X264340057Y-192428628D01*
X264411485Y-192571485D01*
X264411485Y-192785771D01*
X264340057Y-192928628D01*
X264268628Y-193000057D01*
X264125771Y-193071485D01*
X263554342Y-193071485D01*
X265625771Y-193714342D02*
X265482914Y-193785771D01*
X265197200Y-193785771D01*
X265054342Y-193714342D01*
X264982914Y-193571485D01*
X264982914Y-193000057D01*
X265054342Y-192857200D01*
X265197200Y-192785771D01*
X265482914Y-192785771D01*
X265625771Y-192857200D01*
X265697200Y-193000057D01*
X265697200Y-193142914D01*
X264982914Y-193285771D01*
X266197200Y-192785771D02*
X266554342Y-193785771D01*
X266911485Y-192785771D01*
X267482914Y-193642914D02*
X267554342Y-193714342D01*
X267482914Y-193785771D01*
X267411485Y-193714342D01*
X267482914Y-193642914D01*
X267482914Y-193785771D01*
X267482914Y-192857200D02*
X267554342Y-192928628D01*
X267482914Y-193000057D01*
X267411485Y-192928628D01*
X267482914Y-192857200D01*
X267482914Y-193000057D01*
D10*
D11*
X178362914Y-193714342D02*
X178577200Y-193785771D01*
X178934342Y-193785771D01*
X179077200Y-193714342D01*
X179148628Y-193642914D01*
X179220057Y-193500057D01*
X179220057Y-193357200D01*
X179148628Y-193214342D01*
X179077200Y-193142914D01*
X178934342Y-193071485D01*
X178648628Y-193000057D01*
X178505771Y-192928628D01*
X178434342Y-192857200D01*
X178362914Y-192714342D01*
X178362914Y-192571485D01*
X178434342Y-192428628D01*
X178505771Y-192357200D01*
X178648628Y-192285771D01*
X179005771Y-192285771D01*
X179220057Y-192357200D01*
X179862914Y-193785771D02*
X179862914Y-192785771D01*
X179862914Y-192285771D02*
X179791485Y-192357200D01*
X179862914Y-192428628D01*
X179934342Y-192357200D01*
X179862914Y-192285771D01*
X179862914Y-192428628D01*
X180434342Y-192785771D02*
X181220057Y-192785771D01*
X180434342Y-193785771D01*
X181220057Y-193785771D01*
X182362914Y-193714342D02*
X182220057Y-193785771D01*
X181934342Y-193785771D01*
X181791485Y-193714342D01*
X181720057Y-193571485D01*
X181720057Y-193000057D01*
X181791485Y-192857200D01*
X181934342Y-192785771D01*
X182220057Y-192785771D01*
X182362914Y-192857200D01*
X182434342Y-193000057D01*
X182434342Y-193142914D01*
X181720057Y-193285771D01*
X183077200Y-193642914D02*
X183148628Y-193714342D01*
X183077200Y-193785771D01*
X183005771Y-193714342D01*
X183077200Y-193642914D01*
X183077200Y-193785771D01*
X183077200Y-192857200D02*
X183148628Y-192928628D01*
X183077200Y-193000057D01*
X183005771Y-192928628D01*
X183077200Y-192857200D01*
X183077200Y-193000057D01*
X184862914Y-193357200D02*
X185577200Y-193357200D01*
X184720057Y-193785771D02*
X185220057Y-192285771D01*
X185720057Y-193785771D01*
X186862914Y-192785771D02*
X186862914Y-193785771D01*
X186505771Y-192214342D02*
X186148628Y-193285771D01*
X187077200Y-193285771D01*
D10*
D11*
X263434342Y-196585771D02*
X263434342Y-195085771D01*
X264791485Y-196585771D02*
X264791485Y-195085771D01*
X264791485Y-196514342D02*
X264648628Y-196585771D01*
X264362914Y-196585771D01*
X264220057Y-196514342D01*
X264148628Y-196442914D01*
X264077200Y-196300057D01*
X264077200Y-195871485D01*
X264148628Y-195728628D01*
X264220057Y-195657200D01*
X264362914Y-195585771D01*
X264648628Y-195585771D01*
X264791485Y-195657200D01*
X265505771Y-196442914D02*
X265577200Y-196514342D01*
X265505771Y-196585771D01*
X265434342Y-196514342D01*
X265505771Y-196442914D01*
X265505771Y-196585771D01*
X265505771Y-195657200D02*
X265577200Y-195728628D01*
X265505771Y-195800057D01*
X265434342Y-195728628D01*
X265505771Y-195657200D01*
X265505771Y-195800057D01*
X268148628Y-196585771D02*
X267291485Y-196585771D01*
X267720057Y-196585771D02*
X267720057Y-195085771D01*
X267577200Y-195300057D01*
X267434342Y-195442914D01*
X267291485Y-195514342D01*
X269862914Y-195014342D02*
X268577200Y-196942914D01*
X271148628Y-196585771D02*
X270291485Y-196585771D01*
X270720057Y-196585771D02*
X270720057Y-195085771D01*
X270577200Y-195300057D01*
X270434342Y-195442914D01*
X270291485Y-195514342D01*
D10*
D11*
X177002200Y-187507200D02*
X285002200Y-187507200D01*
D10*
D13*
X178714580Y-188211961D02*
X179857438Y-188211961D01*
X179036009Y-190211961D02*
X179286009Y-188211961D01*
X180274104Y-190211961D02*
X180440771Y-188878628D01*
X180524104Y-188211961D02*
X180416961Y-188307200D01*
X180500295Y-188402438D01*
X180607438Y-188307200D01*
X180524104Y-188211961D01*
X180500295Y-188402438D01*
X181107438Y-188878628D02*
X181869342Y-188878628D01*
X181476485Y-188211961D02*
X181262200Y-189926247D01*
X181333628Y-190116723D01*
X181512200Y-190211961D01*
X181702676Y-190211961D01*
X182655057Y-190211961D02*
X182476485Y-190116723D01*
X182405057Y-189926247D01*
X182619342Y-188211961D01*
X184190771Y-190116723D02*
X183988390Y-190211961D01*
X183607438Y-190211961D01*
X183428866Y-190116723D01*
X183357438Y-189926247D01*
X183452676Y-189164342D01*
X183571723Y-188973866D01*
X183774104Y-188878628D01*
X184155057Y-188878628D01*
X184333628Y-188973866D01*
X184405057Y-189164342D01*
X184381247Y-189354819D01*
X183405057Y-189545295D01*
X185155057Y-190021485D02*
X185238390Y-190116723D01*
X185131247Y-190211961D01*
X185047914Y-190116723D01*
X185155057Y-190021485D01*
X185131247Y-190211961D01*
X185286009Y-188973866D02*
X185369342Y-189069104D01*
X185262200Y-189164342D01*
X185178866Y-189069104D01*
X185286009Y-188973866D01*
X185262200Y-189164342D01*
X187666961Y-188211961D02*
X187893152Y-190211961D01*
X188452676Y-188783390D01*
X188655057Y-190211961D01*
X189381247Y-188211961D01*
X189893152Y-190211961D02*
X190059819Y-188878628D01*
X190143152Y-188211961D02*
X190036009Y-188307200D01*
X190119342Y-188402438D01*
X190226485Y-188307200D01*
X190143152Y-188211961D01*
X190119342Y-188402438D01*
X190845533Y-190211961D02*
X191012200Y-188878628D01*
X190964580Y-189259580D02*
X191083628Y-189069104D01*
X191190771Y-188973866D01*
X191393152Y-188878628D01*
X191583628Y-188878628D01*
X192857438Y-190116723D02*
X192655057Y-190211961D01*
X192274104Y-190211961D01*
X192095533Y-190116723D01*
X192024104Y-189926247D01*
X192119342Y-189164342D01*
X192238390Y-188973866D01*
X192440771Y-188878628D01*
X192821723Y-188878628D01*
X193000295Y-188973866D01*
X193071723Y-189164342D01*
X193047914Y-189354819D01*
X192071723Y-189545295D01*
X194083628Y-190211961D02*
X193905057Y-190116723D01*
X193833628Y-189926247D01*
X194047914Y-188211961D01*
X195619342Y-190116723D02*
X195416961Y-190211961D01*
X195036009Y-190211961D01*
X194857438Y-190116723D01*
X194786009Y-189926247D01*
X194881247Y-189164342D01*
X195000295Y-188973866D01*
X195202676Y-188878628D01*
X195583628Y-188878628D01*
X195762200Y-188973866D01*
X195833628Y-189164342D01*
X195809819Y-189354819D01*
X194833628Y-189545295D01*
X196476485Y-190116723D02*
X196655057Y-190211961D01*
X197036009Y-190211961D01*
X197238390Y-190116723D01*
X197357438Y-189926247D01*
X197369342Y-189831009D01*
X197297914Y-189640533D01*
X197119342Y-189545295D01*
X196833628Y-189545295D01*
X196655057Y-189450057D01*
X196583628Y-189259580D01*
X196595533Y-189164342D01*
X196714580Y-188973866D01*
X196916961Y-188878628D01*
X197202676Y-188878628D01*
X197381247Y-188973866D01*
X198095533Y-190116723D02*
X198274104Y-190211961D01*
X198655057Y-190211961D01*
X198857438Y-190116723D01*
X198976485Y-189926247D01*
X198988390Y-189831009D01*
X198916961Y-189640533D01*
X198738390Y-189545295D01*
X198452676Y-189545295D01*
X198274104Y-189450057D01*
X198202676Y-189259580D01*
X198214580Y-189164342D01*
X198333628Y-188973866D01*
X198536009Y-188878628D01*
X198821723Y-188878628D01*
X199000295Y-188973866D01*
X201321723Y-190211961D02*
X201571723Y-188211961D01*
X202333628Y-188211961D01*
X202512200Y-188307200D01*
X202595533Y-188402438D01*
X202666961Y-188592914D01*
X202631247Y-188878628D01*
X202512200Y-189069104D01*
X202405057Y-189164342D01*
X202202676Y-189259580D01*
X201440771Y-189259580D01*
X203607438Y-190211961D02*
X203428866Y-190116723D01*
X203345533Y-190021485D01*
X203274104Y-189831009D01*
X203345533Y-189259580D01*
X203464580Y-189069104D01*
X203571723Y-188973866D01*
X203774104Y-188878628D01*
X204059819Y-188878628D01*
X204238390Y-188973866D01*
X204321723Y-189069104D01*
X204393152Y-189259580D01*
X204321723Y-189831009D01*
X204202676Y-190021485D01*
X204095533Y-190116723D01*
X203893152Y-190211961D01*
X203607438Y-190211961D01*
X205107438Y-188878628D02*
X205321723Y-190211961D01*
X205821723Y-189259580D01*
X206083628Y-190211961D01*
X206631247Y-188878628D01*
X208000295Y-190116723D02*
X207797914Y-190211961D01*
X207416961Y-190211961D01*
X207238390Y-190116723D01*
X207166961Y-189926247D01*
X207262200Y-189164342D01*
X207381247Y-188973866D01*
X207583628Y-188878628D01*
X207964580Y-188878628D01*
X208143152Y-188973866D01*
X208214580Y-189164342D01*
X208190771Y-189354819D01*
X207214580Y-189545295D01*
X208940771Y-190211961D02*
X209107438Y-188878628D01*
X209059819Y-189259580D02*
X209178866Y-189069104D01*
X209286009Y-188973866D01*
X209488390Y-188878628D01*
X209678866Y-188878628D01*
X212845533Y-190211961D02*
X212297914Y-189259580D01*
X211702676Y-190211961D02*
X211952676Y-188211961D01*
X212714580Y-188211961D01*
X212893152Y-188307200D01*
X212976485Y-188402438D01*
X213047914Y-188592914D01*
X213012200Y-188878628D01*
X212893152Y-189069104D01*
X212786009Y-189164342D01*
X212583628Y-189259580D01*
X211821723Y-189259580D01*
X214476485Y-190116723D02*
X214274104Y-190211961D01*
X213893152Y-190211961D01*
X213714580Y-190116723D01*
X213643152Y-189926247D01*
X213738390Y-189164342D01*
X213857438Y-188973866D01*
X214059819Y-188878628D01*
X214440771Y-188878628D01*
X214619342Y-188973866D01*
X214690771Y-189164342D01*
X214666961Y-189354819D01*
X213690771Y-189545295D01*
X216286009Y-190116723D02*
X216083628Y-190211961D01*
X215702676Y-190211961D01*
X215524104Y-190116723D01*
X215440771Y-190021485D01*
X215369342Y-189831009D01*
X215440771Y-189259580D01*
X215559819Y-189069104D01*
X215666961Y-188973866D01*
X215869342Y-188878628D01*
X216250295Y-188878628D01*
X216428866Y-188973866D01*
X217905057Y-190116723D02*
X217702676Y-190211961D01*
X217321723Y-190211961D01*
X217143152Y-190116723D01*
X217071723Y-189926247D01*
X217166961Y-189164342D01*
X217286009Y-188973866D01*
X217488390Y-188878628D01*
X217869342Y-188878628D01*
X218047914Y-188973866D01*
X218119342Y-189164342D01*
X218095533Y-189354819D01*
X217119342Y-189545295D01*
X218845533Y-190211961D02*
X219012200Y-188878628D01*
X219095533Y-188211961D02*
X218988390Y-188307200D01*
X219071723Y-188402438D01*
X219178866Y-188307200D01*
X219095533Y-188211961D01*
X219071723Y-188402438D01*
X219774104Y-188878628D02*
X220083628Y-190211961D01*
X220726485Y-188878628D01*
X222095533Y-190116723D02*
X221893152Y-190211961D01*
X221512200Y-190211961D01*
X221333628Y-190116723D01*
X221262200Y-189926247D01*
X221357438Y-189164342D01*
X221476485Y-188973866D01*
X221678866Y-188878628D01*
X222059819Y-188878628D01*
X222238390Y-188973866D01*
X222309819Y-189164342D01*
X222286009Y-189354819D01*
X221309819Y-189545295D01*
X223036009Y-190211961D02*
X223202676Y-188878628D01*
X223155057Y-189259580D02*
X223274104Y-189069104D01*
X223381247Y-188973866D01*
X223583628Y-188878628D01*
X223774104Y-188878628D01*
X227416961Y-190211961D02*
X227321723Y-190211961D01*
X227143152Y-190116723D01*
X226893152Y-189831009D01*
X226488390Y-189259580D01*
X226333628Y-188973866D01*
X226274104Y-188688152D01*
X226297914Y-188497676D01*
X226416961Y-188307200D01*
X226619342Y-188211961D01*
X226714580Y-188211961D01*
X226893152Y-188307200D01*
X226964580Y-188497676D01*
X226952676Y-188592914D01*
X226833628Y-188783390D01*
X226726485Y-188878628D01*
X226107438Y-189259580D01*
X226000295Y-189354819D01*
X225881247Y-189545295D01*
X225845533Y-189831009D01*
X225916961Y-190021485D01*
X226000295Y-190116723D01*
X226178866Y-190211961D01*
X226464580Y-190211961D01*
X226666961Y-190116723D01*
X226774104Y-190021485D01*
X227107438Y-189640533D01*
X227238390Y-189354819D01*
X227262200Y-189164342D01*
X230964580Y-190021485D02*
X230857438Y-190116723D01*
X230559819Y-190211961D01*
X230369342Y-190211961D01*
X230095533Y-190116723D01*
X229928866Y-189926247D01*
X229857438Y-189735771D01*
X229809819Y-189354819D01*
X229845533Y-189069104D01*
X229988390Y-188688152D01*
X230107438Y-188497676D01*
X230321723Y-188307200D01*
X230619342Y-188211961D01*
X230809819Y-188211961D01*
X231083628Y-188307200D01*
X231166961Y-188402438D01*
X231797914Y-190211961D02*
X232047914Y-188211961D01*
X232655057Y-190211961D02*
X232786009Y-189164342D01*
X232714580Y-188973866D01*
X232536009Y-188878628D01*
X232250295Y-188878628D01*
X232047914Y-188973866D01*
X231940771Y-189069104D01*
X234464580Y-190211961D02*
X234595533Y-189164342D01*
X234524104Y-188973866D01*
X234345533Y-188878628D01*
X233964580Y-188878628D01*
X233762200Y-188973866D01*
X234476485Y-190116723D02*
X234274104Y-190211961D01*
X233797914Y-190211961D01*
X233619342Y-190116723D01*
X233547914Y-189926247D01*
X233571723Y-189735771D01*
X233690771Y-189545295D01*
X233893152Y-189450057D01*
X234369342Y-189450057D01*
X234571723Y-189354819D01*
X235416961Y-190211961D02*
X235583628Y-188878628D01*
X235536009Y-189259580D02*
X235655057Y-189069104D01*
X235762200Y-188973866D01*
X235964580Y-188878628D01*
X236155057Y-188878628D01*
X237678866Y-188878628D02*
X237476485Y-190497676D01*
X237357438Y-190688152D01*
X237250295Y-190783390D01*
X237047914Y-190878628D01*
X236762200Y-190878628D01*
X236583628Y-190783390D01*
X237524104Y-190116723D02*
X237321723Y-190211961D01*
X236940771Y-190211961D01*
X236762200Y-190116723D01*
X236678866Y-190021485D01*
X236607438Y-189831009D01*
X236678866Y-189259580D01*
X236797914Y-189069104D01*
X236905057Y-188973866D01*
X237107438Y-188878628D01*
X237488390Y-188878628D01*
X237666961Y-188973866D01*
X239238390Y-190116723D02*
X239036009Y-190211961D01*
X238655057Y-190211961D01*
X238476485Y-190116723D01*
X238405057Y-189926247D01*
X238500295Y-189164342D01*
X238619342Y-188973866D01*
X238821723Y-188878628D01*
X239202676Y-188878628D01*
X239381247Y-188973866D01*
X239452676Y-189164342D01*
X239428866Y-189354819D01*
X238452676Y-189545295D01*
X240178866Y-190211961D02*
X240345533Y-188878628D01*
X240297914Y-189259580D02*
X240416961Y-189069104D01*
X240524104Y-188973866D01*
X240726485Y-188878628D01*
X240916961Y-188878628D01*
D10*
D11*
X178934342Y-185600057D02*
X178434342Y-185600057D01*
X178434342Y-186385771D02*
X178434342Y-184885771D01*
X179148628Y-184885771D01*
X179720057Y-186385771D02*
X179720057Y-185385771D01*
X179720057Y-184885771D02*
X179648628Y-184957200D01*
X179720057Y-185028628D01*
X179791485Y-184957200D01*
X179720057Y-184885771D01*
X179720057Y-185028628D01*
X180648628Y-186385771D02*
X180505771Y-186314342D01*
X180434342Y-186171485D01*
X180434342Y-184885771D01*
X181791485Y-186314342D02*
X181648628Y-186385771D01*
X181362914Y-186385771D01*
X181220057Y-186314342D01*
X181148628Y-186171485D01*
X181148628Y-185600057D01*
X181220057Y-185457200D01*
X181362914Y-185385771D01*
X181648628Y-185385771D01*
X181791485Y-185457200D01*
X181862914Y-185600057D01*
X181862914Y-185742914D01*
X181148628Y-185885771D01*
X182505771Y-186242914D02*
X182577200Y-186314342D01*
X182505771Y-186385771D01*
X182434342Y-186314342D01*
X182505771Y-186242914D01*
X182505771Y-186385771D01*
X182505771Y-185457200D02*
X182577200Y-185528628D01*
X182505771Y-185600057D01*
X182434342Y-185528628D01*
X182505771Y-185457200D01*
X182505771Y-185600057D01*
X184220057Y-184885771D02*
X184577200Y-186385771D01*
X184862914Y-185314342D01*
X185148628Y-186385771D01*
X185505771Y-184885771D01*
X186077200Y-186385771D02*
X186077200Y-185385771D01*
X186077200Y-184885771D02*
X186005771Y-184957200D01*
X186077200Y-185028628D01*
X186148628Y-184957200D01*
X186077200Y-184885771D01*
X186077200Y-185028628D01*
X186791485Y-186385771D02*
X186791485Y-185385771D01*
X186791485Y-185671485D02*
X186862914Y-185528628D01*
X186934342Y-185457200D01*
X187077200Y-185385771D01*
X187220057Y-185385771D01*
X188291485Y-186314342D02*
X188148628Y-186385771D01*
X187862914Y-186385771D01*
X187720057Y-186314342D01*
X187648628Y-186171485D01*
X187648628Y-185600057D01*
X187720057Y-185457200D01*
X187862914Y-185385771D01*
X188148628Y-185385771D01*
X188291485Y-185457200D01*
X188362914Y-185600057D01*
X188362914Y-185742914D01*
X187648628Y-185885771D01*
X189220057Y-186385771D02*
X189077200Y-186314342D01*
X189005771Y-186171485D01*
X189005771Y-184885771D01*
X190362914Y-186314342D02*
X190220057Y-186385771D01*
X189934342Y-186385771D01*
X189791485Y-186314342D01*
X189720057Y-186171485D01*
X189720057Y-185600057D01*
X189791485Y-185457200D01*
X189934342Y-185385771D01*
X190220057Y-185385771D01*
X190362914Y-185457200D01*
X190434342Y-185600057D01*
X190434342Y-185742914D01*
X189720057Y-185885771D01*
X191005771Y-186314342D02*
X191148628Y-186385771D01*
X191434342Y-186385771D01*
X191577200Y-186314342D01*
X191648628Y-186171485D01*
X191648628Y-186100057D01*
X191577200Y-185957200D01*
X191434342Y-185885771D01*
X191220057Y-185885771D01*
X191077200Y-185814342D01*
X191005771Y-185671485D01*
X191005771Y-185600057D01*
X191077200Y-185457200D01*
X191220057Y-185385771D01*
X191434342Y-185385771D01*
X191577200Y-185457200D01*
X192220057Y-186314342D02*
X192362914Y-186385771D01*
X192648628Y-186385771D01*
X192791485Y-186314342D01*
X192862914Y-186171485D01*
X192862914Y-186100057D01*
X192791485Y-185957200D01*
X192648628Y-185885771D01*
X192434342Y-185885771D01*
X192291485Y-185814342D01*
X192220057Y-185671485D01*
X192220057Y-185600057D01*
X192291485Y-185457200D01*
X192434342Y-185385771D01*
X192648628Y-185385771D01*
X192791485Y-185457200D01*
X194648628Y-186385771D02*
X194648628Y-184885771D01*
X195220057Y-184885771D01*
X195362914Y-184957200D01*
X195434342Y-185028628D01*
X195505771Y-185171485D01*
X195505771Y-185385771D01*
X195434342Y-185528628D01*
X195362914Y-185600057D01*
X195220057Y-185671485D01*
X194648628Y-185671485D01*
X196362914Y-186385771D02*
X196220057Y-186314342D01*
X196148628Y-186242914D01*
X196077200Y-186100057D01*
X196077200Y-185671485D01*
X196148628Y-185528628D01*
X196220057Y-185457200D01*
X196362914Y-185385771D01*
X196577200Y-185385771D01*
X196720057Y-185457200D01*
X196791485Y-185528628D01*
X196862914Y-185671485D01*
X196862914Y-186100057D01*
X196791485Y-186242914D01*
X196720057Y-186314342D01*
X196577200Y-186385771D01*
X196362914Y-186385771D01*
X197362914Y-185385771D02*
X197648628Y-186385771D01*
X197934342Y-185671485D01*
X198220057Y-186385771D01*
X198505771Y-185385771D01*
X199648628Y-186314342D02*
X199505771Y-186385771D01*
X199220057Y-186385771D01*
X199077200Y-186314342D01*
X199005771Y-186171485D01*
X199005771Y-185600057D01*
X199077200Y-185457200D01*
X199220057Y-185385771D01*
X199505771Y-185385771D01*
X199648628Y-185457200D01*
X199720057Y-185600057D01*
X199720057Y-185742914D01*
X199005771Y-185885771D01*
X200362914Y-186385771D02*
X200362914Y-185385771D01*
X200362914Y-185671485D02*
X200434342Y-185528628D01*
X200505771Y-185457200D01*
X200648628Y-185385771D01*
X200791485Y-185385771D01*
X203291485Y-186385771D02*
X202791485Y-185671485D01*
X202434342Y-186385771D02*
X202434342Y-184885771D01*
X203005771Y-184885771D01*
X203148628Y-184957200D01*
X203220057Y-185028628D01*
X203291485Y-185171485D01*
X203291485Y-185385771D01*
X203220057Y-185528628D01*
X203148628Y-185600057D01*
X203005771Y-185671485D01*
X202434342Y-185671485D01*
X204505771Y-186314342D02*
X204362914Y-186385771D01*
X204077200Y-186385771D01*
X203934342Y-186314342D01*
X203862914Y-186171485D01*
X203862914Y-185600057D01*
X203934342Y-185457200D01*
X204077200Y-185385771D01*
X204362914Y-185385771D01*
X204505771Y-185457200D01*
X204577200Y-185600057D01*
X204577200Y-185742914D01*
X203862914Y-185885771D01*
X205862914Y-186314342D02*
X205720057Y-186385771D01*
X205434342Y-186385771D01*
X205291485Y-186314342D01*
X205220057Y-186242914D01*
X205148628Y-186100057D01*
X205148628Y-185671485D01*
X205220057Y-185528628D01*
X205291485Y-185457200D01*
X205434342Y-185385771D01*
X205720057Y-185385771D01*
X205862914Y-185457200D01*
X207077200Y-186314342D02*
X206934342Y-186385771D01*
X206648628Y-186385771D01*
X206505771Y-186314342D01*
X206434342Y-186171485D01*
X206434342Y-185600057D01*
X206505771Y-185457200D01*
X206648628Y-185385771D01*
X206934342Y-185385771D01*
X207077200Y-185457200D01*
X207148628Y-185600057D01*
X207148628Y-185742914D01*
X206434342Y-185885771D01*
X207791485Y-186385771D02*
X207791485Y-185385771D01*
X207791485Y-184885771D02*
X207720057Y-184957200D01*
X207791485Y-185028628D01*
X207862914Y-184957200D01*
X207791485Y-184885771D01*
X207791485Y-185028628D01*
X208362914Y-185385771D02*
X208720057Y-186385771D01*
X209077200Y-185385771D01*
X210220057Y-186314342D02*
X210077200Y-186385771D01*
X209791485Y-186385771D01*
X209648628Y-186314342D01*
X209577200Y-186171485D01*
X209577200Y-185600057D01*
X209648628Y-185457200D01*
X209791485Y-185385771D01*
X210077200Y-185385771D01*
X210220057Y-185457200D01*
X210291485Y-185600057D01*
X210291485Y-185742914D01*
X209577200Y-185885771D01*
X210934342Y-186385771D02*
X210934342Y-185385771D01*
X210934342Y-185671485D02*
X211005771Y-185528628D01*
X211077200Y-185457200D01*
X211220057Y-185385771D01*
X211362914Y-185385771D01*
X214220057Y-186385771D02*
X214148628Y-186385771D01*
X214005771Y-186314342D01*
X213791485Y-186100057D01*
X213434342Y-185671485D01*
X213291485Y-185457200D01*
X213220057Y-185242914D01*
X213220057Y-185100057D01*
X213291485Y-184957200D01*
X213434342Y-184885771D01*
X213505771Y-184885771D01*
X213648628Y-184957200D01*
X213720057Y-185100057D01*
X213720057Y-185171485D01*
X213648628Y-185314342D01*
X213577200Y-185385771D01*
X213148628Y-185671485D01*
X213077200Y-185742914D01*
X213005771Y-185885771D01*
X213005771Y-186100057D01*
X213077200Y-186242914D01*
X213148628Y-186314342D01*
X213291485Y-186385771D01*
X213505771Y-186385771D01*
X213648628Y-186314342D01*
X213720057Y-186242914D01*
X213934342Y-185957200D01*
X214005771Y-185742914D01*
X214005771Y-185600057D01*
X216862914Y-186242914D02*
X216791485Y-186314342D01*
X216577200Y-186385771D01*
X216434342Y-186385771D01*
X216220057Y-186314342D01*
X216077200Y-186171485D01*
X216005771Y-186028628D01*
X215934342Y-185742914D01*
X215934342Y-185528628D01*
X216005771Y-185242914D01*
X216077200Y-185100057D01*
X216220057Y-184957200D01*
X216434342Y-184885771D01*
X216577200Y-184885771D01*
X216791485Y-184957200D01*
X216862914Y-185028628D01*
X217505771Y-186385771D02*
X217505771Y-184885771D01*
X218148628Y-186385771D02*
X218148628Y-185600057D01*
X218077200Y-185457200D01*
X217934342Y-185385771D01*
X217720057Y-185385771D01*
X217577200Y-185457200D01*
X217505771Y-185528628D01*
X219505771Y-186385771D02*
X219505771Y-185600057D01*
X219434342Y-185457200D01*
X219291485Y-185385771D01*
X219005771Y-185385771D01*
X218862914Y-185457200D01*
X219505771Y-186314342D02*
X219362914Y-186385771D01*
X219005771Y-186385771D01*
X218862914Y-186314342D01*
X218791485Y-186171485D01*
X218791485Y-186028628D01*
X218862914Y-185885771D01*
X219005771Y-185814342D01*
X219362914Y-185814342D01*
X219505771Y-185742914D01*
X220220057Y-186385771D02*
X220220057Y-185385771D01*
X220220057Y-185671485D02*
X220291485Y-185528628D01*
X220362914Y-185457200D01*
X220505771Y-185385771D01*
X220648628Y-185385771D01*
X221791485Y-185385771D02*
X221791485Y-186600057D01*
X221720057Y-186742914D01*
X221648628Y-186814342D01*
X221505771Y-186885771D01*
X221291485Y-186885771D01*
X221148628Y-186814342D01*
X221791485Y-186314342D02*
X221648628Y-186385771D01*
X221362914Y-186385771D01*
X221220057Y-186314342D01*
X221148628Y-186242914D01*
X221077200Y-186100057D01*
X221077200Y-185671485D01*
X221148628Y-185528628D01*
X221220057Y-185457200D01*
X221362914Y-185385771D01*
X221648628Y-185385771D01*
X221791485Y-185457200D01*
X223077200Y-186314342D02*
X222934342Y-186385771D01*
X222648628Y-186385771D01*
X222505771Y-186314342D01*
X222434342Y-186171485D01*
X222434342Y-185600057D01*
X222505771Y-185457200D01*
X222648628Y-185385771D01*
X222934342Y-185385771D01*
X223077200Y-185457200D01*
X223148628Y-185600057D01*
X223148628Y-185742914D01*
X222434342Y-185885771D01*
X223791485Y-186385771D02*
X223791485Y-185385771D01*
X223791485Y-185671485D02*
X223862914Y-185528628D01*
X223934342Y-185457200D01*
X224077200Y-185385771D01*
X224220057Y-185385771D01*
X224720057Y-186242914D02*
X224791485Y-186314342D01*
X224720057Y-186385771D01*
X224648628Y-186314342D01*
X224720057Y-186242914D01*
X224720057Y-186385771D01*
X225434342Y-186385771D02*
X225434342Y-184885771D01*
X225577200Y-185814342D02*
X226005771Y-186385771D01*
X226005771Y-185385771D02*
X225434342Y-185957200D01*
X226648628Y-186385771D02*
X226648628Y-185385771D01*
X226648628Y-184885771D02*
X226577200Y-184957200D01*
X226648628Y-185028628D01*
X226720057Y-184957200D01*
X226648628Y-184885771D01*
X226648628Y-185028628D01*
X228005771Y-186314342D02*
X227862914Y-186385771D01*
X227577200Y-186385771D01*
X227434342Y-186314342D01*
X227362914Y-186242914D01*
X227291485Y-186100057D01*
X227291485Y-185671485D01*
X227362914Y-185528628D01*
X227434342Y-185457200D01*
X227577200Y-185385771D01*
X227862914Y-185385771D01*
X228005771Y-185457200D01*
X229291485Y-186385771D02*
X229291485Y-185600057D01*
X229220057Y-185457200D01*
X229077200Y-185385771D01*
X228791485Y-185385771D01*
X228648628Y-185457200D01*
X229291485Y-186314342D02*
X229148628Y-186385771D01*
X228791485Y-186385771D01*
X228648628Y-186314342D01*
X228577200Y-186171485D01*
X228577200Y-186028628D01*
X228648628Y-185885771D01*
X228791485Y-185814342D01*
X229148628Y-185814342D01*
X229291485Y-185742914D01*
X230648628Y-186385771D02*
X230648628Y-184885771D01*
X230648628Y-186314342D02*
X230505771Y-186385771D01*
X230220057Y-186385771D01*
X230077200Y-186314342D01*
X230005771Y-186242914D01*
X229934342Y-186100057D01*
X229934342Y-185671485D01*
X230005771Y-185528628D01*
X230077200Y-185457200D01*
X230220057Y-185385771D01*
X230505771Y-185385771D01*
X230648628Y-185457200D01*
X231005771Y-186528628D02*
X232148628Y-186528628D01*
X232505771Y-185385771D02*
X232505771Y-186885771D01*
X232505771Y-185457200D02*
X232648628Y-185385771D01*
X232934342Y-185385771D01*
X233077200Y-185457200D01*
X233148628Y-185528628D01*
X233220057Y-185671485D01*
X233220057Y-186100057D01*
X233148628Y-186242914D01*
X233077200Y-186314342D01*
X232934342Y-186385771D01*
X232648628Y-186385771D01*
X232505771Y-186314342D01*
X234505771Y-186314342D02*
X234362914Y-186385771D01*
X234077200Y-186385771D01*
X233934342Y-186314342D01*
X233862914Y-186242914D01*
X233791485Y-186100057D01*
X233791485Y-185671485D01*
X233862914Y-185528628D01*
X233934342Y-185457200D01*
X234077200Y-185385771D01*
X234362914Y-185385771D01*
X234505771Y-185457200D01*
X235148628Y-186385771D02*
X235148628Y-184885771D01*
X235148628Y-185457200D02*
X235291485Y-185385771D01*
X235577200Y-185385771D01*
X235720057Y-185457200D01*
X235791485Y-185528628D01*
X235862914Y-185671485D01*
X235862914Y-186100057D01*
X235791485Y-186242914D01*
X235720057Y-186314342D01*
X235577200Y-186385771D01*
X235291485Y-186385771D01*
X235148628Y-186314342D01*
D10*
D11*
X177002200Y-181507200D02*
X285002200Y-181507200D01*
D10*
D11*
X178362914Y-183614342D02*
X178577200Y-183685771D01*
X178934342Y-183685771D01*
X179077200Y-183614342D01*
X179148628Y-183542914D01*
X179220057Y-183400057D01*
X179220057Y-183257200D01*
X179148628Y-183114342D01*
X179077200Y-183042914D01*
X178934342Y-182971485D01*
X178648628Y-182900057D01*
X178505771Y-182828628D01*
X178434342Y-182757200D01*
X178362914Y-182614342D01*
X178362914Y-182471485D01*
X178434342Y-182328628D01*
X178505771Y-182257200D01*
X178648628Y-182185771D01*
X179005771Y-182185771D01*
X179220057Y-182257200D01*
X179862914Y-183685771D02*
X179862914Y-182185771D01*
X180505771Y-183685771D02*
X180505771Y-182900057D01*
X180434342Y-182757200D01*
X180291485Y-182685771D01*
X180077200Y-182685771D01*
X179934342Y-182757200D01*
X179862914Y-182828628D01*
X181791485Y-183614342D02*
X181648628Y-183685771D01*
X181362914Y-183685771D01*
X181220057Y-183614342D01*
X181148628Y-183471485D01*
X181148628Y-182900057D01*
X181220057Y-182757200D01*
X181362914Y-182685771D01*
X181648628Y-182685771D01*
X181791485Y-182757200D01*
X181862914Y-182900057D01*
X181862914Y-183042914D01*
X181148628Y-183185771D01*
X183077200Y-183614342D02*
X182934342Y-183685771D01*
X182648628Y-183685771D01*
X182505771Y-183614342D01*
X182434342Y-183471485D01*
X182434342Y-182900057D01*
X182505771Y-182757200D01*
X182648628Y-182685771D01*
X182934342Y-182685771D01*
X183077200Y-182757200D01*
X183148628Y-182900057D01*
X183148628Y-183042914D01*
X182434342Y-183185771D01*
X183577200Y-182685771D02*
X184148628Y-182685771D01*
X183791485Y-182185771D02*
X183791485Y-183471485D01*
X183862914Y-183614342D01*
X184005771Y-183685771D01*
X184148628Y-183685771D01*
X184648628Y-183542914D02*
X184720057Y-183614342D01*
X184648628Y-183685771D01*
X184577200Y-183614342D01*
X184648628Y-183542914D01*
X184648628Y-183685771D01*
X184648628Y-182757200D02*
X184720057Y-182828628D01*
X184648628Y-182900057D01*
X184577200Y-182828628D01*
X184648628Y-182757200D01*
X184648628Y-182900057D01*
D10*
D12*
D10*
D11*
D10*
D11*
D10*
D11*
D10*
D11*
D10*
D11*
X197002200Y-191507200D02*
X197002200Y-194507200D01*
D10*
D11*
X261002200Y-191507200D02*
X261002200Y-198007200D01*
D14*
X64375000Y-59400000D02*
X207600000Y-59400000D01*
X207600000Y-59400000D02*
X207600000Y-114825000D01*
X207600000Y-114825000D02*
X64375000Y-114825000D01*
X64375000Y-114825000D02*
X64375000Y-59400000D01*
D15*
%TO.N,GND*%
%TO.C,H3*%
X204950825Y-111450825D03*
X203625000Y-108250000D03*
X201750000Y-110125000D03*
D16*
X203625000Y-110125000D03*
D15*
X204950825Y-108799175D03*
X202299175Y-108799175D03*
X205500000Y-110125000D03*
X203625000Y-112000000D03*
X202299175Y-111450825D03*
%TD*%
D17*
%TO.N,FAULT*%
%TO.C,D5*%
X85525000Y-108325000D03*
D18*
%TO.N,Net-(D5-Pad2)*%
X88065000Y-108325000D03*
%TD*%
D19*
%TO.N,GND*%
%TO.C,U1*%
X86225000Y-87150000D03*
X86975000Y-86400000D03*
X87725000Y-87900000D03*
X87725000Y-86400000D03*
X86975000Y-87900000D03*
X86225000Y-87900000D03*
X87725000Y-87150000D03*
X86975000Y-87150000D03*
X86225000Y-86400000D03*
%TD*%
D15*
%TO.N,GND*%
%TO.C,H2*%
X201700000Y-63625000D03*
X202249175Y-62299175D03*
X204900825Y-62299175D03*
X205450000Y-63625000D03*
X204900825Y-64950825D03*
X203575000Y-65500000D03*
X203575000Y-61750000D03*
D16*
X203575000Y-63625000D03*
D15*
X202249175Y-64950825D03*
%TD*%
%TO.N,GND*%
%TO.C,H4*%
X70325000Y-110050000D03*
X69775825Y-108724175D03*
X67124175Y-108724175D03*
X66575000Y-110050000D03*
X68450000Y-111925000D03*
D16*
X68450000Y-110050000D03*
D15*
X68450000Y-108175000D03*
X67124175Y-111375825D03*
X69775825Y-111375825D03*
%TD*%
D20*
%TO.N,GND*%
%TO.C,J2*%
X101275000Y-91925000D03*
D21*
%TO.N,NTC*%
X101275000Y-89425000D03*
%TD*%
D17*
%TO.N,CHRG*%
%TO.C,D6*%
X101125000Y-108325000D03*
D18*
%TO.N,Net-(D6-Pad2)*%
X103665000Y-108325000D03*
%TD*%
D15*
%TO.N,GND*%
%TO.C,H1*%
X67124175Y-62249175D03*
X67124175Y-64900825D03*
X68450000Y-65450000D03*
X70325000Y-63575000D03*
X69775825Y-64900825D03*
X68450000Y-61700000D03*
X69775825Y-62249175D03*
X66575000Y-63575000D03*
D16*
X68450000Y-63575000D03*
%TD*%
D22*
%TO.N,GND*%
%TO.C,L1*%
X97075000Y-82150000D03*
%TO.N,/PowerIn*%
X96975000Y-91850000D03*
%TD*%
D23*
%TO.N,GND*%
X85275000Y-75875000D03*
X86525000Y-98550000D03*
X88750000Y-75850000D03*
X80250000Y-83850000D03*
X85650000Y-97400000D03*
X81550000Y-75875000D03*
%TO.N,/Freq*%
X93275000Y-92250000D03*
X83525000Y-83775000D03*
%TO.N,LED+*%
X100650000Y-96525000D03*
X75425000Y-68350000D03*
X84125000Y-68325000D03*
X91175000Y-103250000D03*
X93500000Y-98425000D03*
X103975000Y-96600000D03*
X104000000Y-95100000D03*
X79850000Y-68375000D03*
X77700000Y-68375000D03*
X82050000Y-68350000D03*
X94900000Y-98450000D03*
X86325000Y-68350000D03*
X73025000Y-68375000D03*
X92275000Y-98425000D03*
X100650000Y-95075000D03*
%TO.N,FAULT*%
X86275000Y-83050000D03*
%TO.N,CHRG*%
X87650000Y-83050000D03*
%TO.N,BAT+*%
X90500000Y-88125000D03*
X102025000Y-75700000D03*
X105850000Y-77900000D03*
X103925000Y-77875000D03*
X102050000Y-77925000D03*
X90500000Y-87000000D03*
X105725000Y-79975000D03*
X103975000Y-79900000D03*
X103900000Y-75750000D03*
X102125000Y-79950000D03*
X105700000Y-75750000D03*
%TO.N,/Inductor*%
X81875000Y-96550000D03*
X83225000Y-96550000D03*
X89750000Y-90375000D03*
X80475000Y-96550000D03*
%TO.N,/PowerIn*%
X79625000Y-86525000D03*
%TD*%
D24*
%TO.N,FAULT*%
X85525000Y-104000000D02*
X83950000Y-102425000D01*
X85525000Y-108325000D02*
X85525000Y-104000000D01*
X83950000Y-85375000D02*
X86275000Y-83050000D01*
X83950000Y-102425000D02*
X83950000Y-85375000D01*
%TO.N,CHRG*%
X94225000Y-94725000D02*
X98325000Y-98825000D01*
X91625000Y-83050000D02*
X94225000Y-85650000D01*
X98325000Y-98825000D02*
X98325000Y-105800000D01*
X87650000Y-83050000D02*
X91625000Y-83050000D01*
X101125000Y-108325000D02*
X99600000Y-108325000D01*
X99600000Y-108325000D02*
X98325000Y-107050000D01*
X94225000Y-85650000D02*
X94225000Y-94725000D01*
X98325000Y-107050000D02*
X98325000Y-105800000D01*
%TD*%
%TA.AperFunction,Conductor*%
%TO.N,LED+*%
G36*
X95442121Y-97745002D02*
G01*
X95488614Y-97798658D01*
X95500000Y-97851000D01*
X95500000Y-103999000D01*
X95479998Y-104067121D01*
X95426342Y-104113614D01*
X95374000Y-104125000D01*
X91725000Y-104125000D01*
X91725000Y-97851000D01*
X91745002Y-97782879D01*
X91798658Y-97736386D01*
X91851000Y-97725000D01*
X95374000Y-97725000D01*
X95442121Y-97745002D01*
G37*
%TD.AperFunction*%
%TD*%
%TA.AperFunction,Conductor*%
%TO.N,LED+*%
G36*
X104975000Y-75154977D02*
G01*
X104958119Y-75217977D01*
X104909119Y-75302847D01*
X104857736Y-75351840D01*
X104788023Y-75365276D01*
X104722112Y-75338889D01*
X104690881Y-75302847D01*
X104642341Y-75218774D01*
X104639040Y-75213056D01*
X104599169Y-75168774D01*
X104515675Y-75076045D01*
X104515674Y-75076044D01*
X104511253Y-75071134D01*
X104356752Y-74958882D01*
X104350724Y-74956198D01*
X104350722Y-74956197D01*
X104188319Y-74883891D01*
X104188318Y-74883891D01*
X104182288Y-74881206D01*
X104088887Y-74861353D01*
X104001944Y-74842872D01*
X104001939Y-74842872D01*
X103995487Y-74841500D01*
X103804513Y-74841500D01*
X103798061Y-74842872D01*
X103798056Y-74842872D01*
X103711113Y-74861353D01*
X103617712Y-74881206D01*
X103611682Y-74883891D01*
X103611681Y-74883891D01*
X103449278Y-74956197D01*
X103449276Y-74956198D01*
X103443248Y-74958882D01*
X103288747Y-75071134D01*
X103284326Y-75076044D01*
X103284325Y-75076045D01*
X103200832Y-75168774D01*
X103160960Y-75213056D01*
X103157659Y-75218774D01*
X103084982Y-75344654D01*
X103033600Y-75393647D01*
X102963886Y-75407083D01*
X102897975Y-75380697D01*
X102861133Y-75333386D01*
X102859527Y-75328444D01*
X102764040Y-75163056D01*
X102636253Y-75021134D01*
X102481752Y-74908882D01*
X102475724Y-74906198D01*
X102475722Y-74906197D01*
X102313319Y-74833891D01*
X102313318Y-74833891D01*
X102307288Y-74831206D01*
X102213888Y-74811353D01*
X102126944Y-74792872D01*
X102126939Y-74792872D01*
X102120487Y-74791500D01*
X101929513Y-74791500D01*
X101923061Y-74792872D01*
X101923056Y-74792872D01*
X101836112Y-74811353D01*
X101742712Y-74831206D01*
X101736682Y-74833891D01*
X101736681Y-74833891D01*
X101574278Y-74906197D01*
X101574276Y-74906198D01*
X101568248Y-74908882D01*
X101413747Y-75021134D01*
X101285960Y-75163056D01*
X101190473Y-75328444D01*
X101131458Y-75510072D01*
X101111496Y-75700000D01*
X101131458Y-75889928D01*
X101190473Y-76071556D01*
X101285960Y-76236944D01*
X101290378Y-76241851D01*
X101290379Y-76241852D01*
X101326549Y-76282023D01*
X101413747Y-76378866D01*
X101568248Y-76491118D01*
X101574276Y-76493802D01*
X101574278Y-76493803D01*
X101671833Y-76537237D01*
X101742712Y-76568794D01*
X101836112Y-76588647D01*
X101923056Y-76607128D01*
X101923061Y-76607128D01*
X101929513Y-76608500D01*
X102120487Y-76608500D01*
X102126939Y-76607128D01*
X102126944Y-76607128D01*
X102213888Y-76588647D01*
X102307288Y-76568794D01*
X102378167Y-76537237D01*
X102475722Y-76493803D01*
X102475724Y-76493802D01*
X102481752Y-76491118D01*
X102636253Y-76378866D01*
X102723451Y-76282023D01*
X102759621Y-76241852D01*
X102759622Y-76241851D01*
X102764040Y-76236944D01*
X102840019Y-76105345D01*
X102891400Y-76056353D01*
X102961114Y-76042917D01*
X103027025Y-76069303D01*
X103063867Y-76116614D01*
X103065473Y-76121556D01*
X103068773Y-76127273D01*
X103068775Y-76127276D01*
X103109119Y-76197153D01*
X103160960Y-76286944D01*
X103165378Y-76291851D01*
X103165379Y-76291852D01*
X103239305Y-76373955D01*
X103288747Y-76428866D01*
X103443248Y-76541118D01*
X103449276Y-76543802D01*
X103449278Y-76543803D01*
X103594591Y-76608500D01*
X103617712Y-76618794D01*
X103711112Y-76638647D01*
X103798056Y-76657128D01*
X103798061Y-76657128D01*
X103804513Y-76658500D01*
X103995487Y-76658500D01*
X104001939Y-76657128D01*
X104001944Y-76657128D01*
X104088888Y-76638647D01*
X104182288Y-76618794D01*
X104205409Y-76608500D01*
X104350722Y-76543803D01*
X104350724Y-76543802D01*
X104356752Y-76541118D01*
X104511253Y-76428866D01*
X104560695Y-76373955D01*
X104634621Y-76291852D01*
X104634622Y-76291851D01*
X104639040Y-76286944D01*
X104690881Y-76197153D01*
X104742264Y-76148160D01*
X104811977Y-76134724D01*
X104877888Y-76161110D01*
X104909119Y-76197153D01*
X104958119Y-76282023D01*
X104975000Y-76345023D01*
X104975000Y-77406416D01*
X104954998Y-77474537D01*
X104901342Y-77521030D01*
X104831068Y-77531134D01*
X104766488Y-77501640D01*
X104739881Y-77469416D01*
X104696209Y-77393774D01*
X104664040Y-77338056D01*
X104536253Y-77196134D01*
X104437157Y-77124136D01*
X104387094Y-77087763D01*
X104387093Y-77087762D01*
X104381752Y-77083882D01*
X104375724Y-77081198D01*
X104375722Y-77081197D01*
X104213319Y-77008891D01*
X104213318Y-77008891D01*
X104207288Y-77006206D01*
X104113887Y-76986353D01*
X104026944Y-76967872D01*
X104026939Y-76967872D01*
X104020487Y-76966500D01*
X103829513Y-76966500D01*
X103823061Y-76967872D01*
X103823056Y-76967872D01*
X103736113Y-76986353D01*
X103642712Y-77006206D01*
X103636682Y-77008891D01*
X103636681Y-77008891D01*
X103474278Y-77081197D01*
X103474276Y-77081198D01*
X103468248Y-77083882D01*
X103462907Y-77087762D01*
X103462906Y-77087763D01*
X103412843Y-77124136D01*
X103313747Y-77196134D01*
X103185960Y-77338056D01*
X103090473Y-77503444D01*
X103088889Y-77508320D01*
X103043265Y-77561998D01*
X102975338Y-77582648D01*
X102907029Y-77563296D01*
X102865018Y-77519654D01*
X102792341Y-77393774D01*
X102789040Y-77388056D01*
X102749169Y-77343774D01*
X102665675Y-77251045D01*
X102665674Y-77251044D01*
X102661253Y-77246134D01*
X102506752Y-77133882D01*
X102500724Y-77131198D01*
X102500722Y-77131197D01*
X102338319Y-77058891D01*
X102338318Y-77058891D01*
X102332288Y-77056206D01*
X102238887Y-77036353D01*
X102151944Y-77017872D01*
X102151939Y-77017872D01*
X102145487Y-77016500D01*
X101954513Y-77016500D01*
X101948061Y-77017872D01*
X101948056Y-77017872D01*
X101861113Y-77036353D01*
X101767712Y-77056206D01*
X101761682Y-77058891D01*
X101761681Y-77058891D01*
X101599278Y-77131197D01*
X101599276Y-77131198D01*
X101593248Y-77133882D01*
X101438747Y-77246134D01*
X101434326Y-77251044D01*
X101434325Y-77251045D01*
X101350832Y-77343774D01*
X101310960Y-77388056D01*
X101215473Y-77553444D01*
X101156458Y-77735072D01*
X101136496Y-77925000D01*
X101156458Y-78114928D01*
X101215473Y-78296556D01*
X101310960Y-78461944D01*
X101438747Y-78603866D01*
X101524429Y-78666118D01*
X101558839Y-78691118D01*
X101593248Y-78716118D01*
X101599276Y-78718802D01*
X101599278Y-78718803D01*
X101744591Y-78783500D01*
X101767712Y-78793794D01*
X101865847Y-78814653D01*
X101901463Y-78822224D01*
X101963937Y-78855953D01*
X101998258Y-78918102D01*
X101993530Y-78988941D01*
X101951254Y-79045979D01*
X101901463Y-79068718D01*
X101842712Y-79081206D01*
X101836682Y-79083891D01*
X101836681Y-79083891D01*
X101674278Y-79156197D01*
X101674276Y-79156198D01*
X101668248Y-79158882D01*
X101662907Y-79162762D01*
X101662906Y-79162763D01*
X101612843Y-79199136D01*
X101513747Y-79271134D01*
X101509326Y-79276044D01*
X101509325Y-79276045D01*
X101425832Y-79368774D01*
X101385960Y-79413056D01*
X101290473Y-79578444D01*
X101231458Y-79760072D01*
X101211496Y-79950000D01*
X101231458Y-80139928D01*
X101290473Y-80321556D01*
X101385960Y-80486944D01*
X101513747Y-80628866D01*
X101668248Y-80741118D01*
X101674276Y-80743802D01*
X101674278Y-80743803D01*
X101819591Y-80808500D01*
X101842712Y-80818794D01*
X101936113Y-80838647D01*
X102023056Y-80857128D01*
X102023061Y-80857128D01*
X102029513Y-80858500D01*
X102220487Y-80858500D01*
X102226939Y-80857128D01*
X102226944Y-80857128D01*
X102313887Y-80838647D01*
X102407288Y-80818794D01*
X102430409Y-80808500D01*
X102575722Y-80743803D01*
X102575724Y-80743802D01*
X102581752Y-80741118D01*
X102736253Y-80628866D01*
X102864040Y-80486944D01*
X102955315Y-80328852D01*
X103006698Y-80279859D01*
X103076411Y-80266423D01*
X103142322Y-80292810D01*
X103173553Y-80328852D01*
X103235960Y-80436944D01*
X103240378Y-80441851D01*
X103240379Y-80441852D01*
X103280980Y-80486944D01*
X103363747Y-80578866D01*
X103518248Y-80691118D01*
X103524276Y-80693802D01*
X103524278Y-80693803D01*
X103621833Y-80737237D01*
X103692712Y-80768794D01*
X103786112Y-80788647D01*
X103873056Y-80807128D01*
X103873061Y-80807128D01*
X103879513Y-80808500D01*
X104070487Y-80808500D01*
X104076939Y-80807128D01*
X104076944Y-80807128D01*
X104163888Y-80788647D01*
X104257288Y-80768794D01*
X104328167Y-80737237D01*
X104425722Y-80693803D01*
X104425724Y-80693802D01*
X104431752Y-80691118D01*
X104586253Y-80578866D01*
X104669020Y-80486944D01*
X104709621Y-80441852D01*
X104709622Y-80441851D01*
X104714040Y-80436944D01*
X104719229Y-80427956D01*
X104720818Y-80426441D01*
X104721224Y-80425882D01*
X104721326Y-80425956D01*
X104770609Y-80378963D01*
X104840322Y-80365524D01*
X104906234Y-80391909D01*
X104937467Y-80427952D01*
X104958120Y-80463723D01*
X104975000Y-80526722D01*
X104975000Y-97774000D01*
X104954998Y-97842121D01*
X104901342Y-97888614D01*
X104849000Y-97900000D01*
X98776000Y-97900000D01*
X98707879Y-97879998D01*
X98661386Y-97826342D01*
X98650000Y-97774000D01*
X98650000Y-89360774D01*
X99763102Y-89360774D01*
X99771751Y-89591158D01*
X99819093Y-89816791D01*
X99903776Y-90031221D01*
X100023377Y-90228317D01*
X100026874Y-90232347D01*
X100113438Y-90332103D01*
X100174477Y-90402445D01*
X100210120Y-90431670D01*
X100250114Y-90490329D01*
X100252046Y-90561299D01*
X100215302Y-90622048D01*
X100196532Y-90636248D01*
X100065579Y-90717285D01*
X100050652Y-90726522D01*
X99925695Y-90851697D01*
X99832885Y-91002262D01*
X99777203Y-91170139D01*
X99766500Y-91274600D01*
X99766500Y-92575400D01*
X99777474Y-92681166D01*
X99833450Y-92848946D01*
X99926522Y-92999348D01*
X100051697Y-93124305D01*
X100057927Y-93128145D01*
X100057928Y-93128146D01*
X100195090Y-93212694D01*
X100202262Y-93217115D01*
X100282005Y-93243564D01*
X100363611Y-93270632D01*
X100363613Y-93270632D01*
X100370139Y-93272797D01*
X100376975Y-93273497D01*
X100376978Y-93273498D01*
X100420031Y-93277909D01*
X100474600Y-93283500D01*
X102075400Y-93283500D01*
X102078646Y-93283163D01*
X102078650Y-93283163D01*
X102174308Y-93273238D01*
X102174312Y-93273237D01*
X102181166Y-93272526D01*
X102187702Y-93270345D01*
X102187704Y-93270345D01*
X102319806Y-93226272D01*
X102348946Y-93216550D01*
X102499348Y-93123478D01*
X102624305Y-92998303D01*
X102717115Y-92847738D01*
X102772797Y-92679861D01*
X102783500Y-92575400D01*
X102783500Y-91274600D01*
X102772526Y-91168834D01*
X102716550Y-91001054D01*
X102623478Y-90850652D01*
X102498303Y-90725695D01*
X102352660Y-90635919D01*
X102305168Y-90583148D01*
X102293744Y-90513076D01*
X102322018Y-90447952D01*
X102331805Y-90437490D01*
X102442278Y-90332103D01*
X102446135Y-90328424D01*
X102583754Y-90143458D01*
X102688240Y-89937949D01*
X102724321Y-89821752D01*
X102755024Y-89722871D01*
X102756607Y-89717773D01*
X102757308Y-89712484D01*
X102786198Y-89494511D01*
X102786198Y-89494506D01*
X102786898Y-89489226D01*
X102778249Y-89258842D01*
X102730907Y-89033209D01*
X102646224Y-88818779D01*
X102526623Y-88621683D01*
X102439755Y-88521576D01*
X102379023Y-88451588D01*
X102379021Y-88451586D01*
X102375523Y-88447555D01*
X102333970Y-88413484D01*
X102201373Y-88304760D01*
X102201367Y-88304756D01*
X102197245Y-88301376D01*
X102192609Y-88298737D01*
X102192606Y-88298735D01*
X102001529Y-88189968D01*
X101996886Y-88187325D01*
X101780175Y-88108663D01*
X101774926Y-88107714D01*
X101774923Y-88107713D01*
X101557392Y-88068377D01*
X101557385Y-88068376D01*
X101553308Y-88067639D01*
X101535586Y-88066803D01*
X101530644Y-88066570D01*
X101530637Y-88066570D01*
X101529156Y-88066500D01*
X101067110Y-88066500D01*
X101000191Y-88072178D01*
X100900591Y-88080629D01*
X100900587Y-88080630D01*
X100895280Y-88081080D01*
X100890125Y-88082418D01*
X100890119Y-88082419D01*
X100677297Y-88137657D01*
X100677293Y-88137658D01*
X100672128Y-88138999D01*
X100667262Y-88141191D01*
X100667259Y-88141192D01*
X100558980Y-88189968D01*
X100461925Y-88233688D01*
X100270681Y-88362441D01*
X100103865Y-88521576D01*
X99966246Y-88706542D01*
X99861760Y-88912051D01*
X99860178Y-88917145D01*
X99860177Y-88917148D01*
X99798115Y-89117020D01*
X99793393Y-89132227D01*
X99792692Y-89137516D01*
X99777304Y-89253623D01*
X99763102Y-89360774D01*
X98650000Y-89360774D01*
X98650000Y-66775000D01*
X104975000Y-66775000D01*
X104975000Y-75154977D01*
G37*
%TD.AperFunction*%
%TD*%
%TA.AperFunction,Conductor*%
%TO.N,GND*%
G36*
X206292121Y-60870002D02*
G01*
X206338614Y-60923658D01*
X206350000Y-60976000D01*
X206350000Y-112749000D01*
X206329998Y-112817121D01*
X206276342Y-112863614D01*
X206224000Y-112875000D01*
X65776000Y-112875000D01*
X65707879Y-112854998D01*
X65661386Y-112801342D01*
X65650000Y-112749000D01*
X65650000Y-86525000D01*
X78711496Y-86525000D01*
X78731458Y-86714928D01*
X78790473Y-86896556D01*
X78885960Y-87061944D01*
X79013747Y-87203866D01*
X79168248Y-87316118D01*
X79174276Y-87318802D01*
X79174278Y-87318803D01*
X79336681Y-87391109D01*
X79342712Y-87393794D01*
X79436113Y-87413647D01*
X79523056Y-87432128D01*
X79523061Y-87432128D01*
X79529513Y-87433500D01*
X79720487Y-87433500D01*
X79726939Y-87432128D01*
X79726944Y-87432128D01*
X79813887Y-87413647D01*
X79907288Y-87393794D01*
X79913319Y-87391109D01*
X80075722Y-87318803D01*
X80075724Y-87318802D01*
X80081752Y-87316118D01*
X80236253Y-87203866D01*
X80364040Y-87061944D01*
X80459527Y-86896556D01*
X80518542Y-86714928D01*
X80538504Y-86525000D01*
X80537814Y-86518435D01*
X80519232Y-86341635D01*
X80519232Y-86341633D01*
X80518542Y-86335072D01*
X80459527Y-86153444D01*
X80364040Y-85988056D01*
X80236253Y-85846134D01*
X80081752Y-85733882D01*
X80075724Y-85731198D01*
X80075722Y-85731197D01*
X79913319Y-85658891D01*
X79913318Y-85658891D01*
X79907288Y-85656206D01*
X79813887Y-85636353D01*
X79726944Y-85617872D01*
X79726939Y-85617872D01*
X79720487Y-85616500D01*
X79529513Y-85616500D01*
X79523061Y-85617872D01*
X79523056Y-85617872D01*
X79436113Y-85636353D01*
X79342712Y-85656206D01*
X79336682Y-85658891D01*
X79336681Y-85658891D01*
X79174278Y-85731197D01*
X79174276Y-85731198D01*
X79168248Y-85733882D01*
X79013747Y-85846134D01*
X78885960Y-85988056D01*
X78790473Y-86153444D01*
X78731458Y-86335072D01*
X78730768Y-86341633D01*
X78730768Y-86341635D01*
X78712186Y-86518435D01*
X78711496Y-86525000D01*
X65650000Y-86525000D01*
X65650000Y-70999000D01*
X70986500Y-70999000D01*
X70998234Y-71108149D01*
X71009620Y-71160491D01*
X71044290Y-71264657D01*
X71123308Y-71387612D01*
X71169801Y-71441268D01*
X71173194Y-71444208D01*
X71273450Y-71531081D01*
X71273453Y-71531083D01*
X71280261Y-71536982D01*
X71413210Y-71597698D01*
X71436964Y-71604673D01*
X71477008Y-71616431D01*
X71477012Y-71616432D01*
X71481331Y-71617700D01*
X71485780Y-71618340D01*
X71485786Y-71618341D01*
X71621553Y-71637861D01*
X71621558Y-71637861D01*
X71626000Y-71638500D01*
X98010500Y-71638500D01*
X98078621Y-71658502D01*
X98125114Y-71712158D01*
X98136500Y-71764500D01*
X98136500Y-90584890D01*
X98116498Y-90653011D01*
X98062842Y-90699504D01*
X97992568Y-90709608D01*
X97928670Y-90680701D01*
X97868182Y-90629040D01*
X97868178Y-90629037D01*
X97864416Y-90625824D01*
X97860208Y-90623245D01*
X97860202Y-90623241D01*
X97666183Y-90504346D01*
X97661963Y-90501760D01*
X97657393Y-90499867D01*
X97657389Y-90499865D01*
X97447167Y-90412789D01*
X97447165Y-90412788D01*
X97442594Y-90410895D01*
X97320426Y-90381565D01*
X97216524Y-90356620D01*
X97216518Y-90356619D01*
X97211711Y-90355465D01*
X96975000Y-90336835D01*
X96738289Y-90355465D01*
X96733482Y-90356619D01*
X96733476Y-90356620D01*
X96629574Y-90381565D01*
X96507406Y-90410895D01*
X96502835Y-90412788D01*
X96502833Y-90412789D01*
X96292611Y-90499865D01*
X96292607Y-90499867D01*
X96288037Y-90501760D01*
X96283817Y-90504346D01*
X96089798Y-90623241D01*
X96089792Y-90623245D01*
X96085584Y-90625824D01*
X95905031Y-90780031D01*
X95750824Y-90960584D01*
X95748245Y-90964792D01*
X95748241Y-90964798D01*
X95650868Y-91123697D01*
X95626760Y-91163037D01*
X95624867Y-91167607D01*
X95624865Y-91167611D01*
X95552270Y-91342872D01*
X95535895Y-91382406D01*
X95534740Y-91387218D01*
X95490586Y-91571134D01*
X95480465Y-91613289D01*
X95461835Y-91850000D01*
X95480465Y-92086711D01*
X95535895Y-92317594D01*
X95537788Y-92322165D01*
X95537789Y-92322167D01*
X95583849Y-92433365D01*
X95626760Y-92536963D01*
X95629346Y-92541183D01*
X95748241Y-92735202D01*
X95748245Y-92735208D01*
X95750824Y-92739416D01*
X95905031Y-92919969D01*
X96085584Y-93074176D01*
X96089792Y-93076755D01*
X96089798Y-93076759D01*
X96278004Y-93192092D01*
X96288037Y-93198240D01*
X96292607Y-93200133D01*
X96292611Y-93200135D01*
X96454329Y-93267120D01*
X96507406Y-93289105D01*
X96587609Y-93308360D01*
X96733476Y-93343380D01*
X96733482Y-93343381D01*
X96738289Y-93344535D01*
X96975000Y-93363165D01*
X97211711Y-93344535D01*
X97216518Y-93343381D01*
X97216524Y-93343380D01*
X97362391Y-93308360D01*
X97442594Y-93289105D01*
X97495671Y-93267120D01*
X97657389Y-93200135D01*
X97657393Y-93200133D01*
X97661963Y-93198240D01*
X97671996Y-93192092D01*
X97860202Y-93076759D01*
X97860208Y-93076755D01*
X97864416Y-93074176D01*
X97868178Y-93070963D01*
X97868182Y-93070960D01*
X97928670Y-93019299D01*
X97993460Y-92990268D01*
X98063660Y-93000873D01*
X98116982Y-93047748D01*
X98136500Y-93115110D01*
X98136500Y-97436406D01*
X98116498Y-97504527D01*
X98062842Y-97551020D01*
X97992568Y-97561124D01*
X97927988Y-97531630D01*
X97921405Y-97525501D01*
X96414679Y-96018774D01*
X94895405Y-94499500D01*
X94861379Y-94437188D01*
X94858500Y-94410405D01*
X94858500Y-85728767D01*
X94859027Y-85717584D01*
X94860702Y-85710091D01*
X94858562Y-85642014D01*
X94858500Y-85638055D01*
X94858500Y-85610144D01*
X94857995Y-85606144D01*
X94857062Y-85594301D01*
X94855922Y-85558029D01*
X94855673Y-85550110D01*
X94850022Y-85530658D01*
X94846014Y-85511306D01*
X94844467Y-85499063D01*
X94843474Y-85491203D01*
X94840556Y-85483832D01*
X94827200Y-85450097D01*
X94823355Y-85438870D01*
X94813478Y-85404875D01*
X94811018Y-85396407D01*
X94806984Y-85389585D01*
X94806981Y-85389579D01*
X94800706Y-85378968D01*
X94792010Y-85361218D01*
X94787472Y-85349756D01*
X94787469Y-85349751D01*
X94784552Y-85342383D01*
X94758573Y-85306625D01*
X94752057Y-85296707D01*
X94733575Y-85265457D01*
X94729542Y-85258637D01*
X94715218Y-85244313D01*
X94702376Y-85229278D01*
X94690472Y-85212893D01*
X94656406Y-85184711D01*
X94647627Y-85176722D01*
X92128652Y-82657747D01*
X92121112Y-82649461D01*
X92117000Y-82642982D01*
X92067348Y-82596356D01*
X92064507Y-82593602D01*
X92044770Y-82573865D01*
X92041573Y-82571385D01*
X92032551Y-82563680D01*
X92006100Y-82538841D01*
X92000321Y-82533414D01*
X91993375Y-82529595D01*
X91993372Y-82529593D01*
X91982566Y-82523652D01*
X91966047Y-82512801D01*
X91960048Y-82508148D01*
X91950041Y-82500386D01*
X91942772Y-82497241D01*
X91942768Y-82497238D01*
X91909463Y-82482826D01*
X91898813Y-82477609D01*
X91860060Y-82456305D01*
X91840437Y-82451267D01*
X91821734Y-82444863D01*
X91810420Y-82439967D01*
X91810419Y-82439967D01*
X91803145Y-82436819D01*
X91795322Y-82435580D01*
X91795312Y-82435577D01*
X91759476Y-82429901D01*
X91747856Y-82427495D01*
X91712711Y-82418472D01*
X91712710Y-82418472D01*
X91705030Y-82416500D01*
X91684776Y-82416500D01*
X91665065Y-82414949D01*
X91652886Y-82413020D01*
X91645057Y-82411780D01*
X91637165Y-82412526D01*
X91601039Y-82415941D01*
X91589181Y-82416500D01*
X88358200Y-82416500D01*
X88290079Y-82396498D01*
X88270853Y-82380157D01*
X88270580Y-82380460D01*
X88265668Y-82376037D01*
X88261253Y-82371134D01*
X88106752Y-82258882D01*
X88100724Y-82256198D01*
X88100722Y-82256197D01*
X87938319Y-82183891D01*
X87938318Y-82183891D01*
X87932288Y-82181206D01*
X87838887Y-82161353D01*
X87751944Y-82142872D01*
X87751939Y-82142872D01*
X87745487Y-82141500D01*
X87554513Y-82141500D01*
X87548061Y-82142872D01*
X87548056Y-82142872D01*
X87461113Y-82161353D01*
X87367712Y-82181206D01*
X87361682Y-82183891D01*
X87361681Y-82183891D01*
X87199278Y-82256197D01*
X87199276Y-82256198D01*
X87193248Y-82258882D01*
X87038747Y-82371134D01*
X87037422Y-82369310D01*
X86982794Y-82395521D01*
X86912341Y-82386752D01*
X86886822Y-82370351D01*
X86886253Y-82371134D01*
X86737094Y-82262763D01*
X86737093Y-82262762D01*
X86731752Y-82258882D01*
X86725724Y-82256198D01*
X86725722Y-82256197D01*
X86563319Y-82183891D01*
X86563318Y-82183891D01*
X86557288Y-82181206D01*
X86463887Y-82161353D01*
X86376944Y-82142872D01*
X86376939Y-82142872D01*
X86370487Y-82141500D01*
X86179513Y-82141500D01*
X86173061Y-82142872D01*
X86173056Y-82142872D01*
X86086113Y-82161353D01*
X85992712Y-82181206D01*
X85986682Y-82183891D01*
X85986681Y-82183891D01*
X85824278Y-82256197D01*
X85824276Y-82256198D01*
X85818248Y-82258882D01*
X85663747Y-82371134D01*
X85659326Y-82376044D01*
X85659325Y-82376045D01*
X85550203Y-82497238D01*
X85535960Y-82513056D01*
X85440473Y-82678444D01*
X85381458Y-82860072D01*
X85380768Y-82866633D01*
X85380768Y-82866635D01*
X85364093Y-83025292D01*
X85337080Y-83090949D01*
X85327878Y-83101217D01*
X84645801Y-83783294D01*
X84583489Y-83817320D01*
X84512674Y-83812255D01*
X84455838Y-83769708D01*
X84431396Y-83707370D01*
X84419232Y-83591634D01*
X84419231Y-83591631D01*
X84418542Y-83585072D01*
X84359527Y-83403444D01*
X84264040Y-83238056D01*
X84136253Y-83096134D01*
X83981752Y-82983882D01*
X83975724Y-82981198D01*
X83975722Y-82981197D01*
X83813319Y-82908891D01*
X83813318Y-82908891D01*
X83807288Y-82906206D01*
X83713887Y-82886353D01*
X83626944Y-82867872D01*
X83626939Y-82867872D01*
X83620487Y-82866500D01*
X83429513Y-82866500D01*
X83423061Y-82867872D01*
X83423056Y-82867872D01*
X83336113Y-82886353D01*
X83242712Y-82906206D01*
X83236682Y-82908891D01*
X83236681Y-82908891D01*
X83074278Y-82981197D01*
X83074276Y-82981198D01*
X83068248Y-82983882D01*
X82913747Y-83096134D01*
X82785960Y-83238056D01*
X82690473Y-83403444D01*
X82631458Y-83585072D01*
X82630768Y-83591633D01*
X82630768Y-83591635D01*
X82616153Y-83730690D01*
X82611496Y-83775000D01*
X82631458Y-83964928D01*
X82690473Y-84146556D01*
X82785960Y-84311944D01*
X82913747Y-84453866D01*
X83068248Y-84566118D01*
X83074276Y-84568802D01*
X83074278Y-84568803D01*
X83236681Y-84641109D01*
X83242712Y-84643794D01*
X83336112Y-84663647D01*
X83423056Y-84682128D01*
X83423061Y-84682128D01*
X83429513Y-84683500D01*
X83439156Y-84683500D01*
X83440850Y-84683998D01*
X83442682Y-84684190D01*
X83442647Y-84684525D01*
X83507277Y-84703502D01*
X83553770Y-84757158D01*
X83563874Y-84827432D01*
X83531007Y-84895752D01*
X83496358Y-84932650D01*
X83493602Y-84935493D01*
X83473865Y-84955230D01*
X83471385Y-84958427D01*
X83463682Y-84967447D01*
X83433414Y-84999679D01*
X83429595Y-85006625D01*
X83429593Y-85006628D01*
X83423652Y-85017434D01*
X83412801Y-85033953D01*
X83400386Y-85049959D01*
X83397241Y-85057228D01*
X83397238Y-85057232D01*
X83382826Y-85090537D01*
X83377609Y-85101187D01*
X83356305Y-85139940D01*
X83354334Y-85147615D01*
X83354334Y-85147616D01*
X83351267Y-85159562D01*
X83344863Y-85178266D01*
X83336819Y-85196855D01*
X83335580Y-85204678D01*
X83335577Y-85204688D01*
X83329901Y-85240524D01*
X83327495Y-85252144D01*
X83325828Y-85258637D01*
X83316500Y-85294970D01*
X83316500Y-85315224D01*
X83314949Y-85334934D01*
X83311780Y-85354943D01*
X83312526Y-85362835D01*
X83315941Y-85398961D01*
X83316500Y-85410819D01*
X83316500Y-95515500D01*
X83296498Y-95583621D01*
X83242842Y-95630114D01*
X83190500Y-95641500D01*
X83129513Y-95641500D01*
X83123061Y-95642872D01*
X83123056Y-95642872D01*
X83036112Y-95661353D01*
X82942712Y-95681206D01*
X82936682Y-95683891D01*
X82936681Y-95683891D01*
X82774278Y-95756197D01*
X82774276Y-95756198D01*
X82768248Y-95758882D01*
X82762907Y-95762762D01*
X82762906Y-95762763D01*
X82624061Y-95863640D01*
X82557193Y-95887499D01*
X82488042Y-95871418D01*
X82475939Y-95863640D01*
X82337094Y-95762763D01*
X82337093Y-95762762D01*
X82331752Y-95758882D01*
X82325724Y-95756198D01*
X82325722Y-95756197D01*
X82163319Y-95683891D01*
X82163318Y-95683891D01*
X82157288Y-95681206D01*
X82063888Y-95661353D01*
X81976944Y-95642872D01*
X81976939Y-95642872D01*
X81970487Y-95641500D01*
X81779513Y-95641500D01*
X81773061Y-95642872D01*
X81773056Y-95642872D01*
X81686112Y-95661353D01*
X81592712Y-95681206D01*
X81586682Y-95683891D01*
X81586681Y-95683891D01*
X81424278Y-95756197D01*
X81424276Y-95756198D01*
X81418248Y-95758882D01*
X81412907Y-95762762D01*
X81412906Y-95762763D01*
X81274062Y-95863640D01*
X81263747Y-95871134D01*
X81259325Y-95876045D01*
X81259313Y-95876056D01*
X81195306Y-95906775D01*
X81124852Y-95898013D01*
X81090687Y-95876056D01*
X81090675Y-95876045D01*
X81086253Y-95871134D01*
X81075939Y-95863640D01*
X80937094Y-95762763D01*
X80937093Y-95762762D01*
X80931752Y-95758882D01*
X80925724Y-95756198D01*
X80925722Y-95756197D01*
X80763319Y-95683891D01*
X80763318Y-95683891D01*
X80757288Y-95681206D01*
X80663888Y-95661353D01*
X80576944Y-95642872D01*
X80576939Y-95642872D01*
X80570487Y-95641500D01*
X80379513Y-95641500D01*
X80373061Y-95642872D01*
X80373056Y-95642872D01*
X80286112Y-95661353D01*
X80192712Y-95681206D01*
X80186682Y-95683891D01*
X80186681Y-95683891D01*
X80024278Y-95756197D01*
X80024276Y-95756198D01*
X80018248Y-95758882D01*
X79863747Y-95871134D01*
X79735960Y-96013056D01*
X79640473Y-96178444D01*
X79581458Y-96360072D01*
X79561496Y-96550000D01*
X79581458Y-96739928D01*
X79640473Y-96921556D01*
X79735960Y-97086944D01*
X79740378Y-97091851D01*
X79740379Y-97091852D01*
X79848435Y-97211860D01*
X79863747Y-97228866D01*
X80018248Y-97341118D01*
X80024276Y-97343802D01*
X80024278Y-97343803D01*
X80146443Y-97398194D01*
X80192712Y-97418794D01*
X80286113Y-97438647D01*
X80373056Y-97457128D01*
X80373061Y-97457128D01*
X80379513Y-97458500D01*
X80570487Y-97458500D01*
X80576939Y-97457128D01*
X80576944Y-97457128D01*
X80663887Y-97438647D01*
X80757288Y-97418794D01*
X80803557Y-97398194D01*
X80925722Y-97343803D01*
X80925724Y-97343802D01*
X80931752Y-97341118D01*
X80937094Y-97337237D01*
X81080909Y-97232749D01*
X81080911Y-97232747D01*
X81086253Y-97228866D01*
X81090678Y-97223952D01*
X81090687Y-97223944D01*
X81154694Y-97193225D01*
X81225148Y-97201987D01*
X81259313Y-97223944D01*
X81259322Y-97223952D01*
X81263747Y-97228866D01*
X81269089Y-97232747D01*
X81269091Y-97232749D01*
X81412906Y-97337237D01*
X81418248Y-97341118D01*
X81424276Y-97343802D01*
X81424278Y-97343803D01*
X81546443Y-97398194D01*
X81592712Y-97418794D01*
X81686113Y-97438647D01*
X81773056Y-97457128D01*
X81773061Y-97457128D01*
X81779513Y-97458500D01*
X81970487Y-97458500D01*
X81976939Y-97457128D01*
X81976944Y-97457128D01*
X82063887Y-97438647D01*
X82157288Y-97418794D01*
X82203557Y-97398194D01*
X82325722Y-97343803D01*
X82325724Y-97343802D01*
X82331752Y-97341118D01*
X82337094Y-97337237D01*
X82475939Y-97236360D01*
X82542807Y-97212501D01*
X82611958Y-97228582D01*
X82624061Y-97236360D01*
X82762906Y-97337237D01*
X82768248Y-97341118D01*
X82774276Y-97343802D01*
X82774278Y-97343803D01*
X82896443Y-97398194D01*
X82942712Y-97418794D01*
X83036113Y-97438647D01*
X83123056Y-97457128D01*
X83123061Y-97457128D01*
X83129513Y-97458500D01*
X83190500Y-97458500D01*
X83258621Y-97478502D01*
X83305114Y-97532158D01*
X83316500Y-97584500D01*
X83316500Y-102346233D01*
X83315973Y-102357416D01*
X83314298Y-102364909D01*
X83314547Y-102372835D01*
X83314547Y-102372836D01*
X83316438Y-102432986D01*
X83316500Y-102436945D01*
X83316500Y-102464856D01*
X83316997Y-102468790D01*
X83316997Y-102468791D01*
X83317005Y-102468856D01*
X83317938Y-102480693D01*
X83319327Y-102524889D01*
X83324978Y-102544339D01*
X83328987Y-102563700D01*
X83331526Y-102583797D01*
X83334445Y-102591168D01*
X83334445Y-102591170D01*
X83347804Y-102624912D01*
X83351649Y-102636142D01*
X83363982Y-102678593D01*
X83368015Y-102685412D01*
X83368017Y-102685417D01*
X83374293Y-102696028D01*
X83382988Y-102713776D01*
X83390448Y-102732617D01*
X83395110Y-102739033D01*
X83395110Y-102739034D01*
X83416436Y-102768387D01*
X83422952Y-102778307D01*
X83445458Y-102816362D01*
X83459779Y-102830683D01*
X83472619Y-102845716D01*
X83484528Y-102862107D01*
X83490634Y-102867158D01*
X83518605Y-102890298D01*
X83527384Y-102898288D01*
X84854595Y-104225499D01*
X84888621Y-104287811D01*
X84891500Y-104314594D01*
X84891500Y-106790500D01*
X84871498Y-106858621D01*
X84817842Y-106905114D01*
X84765500Y-106916500D01*
X84576866Y-106916500D01*
X84514684Y-106923255D01*
X84378295Y-106974385D01*
X84261739Y-107061739D01*
X84174385Y-107178295D01*
X84123255Y-107314684D01*
X84116500Y-107376866D01*
X84116500Y-109273134D01*
X84123255Y-109335316D01*
X84174385Y-109471705D01*
X84261739Y-109588261D01*
X84378295Y-109675615D01*
X84514684Y-109726745D01*
X84576866Y-109733500D01*
X86473134Y-109733500D01*
X86535316Y-109726745D01*
X86671705Y-109675615D01*
X86788261Y-109588261D01*
X86875615Y-109471705D01*
X86900180Y-109406178D01*
X86942822Y-109349414D01*
X87009383Y-109324714D01*
X87078732Y-109339921D01*
X87098647Y-109353464D01*
X87163724Y-109407492D01*
X87254349Y-109482730D01*
X87454322Y-109599584D01*
X87670694Y-109682209D01*
X87675760Y-109683240D01*
X87675761Y-109683240D01*
X87728846Y-109694040D01*
X87897656Y-109728385D01*
X88027089Y-109733131D01*
X88123949Y-109736683D01*
X88123953Y-109736683D01*
X88129113Y-109736872D01*
X88134233Y-109736216D01*
X88134235Y-109736216D01*
X88208166Y-109726745D01*
X88358847Y-109707442D01*
X88363795Y-109705957D01*
X88363802Y-109705956D01*
X88575747Y-109642369D01*
X88580690Y-109640886D01*
X88661236Y-109601427D01*
X88784049Y-109541262D01*
X88784052Y-109541260D01*
X88788684Y-109538991D01*
X88977243Y-109404494D01*
X89141303Y-109241005D01*
X89276458Y-109052917D01*
X89310117Y-108984814D01*
X89376784Y-108849922D01*
X89376785Y-108849920D01*
X89379078Y-108845280D01*
X89446408Y-108623671D01*
X89476640Y-108394041D01*
X89478327Y-108325000D01*
X89472032Y-108248434D01*
X89459773Y-108099318D01*
X89459772Y-108099312D01*
X89459349Y-108094167D01*
X89402925Y-107869533D01*
X89310570Y-107657131D01*
X89184764Y-107462665D01*
X89170486Y-107446973D01*
X89135134Y-107408122D01*
X89028887Y-107291358D01*
X89024836Y-107288159D01*
X89024832Y-107288155D01*
X88851177Y-107151011D01*
X88851172Y-107151008D01*
X88847123Y-107147810D01*
X88842607Y-107145317D01*
X88842604Y-107145315D01*
X88648879Y-107038373D01*
X88648875Y-107038371D01*
X88644355Y-107035876D01*
X88639486Y-107034152D01*
X88639482Y-107034150D01*
X88430903Y-106960288D01*
X88430899Y-106960287D01*
X88426028Y-106958562D01*
X88420935Y-106957655D01*
X88420932Y-106957654D01*
X88203095Y-106918851D01*
X88203089Y-106918850D01*
X88198006Y-106917945D01*
X88125096Y-106917054D01*
X87971581Y-106915179D01*
X87971579Y-106915179D01*
X87966411Y-106915116D01*
X87737464Y-106950150D01*
X87517314Y-107022106D01*
X87512726Y-107024494D01*
X87512722Y-107024496D01*
X87316461Y-107126663D01*
X87311872Y-107129052D01*
X87307739Y-107132155D01*
X87307736Y-107132157D01*
X87130790Y-107265012D01*
X87126655Y-107268117D01*
X87109170Y-107286414D01*
X87047646Y-107321844D01*
X86976733Y-107318387D01*
X86918947Y-107277141D01*
X86900094Y-107243592D01*
X86878768Y-107186705D01*
X86878767Y-107186703D01*
X86875615Y-107178295D01*
X86788261Y-107061739D01*
X86671705Y-106974385D01*
X86535316Y-106923255D01*
X86473134Y-106916500D01*
X86284500Y-106916500D01*
X86216379Y-106896498D01*
X86169886Y-106842842D01*
X86158500Y-106790500D01*
X86158500Y-104078763D01*
X86159027Y-104067579D01*
X86160701Y-104060091D01*
X86158562Y-103992032D01*
X86158500Y-103988075D01*
X86158500Y-103960144D01*
X86157994Y-103956138D01*
X86157061Y-103944292D01*
X86155922Y-103908037D01*
X86155673Y-103900110D01*
X86150022Y-103880658D01*
X86146014Y-103861306D01*
X86144467Y-103849063D01*
X86143474Y-103841203D01*
X86140556Y-103833832D01*
X86127200Y-103800097D01*
X86123355Y-103788870D01*
X86122721Y-103786687D01*
X86111018Y-103746407D01*
X86106984Y-103739585D01*
X86106981Y-103739579D01*
X86100706Y-103728968D01*
X86092010Y-103711218D01*
X86087472Y-103699756D01*
X86087469Y-103699751D01*
X86084552Y-103692383D01*
X86058573Y-103656625D01*
X86052057Y-103646707D01*
X86033575Y-103615457D01*
X86029542Y-103608637D01*
X86015218Y-103594313D01*
X86002376Y-103579278D01*
X85990472Y-103562893D01*
X85956406Y-103534711D01*
X85947627Y-103526722D01*
X84620405Y-102199500D01*
X84586379Y-102137188D01*
X84583500Y-102110405D01*
X84583500Y-90375000D01*
X88836496Y-90375000D01*
X88856458Y-90564928D01*
X88915473Y-90746556D01*
X89010960Y-90911944D01*
X89015378Y-90916851D01*
X89015379Y-90916852D01*
X89131450Y-91045762D01*
X89138747Y-91053866D01*
X89293248Y-91166118D01*
X89299276Y-91168802D01*
X89299278Y-91168803D01*
X89447268Y-91234692D01*
X89467712Y-91243794D01*
X89561112Y-91263647D01*
X89648056Y-91282128D01*
X89648061Y-91282128D01*
X89654513Y-91283500D01*
X89845487Y-91283500D01*
X89851939Y-91282128D01*
X89851944Y-91282128D01*
X89938888Y-91263647D01*
X90032288Y-91243794D01*
X90052732Y-91234692D01*
X90200722Y-91168803D01*
X90200724Y-91168802D01*
X90206752Y-91166118D01*
X90361253Y-91053866D01*
X90368550Y-91045762D01*
X90484621Y-90916852D01*
X90484622Y-90916851D01*
X90489040Y-90911944D01*
X90584527Y-90746556D01*
X90643542Y-90564928D01*
X90663504Y-90375000D01*
X90643542Y-90185072D01*
X90584527Y-90003444D01*
X90489040Y-89838056D01*
X90361253Y-89696134D01*
X90206752Y-89583882D01*
X90200724Y-89581198D01*
X90200722Y-89581197D01*
X90038319Y-89508891D01*
X90038318Y-89508891D01*
X90032288Y-89506206D01*
X89938888Y-89486353D01*
X89851944Y-89467872D01*
X89851939Y-89467872D01*
X89845487Y-89466500D01*
X89654513Y-89466500D01*
X89648061Y-89467872D01*
X89648056Y-89467872D01*
X89561112Y-89486353D01*
X89467712Y-89506206D01*
X89461682Y-89508891D01*
X89461681Y-89508891D01*
X89299278Y-89581197D01*
X89299276Y-89581198D01*
X89293248Y-89583882D01*
X89138747Y-89696134D01*
X89010960Y-89838056D01*
X88915473Y-90003444D01*
X88856458Y-90185072D01*
X88836496Y-90375000D01*
X84583500Y-90375000D01*
X84583500Y-88125000D01*
X89586496Y-88125000D01*
X89606458Y-88314928D01*
X89665473Y-88496556D01*
X89760960Y-88661944D01*
X89888747Y-88803866D01*
X90043248Y-88916118D01*
X90049276Y-88918802D01*
X90049278Y-88918803D01*
X90211681Y-88991109D01*
X90217712Y-88993794D01*
X90311113Y-89013647D01*
X90398056Y-89032128D01*
X90398061Y-89032128D01*
X90404513Y-89033500D01*
X90595487Y-89033500D01*
X90601939Y-89032128D01*
X90601944Y-89032128D01*
X90688887Y-89013647D01*
X90782288Y-88993794D01*
X90788319Y-88991109D01*
X90950722Y-88918803D01*
X90950724Y-88918802D01*
X90956752Y-88916118D01*
X91111253Y-88803866D01*
X91239040Y-88661944D01*
X91334527Y-88496556D01*
X91393542Y-88314928D01*
X91413504Y-88125000D01*
X91393542Y-87935072D01*
X91334527Y-87753444D01*
X91260658Y-87625499D01*
X91243920Y-87556505D01*
X91260658Y-87499500D01*
X91298764Y-87433500D01*
X91334527Y-87371556D01*
X91393542Y-87189928D01*
X91407595Y-87056226D01*
X91412814Y-87006565D01*
X91413504Y-87000000D01*
X91393542Y-86810072D01*
X91334527Y-86628444D01*
X91239040Y-86463056D01*
X91111253Y-86321134D01*
X90956752Y-86208882D01*
X90950724Y-86206198D01*
X90950722Y-86206197D01*
X90788319Y-86133891D01*
X90788318Y-86133891D01*
X90782288Y-86131206D01*
X90688888Y-86111353D01*
X90601944Y-86092872D01*
X90601939Y-86092872D01*
X90595487Y-86091500D01*
X90404513Y-86091500D01*
X90398061Y-86092872D01*
X90398056Y-86092872D01*
X90311112Y-86111353D01*
X90217712Y-86131206D01*
X90211682Y-86133891D01*
X90211681Y-86133891D01*
X90049278Y-86206197D01*
X90049276Y-86206198D01*
X90043248Y-86208882D01*
X89888747Y-86321134D01*
X89760960Y-86463056D01*
X89665473Y-86628444D01*
X89606458Y-86810072D01*
X89586496Y-87000000D01*
X89587186Y-87006565D01*
X89592406Y-87056226D01*
X89606458Y-87189928D01*
X89665473Y-87371556D01*
X89701237Y-87433500D01*
X89739342Y-87499500D01*
X89756080Y-87568495D01*
X89739342Y-87625499D01*
X89665473Y-87753444D01*
X89606458Y-87935072D01*
X89586496Y-88125000D01*
X84583500Y-88125000D01*
X84583500Y-85689594D01*
X84603502Y-85621473D01*
X84620405Y-85600499D01*
X86225499Y-83995405D01*
X86287811Y-83961379D01*
X86314594Y-83958500D01*
X86370487Y-83958500D01*
X86376939Y-83957128D01*
X86376944Y-83957128D01*
X86463887Y-83938647D01*
X86557288Y-83918794D01*
X86563319Y-83916109D01*
X86725722Y-83843803D01*
X86725724Y-83843802D01*
X86731752Y-83841118D01*
X86771479Y-83812255D01*
X86886253Y-83728866D01*
X86887578Y-83730690D01*
X86942206Y-83704479D01*
X87012659Y-83713248D01*
X87038178Y-83729649D01*
X87038747Y-83728866D01*
X87153522Y-83812255D01*
X87193248Y-83841118D01*
X87199276Y-83843802D01*
X87199278Y-83843803D01*
X87361681Y-83916109D01*
X87367712Y-83918794D01*
X87461113Y-83938647D01*
X87548056Y-83957128D01*
X87548061Y-83957128D01*
X87554513Y-83958500D01*
X87745487Y-83958500D01*
X87751939Y-83957128D01*
X87751944Y-83957128D01*
X87838887Y-83938647D01*
X87932288Y-83918794D01*
X87938319Y-83916109D01*
X88100722Y-83843803D01*
X88100724Y-83843802D01*
X88106752Y-83841118D01*
X88146479Y-83812255D01*
X88255914Y-83732745D01*
X88261253Y-83728866D01*
X88265668Y-83723963D01*
X88270580Y-83719540D01*
X88271705Y-83720789D01*
X88325014Y-83687949D01*
X88358200Y-83683500D01*
X91310406Y-83683500D01*
X91378527Y-83703502D01*
X91399501Y-83720405D01*
X93554595Y-85875499D01*
X93588621Y-85937811D01*
X93591500Y-85964594D01*
X93591500Y-91232880D01*
X93571498Y-91301001D01*
X93517842Y-91347494D01*
X93447568Y-91357598D01*
X93439304Y-91356127D01*
X93376946Y-91342873D01*
X93376947Y-91342873D01*
X93370487Y-91341500D01*
X93179513Y-91341500D01*
X93173061Y-91342872D01*
X93173056Y-91342872D01*
X93103778Y-91357598D01*
X92992712Y-91381206D01*
X92986682Y-91383891D01*
X92986681Y-91383891D01*
X92824278Y-91456197D01*
X92824276Y-91456198D01*
X92818248Y-91458882D01*
X92663747Y-91571134D01*
X92659326Y-91576044D01*
X92659325Y-91576045D01*
X92625791Y-91613289D01*
X92535960Y-91713056D01*
X92532659Y-91718774D01*
X92459742Y-91845070D01*
X92440473Y-91878444D01*
X92381458Y-92060072D01*
X92361496Y-92250000D01*
X92381458Y-92439928D01*
X92440473Y-92621556D01*
X92443776Y-92627278D01*
X92443777Y-92627279D01*
X92477686Y-92686010D01*
X92535960Y-92786944D01*
X92540378Y-92791851D01*
X92540379Y-92791852D01*
X92659325Y-92923955D01*
X92663747Y-92928866D01*
X92818248Y-93041118D01*
X92824276Y-93043802D01*
X92824278Y-93043803D01*
X92986681Y-93116109D01*
X92992712Y-93118794D01*
X93086112Y-93138647D01*
X93173056Y-93157128D01*
X93173061Y-93157128D01*
X93179513Y-93158500D01*
X93370487Y-93158500D01*
X93385201Y-93155372D01*
X93439304Y-93143873D01*
X93510094Y-93149275D01*
X93566727Y-93192092D01*
X93591220Y-93258730D01*
X93591500Y-93267120D01*
X93591500Y-94646233D01*
X93590973Y-94657416D01*
X93589298Y-94664909D01*
X93589547Y-94672835D01*
X93589547Y-94672836D01*
X93591438Y-94732986D01*
X93591500Y-94736945D01*
X93591500Y-94764856D01*
X93591997Y-94768790D01*
X93591997Y-94768791D01*
X93592005Y-94768856D01*
X93592938Y-94780693D01*
X93594327Y-94824889D01*
X93599978Y-94844339D01*
X93603987Y-94863700D01*
X93606526Y-94883797D01*
X93609445Y-94891168D01*
X93609445Y-94891170D01*
X93622804Y-94924912D01*
X93626649Y-94936142D01*
X93638982Y-94978593D01*
X93643015Y-94985412D01*
X93643017Y-94985417D01*
X93649293Y-94996028D01*
X93657988Y-95013776D01*
X93665448Y-95032617D01*
X93670110Y-95039033D01*
X93670110Y-95039034D01*
X93691436Y-95068387D01*
X93697952Y-95078307D01*
X93720458Y-95116362D01*
X93734779Y-95130683D01*
X93747619Y-95145716D01*
X93759528Y-95162107D01*
X93765634Y-95167158D01*
X93793605Y-95190298D01*
X93802384Y-95198288D01*
X95622060Y-97017964D01*
X95656086Y-97080276D01*
X95651021Y-97151091D01*
X95608474Y-97207927D01*
X95541954Y-97232738D01*
X95515034Y-97231777D01*
X95378448Y-97212139D01*
X95378441Y-97212138D01*
X95374000Y-97211500D01*
X91851000Y-97211500D01*
X91847654Y-97211860D01*
X91847649Y-97211860D01*
X91745215Y-97222872D01*
X91745208Y-97222873D01*
X91741851Y-97223234D01*
X91738551Y-97223952D01*
X91738550Y-97223952D01*
X91692790Y-97233906D01*
X91692785Y-97233907D01*
X91689509Y-97234620D01*
X91585343Y-97269290D01*
X91462388Y-97348308D01*
X91408732Y-97394801D01*
X91405792Y-97398194D01*
X91318919Y-97498450D01*
X91318917Y-97498453D01*
X91313018Y-97505261D01*
X91309274Y-97513459D01*
X91294841Y-97545062D01*
X91252302Y-97638210D01*
X91232300Y-97706331D01*
X91231660Y-97710780D01*
X91231659Y-97710786D01*
X91221931Y-97778447D01*
X91211500Y-97851000D01*
X91211500Y-101760500D01*
X91191498Y-101828621D01*
X91137842Y-101875114D01*
X91085500Y-101886500D01*
X90026000Y-101886500D01*
X90022654Y-101886860D01*
X90022649Y-101886860D01*
X89920215Y-101897872D01*
X89920208Y-101897873D01*
X89916851Y-101898234D01*
X89913551Y-101898952D01*
X89913550Y-101898952D01*
X89867790Y-101908906D01*
X89867785Y-101908907D01*
X89864509Y-101909620D01*
X89760343Y-101944290D01*
X89637388Y-102023308D01*
X89583732Y-102069801D01*
X89580792Y-102073194D01*
X89493919Y-102173450D01*
X89493917Y-102173453D01*
X89488018Y-102180261D01*
X89427302Y-102313210D01*
X89407300Y-102381331D01*
X89406660Y-102385780D01*
X89406659Y-102385786D01*
X89399304Y-102436945D01*
X89386500Y-102526000D01*
X89386500Y-103999000D01*
X89386860Y-104002346D01*
X89386860Y-104002351D01*
X89393068Y-104060091D01*
X89398234Y-104108149D01*
X89398952Y-104111449D01*
X89398952Y-104111450D01*
X89405961Y-104143669D01*
X89409620Y-104160491D01*
X89444290Y-104264657D01*
X89523308Y-104387612D01*
X89569801Y-104441268D01*
X89573194Y-104444208D01*
X89673450Y-104531081D01*
X89673453Y-104531083D01*
X89680261Y-104536982D01*
X89813210Y-104597698D01*
X89836964Y-104604673D01*
X89877008Y-104616431D01*
X89877012Y-104616432D01*
X89881331Y-104617700D01*
X89885780Y-104618340D01*
X89885786Y-104618341D01*
X90021553Y-104637861D01*
X90021558Y-104637861D01*
X90026000Y-104638500D01*
X95374000Y-104638500D01*
X95377346Y-104638140D01*
X95377351Y-104638140D01*
X95479785Y-104627128D01*
X95479792Y-104627127D01*
X95483149Y-104626766D01*
X95486450Y-104626048D01*
X95532210Y-104616094D01*
X95532215Y-104616093D01*
X95535491Y-104615380D01*
X95639657Y-104580710D01*
X95762612Y-104501692D01*
X95816268Y-104455199D01*
X95871888Y-104391010D01*
X95906081Y-104351550D01*
X95906083Y-104351547D01*
X95911982Y-104344739D01*
X95972698Y-104211790D01*
X95992700Y-104143669D01*
X95997333Y-104111450D01*
X96012861Y-104003447D01*
X96012861Y-104003442D01*
X96013500Y-103999000D01*
X96013500Y-97851000D01*
X96013022Y-97846553D01*
X96002128Y-97745215D01*
X96002127Y-97745208D01*
X96001766Y-97741851D01*
X96001049Y-97738557D01*
X96001047Y-97738542D01*
X95997294Y-97721290D01*
X96002360Y-97650475D01*
X96044908Y-97593640D01*
X96111428Y-97568830D01*
X96180802Y-97583922D01*
X96209510Y-97605414D01*
X97654595Y-99050499D01*
X97688621Y-99112811D01*
X97691500Y-99139594D01*
X97691500Y-106971233D01*
X97690973Y-106982416D01*
X97689298Y-106989909D01*
X97689547Y-106997835D01*
X97689547Y-106997836D01*
X97691438Y-107057986D01*
X97691500Y-107061945D01*
X97691500Y-107089856D01*
X97691997Y-107093790D01*
X97691997Y-107093791D01*
X97692005Y-107093856D01*
X97692938Y-107105693D01*
X97694327Y-107149889D01*
X97699978Y-107169339D01*
X97703987Y-107188700D01*
X97706526Y-107208797D01*
X97709445Y-107216168D01*
X97709445Y-107216170D01*
X97722804Y-107249912D01*
X97726649Y-107261142D01*
X97729761Y-107271855D01*
X97738982Y-107303593D01*
X97743015Y-107310412D01*
X97743017Y-107310417D01*
X97749293Y-107321028D01*
X97757988Y-107338776D01*
X97765448Y-107357617D01*
X97770110Y-107364033D01*
X97770110Y-107364034D01*
X97791436Y-107393387D01*
X97797952Y-107403307D01*
X97820458Y-107441362D01*
X97834779Y-107455683D01*
X97847619Y-107470716D01*
X97859528Y-107487107D01*
X97865634Y-107492158D01*
X97893605Y-107515298D01*
X97902384Y-107523288D01*
X99096343Y-108717247D01*
X99103887Y-108725537D01*
X99108000Y-108732018D01*
X99113777Y-108737443D01*
X99157667Y-108778658D01*
X99160509Y-108781413D01*
X99180230Y-108801134D01*
X99183425Y-108803612D01*
X99192447Y-108811318D01*
X99224679Y-108841586D01*
X99231628Y-108845406D01*
X99242432Y-108851346D01*
X99258956Y-108862199D01*
X99274959Y-108874613D01*
X99315543Y-108892176D01*
X99326173Y-108897383D01*
X99364940Y-108918695D01*
X99372617Y-108920666D01*
X99372622Y-108920668D01*
X99384558Y-108923732D01*
X99403266Y-108930137D01*
X99421855Y-108938181D01*
X99429683Y-108939421D01*
X99429690Y-108939423D01*
X99465524Y-108945099D01*
X99477144Y-108947505D01*
X99512289Y-108956528D01*
X99519970Y-108958500D01*
X99540224Y-108958500D01*
X99559934Y-108960051D01*
X99579943Y-108963220D01*
X99587835Y-108962474D01*
X99594457Y-108962682D01*
X99661916Y-108984814D01*
X99706701Y-109039903D01*
X99716500Y-109088620D01*
X99716500Y-109273134D01*
X99723255Y-109335316D01*
X99774385Y-109471705D01*
X99861739Y-109588261D01*
X99978295Y-109675615D01*
X100114684Y-109726745D01*
X100176866Y-109733500D01*
X102073134Y-109733500D01*
X102135316Y-109726745D01*
X102271705Y-109675615D01*
X102388261Y-109588261D01*
X102475615Y-109471705D01*
X102500180Y-109406178D01*
X102542822Y-109349414D01*
X102609383Y-109324714D01*
X102678732Y-109339921D01*
X102698647Y-109353464D01*
X102763724Y-109407492D01*
X102854349Y-109482730D01*
X103054322Y-109599584D01*
X103270694Y-109682209D01*
X103275760Y-109683240D01*
X103275761Y-109683240D01*
X103328846Y-109694040D01*
X103497656Y-109728385D01*
X103627089Y-109733131D01*
X103723949Y-109736683D01*
X103723953Y-109736683D01*
X103729113Y-109736872D01*
X103734233Y-109736216D01*
X103734235Y-109736216D01*
X103808166Y-109726745D01*
X103958847Y-109707442D01*
X103963795Y-109705957D01*
X103963802Y-109705956D01*
X104175747Y-109642369D01*
X104180690Y-109640886D01*
X104261236Y-109601427D01*
X104384049Y-109541262D01*
X104384052Y-109541260D01*
X104388684Y-109538991D01*
X104577243Y-109404494D01*
X104741303Y-109241005D01*
X104876458Y-109052917D01*
X104910117Y-108984814D01*
X104976784Y-108849922D01*
X104976785Y-108849920D01*
X104979078Y-108845280D01*
X105046408Y-108623671D01*
X105076640Y-108394041D01*
X105078327Y-108325000D01*
X105072032Y-108248434D01*
X105059773Y-108099318D01*
X105059772Y-108099312D01*
X105059349Y-108094167D01*
X105002925Y-107869533D01*
X104910570Y-107657131D01*
X104784764Y-107462665D01*
X104770486Y-107446973D01*
X104735134Y-107408122D01*
X104628887Y-107291358D01*
X104624836Y-107288159D01*
X104624832Y-107288155D01*
X104451177Y-107151011D01*
X104451172Y-107151008D01*
X104447123Y-107147810D01*
X104442607Y-107145317D01*
X104442604Y-107145315D01*
X104248879Y-107038373D01*
X104248875Y-107038371D01*
X104244355Y-107035876D01*
X104239486Y-107034152D01*
X104239482Y-107034150D01*
X104030903Y-106960288D01*
X104030899Y-106960287D01*
X104026028Y-106958562D01*
X104020935Y-106957655D01*
X104020932Y-106957654D01*
X103803095Y-106918851D01*
X103803089Y-106918850D01*
X103798006Y-106917945D01*
X103725096Y-106917054D01*
X103571581Y-106915179D01*
X103571579Y-106915179D01*
X103566411Y-106915116D01*
X103337464Y-106950150D01*
X103117314Y-107022106D01*
X103112726Y-107024494D01*
X103112722Y-107024496D01*
X102916461Y-107126663D01*
X102911872Y-107129052D01*
X102907739Y-107132155D01*
X102907736Y-107132157D01*
X102730790Y-107265012D01*
X102726655Y-107268117D01*
X102709170Y-107286414D01*
X102647646Y-107321844D01*
X102576733Y-107318387D01*
X102518947Y-107277141D01*
X102500094Y-107243592D01*
X102478768Y-107186705D01*
X102478767Y-107186703D01*
X102475615Y-107178295D01*
X102388261Y-107061739D01*
X102271705Y-106974385D01*
X102135316Y-106923255D01*
X102073134Y-106916500D01*
X100176866Y-106916500D01*
X100114684Y-106923255D01*
X99978295Y-106974385D01*
X99861739Y-107061739D01*
X99774385Y-107178295D01*
X99771233Y-107186703D01*
X99771232Y-107186705D01*
X99762950Y-107208797D01*
X99730567Y-107295181D01*
X99727148Y-107304300D01*
X99684507Y-107361065D01*
X99617945Y-107385765D01*
X99548597Y-107370558D01*
X99520071Y-107349166D01*
X98995405Y-106824500D01*
X98961379Y-106762188D01*
X98958500Y-106735405D01*
X98958500Y-98903768D01*
X98959027Y-98892585D01*
X98960702Y-98885092D01*
X98958562Y-98817001D01*
X98958500Y-98813044D01*
X98958500Y-98785144D01*
X98957996Y-98781153D01*
X98957063Y-98769311D01*
X98955923Y-98733036D01*
X98955674Y-98725111D01*
X98950021Y-98705652D01*
X98946012Y-98686293D01*
X98945846Y-98684983D01*
X98943474Y-98666203D01*
X98940558Y-98658837D01*
X98940556Y-98658831D01*
X98927200Y-98625098D01*
X98923355Y-98613868D01*
X98911962Y-98574653D01*
X98912165Y-98503657D01*
X98950719Y-98444040D01*
X99015384Y-98414732D01*
X99032959Y-98413500D01*
X104849000Y-98413500D01*
X104852346Y-98413140D01*
X104852351Y-98413140D01*
X104954785Y-98402128D01*
X104954792Y-98402127D01*
X104958149Y-98401766D01*
X104961450Y-98401048D01*
X105007210Y-98391094D01*
X105007215Y-98391093D01*
X105010491Y-98390380D01*
X105114657Y-98355710D01*
X105237612Y-98276692D01*
X105291268Y-98230199D01*
X105299297Y-98220933D01*
X105381081Y-98126550D01*
X105381083Y-98126547D01*
X105386982Y-98119739D01*
X105447698Y-97986790D01*
X105467700Y-97918669D01*
X105477430Y-97851000D01*
X105487861Y-97778447D01*
X105487861Y-97778442D01*
X105488500Y-97774000D01*
X105488500Y-81007922D01*
X105508502Y-80939801D01*
X105562158Y-80893308D01*
X105626350Y-80882828D01*
X105629513Y-80883500D01*
X105820487Y-80883500D01*
X105826939Y-80882128D01*
X105826944Y-80882128D01*
X105913887Y-80863647D01*
X106007288Y-80843794D01*
X106013319Y-80841109D01*
X106175722Y-80768803D01*
X106175724Y-80768802D01*
X106181752Y-80766118D01*
X106336253Y-80653866D01*
X106464040Y-80511944D01*
X106559527Y-80346556D01*
X106618542Y-80164928D01*
X106638504Y-79975000D01*
X106618542Y-79785072D01*
X106559527Y-79603444D01*
X106464040Y-79438056D01*
X106336253Y-79296134D01*
X106181752Y-79183882D01*
X106175724Y-79181198D01*
X106175722Y-79181197D01*
X106013319Y-79108891D01*
X106013318Y-79108891D01*
X106007288Y-79106206D01*
X105913887Y-79086353D01*
X105826944Y-79067872D01*
X105826939Y-79067872D01*
X105820487Y-79066500D01*
X105629513Y-79066500D01*
X105626415Y-79067158D01*
X105557833Y-79054616D01*
X105505986Y-79006114D01*
X105488500Y-78942078D01*
X105488500Y-78907555D01*
X105508502Y-78839434D01*
X105562158Y-78792941D01*
X105632432Y-78782837D01*
X105640697Y-78784308D01*
X105748056Y-78807128D01*
X105748061Y-78807128D01*
X105754513Y-78808500D01*
X105945487Y-78808500D01*
X105951939Y-78807128D01*
X105951944Y-78807128D01*
X106038888Y-78788647D01*
X106132288Y-78768794D01*
X106138319Y-78766109D01*
X106300722Y-78693803D01*
X106300724Y-78693802D01*
X106306752Y-78691118D01*
X106461253Y-78578866D01*
X106589040Y-78436944D01*
X106684527Y-78271556D01*
X106743542Y-78089928D01*
X106763504Y-77900000D01*
X106743542Y-77710072D01*
X106684527Y-77528444D01*
X106589040Y-77363056D01*
X106461253Y-77221134D01*
X106306752Y-77108882D01*
X106300724Y-77106198D01*
X106300722Y-77106197D01*
X106138319Y-77033891D01*
X106138318Y-77033891D01*
X106132288Y-77031206D01*
X106033887Y-77010290D01*
X105951944Y-76992872D01*
X105951939Y-76992872D01*
X105945487Y-76991500D01*
X105754513Y-76991500D01*
X105748061Y-76992872D01*
X105748056Y-76992872D01*
X105640697Y-77015692D01*
X105569906Y-77010290D01*
X105513273Y-76967473D01*
X105488780Y-76900835D01*
X105488500Y-76892445D01*
X105488500Y-76784500D01*
X105508502Y-76716379D01*
X105562158Y-76669886D01*
X105614500Y-76658500D01*
X105795487Y-76658500D01*
X105801939Y-76657128D01*
X105801944Y-76657128D01*
X105888888Y-76638647D01*
X105982288Y-76618794D01*
X105988319Y-76616109D01*
X106150722Y-76543803D01*
X106150724Y-76543802D01*
X106156752Y-76541118D01*
X106311253Y-76428866D01*
X106439040Y-76286944D01*
X106534527Y-76121556D01*
X106593542Y-75939928D01*
X106613504Y-75750000D01*
X106593542Y-75560072D01*
X106534527Y-75378444D01*
X106439040Y-75213056D01*
X106311253Y-75071134D01*
X106156752Y-74958882D01*
X106150724Y-74956198D01*
X106150722Y-74956197D01*
X105988319Y-74883891D01*
X105988318Y-74883891D01*
X105982288Y-74881206D01*
X105888887Y-74861353D01*
X105801944Y-74842872D01*
X105801939Y-74842872D01*
X105795487Y-74841500D01*
X105614500Y-74841500D01*
X105546379Y-74821498D01*
X105499886Y-74767842D01*
X105488500Y-74715500D01*
X105488500Y-65926000D01*
X105476766Y-65816851D01*
X105476048Y-65813550D01*
X105466094Y-65767790D01*
X105466093Y-65767785D01*
X105465380Y-65764509D01*
X105430710Y-65660343D01*
X105351692Y-65537388D01*
X105305199Y-65483732D01*
X105295933Y-65475703D01*
X105201550Y-65393919D01*
X105201547Y-65393917D01*
X105194739Y-65388018D01*
X105061790Y-65327302D01*
X105038036Y-65320327D01*
X104997992Y-65308569D01*
X104997988Y-65308568D01*
X104993669Y-65307300D01*
X104989220Y-65306660D01*
X104989214Y-65306659D01*
X104853447Y-65287139D01*
X104853442Y-65287139D01*
X104849000Y-65286500D01*
X71626000Y-65286500D01*
X71622654Y-65286860D01*
X71622649Y-65286860D01*
X71520215Y-65297872D01*
X71520208Y-65297873D01*
X71516851Y-65298234D01*
X71513551Y-65298952D01*
X71513550Y-65298952D01*
X71467790Y-65308906D01*
X71467785Y-65308907D01*
X71464509Y-65309620D01*
X71360343Y-65344290D01*
X71237388Y-65423308D01*
X71183732Y-65469801D01*
X71180792Y-65473194D01*
X71093919Y-65573450D01*
X71093917Y-65573453D01*
X71088018Y-65580261D01*
X71027302Y-65713210D01*
X71007300Y-65781331D01*
X71006660Y-65785780D01*
X71006659Y-65785786D01*
X71002193Y-65816851D01*
X70986500Y-65926000D01*
X70986500Y-70999000D01*
X65650000Y-70999000D01*
X65650000Y-60976000D01*
X65670002Y-60907879D01*
X65723658Y-60861386D01*
X65776000Y-60850000D01*
X206224000Y-60850000D01*
X206292121Y-60870002D01*
G37*
%TD.AperFunction*%
%TA.AperFunction,Conductor*%
G36*
X100829875Y-90752196D02*
G01*
X100992608Y-90781623D01*
X100992615Y-90781624D01*
X100996692Y-90782361D01*
X101014414Y-90783197D01*
X101019356Y-90783430D01*
X101019363Y-90783430D01*
X101020844Y-90783500D01*
X101482890Y-90783500D01*
X101561581Y-90776823D01*
X101649409Y-90769371D01*
X101649413Y-90769370D01*
X101654720Y-90768920D01*
X101659877Y-90767582D01*
X101659880Y-90767581D01*
X101698473Y-90757564D01*
X101707130Y-90755317D01*
X101778091Y-90757564D01*
X101836572Y-90797819D01*
X101843483Y-90807175D01*
X101923480Y-90926654D01*
X101926485Y-90929993D01*
X101967961Y-90976080D01*
X101967966Y-90976084D01*
X101970972Y-90979425D01*
X101974426Y-90982306D01*
X101974428Y-90982308D01*
X102079754Y-91070162D01*
X102079759Y-91070165D01*
X102083211Y-91073045D01*
X102087046Y-91075409D01*
X102165382Y-91123697D01*
X102188281Y-91141781D01*
X102207929Y-91161394D01*
X102226056Y-91184264D01*
X102240660Y-91207863D01*
X102253040Y-91234290D01*
X102263209Y-91264772D01*
X102269010Y-91291631D01*
X102269326Y-91294674D01*
X102270000Y-91307688D01*
X102270000Y-92542720D01*
X102269342Y-92555583D01*
X102269107Y-92557873D01*
X102263359Y-92584675D01*
X102253199Y-92615308D01*
X102240864Y-92641760D01*
X102226301Y-92665385D01*
X102208215Y-92688286D01*
X102188605Y-92707930D01*
X102165738Y-92726055D01*
X102142134Y-92740662D01*
X102115710Y-92753040D01*
X102085228Y-92763209D01*
X102058369Y-92769010D01*
X102055326Y-92769326D01*
X102042312Y-92770000D01*
X100507280Y-92770000D01*
X100494421Y-92769342D01*
X100493256Y-92769223D01*
X100492127Y-92769107D01*
X100465325Y-92763359D01*
X100464873Y-92763209D01*
X100434689Y-92753198D01*
X100408240Y-92740864D01*
X100384615Y-92726301D01*
X100361714Y-92708215D01*
X100342070Y-92688605D01*
X100323945Y-92665738D01*
X100323727Y-92665385D01*
X100309338Y-92642134D01*
X100296960Y-92615710D01*
X100286791Y-92585228D01*
X100280990Y-92558369D01*
X100280674Y-92555326D01*
X100280000Y-92542312D01*
X100280000Y-91307280D01*
X100280658Y-91294417D01*
X100280893Y-91292127D01*
X100286641Y-91265325D01*
X100296801Y-91234692D01*
X100309136Y-91208240D01*
X100323699Y-91184615D01*
X100341785Y-91161714D01*
X100361395Y-91142070D01*
X100384264Y-91123944D01*
X100465495Y-91073676D01*
X100465498Y-91073674D01*
X100466744Y-91072903D01*
X100506340Y-91045762D01*
X100525110Y-91031562D01*
X100526233Y-91030627D01*
X100557425Y-91004649D01*
X100557428Y-91004646D01*
X100562011Y-91000829D01*
X100595010Y-90960584D01*
X100651832Y-90891283D01*
X100651833Y-90891282D01*
X100654682Y-90887807D01*
X100691426Y-90827058D01*
X100693182Y-90822917D01*
X100695232Y-90818908D01*
X100697301Y-90819966D01*
X100736197Y-90772269D01*
X100803690Y-90750241D01*
X100829875Y-90752196D01*
G37*
%TD.AperFunction*%
%TD*%
%TA.AperFunction,Conductor*%
%TO.N,LED+*%
G36*
X94100000Y-104125000D02*
G01*
X90026000Y-104125000D01*
X89957879Y-104104998D01*
X89911386Y-104051342D01*
X89900000Y-103999000D01*
X89900000Y-102526000D01*
X89920002Y-102457879D01*
X89973658Y-102411386D01*
X90026000Y-102400000D01*
X94100000Y-102400000D01*
X94100000Y-104125000D01*
G37*
%TD.AperFunction*%
%TD*%
%TA.AperFunction,Conductor*%
%TO.N,LED+*%
G36*
X104917121Y-65820002D02*
G01*
X104963614Y-65873658D01*
X104975000Y-65926000D01*
X104975000Y-71125000D01*
X71626000Y-71125000D01*
X71557879Y-71104998D01*
X71511386Y-71051342D01*
X71500000Y-70999000D01*
X71500000Y-65926000D01*
X71520002Y-65857879D01*
X71573658Y-65811386D01*
X71626000Y-65800000D01*
X104849000Y-65800000D01*
X104917121Y-65820002D01*
G37*
%TD.AperFunction*%
%TD*%
M02*
