M48
; DRILL file {KiCad (6.0.7)} date Thu Jan 12 19:29:38 2023
; FORMAT={-:-/ absolute / metric / decimal}
; #@! TF.CreationDate,2023-01-12T19:29:38+03:00
; #@! TF.GenerationSoftware,Kicad,Pcbnew,(6.0.7)
; #@! TF.FileFunction,MixedPlating,1,4
FMAT,2
METRIC
; #@! TA.AperFunction,Plated,PTH,ComponentDrill
T1C0.300
; #@! TA.AperFunction,Plated,PTH,ViaDrill
T2C0.400
; #@! TA.AperFunction,Plated,PTH,ComponentDrill
T3C0.500
; #@! TA.AperFunction,Plated,PTH,ComponentDrill
T4C0.900
; #@! TA.AperFunction,Plated,PTH,ComponentDrill
T5C1.000
; #@! TA.AperFunction,Plated,PTH,ComponentDrill
T6C2.500
%
G90
G05
T1
X86.225Y-86.4
X86.225Y-87.15
X86.225Y-87.9
X86.975Y-86.4
X86.975Y-87.15
X86.975Y-87.9
X87.725Y-86.4
X87.725Y-87.15
X87.725Y-87.9
T2
X73.025Y-68.375
X75.425Y-68.35
X77.7Y-68.375
X79.625Y-86.525
X79.85Y-68.375
X80.25Y-83.85
X80.475Y-96.55
X81.55Y-75.875
X81.875Y-96.55
X82.05Y-68.35
X83.225Y-96.55
X83.525Y-83.775
X84.125Y-68.325
X85.275Y-75.875
X85.65Y-97.4
X86.275Y-83.05
X86.325Y-68.35
X86.525Y-98.55
X87.65Y-83.05
X88.75Y-75.85
X89.75Y-90.375
X90.5Y-87.0
X90.5Y-88.125
X91.175Y-103.25
X92.275Y-98.425
X93.275Y-92.25
X93.5Y-98.425
X94.9Y-98.45
X100.65Y-95.075
X100.65Y-96.525
X102.025Y-75.7
X102.05Y-77.925
X102.125Y-79.95
X103.9Y-75.75
X103.925Y-77.875
X103.975Y-79.9
X103.975Y-96.6
X104.0Y-95.1
X105.7Y-75.75
X105.725Y-79.975
X105.85Y-77.9
T3
X66.575Y-63.575
X66.575Y-110.05
X67.124Y-62.249
X67.124Y-64.901
X67.124Y-108.724
X67.124Y-111.376
X68.45Y-61.7
X68.45Y-65.45
X68.45Y-108.175
X68.45Y-111.925
X69.776Y-62.249
X69.776Y-64.901
X69.776Y-108.724
X69.776Y-111.376
X70.325Y-63.575
X70.325Y-110.05
X201.7Y-63.625
X201.75Y-110.125
X202.249Y-62.299
X202.249Y-64.951
X202.299Y-108.799
X202.299Y-111.451
X203.575Y-61.75
X203.575Y-65.5
X203.625Y-108.25
X203.625Y-112.0
X204.901Y-62.299
X204.901Y-64.951
X204.951Y-108.799
X204.951Y-111.451
X205.45Y-63.625
X205.5Y-110.125
T4
X85.525Y-108.325
X88.065Y-108.325
X101.125Y-108.325
X103.665Y-108.325
T5
X96.975Y-91.85
X97.075Y-82.15
X101.275Y-89.425
X101.275Y-91.925
T6
X68.45Y-63.575
X68.45Y-110.05
X203.575Y-63.625
X203.625Y-110.125
T0
M30
