%TF.GenerationSoftware,KiCad,Pcbnew,(6.0.7)*%
%TF.CreationDate,2023-01-12T19:29:25+03:00*%
%TF.ProjectId,Wireless Power Receiver & Charger,57697265-6c65-4737-9320-506f77657220,rev?*%
%TF.SameCoordinates,Original*%
%TF.FileFunction,Copper,L3,Inr*%
%TF.FilePolarity,Positive*%
%FSLAX46Y46*%
G04 Gerber Fmt 4.6, Leading zero omitted, Abs format (unit mm)*
G04 Created by KiCad (PCBNEW (6.0.7)) date 2023-01-12 19:29:25*
%MOMM*%
%LPD*%
G01*
G04 APERTURE LIST*
G04 Aperture macros list*
%AMRoundRect*
0 Rectangle with rounded corners*
0 $1 Rounding radius*
0 $2 $3 $4 $5 $6 $7 $8 $9 X,Y pos of 4 corners*
0 Add a 4 corners polygon primitive as box body*
4,1,4,$2,$3,$4,$5,$6,$7,$8,$9,$2,$3,0*
0 Add four circle primitives for the rounded corners*
1,1,$1+$1,$2,$3*
1,1,$1+$1,$4,$5*
1,1,$1+$1,$6,$7*
1,1,$1+$1,$8,$9*
0 Add four rect primitives between the rounded corners*
20,1,$1+$1,$2,$3,$4,$5,0*
20,1,$1+$1,$4,$5,$6,$7,0*
20,1,$1+$1,$6,$7,$8,$9,0*
20,1,$1+$1,$8,$9,$2,$3,0*%
G04 Aperture macros list end*
%ADD10C,0.100000*%
%ADD11C,0.150000*%
%ADD12C,0.300000*%
%ADD13C,0.400000*%
%TA.AperFunction,Profile*%
%ADD14C,0.100000*%
%TD*%
%TA.AperFunction,ComponentPad*%
%ADD15C,0.800000*%
%TD*%
%TA.AperFunction,ComponentPad*%
%ADD16C,5.000000*%
%TD*%
%TA.AperFunction,ComponentPad*%
%ADD17R,1.800000X1.800000*%
%TD*%
%TA.AperFunction,ComponentPad*%
%ADD18C,1.800000*%
%TD*%
%TA.AperFunction,ComponentPad*%
%ADD19C,0.600000*%
%TD*%
%TA.AperFunction,ComponentPad*%
%ADD20RoundRect,0.250000X0.750000X-0.600000X0.750000X0.600000X-0.750000X0.600000X-0.750000X-0.600000X0*%
%TD*%
%TA.AperFunction,ComponentPad*%
%ADD21O,2.000000X1.700000*%
%TD*%
%TA.AperFunction,ComponentPad*%
%ADD22C,2.000000*%
%TD*%
%TA.AperFunction,ViaPad*%
%ADD23C,0.800000*%
%TD*%
G04 APERTURE END LIST*
D10*
D11*
X177002200Y-166007200D02*
X177002200Y-198007200D01*
X285002200Y-198007200D01*
X285002200Y-166007200D01*
X177002200Y-166007200D01*
D10*
D11*
X10000000Y-10000000D02*
X10000000Y-200007200D01*
X287002200Y-200007200D01*
X287002200Y-10000000D01*
X10000000Y-10000000D01*
D10*
D11*
X12000000Y-12000000D02*
X12000000Y-198007200D01*
X285002200Y-198007200D01*
X285002200Y-12000000D01*
X12000000Y-12000000D01*
D10*
D11*
X60000000Y-12000000D02*
X60000000Y-10000000D01*
D10*
D11*
X110000000Y-12000000D02*
X110000000Y-10000000D01*
D10*
D11*
X160000000Y-12000000D02*
X160000000Y-10000000D01*
D10*
D11*
X210000000Y-12000000D02*
X210000000Y-10000000D01*
D10*
D11*
X260000000Y-12000000D02*
X260000000Y-10000000D01*
D10*
D11*
X36065476Y-11588095D02*
X35322619Y-11588095D01*
X35694047Y-11588095D02*
X35694047Y-10288095D01*
X35570238Y-10473809D01*
X35446428Y-10597619D01*
X35322619Y-10659523D01*
D10*
D11*
X85322619Y-10411904D02*
X85384523Y-10350000D01*
X85508333Y-10288095D01*
X85817857Y-10288095D01*
X85941666Y-10350000D01*
X86003571Y-10411904D01*
X86065476Y-10535714D01*
X86065476Y-10659523D01*
X86003571Y-10845238D01*
X85260714Y-11588095D01*
X86065476Y-11588095D01*
D10*
D11*
X135260714Y-10288095D02*
X136065476Y-10288095D01*
X135632142Y-10783333D01*
X135817857Y-10783333D01*
X135941666Y-10845238D01*
X136003571Y-10907142D01*
X136065476Y-11030952D01*
X136065476Y-11340476D01*
X136003571Y-11464285D01*
X135941666Y-11526190D01*
X135817857Y-11588095D01*
X135446428Y-11588095D01*
X135322619Y-11526190D01*
X135260714Y-11464285D01*
D10*
D11*
X185941666Y-10721428D02*
X185941666Y-11588095D01*
X185632142Y-10226190D02*
X185322619Y-11154761D01*
X186127380Y-11154761D01*
D10*
D11*
X236003571Y-10288095D02*
X235384523Y-10288095D01*
X235322619Y-10907142D01*
X235384523Y-10845238D01*
X235508333Y-10783333D01*
X235817857Y-10783333D01*
X235941666Y-10845238D01*
X236003571Y-10907142D01*
X236065476Y-11030952D01*
X236065476Y-11340476D01*
X236003571Y-11464285D01*
X235941666Y-11526190D01*
X235817857Y-11588095D01*
X235508333Y-11588095D01*
X235384523Y-11526190D01*
X235322619Y-11464285D01*
D10*
D11*
X285941666Y-10288095D02*
X285694047Y-10288095D01*
X285570238Y-10350000D01*
X285508333Y-10411904D01*
X285384523Y-10597619D01*
X285322619Y-10845238D01*
X285322619Y-11340476D01*
X285384523Y-11464285D01*
X285446428Y-11526190D01*
X285570238Y-11588095D01*
X285817857Y-11588095D01*
X285941666Y-11526190D01*
X286003571Y-11464285D01*
X286065476Y-11340476D01*
X286065476Y-11030952D01*
X286003571Y-10907142D01*
X285941666Y-10845238D01*
X285817857Y-10783333D01*
X285570238Y-10783333D01*
X285446428Y-10845238D01*
X285384523Y-10907142D01*
X285322619Y-11030952D01*
D10*
D11*
X60000000Y-198007200D02*
X60000000Y-200007200D01*
D10*
D11*
X110000000Y-198007200D02*
X110000000Y-200007200D01*
D10*
D11*
X160000000Y-198007200D02*
X160000000Y-200007200D01*
D10*
D11*
X210000000Y-198007200D02*
X210000000Y-200007200D01*
D10*
D11*
X260000000Y-198007200D02*
X260000000Y-200007200D01*
D10*
D11*
X36065476Y-199595295D02*
X35322619Y-199595295D01*
X35694047Y-199595295D02*
X35694047Y-198295295D01*
X35570238Y-198481009D01*
X35446428Y-198604819D01*
X35322619Y-198666723D01*
D10*
D11*
X85322619Y-198419104D02*
X85384523Y-198357200D01*
X85508333Y-198295295D01*
X85817857Y-198295295D01*
X85941666Y-198357200D01*
X86003571Y-198419104D01*
X86065476Y-198542914D01*
X86065476Y-198666723D01*
X86003571Y-198852438D01*
X85260714Y-199595295D01*
X86065476Y-199595295D01*
D10*
D11*
X135260714Y-198295295D02*
X136065476Y-198295295D01*
X135632142Y-198790533D01*
X135817857Y-198790533D01*
X135941666Y-198852438D01*
X136003571Y-198914342D01*
X136065476Y-199038152D01*
X136065476Y-199347676D01*
X136003571Y-199471485D01*
X135941666Y-199533390D01*
X135817857Y-199595295D01*
X135446428Y-199595295D01*
X135322619Y-199533390D01*
X135260714Y-199471485D01*
D10*
D11*
X185941666Y-198728628D02*
X185941666Y-199595295D01*
X185632142Y-198233390D02*
X185322619Y-199161961D01*
X186127380Y-199161961D01*
D10*
D11*
X236003571Y-198295295D02*
X235384523Y-198295295D01*
X235322619Y-198914342D01*
X235384523Y-198852438D01*
X235508333Y-198790533D01*
X235817857Y-198790533D01*
X235941666Y-198852438D01*
X236003571Y-198914342D01*
X236065476Y-199038152D01*
X236065476Y-199347676D01*
X236003571Y-199471485D01*
X235941666Y-199533390D01*
X235817857Y-199595295D01*
X235508333Y-199595295D01*
X235384523Y-199533390D01*
X235322619Y-199471485D01*
D10*
D11*
X285941666Y-198295295D02*
X285694047Y-198295295D01*
X285570238Y-198357200D01*
X285508333Y-198419104D01*
X285384523Y-198604819D01*
X285322619Y-198852438D01*
X285322619Y-199347676D01*
X285384523Y-199471485D01*
X285446428Y-199533390D01*
X285570238Y-199595295D01*
X285817857Y-199595295D01*
X285941666Y-199533390D01*
X286003571Y-199471485D01*
X286065476Y-199347676D01*
X286065476Y-199038152D01*
X286003571Y-198914342D01*
X285941666Y-198852438D01*
X285817857Y-198790533D01*
X285570238Y-198790533D01*
X285446428Y-198852438D01*
X285384523Y-198914342D01*
X285322619Y-199038152D01*
D10*
D11*
X10000000Y-60000000D02*
X12000000Y-60000000D01*
D10*
D11*
X10000000Y-110000000D02*
X12000000Y-110000000D01*
D10*
D11*
X10000000Y-160000000D02*
X12000000Y-160000000D01*
D10*
D11*
X10690476Y-35216666D02*
X11309523Y-35216666D01*
X10566666Y-35588095D02*
X11000000Y-34288095D01*
X11433333Y-35588095D01*
D10*
D11*
X11092857Y-84907142D02*
X11278571Y-84969047D01*
X11340476Y-85030952D01*
X11402380Y-85154761D01*
X11402380Y-85340476D01*
X11340476Y-85464285D01*
X11278571Y-85526190D01*
X11154761Y-85588095D01*
X10659523Y-85588095D01*
X10659523Y-84288095D01*
X11092857Y-84288095D01*
X11216666Y-84350000D01*
X11278571Y-84411904D01*
X11340476Y-84535714D01*
X11340476Y-84659523D01*
X11278571Y-84783333D01*
X11216666Y-84845238D01*
X11092857Y-84907142D01*
X10659523Y-84907142D01*
D10*
D11*
X11402380Y-135464285D02*
X11340476Y-135526190D01*
X11154761Y-135588095D01*
X11030952Y-135588095D01*
X10845238Y-135526190D01*
X10721428Y-135402380D01*
X10659523Y-135278571D01*
X10597619Y-135030952D01*
X10597619Y-134845238D01*
X10659523Y-134597619D01*
X10721428Y-134473809D01*
X10845238Y-134350000D01*
X11030952Y-134288095D01*
X11154761Y-134288095D01*
X11340476Y-134350000D01*
X11402380Y-134411904D01*
D10*
D11*
X10659523Y-185588095D02*
X10659523Y-184288095D01*
X10969047Y-184288095D01*
X11154761Y-184350000D01*
X11278571Y-184473809D01*
X11340476Y-184597619D01*
X11402380Y-184845238D01*
X11402380Y-185030952D01*
X11340476Y-185278571D01*
X11278571Y-185402380D01*
X11154761Y-185526190D01*
X10969047Y-185588095D01*
X10659523Y-185588095D01*
D10*
D11*
X287002200Y-60000000D02*
X285002200Y-60000000D01*
D10*
D11*
X287002200Y-110000000D02*
X285002200Y-110000000D01*
D10*
D11*
X287002200Y-160000000D02*
X285002200Y-160000000D01*
D10*
D11*
X285692676Y-35216666D02*
X286311723Y-35216666D01*
X285568866Y-35588095D02*
X286002200Y-34288095D01*
X286435533Y-35588095D01*
D10*
D11*
X286095057Y-84907142D02*
X286280771Y-84969047D01*
X286342676Y-85030952D01*
X286404580Y-85154761D01*
X286404580Y-85340476D01*
X286342676Y-85464285D01*
X286280771Y-85526190D01*
X286156961Y-85588095D01*
X285661723Y-85588095D01*
X285661723Y-84288095D01*
X286095057Y-84288095D01*
X286218866Y-84350000D01*
X286280771Y-84411904D01*
X286342676Y-84535714D01*
X286342676Y-84659523D01*
X286280771Y-84783333D01*
X286218866Y-84845238D01*
X286095057Y-84907142D01*
X285661723Y-84907142D01*
D10*
D11*
X286404580Y-135464285D02*
X286342676Y-135526190D01*
X286156961Y-135588095D01*
X286033152Y-135588095D01*
X285847438Y-135526190D01*
X285723628Y-135402380D01*
X285661723Y-135278571D01*
X285599819Y-135030952D01*
X285599819Y-134845238D01*
X285661723Y-134597619D01*
X285723628Y-134473809D01*
X285847438Y-134350000D01*
X286033152Y-134288095D01*
X286156961Y-134288095D01*
X286342676Y-134350000D01*
X286404580Y-134411904D01*
D10*
D11*
X285661723Y-185588095D02*
X285661723Y-184288095D01*
X285971247Y-184288095D01*
X286156961Y-184350000D01*
X286280771Y-184473809D01*
X286342676Y-184597619D01*
X286404580Y-184845238D01*
X286404580Y-185030952D01*
X286342676Y-185278571D01*
X286280771Y-185402380D01*
X286156961Y-185526190D01*
X285971247Y-185588095D01*
X285661723Y-185588095D01*
D10*
D11*
X200434342Y-193785771D02*
X200434342Y-192285771D01*
X200791485Y-192285771D01*
X201005771Y-192357200D01*
X201148628Y-192500057D01*
X201220057Y-192642914D01*
X201291485Y-192928628D01*
X201291485Y-193142914D01*
X201220057Y-193428628D01*
X201148628Y-193571485D01*
X201005771Y-193714342D01*
X200791485Y-193785771D01*
X200434342Y-193785771D01*
X202577200Y-193785771D02*
X202577200Y-193000057D01*
X202505771Y-192857200D01*
X202362914Y-192785771D01*
X202077200Y-192785771D01*
X201934342Y-192857200D01*
X202577200Y-193714342D02*
X202434342Y-193785771D01*
X202077200Y-193785771D01*
X201934342Y-193714342D01*
X201862914Y-193571485D01*
X201862914Y-193428628D01*
X201934342Y-193285771D01*
X202077200Y-193214342D01*
X202434342Y-193214342D01*
X202577200Y-193142914D01*
X203077200Y-192785771D02*
X203648628Y-192785771D01*
X203291485Y-192285771D02*
X203291485Y-193571485D01*
X203362914Y-193714342D01*
X203505771Y-193785771D01*
X203648628Y-193785771D01*
X204720057Y-193714342D02*
X204577200Y-193785771D01*
X204291485Y-193785771D01*
X204148628Y-193714342D01*
X204077200Y-193571485D01*
X204077200Y-193000057D01*
X204148628Y-192857200D01*
X204291485Y-192785771D01*
X204577200Y-192785771D01*
X204720057Y-192857200D01*
X204791485Y-193000057D01*
X204791485Y-193142914D01*
X204077200Y-193285771D01*
X205434342Y-193642914D02*
X205505771Y-193714342D01*
X205434342Y-193785771D01*
X205362914Y-193714342D01*
X205434342Y-193642914D01*
X205434342Y-193785771D01*
X205434342Y-192857200D02*
X205505771Y-192928628D01*
X205434342Y-193000057D01*
X205362914Y-192928628D01*
X205434342Y-192857200D01*
X205434342Y-193000057D01*
X207220057Y-192428628D02*
X207291485Y-192357200D01*
X207434342Y-192285771D01*
X207791485Y-192285771D01*
X207934342Y-192357200D01*
X208005771Y-192428628D01*
X208077200Y-192571485D01*
X208077200Y-192714342D01*
X208005771Y-192928628D01*
X207148628Y-193785771D01*
X208077200Y-193785771D01*
X209005771Y-192285771D02*
X209148628Y-192285771D01*
X209291485Y-192357200D01*
X209362914Y-192428628D01*
X209434342Y-192571485D01*
X209505771Y-192857200D01*
X209505771Y-193214342D01*
X209434342Y-193500057D01*
X209362914Y-193642914D01*
X209291485Y-193714342D01*
X209148628Y-193785771D01*
X209005771Y-193785771D01*
X208862914Y-193714342D01*
X208791485Y-193642914D01*
X208720057Y-193500057D01*
X208648628Y-193214342D01*
X208648628Y-192857200D01*
X208720057Y-192571485D01*
X208791485Y-192428628D01*
X208862914Y-192357200D01*
X209005771Y-192285771D01*
X210077200Y-192428628D02*
X210148628Y-192357200D01*
X210291485Y-192285771D01*
X210648628Y-192285771D01*
X210791485Y-192357200D01*
X210862914Y-192428628D01*
X210934342Y-192571485D01*
X210934342Y-192714342D01*
X210862914Y-192928628D01*
X210005771Y-193785771D01*
X210934342Y-193785771D01*
X211434342Y-192285771D02*
X212362914Y-192285771D01*
X211862914Y-192857200D01*
X212077200Y-192857200D01*
X212220057Y-192928628D01*
X212291485Y-193000057D01*
X212362914Y-193142914D01*
X212362914Y-193500057D01*
X212291485Y-193642914D01*
X212220057Y-193714342D01*
X212077200Y-193785771D01*
X211648628Y-193785771D01*
X211505771Y-193714342D01*
X211434342Y-193642914D01*
X213005771Y-193214342D02*
X214148628Y-193214342D01*
X215148628Y-192285771D02*
X215291485Y-192285771D01*
X215434342Y-192357200D01*
X215505771Y-192428628D01*
X215577200Y-192571485D01*
X215648628Y-192857200D01*
X215648628Y-193214342D01*
X215577200Y-193500057D01*
X215505771Y-193642914D01*
X215434342Y-193714342D01*
X215291485Y-193785771D01*
X215148628Y-193785771D01*
X215005771Y-193714342D01*
X214934342Y-193642914D01*
X214862914Y-193500057D01*
X214791485Y-193214342D01*
X214791485Y-192857200D01*
X214862914Y-192571485D01*
X214934342Y-192428628D01*
X215005771Y-192357200D01*
X215148628Y-192285771D01*
X217077200Y-193785771D02*
X216220057Y-193785771D01*
X216648628Y-193785771D02*
X216648628Y-192285771D01*
X216505771Y-192500057D01*
X216362914Y-192642914D01*
X216220057Y-192714342D01*
X217720057Y-193214342D02*
X218862914Y-193214342D01*
X220362914Y-193785771D02*
X219505771Y-193785771D01*
X219934342Y-193785771D02*
X219934342Y-192285771D01*
X219791485Y-192500057D01*
X219648628Y-192642914D01*
X219505771Y-192714342D01*
X221291485Y-192285771D02*
X221434342Y-192285771D01*
X221577200Y-192357200D01*
X221648628Y-192428628D01*
X221720057Y-192571485D01*
X221791485Y-192857200D01*
X221791485Y-193214342D01*
X221720057Y-193500057D01*
X221648628Y-193642914D01*
X221577200Y-193714342D01*
X221434342Y-193785771D01*
X221291485Y-193785771D01*
X221148628Y-193714342D01*
X221077200Y-193642914D01*
X221005771Y-193500057D01*
X220934342Y-193214342D01*
X220934342Y-192857200D01*
X221005771Y-192571485D01*
X221077200Y-192428628D01*
X221148628Y-192357200D01*
X221291485Y-192285771D01*
D10*
D11*
X177002200Y-194507200D02*
X285002200Y-194507200D01*
D10*
D11*
X178434342Y-196585771D02*
X178434342Y-195085771D01*
X179291485Y-196585771D02*
X178648628Y-195728628D01*
X179291485Y-195085771D02*
X178434342Y-195942914D01*
X179934342Y-196585771D02*
X179934342Y-195585771D01*
X179934342Y-195085771D02*
X179862914Y-195157200D01*
X179934342Y-195228628D01*
X180005771Y-195157200D01*
X179934342Y-195085771D01*
X179934342Y-195228628D01*
X181505771Y-196442914D02*
X181434342Y-196514342D01*
X181220057Y-196585771D01*
X181077200Y-196585771D01*
X180862914Y-196514342D01*
X180720057Y-196371485D01*
X180648628Y-196228628D01*
X180577200Y-195942914D01*
X180577200Y-195728628D01*
X180648628Y-195442914D01*
X180720057Y-195300057D01*
X180862914Y-195157200D01*
X181077200Y-195085771D01*
X181220057Y-195085771D01*
X181434342Y-195157200D01*
X181505771Y-195228628D01*
X182791485Y-196585771D02*
X182791485Y-195800057D01*
X182720057Y-195657200D01*
X182577200Y-195585771D01*
X182291485Y-195585771D01*
X182148628Y-195657200D01*
X182791485Y-196514342D02*
X182648628Y-196585771D01*
X182291485Y-196585771D01*
X182148628Y-196514342D01*
X182077200Y-196371485D01*
X182077200Y-196228628D01*
X182148628Y-196085771D01*
X182291485Y-196014342D01*
X182648628Y-196014342D01*
X182791485Y-195942914D01*
X184148628Y-196585771D02*
X184148628Y-195085771D01*
X184148628Y-196514342D02*
X184005771Y-196585771D01*
X183720057Y-196585771D01*
X183577200Y-196514342D01*
X183505771Y-196442914D01*
X183434342Y-196300057D01*
X183434342Y-195871485D01*
X183505771Y-195728628D01*
X183577200Y-195657200D01*
X183720057Y-195585771D01*
X184005771Y-195585771D01*
X184148628Y-195657200D01*
X186005771Y-195800057D02*
X186505771Y-195800057D01*
X186720057Y-196585771D02*
X186005771Y-196585771D01*
X186005771Y-195085771D01*
X186720057Y-195085771D01*
X187362914Y-196442914D02*
X187434342Y-196514342D01*
X187362914Y-196585771D01*
X187291485Y-196514342D01*
X187362914Y-196442914D01*
X187362914Y-196585771D01*
X188077200Y-196585771D02*
X188077200Y-195085771D01*
X188434342Y-195085771D01*
X188648628Y-195157200D01*
X188791485Y-195300057D01*
X188862914Y-195442914D01*
X188934342Y-195728628D01*
X188934342Y-195942914D01*
X188862914Y-196228628D01*
X188791485Y-196371485D01*
X188648628Y-196514342D01*
X188434342Y-196585771D01*
X188077200Y-196585771D01*
X189577200Y-196442914D02*
X189648628Y-196514342D01*
X189577200Y-196585771D01*
X189505771Y-196514342D01*
X189577200Y-196442914D01*
X189577200Y-196585771D01*
X190220057Y-196157200D02*
X190934342Y-196157200D01*
X190077200Y-196585771D02*
X190577200Y-195085771D01*
X191077200Y-196585771D01*
X191577200Y-196442914D02*
X191648628Y-196514342D01*
X191577200Y-196585771D01*
X191505771Y-196514342D01*
X191577200Y-196442914D01*
X191577200Y-196585771D01*
X194577200Y-196585771D02*
X194577200Y-195085771D01*
X194720057Y-196014342D02*
X195148628Y-196585771D01*
X195148628Y-195585771D02*
X194577200Y-196157200D01*
X195791485Y-196585771D02*
X195791485Y-195585771D01*
X195791485Y-195085771D02*
X195720057Y-195157200D01*
X195791485Y-195228628D01*
X195862914Y-195157200D01*
X195791485Y-195085771D01*
X195791485Y-195228628D01*
X197148628Y-196514342D02*
X197005771Y-196585771D01*
X196720057Y-196585771D01*
X196577200Y-196514342D01*
X196505771Y-196442914D01*
X196434342Y-196300057D01*
X196434342Y-195871485D01*
X196505771Y-195728628D01*
X196577200Y-195657200D01*
X196720057Y-195585771D01*
X197005771Y-195585771D01*
X197148628Y-195657200D01*
X198434342Y-196585771D02*
X198434342Y-195800057D01*
X198362914Y-195657200D01*
X198220057Y-195585771D01*
X197934342Y-195585771D01*
X197791485Y-195657200D01*
X198434342Y-196514342D02*
X198291485Y-196585771D01*
X197934342Y-196585771D01*
X197791485Y-196514342D01*
X197720057Y-196371485D01*
X197720057Y-196228628D01*
X197791485Y-196085771D01*
X197934342Y-196014342D01*
X198291485Y-196014342D01*
X198434342Y-195942914D01*
X199791485Y-196585771D02*
X199791485Y-195085771D01*
X199791485Y-196514342D02*
X199648628Y-196585771D01*
X199362914Y-196585771D01*
X199220057Y-196514342D01*
X199148628Y-196442914D01*
X199077200Y-196300057D01*
X199077200Y-195871485D01*
X199148628Y-195728628D01*
X199220057Y-195657200D01*
X199362914Y-195585771D01*
X199648628Y-195585771D01*
X199791485Y-195657200D01*
X202077200Y-197157200D02*
X202005771Y-197085771D01*
X201862914Y-196871485D01*
X201791485Y-196728628D01*
X201720057Y-196514342D01*
X201648628Y-196157200D01*
X201648628Y-195871485D01*
X201720057Y-195514342D01*
X201791485Y-195300057D01*
X201862914Y-195157200D01*
X202005771Y-194942914D01*
X202077200Y-194871485D01*
X203291485Y-195085771D02*
X203005771Y-195085771D01*
X202862914Y-195157200D01*
X202791485Y-195228628D01*
X202648628Y-195442914D01*
X202577200Y-195728628D01*
X202577200Y-196300057D01*
X202648628Y-196442914D01*
X202720057Y-196514342D01*
X202862914Y-196585771D01*
X203148628Y-196585771D01*
X203291485Y-196514342D01*
X203362914Y-196442914D01*
X203434342Y-196300057D01*
X203434342Y-195942914D01*
X203362914Y-195800057D01*
X203291485Y-195728628D01*
X203148628Y-195657200D01*
X202862914Y-195657200D01*
X202720057Y-195728628D01*
X202648628Y-195800057D01*
X202577200Y-195942914D01*
X204077200Y-196442914D02*
X204148628Y-196514342D01*
X204077200Y-196585771D01*
X204005771Y-196514342D01*
X204077200Y-196442914D01*
X204077200Y-196585771D01*
X205077200Y-195085771D02*
X205220057Y-195085771D01*
X205362914Y-195157200D01*
X205434342Y-195228628D01*
X205505771Y-195371485D01*
X205577200Y-195657200D01*
X205577200Y-196014342D01*
X205505771Y-196300057D01*
X205434342Y-196442914D01*
X205362914Y-196514342D01*
X205220057Y-196585771D01*
X205077200Y-196585771D01*
X204934342Y-196514342D01*
X204862914Y-196442914D01*
X204791485Y-196300057D01*
X204720057Y-196014342D01*
X204720057Y-195657200D01*
X204791485Y-195371485D01*
X204862914Y-195228628D01*
X204934342Y-195157200D01*
X205077200Y-195085771D01*
X206220057Y-196442914D02*
X206291485Y-196514342D01*
X206220057Y-196585771D01*
X206148628Y-196514342D01*
X206220057Y-196442914D01*
X206220057Y-196585771D01*
X206791485Y-195085771D02*
X207791485Y-195085771D01*
X207148628Y-196585771D01*
X208220057Y-197157200D02*
X208291485Y-197085771D01*
X208434342Y-196871485D01*
X208505771Y-196728628D01*
X208577200Y-196514342D01*
X208648628Y-196157200D01*
X208648628Y-195871485D01*
X208577200Y-195514342D01*
X208505771Y-195300057D01*
X208434342Y-195157200D01*
X208291485Y-194942914D01*
X208220057Y-194871485D01*
D10*
D11*
X177002200Y-191507200D02*
X285002200Y-191507200D01*
D10*
D12*
X264411485Y-193785771D02*
X263911485Y-193071485D01*
X263554342Y-193785771D02*
X263554342Y-192285771D01*
X264125771Y-192285771D01*
X264268628Y-192357200D01*
X264340057Y-192428628D01*
X264411485Y-192571485D01*
X264411485Y-192785771D01*
X264340057Y-192928628D01*
X264268628Y-193000057D01*
X264125771Y-193071485D01*
X263554342Y-193071485D01*
X265625771Y-193714342D02*
X265482914Y-193785771D01*
X265197200Y-193785771D01*
X265054342Y-193714342D01*
X264982914Y-193571485D01*
X264982914Y-193000057D01*
X265054342Y-192857200D01*
X265197200Y-192785771D01*
X265482914Y-192785771D01*
X265625771Y-192857200D01*
X265697200Y-193000057D01*
X265697200Y-193142914D01*
X264982914Y-193285771D01*
X266197200Y-192785771D02*
X266554342Y-193785771D01*
X266911485Y-192785771D01*
X267482914Y-193642914D02*
X267554342Y-193714342D01*
X267482914Y-193785771D01*
X267411485Y-193714342D01*
X267482914Y-193642914D01*
X267482914Y-193785771D01*
X267482914Y-192857200D02*
X267554342Y-192928628D01*
X267482914Y-193000057D01*
X267411485Y-192928628D01*
X267482914Y-192857200D01*
X267482914Y-193000057D01*
D10*
D11*
X178362914Y-193714342D02*
X178577200Y-193785771D01*
X178934342Y-193785771D01*
X179077200Y-193714342D01*
X179148628Y-193642914D01*
X179220057Y-193500057D01*
X179220057Y-193357200D01*
X179148628Y-193214342D01*
X179077200Y-193142914D01*
X178934342Y-193071485D01*
X178648628Y-193000057D01*
X178505771Y-192928628D01*
X178434342Y-192857200D01*
X178362914Y-192714342D01*
X178362914Y-192571485D01*
X178434342Y-192428628D01*
X178505771Y-192357200D01*
X178648628Y-192285771D01*
X179005771Y-192285771D01*
X179220057Y-192357200D01*
X179862914Y-193785771D02*
X179862914Y-192785771D01*
X179862914Y-192285771D02*
X179791485Y-192357200D01*
X179862914Y-192428628D01*
X179934342Y-192357200D01*
X179862914Y-192285771D01*
X179862914Y-192428628D01*
X180434342Y-192785771D02*
X181220057Y-192785771D01*
X180434342Y-193785771D01*
X181220057Y-193785771D01*
X182362914Y-193714342D02*
X182220057Y-193785771D01*
X181934342Y-193785771D01*
X181791485Y-193714342D01*
X181720057Y-193571485D01*
X181720057Y-193000057D01*
X181791485Y-192857200D01*
X181934342Y-192785771D01*
X182220057Y-192785771D01*
X182362914Y-192857200D01*
X182434342Y-193000057D01*
X182434342Y-193142914D01*
X181720057Y-193285771D01*
X183077200Y-193642914D02*
X183148628Y-193714342D01*
X183077200Y-193785771D01*
X183005771Y-193714342D01*
X183077200Y-193642914D01*
X183077200Y-193785771D01*
X183077200Y-192857200D02*
X183148628Y-192928628D01*
X183077200Y-193000057D01*
X183005771Y-192928628D01*
X183077200Y-192857200D01*
X183077200Y-193000057D01*
X184862914Y-193357200D02*
X185577200Y-193357200D01*
X184720057Y-193785771D02*
X185220057Y-192285771D01*
X185720057Y-193785771D01*
X186862914Y-192785771D02*
X186862914Y-193785771D01*
X186505771Y-192214342D02*
X186148628Y-193285771D01*
X187077200Y-193285771D01*
D10*
D11*
X263434342Y-196585771D02*
X263434342Y-195085771D01*
X264791485Y-196585771D02*
X264791485Y-195085771D01*
X264791485Y-196514342D02*
X264648628Y-196585771D01*
X264362914Y-196585771D01*
X264220057Y-196514342D01*
X264148628Y-196442914D01*
X264077200Y-196300057D01*
X264077200Y-195871485D01*
X264148628Y-195728628D01*
X264220057Y-195657200D01*
X264362914Y-195585771D01*
X264648628Y-195585771D01*
X264791485Y-195657200D01*
X265505771Y-196442914D02*
X265577200Y-196514342D01*
X265505771Y-196585771D01*
X265434342Y-196514342D01*
X265505771Y-196442914D01*
X265505771Y-196585771D01*
X265505771Y-195657200D02*
X265577200Y-195728628D01*
X265505771Y-195800057D01*
X265434342Y-195728628D01*
X265505771Y-195657200D01*
X265505771Y-195800057D01*
X268148628Y-196585771D02*
X267291485Y-196585771D01*
X267720057Y-196585771D02*
X267720057Y-195085771D01*
X267577200Y-195300057D01*
X267434342Y-195442914D01*
X267291485Y-195514342D01*
X269862914Y-195014342D02*
X268577200Y-196942914D01*
X271148628Y-196585771D02*
X270291485Y-196585771D01*
X270720057Y-196585771D02*
X270720057Y-195085771D01*
X270577200Y-195300057D01*
X270434342Y-195442914D01*
X270291485Y-195514342D01*
D10*
D11*
X177002200Y-187507200D02*
X285002200Y-187507200D01*
D10*
D13*
X178714580Y-188211961D02*
X179857438Y-188211961D01*
X179036009Y-190211961D02*
X179286009Y-188211961D01*
X180274104Y-190211961D02*
X180440771Y-188878628D01*
X180524104Y-188211961D02*
X180416961Y-188307200D01*
X180500295Y-188402438D01*
X180607438Y-188307200D01*
X180524104Y-188211961D01*
X180500295Y-188402438D01*
X181107438Y-188878628D02*
X181869342Y-188878628D01*
X181476485Y-188211961D02*
X181262200Y-189926247D01*
X181333628Y-190116723D01*
X181512200Y-190211961D01*
X181702676Y-190211961D01*
X182655057Y-190211961D02*
X182476485Y-190116723D01*
X182405057Y-189926247D01*
X182619342Y-188211961D01*
X184190771Y-190116723D02*
X183988390Y-190211961D01*
X183607438Y-190211961D01*
X183428866Y-190116723D01*
X183357438Y-189926247D01*
X183452676Y-189164342D01*
X183571723Y-188973866D01*
X183774104Y-188878628D01*
X184155057Y-188878628D01*
X184333628Y-188973866D01*
X184405057Y-189164342D01*
X184381247Y-189354819D01*
X183405057Y-189545295D01*
X185155057Y-190021485D02*
X185238390Y-190116723D01*
X185131247Y-190211961D01*
X185047914Y-190116723D01*
X185155057Y-190021485D01*
X185131247Y-190211961D01*
X185286009Y-188973866D02*
X185369342Y-189069104D01*
X185262200Y-189164342D01*
X185178866Y-189069104D01*
X185286009Y-188973866D01*
X185262200Y-189164342D01*
X187666961Y-188211961D02*
X187893152Y-190211961D01*
X188452676Y-188783390D01*
X188655057Y-190211961D01*
X189381247Y-188211961D01*
X189893152Y-190211961D02*
X190059819Y-188878628D01*
X190143152Y-188211961D02*
X190036009Y-188307200D01*
X190119342Y-188402438D01*
X190226485Y-188307200D01*
X190143152Y-188211961D01*
X190119342Y-188402438D01*
X190845533Y-190211961D02*
X191012200Y-188878628D01*
X190964580Y-189259580D02*
X191083628Y-189069104D01*
X191190771Y-188973866D01*
X191393152Y-188878628D01*
X191583628Y-188878628D01*
X192857438Y-190116723D02*
X192655057Y-190211961D01*
X192274104Y-190211961D01*
X192095533Y-190116723D01*
X192024104Y-189926247D01*
X192119342Y-189164342D01*
X192238390Y-188973866D01*
X192440771Y-188878628D01*
X192821723Y-188878628D01*
X193000295Y-188973866D01*
X193071723Y-189164342D01*
X193047914Y-189354819D01*
X192071723Y-189545295D01*
X194083628Y-190211961D02*
X193905057Y-190116723D01*
X193833628Y-189926247D01*
X194047914Y-188211961D01*
X195619342Y-190116723D02*
X195416961Y-190211961D01*
X195036009Y-190211961D01*
X194857438Y-190116723D01*
X194786009Y-189926247D01*
X194881247Y-189164342D01*
X195000295Y-188973866D01*
X195202676Y-188878628D01*
X195583628Y-188878628D01*
X195762200Y-188973866D01*
X195833628Y-189164342D01*
X195809819Y-189354819D01*
X194833628Y-189545295D01*
X196476485Y-190116723D02*
X196655057Y-190211961D01*
X197036009Y-190211961D01*
X197238390Y-190116723D01*
X197357438Y-189926247D01*
X197369342Y-189831009D01*
X197297914Y-189640533D01*
X197119342Y-189545295D01*
X196833628Y-189545295D01*
X196655057Y-189450057D01*
X196583628Y-189259580D01*
X196595533Y-189164342D01*
X196714580Y-188973866D01*
X196916961Y-188878628D01*
X197202676Y-188878628D01*
X197381247Y-188973866D01*
X198095533Y-190116723D02*
X198274104Y-190211961D01*
X198655057Y-190211961D01*
X198857438Y-190116723D01*
X198976485Y-189926247D01*
X198988390Y-189831009D01*
X198916961Y-189640533D01*
X198738390Y-189545295D01*
X198452676Y-189545295D01*
X198274104Y-189450057D01*
X198202676Y-189259580D01*
X198214580Y-189164342D01*
X198333628Y-188973866D01*
X198536009Y-188878628D01*
X198821723Y-188878628D01*
X199000295Y-188973866D01*
X201321723Y-190211961D02*
X201571723Y-188211961D01*
X202333628Y-188211961D01*
X202512200Y-188307200D01*
X202595533Y-188402438D01*
X202666961Y-188592914D01*
X202631247Y-188878628D01*
X202512200Y-189069104D01*
X202405057Y-189164342D01*
X202202676Y-189259580D01*
X201440771Y-189259580D01*
X203607438Y-190211961D02*
X203428866Y-190116723D01*
X203345533Y-190021485D01*
X203274104Y-189831009D01*
X203345533Y-189259580D01*
X203464580Y-189069104D01*
X203571723Y-188973866D01*
X203774104Y-188878628D01*
X204059819Y-188878628D01*
X204238390Y-188973866D01*
X204321723Y-189069104D01*
X204393152Y-189259580D01*
X204321723Y-189831009D01*
X204202676Y-190021485D01*
X204095533Y-190116723D01*
X203893152Y-190211961D01*
X203607438Y-190211961D01*
X205107438Y-188878628D02*
X205321723Y-190211961D01*
X205821723Y-189259580D01*
X206083628Y-190211961D01*
X206631247Y-188878628D01*
X208000295Y-190116723D02*
X207797914Y-190211961D01*
X207416961Y-190211961D01*
X207238390Y-190116723D01*
X207166961Y-189926247D01*
X207262200Y-189164342D01*
X207381247Y-188973866D01*
X207583628Y-188878628D01*
X207964580Y-188878628D01*
X208143152Y-188973866D01*
X208214580Y-189164342D01*
X208190771Y-189354819D01*
X207214580Y-189545295D01*
X208940771Y-190211961D02*
X209107438Y-188878628D01*
X209059819Y-189259580D02*
X209178866Y-189069104D01*
X209286009Y-188973866D01*
X209488390Y-188878628D01*
X209678866Y-188878628D01*
X212845533Y-190211961D02*
X212297914Y-189259580D01*
X211702676Y-190211961D02*
X211952676Y-188211961D01*
X212714580Y-188211961D01*
X212893152Y-188307200D01*
X212976485Y-188402438D01*
X213047914Y-188592914D01*
X213012200Y-188878628D01*
X212893152Y-189069104D01*
X212786009Y-189164342D01*
X212583628Y-189259580D01*
X211821723Y-189259580D01*
X214476485Y-190116723D02*
X214274104Y-190211961D01*
X213893152Y-190211961D01*
X213714580Y-190116723D01*
X213643152Y-189926247D01*
X213738390Y-189164342D01*
X213857438Y-188973866D01*
X214059819Y-188878628D01*
X214440771Y-188878628D01*
X214619342Y-188973866D01*
X214690771Y-189164342D01*
X214666961Y-189354819D01*
X213690771Y-189545295D01*
X216286009Y-190116723D02*
X216083628Y-190211961D01*
X215702676Y-190211961D01*
X215524104Y-190116723D01*
X215440771Y-190021485D01*
X215369342Y-189831009D01*
X215440771Y-189259580D01*
X215559819Y-189069104D01*
X215666961Y-188973866D01*
X215869342Y-188878628D01*
X216250295Y-188878628D01*
X216428866Y-188973866D01*
X217905057Y-190116723D02*
X217702676Y-190211961D01*
X217321723Y-190211961D01*
X217143152Y-190116723D01*
X217071723Y-189926247D01*
X217166961Y-189164342D01*
X217286009Y-188973866D01*
X217488390Y-188878628D01*
X217869342Y-188878628D01*
X218047914Y-188973866D01*
X218119342Y-189164342D01*
X218095533Y-189354819D01*
X217119342Y-189545295D01*
X218845533Y-190211961D02*
X219012200Y-188878628D01*
X219095533Y-188211961D02*
X218988390Y-188307200D01*
X219071723Y-188402438D01*
X219178866Y-188307200D01*
X219095533Y-188211961D01*
X219071723Y-188402438D01*
X219774104Y-188878628D02*
X220083628Y-190211961D01*
X220726485Y-188878628D01*
X222095533Y-190116723D02*
X221893152Y-190211961D01*
X221512200Y-190211961D01*
X221333628Y-190116723D01*
X221262200Y-189926247D01*
X221357438Y-189164342D01*
X221476485Y-188973866D01*
X221678866Y-188878628D01*
X222059819Y-188878628D01*
X222238390Y-188973866D01*
X222309819Y-189164342D01*
X222286009Y-189354819D01*
X221309819Y-189545295D01*
X223036009Y-190211961D02*
X223202676Y-188878628D01*
X223155057Y-189259580D02*
X223274104Y-189069104D01*
X223381247Y-188973866D01*
X223583628Y-188878628D01*
X223774104Y-188878628D01*
X227416961Y-190211961D02*
X227321723Y-190211961D01*
X227143152Y-190116723D01*
X226893152Y-189831009D01*
X226488390Y-189259580D01*
X226333628Y-188973866D01*
X226274104Y-188688152D01*
X226297914Y-188497676D01*
X226416961Y-188307200D01*
X226619342Y-188211961D01*
X226714580Y-188211961D01*
X226893152Y-188307200D01*
X226964580Y-188497676D01*
X226952676Y-188592914D01*
X226833628Y-188783390D01*
X226726485Y-188878628D01*
X226107438Y-189259580D01*
X226000295Y-189354819D01*
X225881247Y-189545295D01*
X225845533Y-189831009D01*
X225916961Y-190021485D01*
X226000295Y-190116723D01*
X226178866Y-190211961D01*
X226464580Y-190211961D01*
X226666961Y-190116723D01*
X226774104Y-190021485D01*
X227107438Y-189640533D01*
X227238390Y-189354819D01*
X227262200Y-189164342D01*
X230964580Y-190021485D02*
X230857438Y-190116723D01*
X230559819Y-190211961D01*
X230369342Y-190211961D01*
X230095533Y-190116723D01*
X229928866Y-189926247D01*
X229857438Y-189735771D01*
X229809819Y-189354819D01*
X229845533Y-189069104D01*
X229988390Y-188688152D01*
X230107438Y-188497676D01*
X230321723Y-188307200D01*
X230619342Y-188211961D01*
X230809819Y-188211961D01*
X231083628Y-188307200D01*
X231166961Y-188402438D01*
X231797914Y-190211961D02*
X232047914Y-188211961D01*
X232655057Y-190211961D02*
X232786009Y-189164342D01*
X232714580Y-188973866D01*
X232536009Y-188878628D01*
X232250295Y-188878628D01*
X232047914Y-188973866D01*
X231940771Y-189069104D01*
X234464580Y-190211961D02*
X234595533Y-189164342D01*
X234524104Y-188973866D01*
X234345533Y-188878628D01*
X233964580Y-188878628D01*
X233762200Y-188973866D01*
X234476485Y-190116723D02*
X234274104Y-190211961D01*
X233797914Y-190211961D01*
X233619342Y-190116723D01*
X233547914Y-189926247D01*
X233571723Y-189735771D01*
X233690771Y-189545295D01*
X233893152Y-189450057D01*
X234369342Y-189450057D01*
X234571723Y-189354819D01*
X235416961Y-190211961D02*
X235583628Y-188878628D01*
X235536009Y-189259580D02*
X235655057Y-189069104D01*
X235762200Y-188973866D01*
X235964580Y-188878628D01*
X236155057Y-188878628D01*
X237678866Y-188878628D02*
X237476485Y-190497676D01*
X237357438Y-190688152D01*
X237250295Y-190783390D01*
X237047914Y-190878628D01*
X236762200Y-190878628D01*
X236583628Y-190783390D01*
X237524104Y-190116723D02*
X237321723Y-190211961D01*
X236940771Y-190211961D01*
X236762200Y-190116723D01*
X236678866Y-190021485D01*
X236607438Y-189831009D01*
X236678866Y-189259580D01*
X236797914Y-189069104D01*
X236905057Y-188973866D01*
X237107438Y-188878628D01*
X237488390Y-188878628D01*
X237666961Y-188973866D01*
X239238390Y-190116723D02*
X239036009Y-190211961D01*
X238655057Y-190211961D01*
X238476485Y-190116723D01*
X238405057Y-189926247D01*
X238500295Y-189164342D01*
X238619342Y-188973866D01*
X238821723Y-188878628D01*
X239202676Y-188878628D01*
X239381247Y-188973866D01*
X239452676Y-189164342D01*
X239428866Y-189354819D01*
X238452676Y-189545295D01*
X240178866Y-190211961D02*
X240345533Y-188878628D01*
X240297914Y-189259580D02*
X240416961Y-189069104D01*
X240524104Y-188973866D01*
X240726485Y-188878628D01*
X240916961Y-188878628D01*
D10*
D11*
X178934342Y-185600057D02*
X178434342Y-185600057D01*
X178434342Y-186385771D02*
X178434342Y-184885771D01*
X179148628Y-184885771D01*
X179720057Y-186385771D02*
X179720057Y-185385771D01*
X179720057Y-184885771D02*
X179648628Y-184957200D01*
X179720057Y-185028628D01*
X179791485Y-184957200D01*
X179720057Y-184885771D01*
X179720057Y-185028628D01*
X180648628Y-186385771D02*
X180505771Y-186314342D01*
X180434342Y-186171485D01*
X180434342Y-184885771D01*
X181791485Y-186314342D02*
X181648628Y-186385771D01*
X181362914Y-186385771D01*
X181220057Y-186314342D01*
X181148628Y-186171485D01*
X181148628Y-185600057D01*
X181220057Y-185457200D01*
X181362914Y-185385771D01*
X181648628Y-185385771D01*
X181791485Y-185457200D01*
X181862914Y-185600057D01*
X181862914Y-185742914D01*
X181148628Y-185885771D01*
X182505771Y-186242914D02*
X182577200Y-186314342D01*
X182505771Y-186385771D01*
X182434342Y-186314342D01*
X182505771Y-186242914D01*
X182505771Y-186385771D01*
X182505771Y-185457200D02*
X182577200Y-185528628D01*
X182505771Y-185600057D01*
X182434342Y-185528628D01*
X182505771Y-185457200D01*
X182505771Y-185600057D01*
X184220057Y-184885771D02*
X184577200Y-186385771D01*
X184862914Y-185314342D01*
X185148628Y-186385771D01*
X185505771Y-184885771D01*
X186077200Y-186385771D02*
X186077200Y-185385771D01*
X186077200Y-184885771D02*
X186005771Y-184957200D01*
X186077200Y-185028628D01*
X186148628Y-184957200D01*
X186077200Y-184885771D01*
X186077200Y-185028628D01*
X186791485Y-186385771D02*
X186791485Y-185385771D01*
X186791485Y-185671485D02*
X186862914Y-185528628D01*
X186934342Y-185457200D01*
X187077200Y-185385771D01*
X187220057Y-185385771D01*
X188291485Y-186314342D02*
X188148628Y-186385771D01*
X187862914Y-186385771D01*
X187720057Y-186314342D01*
X187648628Y-186171485D01*
X187648628Y-185600057D01*
X187720057Y-185457200D01*
X187862914Y-185385771D01*
X188148628Y-185385771D01*
X188291485Y-185457200D01*
X188362914Y-185600057D01*
X188362914Y-185742914D01*
X187648628Y-185885771D01*
X189220057Y-186385771D02*
X189077200Y-186314342D01*
X189005771Y-186171485D01*
X189005771Y-184885771D01*
X190362914Y-186314342D02*
X190220057Y-186385771D01*
X189934342Y-186385771D01*
X189791485Y-186314342D01*
X189720057Y-186171485D01*
X189720057Y-185600057D01*
X189791485Y-185457200D01*
X189934342Y-185385771D01*
X190220057Y-185385771D01*
X190362914Y-185457200D01*
X190434342Y-185600057D01*
X190434342Y-185742914D01*
X189720057Y-185885771D01*
X191005771Y-186314342D02*
X191148628Y-186385771D01*
X191434342Y-186385771D01*
X191577200Y-186314342D01*
X191648628Y-186171485D01*
X191648628Y-186100057D01*
X191577200Y-185957200D01*
X191434342Y-185885771D01*
X191220057Y-185885771D01*
X191077200Y-185814342D01*
X191005771Y-185671485D01*
X191005771Y-185600057D01*
X191077200Y-185457200D01*
X191220057Y-185385771D01*
X191434342Y-185385771D01*
X191577200Y-185457200D01*
X192220057Y-186314342D02*
X192362914Y-186385771D01*
X192648628Y-186385771D01*
X192791485Y-186314342D01*
X192862914Y-186171485D01*
X192862914Y-186100057D01*
X192791485Y-185957200D01*
X192648628Y-185885771D01*
X192434342Y-185885771D01*
X192291485Y-185814342D01*
X192220057Y-185671485D01*
X192220057Y-185600057D01*
X192291485Y-185457200D01*
X192434342Y-185385771D01*
X192648628Y-185385771D01*
X192791485Y-185457200D01*
X194648628Y-186385771D02*
X194648628Y-184885771D01*
X195220057Y-184885771D01*
X195362914Y-184957200D01*
X195434342Y-185028628D01*
X195505771Y-185171485D01*
X195505771Y-185385771D01*
X195434342Y-185528628D01*
X195362914Y-185600057D01*
X195220057Y-185671485D01*
X194648628Y-185671485D01*
X196362914Y-186385771D02*
X196220057Y-186314342D01*
X196148628Y-186242914D01*
X196077200Y-186100057D01*
X196077200Y-185671485D01*
X196148628Y-185528628D01*
X196220057Y-185457200D01*
X196362914Y-185385771D01*
X196577200Y-185385771D01*
X196720057Y-185457200D01*
X196791485Y-185528628D01*
X196862914Y-185671485D01*
X196862914Y-186100057D01*
X196791485Y-186242914D01*
X196720057Y-186314342D01*
X196577200Y-186385771D01*
X196362914Y-186385771D01*
X197362914Y-185385771D02*
X197648628Y-186385771D01*
X197934342Y-185671485D01*
X198220057Y-186385771D01*
X198505771Y-185385771D01*
X199648628Y-186314342D02*
X199505771Y-186385771D01*
X199220057Y-186385771D01*
X199077200Y-186314342D01*
X199005771Y-186171485D01*
X199005771Y-185600057D01*
X199077200Y-185457200D01*
X199220057Y-185385771D01*
X199505771Y-185385771D01*
X199648628Y-185457200D01*
X199720057Y-185600057D01*
X199720057Y-185742914D01*
X199005771Y-185885771D01*
X200362914Y-186385771D02*
X200362914Y-185385771D01*
X200362914Y-185671485D02*
X200434342Y-185528628D01*
X200505771Y-185457200D01*
X200648628Y-185385771D01*
X200791485Y-185385771D01*
X203291485Y-186385771D02*
X202791485Y-185671485D01*
X202434342Y-186385771D02*
X202434342Y-184885771D01*
X203005771Y-184885771D01*
X203148628Y-184957200D01*
X203220057Y-185028628D01*
X203291485Y-185171485D01*
X203291485Y-185385771D01*
X203220057Y-185528628D01*
X203148628Y-185600057D01*
X203005771Y-185671485D01*
X202434342Y-185671485D01*
X204505771Y-186314342D02*
X204362914Y-186385771D01*
X204077200Y-186385771D01*
X203934342Y-186314342D01*
X203862914Y-186171485D01*
X203862914Y-185600057D01*
X203934342Y-185457200D01*
X204077200Y-185385771D01*
X204362914Y-185385771D01*
X204505771Y-185457200D01*
X204577200Y-185600057D01*
X204577200Y-185742914D01*
X203862914Y-185885771D01*
X205862914Y-186314342D02*
X205720057Y-186385771D01*
X205434342Y-186385771D01*
X205291485Y-186314342D01*
X205220057Y-186242914D01*
X205148628Y-186100057D01*
X205148628Y-185671485D01*
X205220057Y-185528628D01*
X205291485Y-185457200D01*
X205434342Y-185385771D01*
X205720057Y-185385771D01*
X205862914Y-185457200D01*
X207077200Y-186314342D02*
X206934342Y-186385771D01*
X206648628Y-186385771D01*
X206505771Y-186314342D01*
X206434342Y-186171485D01*
X206434342Y-185600057D01*
X206505771Y-185457200D01*
X206648628Y-185385771D01*
X206934342Y-185385771D01*
X207077200Y-185457200D01*
X207148628Y-185600057D01*
X207148628Y-185742914D01*
X206434342Y-185885771D01*
X207791485Y-186385771D02*
X207791485Y-185385771D01*
X207791485Y-184885771D02*
X207720057Y-184957200D01*
X207791485Y-185028628D01*
X207862914Y-184957200D01*
X207791485Y-184885771D01*
X207791485Y-185028628D01*
X208362914Y-185385771D02*
X208720057Y-186385771D01*
X209077200Y-185385771D01*
X210220057Y-186314342D02*
X210077200Y-186385771D01*
X209791485Y-186385771D01*
X209648628Y-186314342D01*
X209577200Y-186171485D01*
X209577200Y-185600057D01*
X209648628Y-185457200D01*
X209791485Y-185385771D01*
X210077200Y-185385771D01*
X210220057Y-185457200D01*
X210291485Y-185600057D01*
X210291485Y-185742914D01*
X209577200Y-185885771D01*
X210934342Y-186385771D02*
X210934342Y-185385771D01*
X210934342Y-185671485D02*
X211005771Y-185528628D01*
X211077200Y-185457200D01*
X211220057Y-185385771D01*
X211362914Y-185385771D01*
X214220057Y-186385771D02*
X214148628Y-186385771D01*
X214005771Y-186314342D01*
X213791485Y-186100057D01*
X213434342Y-185671485D01*
X213291485Y-185457200D01*
X213220057Y-185242914D01*
X213220057Y-185100057D01*
X213291485Y-184957200D01*
X213434342Y-184885771D01*
X213505771Y-184885771D01*
X213648628Y-184957200D01*
X213720057Y-185100057D01*
X213720057Y-185171485D01*
X213648628Y-185314342D01*
X213577200Y-185385771D01*
X213148628Y-185671485D01*
X213077200Y-185742914D01*
X213005771Y-185885771D01*
X213005771Y-186100057D01*
X213077200Y-186242914D01*
X213148628Y-186314342D01*
X213291485Y-186385771D01*
X213505771Y-186385771D01*
X213648628Y-186314342D01*
X213720057Y-186242914D01*
X213934342Y-185957200D01*
X214005771Y-185742914D01*
X214005771Y-185600057D01*
X216862914Y-186242914D02*
X216791485Y-186314342D01*
X216577200Y-186385771D01*
X216434342Y-186385771D01*
X216220057Y-186314342D01*
X216077200Y-186171485D01*
X216005771Y-186028628D01*
X215934342Y-185742914D01*
X215934342Y-185528628D01*
X216005771Y-185242914D01*
X216077200Y-185100057D01*
X216220057Y-184957200D01*
X216434342Y-184885771D01*
X216577200Y-184885771D01*
X216791485Y-184957200D01*
X216862914Y-185028628D01*
X217505771Y-186385771D02*
X217505771Y-184885771D01*
X218148628Y-186385771D02*
X218148628Y-185600057D01*
X218077200Y-185457200D01*
X217934342Y-185385771D01*
X217720057Y-185385771D01*
X217577200Y-185457200D01*
X217505771Y-185528628D01*
X219505771Y-186385771D02*
X219505771Y-185600057D01*
X219434342Y-185457200D01*
X219291485Y-185385771D01*
X219005771Y-185385771D01*
X218862914Y-185457200D01*
X219505771Y-186314342D02*
X219362914Y-186385771D01*
X219005771Y-186385771D01*
X218862914Y-186314342D01*
X218791485Y-186171485D01*
X218791485Y-186028628D01*
X218862914Y-185885771D01*
X219005771Y-185814342D01*
X219362914Y-185814342D01*
X219505771Y-185742914D01*
X220220057Y-186385771D02*
X220220057Y-185385771D01*
X220220057Y-185671485D02*
X220291485Y-185528628D01*
X220362914Y-185457200D01*
X220505771Y-185385771D01*
X220648628Y-185385771D01*
X221791485Y-185385771D02*
X221791485Y-186600057D01*
X221720057Y-186742914D01*
X221648628Y-186814342D01*
X221505771Y-186885771D01*
X221291485Y-186885771D01*
X221148628Y-186814342D01*
X221791485Y-186314342D02*
X221648628Y-186385771D01*
X221362914Y-186385771D01*
X221220057Y-186314342D01*
X221148628Y-186242914D01*
X221077200Y-186100057D01*
X221077200Y-185671485D01*
X221148628Y-185528628D01*
X221220057Y-185457200D01*
X221362914Y-185385771D01*
X221648628Y-185385771D01*
X221791485Y-185457200D01*
X223077200Y-186314342D02*
X222934342Y-186385771D01*
X222648628Y-186385771D01*
X222505771Y-186314342D01*
X222434342Y-186171485D01*
X222434342Y-185600057D01*
X222505771Y-185457200D01*
X222648628Y-185385771D01*
X222934342Y-185385771D01*
X223077200Y-185457200D01*
X223148628Y-185600057D01*
X223148628Y-185742914D01*
X222434342Y-185885771D01*
X223791485Y-186385771D02*
X223791485Y-185385771D01*
X223791485Y-185671485D02*
X223862914Y-185528628D01*
X223934342Y-185457200D01*
X224077200Y-185385771D01*
X224220057Y-185385771D01*
X224720057Y-186242914D02*
X224791485Y-186314342D01*
X224720057Y-186385771D01*
X224648628Y-186314342D01*
X224720057Y-186242914D01*
X224720057Y-186385771D01*
X225434342Y-186385771D02*
X225434342Y-184885771D01*
X225577200Y-185814342D02*
X226005771Y-186385771D01*
X226005771Y-185385771D02*
X225434342Y-185957200D01*
X226648628Y-186385771D02*
X226648628Y-185385771D01*
X226648628Y-184885771D02*
X226577200Y-184957200D01*
X226648628Y-185028628D01*
X226720057Y-184957200D01*
X226648628Y-184885771D01*
X226648628Y-185028628D01*
X228005771Y-186314342D02*
X227862914Y-186385771D01*
X227577200Y-186385771D01*
X227434342Y-186314342D01*
X227362914Y-186242914D01*
X227291485Y-186100057D01*
X227291485Y-185671485D01*
X227362914Y-185528628D01*
X227434342Y-185457200D01*
X227577200Y-185385771D01*
X227862914Y-185385771D01*
X228005771Y-185457200D01*
X229291485Y-186385771D02*
X229291485Y-185600057D01*
X229220057Y-185457200D01*
X229077200Y-185385771D01*
X228791485Y-185385771D01*
X228648628Y-185457200D01*
X229291485Y-186314342D02*
X229148628Y-186385771D01*
X228791485Y-186385771D01*
X228648628Y-186314342D01*
X228577200Y-186171485D01*
X228577200Y-186028628D01*
X228648628Y-185885771D01*
X228791485Y-185814342D01*
X229148628Y-185814342D01*
X229291485Y-185742914D01*
X230648628Y-186385771D02*
X230648628Y-184885771D01*
X230648628Y-186314342D02*
X230505771Y-186385771D01*
X230220057Y-186385771D01*
X230077200Y-186314342D01*
X230005771Y-186242914D01*
X229934342Y-186100057D01*
X229934342Y-185671485D01*
X230005771Y-185528628D01*
X230077200Y-185457200D01*
X230220057Y-185385771D01*
X230505771Y-185385771D01*
X230648628Y-185457200D01*
X231005771Y-186528628D02*
X232148628Y-186528628D01*
X232505771Y-185385771D02*
X232505771Y-186885771D01*
X232505771Y-185457200D02*
X232648628Y-185385771D01*
X232934342Y-185385771D01*
X233077200Y-185457200D01*
X233148628Y-185528628D01*
X233220057Y-185671485D01*
X233220057Y-186100057D01*
X233148628Y-186242914D01*
X233077200Y-186314342D01*
X232934342Y-186385771D01*
X232648628Y-186385771D01*
X232505771Y-186314342D01*
X234505771Y-186314342D02*
X234362914Y-186385771D01*
X234077200Y-186385771D01*
X233934342Y-186314342D01*
X233862914Y-186242914D01*
X233791485Y-186100057D01*
X233791485Y-185671485D01*
X233862914Y-185528628D01*
X233934342Y-185457200D01*
X234077200Y-185385771D01*
X234362914Y-185385771D01*
X234505771Y-185457200D01*
X235148628Y-186385771D02*
X235148628Y-184885771D01*
X235148628Y-185457200D02*
X235291485Y-185385771D01*
X235577200Y-185385771D01*
X235720057Y-185457200D01*
X235791485Y-185528628D01*
X235862914Y-185671485D01*
X235862914Y-186100057D01*
X235791485Y-186242914D01*
X235720057Y-186314342D01*
X235577200Y-186385771D01*
X235291485Y-186385771D01*
X235148628Y-186314342D01*
D10*
D11*
X177002200Y-181507200D02*
X285002200Y-181507200D01*
D10*
D11*
X178362914Y-183614342D02*
X178577200Y-183685771D01*
X178934342Y-183685771D01*
X179077200Y-183614342D01*
X179148628Y-183542914D01*
X179220057Y-183400057D01*
X179220057Y-183257200D01*
X179148628Y-183114342D01*
X179077200Y-183042914D01*
X178934342Y-182971485D01*
X178648628Y-182900057D01*
X178505771Y-182828628D01*
X178434342Y-182757200D01*
X178362914Y-182614342D01*
X178362914Y-182471485D01*
X178434342Y-182328628D01*
X178505771Y-182257200D01*
X178648628Y-182185771D01*
X179005771Y-182185771D01*
X179220057Y-182257200D01*
X179862914Y-183685771D02*
X179862914Y-182185771D01*
X180505771Y-183685771D02*
X180505771Y-182900057D01*
X180434342Y-182757200D01*
X180291485Y-182685771D01*
X180077200Y-182685771D01*
X179934342Y-182757200D01*
X179862914Y-182828628D01*
X181791485Y-183614342D02*
X181648628Y-183685771D01*
X181362914Y-183685771D01*
X181220057Y-183614342D01*
X181148628Y-183471485D01*
X181148628Y-182900057D01*
X181220057Y-182757200D01*
X181362914Y-182685771D01*
X181648628Y-182685771D01*
X181791485Y-182757200D01*
X181862914Y-182900057D01*
X181862914Y-183042914D01*
X181148628Y-183185771D01*
X183077200Y-183614342D02*
X182934342Y-183685771D01*
X182648628Y-183685771D01*
X182505771Y-183614342D01*
X182434342Y-183471485D01*
X182434342Y-182900057D01*
X182505771Y-182757200D01*
X182648628Y-182685771D01*
X182934342Y-182685771D01*
X183077200Y-182757200D01*
X183148628Y-182900057D01*
X183148628Y-183042914D01*
X182434342Y-183185771D01*
X183577200Y-182685771D02*
X184148628Y-182685771D01*
X183791485Y-182185771D02*
X183791485Y-183471485D01*
X183862914Y-183614342D01*
X184005771Y-183685771D01*
X184148628Y-183685771D01*
X184648628Y-183542914D02*
X184720057Y-183614342D01*
X184648628Y-183685771D01*
X184577200Y-183614342D01*
X184648628Y-183542914D01*
X184648628Y-183685771D01*
X184648628Y-182757200D02*
X184720057Y-182828628D01*
X184648628Y-182900057D01*
X184577200Y-182828628D01*
X184648628Y-182757200D01*
X184648628Y-182900057D01*
D10*
D12*
D10*
D11*
D10*
D11*
D10*
D11*
D10*
D11*
D10*
D11*
X197002200Y-191507200D02*
X197002200Y-194507200D01*
D10*
D11*
X261002200Y-191507200D02*
X261002200Y-198007200D01*
D14*
X64375000Y-59400000D02*
X207600000Y-59400000D01*
X207600000Y-59400000D02*
X207600000Y-114825000D01*
X207600000Y-114825000D02*
X64375000Y-114825000D01*
X64375000Y-114825000D02*
X64375000Y-59400000D01*
D15*
%TO.N,GND*%
%TO.C,H3*%
X204950825Y-111450825D03*
X203625000Y-108250000D03*
X201750000Y-110125000D03*
D16*
X203625000Y-110125000D03*
D15*
X204950825Y-108799175D03*
X202299175Y-108799175D03*
X205500000Y-110125000D03*
X203625000Y-112000000D03*
X202299175Y-111450825D03*
%TD*%
D17*
%TO.N,FAULT*%
%TO.C,D5*%
X85525000Y-108325000D03*
D18*
%TO.N,Net-(D5-Pad2)*%
X88065000Y-108325000D03*
%TD*%
D19*
%TO.N,GND*%
%TO.C,U1*%
X86225000Y-87150000D03*
X86975000Y-86400000D03*
X87725000Y-87900000D03*
X87725000Y-86400000D03*
X86975000Y-87900000D03*
X86225000Y-87900000D03*
X87725000Y-87150000D03*
X86975000Y-87150000D03*
X86225000Y-86400000D03*
%TD*%
D15*
%TO.N,GND*%
%TO.C,H2*%
X201700000Y-63625000D03*
X202249175Y-62299175D03*
X204900825Y-62299175D03*
X205450000Y-63625000D03*
X204900825Y-64950825D03*
X203575000Y-65500000D03*
X203575000Y-61750000D03*
D16*
X203575000Y-63625000D03*
D15*
X202249175Y-64950825D03*
%TD*%
%TO.N,GND*%
%TO.C,H4*%
X70325000Y-110050000D03*
X69775825Y-108724175D03*
X67124175Y-108724175D03*
X66575000Y-110050000D03*
X68450000Y-111925000D03*
D16*
X68450000Y-110050000D03*
D15*
X68450000Y-108175000D03*
X67124175Y-111375825D03*
X69775825Y-111375825D03*
%TD*%
D20*
%TO.N,GND*%
%TO.C,J2*%
X101275000Y-91925000D03*
D21*
%TO.N,NTC*%
X101275000Y-89425000D03*
%TD*%
D17*
%TO.N,CHRG*%
%TO.C,D6*%
X101125000Y-108325000D03*
D18*
%TO.N,Net-(D6-Pad2)*%
X103665000Y-108325000D03*
%TD*%
D15*
%TO.N,GND*%
%TO.C,H1*%
X67124175Y-62249175D03*
X67124175Y-64900825D03*
X68450000Y-65450000D03*
X70325000Y-63575000D03*
X69775825Y-64900825D03*
X68450000Y-61700000D03*
X69775825Y-62249175D03*
X66575000Y-63575000D03*
D16*
X68450000Y-63575000D03*
%TD*%
D22*
%TO.N,GND*%
%TO.C,L1*%
X97075000Y-82150000D03*
%TO.N,/PowerIn*%
X96975000Y-91850000D03*
%TD*%
D23*
%TO.N,GND*%
X85275000Y-75875000D03*
X86525000Y-98550000D03*
X88750000Y-75850000D03*
X80250000Y-83850000D03*
X85650000Y-97400000D03*
X81550000Y-75875000D03*
%TO.N,/Freq*%
X93275000Y-92250000D03*
X83525000Y-83775000D03*
%TO.N,LED+*%
X100650000Y-96525000D03*
X75425000Y-68350000D03*
X84125000Y-68325000D03*
X91175000Y-103250000D03*
X93500000Y-98425000D03*
X103975000Y-96600000D03*
X104000000Y-95100000D03*
X79850000Y-68375000D03*
X77700000Y-68375000D03*
X82050000Y-68350000D03*
X94900000Y-98450000D03*
X86325000Y-68350000D03*
X73025000Y-68375000D03*
X92275000Y-98425000D03*
X100650000Y-95075000D03*
%TO.N,FAULT*%
X86275000Y-83050000D03*
%TO.N,CHRG*%
X87650000Y-83050000D03*
%TO.N,BAT+*%
X90500000Y-88125000D03*
X102025000Y-75700000D03*
X105850000Y-77900000D03*
X103925000Y-77875000D03*
X102050000Y-77925000D03*
X90500000Y-87000000D03*
X105725000Y-79975000D03*
X103975000Y-79900000D03*
X103900000Y-75750000D03*
X102125000Y-79950000D03*
X105700000Y-75750000D03*
%TO.N,/Inductor*%
X81875000Y-96550000D03*
X83225000Y-96550000D03*
X89750000Y-90375000D03*
X80475000Y-96550000D03*
%TO.N,/PowerIn*%
X79625000Y-86525000D03*
%TD*%
%TA.AperFunction,Conductor*%
%TO.N,/Inductor*%
G36*
X90892121Y-89720002D02*
G01*
X90938614Y-89773658D01*
X90950000Y-89826000D01*
X90950000Y-97174000D01*
X90929998Y-97242121D01*
X90876342Y-97288614D01*
X90824000Y-97300000D01*
X88050000Y-97300000D01*
X88050000Y-89826000D01*
X88070002Y-89757879D01*
X88123658Y-89711386D01*
X88176000Y-89700000D01*
X90824000Y-89700000D01*
X90892121Y-89720002D01*
G37*
%TD.AperFunction*%
%TD*%
%TA.AperFunction,Conductor*%
%TO.N,BAT+*%
G36*
X114642121Y-74370002D02*
G01*
X114688614Y-74423658D01*
X114700000Y-74476000D01*
X114700000Y-88774000D01*
X114679998Y-88842121D01*
X114626342Y-88888614D01*
X114574000Y-88900000D01*
X102764010Y-88900000D01*
X102695889Y-88879998D01*
X102652700Y-88827454D01*
X102650555Y-88828519D01*
X102648184Y-88823743D01*
X102646224Y-88818779D01*
X102619052Y-88774000D01*
X102529390Y-88626243D01*
X102526623Y-88621683D01*
X102375523Y-88447555D01*
X102333970Y-88413484D01*
X102201373Y-88304760D01*
X102201367Y-88304756D01*
X102197245Y-88301376D01*
X102192609Y-88298737D01*
X102192606Y-88298735D01*
X102001529Y-88189968D01*
X101996886Y-88187325D01*
X101780175Y-88108663D01*
X101774926Y-88107714D01*
X101774923Y-88107713D01*
X101557392Y-88068377D01*
X101557385Y-88068376D01*
X101553308Y-88067639D01*
X101535586Y-88066803D01*
X101530644Y-88066570D01*
X101530637Y-88066570D01*
X101529156Y-88066500D01*
X101225000Y-88066500D01*
X101225000Y-74476000D01*
X101245002Y-74407879D01*
X101298658Y-74361386D01*
X101351000Y-74350000D01*
X114574000Y-74350000D01*
X114642121Y-74370002D01*
G37*
%TD.AperFunction*%
%TD*%
%TA.AperFunction,Conductor*%
%TO.N,GND*%
G36*
X206367121Y-60795002D02*
G01*
X206413614Y-60848658D01*
X206425000Y-60901000D01*
X206425000Y-112774000D01*
X206404998Y-112842121D01*
X206351342Y-112888614D01*
X206299000Y-112900000D01*
X65801000Y-112900000D01*
X65732879Y-112879998D01*
X65686386Y-112826342D01*
X65675000Y-112774000D01*
X65675000Y-109273134D01*
X84116500Y-109273134D01*
X84123255Y-109335316D01*
X84174385Y-109471705D01*
X84261739Y-109588261D01*
X84378295Y-109675615D01*
X84514684Y-109726745D01*
X84576866Y-109733500D01*
X86473134Y-109733500D01*
X86535316Y-109726745D01*
X86671705Y-109675615D01*
X86788261Y-109588261D01*
X86875615Y-109471705D01*
X86900180Y-109406178D01*
X86942822Y-109349414D01*
X87009383Y-109324714D01*
X87078732Y-109339921D01*
X87098647Y-109353464D01*
X87163724Y-109407492D01*
X87254349Y-109482730D01*
X87454322Y-109599584D01*
X87670694Y-109682209D01*
X87675760Y-109683240D01*
X87675761Y-109683240D01*
X87728846Y-109694040D01*
X87897656Y-109728385D01*
X88027089Y-109733131D01*
X88123949Y-109736683D01*
X88123953Y-109736683D01*
X88129113Y-109736872D01*
X88134233Y-109736216D01*
X88134235Y-109736216D01*
X88208166Y-109726745D01*
X88358847Y-109707442D01*
X88363795Y-109705957D01*
X88363802Y-109705956D01*
X88575747Y-109642369D01*
X88580690Y-109640886D01*
X88661236Y-109601427D01*
X88784049Y-109541262D01*
X88784052Y-109541260D01*
X88788684Y-109538991D01*
X88977243Y-109404494D01*
X89109062Y-109273134D01*
X99716500Y-109273134D01*
X99723255Y-109335316D01*
X99774385Y-109471705D01*
X99861739Y-109588261D01*
X99978295Y-109675615D01*
X100114684Y-109726745D01*
X100176866Y-109733500D01*
X102073134Y-109733500D01*
X102135316Y-109726745D01*
X102271705Y-109675615D01*
X102388261Y-109588261D01*
X102475615Y-109471705D01*
X102500180Y-109406178D01*
X102542822Y-109349414D01*
X102609383Y-109324714D01*
X102678732Y-109339921D01*
X102698647Y-109353464D01*
X102763724Y-109407492D01*
X102854349Y-109482730D01*
X103054322Y-109599584D01*
X103270694Y-109682209D01*
X103275760Y-109683240D01*
X103275761Y-109683240D01*
X103328846Y-109694040D01*
X103497656Y-109728385D01*
X103627089Y-109733131D01*
X103723949Y-109736683D01*
X103723953Y-109736683D01*
X103729113Y-109736872D01*
X103734233Y-109736216D01*
X103734235Y-109736216D01*
X103808166Y-109726745D01*
X103958847Y-109707442D01*
X103963795Y-109705957D01*
X103963802Y-109705956D01*
X104175747Y-109642369D01*
X104180690Y-109640886D01*
X104261236Y-109601427D01*
X104384049Y-109541262D01*
X104384052Y-109541260D01*
X104388684Y-109538991D01*
X104577243Y-109404494D01*
X104741303Y-109241005D01*
X104876458Y-109052917D01*
X104979078Y-108845280D01*
X105046408Y-108623671D01*
X105076640Y-108394041D01*
X105078327Y-108325000D01*
X105072032Y-108248434D01*
X105059773Y-108099318D01*
X105059772Y-108099312D01*
X105059349Y-108094167D01*
X105002925Y-107869533D01*
X104910570Y-107657131D01*
X104784764Y-107462665D01*
X104628887Y-107291358D01*
X104624836Y-107288159D01*
X104624832Y-107288155D01*
X104451177Y-107151011D01*
X104451172Y-107151008D01*
X104447123Y-107147810D01*
X104442607Y-107145317D01*
X104442604Y-107145315D01*
X104248879Y-107038373D01*
X104248875Y-107038371D01*
X104244355Y-107035876D01*
X104239486Y-107034152D01*
X104239482Y-107034150D01*
X104030903Y-106960288D01*
X104030899Y-106960287D01*
X104026028Y-106958562D01*
X104020935Y-106957655D01*
X104020932Y-106957654D01*
X103803095Y-106918851D01*
X103803089Y-106918850D01*
X103798006Y-106917945D01*
X103725096Y-106917054D01*
X103571581Y-106915179D01*
X103571579Y-106915179D01*
X103566411Y-106915116D01*
X103337464Y-106950150D01*
X103117314Y-107022106D01*
X103112726Y-107024494D01*
X103112722Y-107024496D01*
X102916461Y-107126663D01*
X102911872Y-107129052D01*
X102907739Y-107132155D01*
X102907736Y-107132157D01*
X102835088Y-107186703D01*
X102726655Y-107268117D01*
X102709170Y-107286414D01*
X102647646Y-107321844D01*
X102576733Y-107318387D01*
X102518947Y-107277141D01*
X102500094Y-107243592D01*
X102478768Y-107186705D01*
X102478767Y-107186703D01*
X102475615Y-107178295D01*
X102388261Y-107061739D01*
X102271705Y-106974385D01*
X102135316Y-106923255D01*
X102073134Y-106916500D01*
X100176866Y-106916500D01*
X100114684Y-106923255D01*
X99978295Y-106974385D01*
X99861739Y-107061739D01*
X99774385Y-107178295D01*
X99723255Y-107314684D01*
X99716500Y-107376866D01*
X99716500Y-109273134D01*
X89109062Y-109273134D01*
X89141303Y-109241005D01*
X89276458Y-109052917D01*
X89379078Y-108845280D01*
X89446408Y-108623671D01*
X89476640Y-108394041D01*
X89478327Y-108325000D01*
X89472032Y-108248434D01*
X89459773Y-108099318D01*
X89459772Y-108099312D01*
X89459349Y-108094167D01*
X89402925Y-107869533D01*
X89310570Y-107657131D01*
X89184764Y-107462665D01*
X89028887Y-107291358D01*
X89024836Y-107288159D01*
X89024832Y-107288155D01*
X88851177Y-107151011D01*
X88851172Y-107151008D01*
X88847123Y-107147810D01*
X88842607Y-107145317D01*
X88842604Y-107145315D01*
X88648879Y-107038373D01*
X88648875Y-107038371D01*
X88644355Y-107035876D01*
X88639486Y-107034152D01*
X88639482Y-107034150D01*
X88430903Y-106960288D01*
X88430899Y-106960287D01*
X88426028Y-106958562D01*
X88420935Y-106957655D01*
X88420932Y-106957654D01*
X88203095Y-106918851D01*
X88203089Y-106918850D01*
X88198006Y-106917945D01*
X88125096Y-106917054D01*
X87971581Y-106915179D01*
X87971579Y-106915179D01*
X87966411Y-106915116D01*
X87737464Y-106950150D01*
X87517314Y-107022106D01*
X87512726Y-107024494D01*
X87512722Y-107024496D01*
X87316461Y-107126663D01*
X87311872Y-107129052D01*
X87307739Y-107132155D01*
X87307736Y-107132157D01*
X87235088Y-107186703D01*
X87126655Y-107268117D01*
X87109170Y-107286414D01*
X87047646Y-107321844D01*
X86976733Y-107318387D01*
X86918947Y-107277141D01*
X86900094Y-107243592D01*
X86878768Y-107186705D01*
X86878767Y-107186703D01*
X86875615Y-107178295D01*
X86788261Y-107061739D01*
X86671705Y-106974385D01*
X86535316Y-106923255D01*
X86473134Y-106916500D01*
X84576866Y-106916500D01*
X84514684Y-106923255D01*
X84378295Y-106974385D01*
X84261739Y-107061739D01*
X84174385Y-107178295D01*
X84123255Y-107314684D01*
X84116500Y-107376866D01*
X84116500Y-109273134D01*
X65675000Y-109273134D01*
X65675000Y-103250000D01*
X90261496Y-103250000D01*
X90281458Y-103439928D01*
X90340473Y-103621556D01*
X90435960Y-103786944D01*
X90563747Y-103928866D01*
X90718248Y-104041118D01*
X90724276Y-104043802D01*
X90724278Y-104043803D01*
X90886681Y-104116109D01*
X90892712Y-104118794D01*
X90986112Y-104138647D01*
X91073056Y-104157128D01*
X91073061Y-104157128D01*
X91079513Y-104158500D01*
X91270487Y-104158500D01*
X91276939Y-104157128D01*
X91276944Y-104157128D01*
X91363888Y-104138647D01*
X91457288Y-104118794D01*
X91463319Y-104116109D01*
X91625722Y-104043803D01*
X91625724Y-104043802D01*
X91631752Y-104041118D01*
X91786253Y-103928866D01*
X91914040Y-103786944D01*
X92009527Y-103621556D01*
X92068542Y-103439928D01*
X92088504Y-103250000D01*
X92068542Y-103060072D01*
X92009527Y-102878444D01*
X91914040Y-102713056D01*
X91786253Y-102571134D01*
X91631752Y-102458882D01*
X91625724Y-102456198D01*
X91625722Y-102456197D01*
X91463319Y-102383891D01*
X91463318Y-102383891D01*
X91457288Y-102381206D01*
X91363887Y-102361353D01*
X91276944Y-102342872D01*
X91276939Y-102342872D01*
X91270487Y-102341500D01*
X91079513Y-102341500D01*
X91073061Y-102342872D01*
X91073056Y-102342872D01*
X90986113Y-102361353D01*
X90892712Y-102381206D01*
X90886682Y-102383891D01*
X90886681Y-102383891D01*
X90724278Y-102456197D01*
X90724276Y-102456198D01*
X90718248Y-102458882D01*
X90563747Y-102571134D01*
X90435960Y-102713056D01*
X90340473Y-102878444D01*
X90281458Y-103060072D01*
X90261496Y-103250000D01*
X65675000Y-103250000D01*
X65675000Y-98425000D01*
X91361496Y-98425000D01*
X91381458Y-98614928D01*
X91440473Y-98796556D01*
X91535960Y-98961944D01*
X91540378Y-98966851D01*
X91540379Y-98966852D01*
X91558470Y-98986944D01*
X91663747Y-99103866D01*
X91818248Y-99216118D01*
X91824276Y-99218802D01*
X91824278Y-99218803D01*
X91986681Y-99291109D01*
X91992712Y-99293794D01*
X92086112Y-99313647D01*
X92173056Y-99332128D01*
X92173061Y-99332128D01*
X92179513Y-99333500D01*
X92370487Y-99333500D01*
X92376939Y-99332128D01*
X92376944Y-99332128D01*
X92463888Y-99313647D01*
X92557288Y-99293794D01*
X92563319Y-99291109D01*
X92725722Y-99218803D01*
X92725724Y-99218802D01*
X92731752Y-99216118D01*
X92813438Y-99156769D01*
X92880307Y-99132910D01*
X92949458Y-99148991D01*
X92961561Y-99156769D01*
X93043248Y-99216118D01*
X93049276Y-99218802D01*
X93049278Y-99218803D01*
X93211681Y-99291109D01*
X93217712Y-99293794D01*
X93311112Y-99313647D01*
X93398056Y-99332128D01*
X93398061Y-99332128D01*
X93404513Y-99333500D01*
X93595487Y-99333500D01*
X93601939Y-99332128D01*
X93601944Y-99332128D01*
X93688888Y-99313647D01*
X93782288Y-99293794D01*
X93788319Y-99291109D01*
X93950722Y-99218803D01*
X93950724Y-99218802D01*
X93956752Y-99216118D01*
X94111253Y-99103866D01*
X94112678Y-99105828D01*
X94166767Y-99079877D01*
X94237220Y-99088647D01*
X94280694Y-99119922D01*
X94288747Y-99128866D01*
X94316447Y-99148991D01*
X94408839Y-99216118D01*
X94443248Y-99241118D01*
X94449276Y-99243802D01*
X94449278Y-99243803D01*
X94564642Y-99295166D01*
X94617712Y-99318794D01*
X94711113Y-99338647D01*
X94798056Y-99357128D01*
X94798061Y-99357128D01*
X94804513Y-99358500D01*
X94995487Y-99358500D01*
X95001939Y-99357128D01*
X95001944Y-99357128D01*
X95088887Y-99338647D01*
X95182288Y-99318794D01*
X95235358Y-99295166D01*
X95350722Y-99243803D01*
X95350724Y-99243802D01*
X95356752Y-99241118D01*
X95391162Y-99216118D01*
X95483553Y-99148991D01*
X95511253Y-99128866D01*
X95530267Y-99107749D01*
X95634621Y-98991852D01*
X95634622Y-98991851D01*
X95639040Y-98986944D01*
X95734527Y-98821556D01*
X95793542Y-98639928D01*
X95796860Y-98608365D01*
X95812814Y-98456565D01*
X95813504Y-98450000D01*
X95793542Y-98260072D01*
X95734527Y-98078444D01*
X95639040Y-97913056D01*
X95621679Y-97893774D01*
X95515675Y-97776045D01*
X95515674Y-97776044D01*
X95511253Y-97771134D01*
X95356752Y-97658882D01*
X95350724Y-97656198D01*
X95350722Y-97656197D01*
X95188319Y-97583891D01*
X95188318Y-97583891D01*
X95182288Y-97581206D01*
X95077018Y-97558830D01*
X95001944Y-97542872D01*
X95001939Y-97542872D01*
X94995487Y-97541500D01*
X94804513Y-97541500D01*
X94798061Y-97542872D01*
X94798056Y-97542872D01*
X94722982Y-97558830D01*
X94617712Y-97581206D01*
X94611682Y-97583891D01*
X94611681Y-97583891D01*
X94449278Y-97656197D01*
X94449276Y-97656198D01*
X94443248Y-97658882D01*
X94437907Y-97662762D01*
X94437906Y-97662763D01*
X94415390Y-97679122D01*
X94288747Y-97771134D01*
X94287322Y-97769172D01*
X94233233Y-97795123D01*
X94162780Y-97786353D01*
X94119305Y-97755077D01*
X94115674Y-97751044D01*
X94111253Y-97746134D01*
X93996503Y-97662763D01*
X93962094Y-97637763D01*
X93962093Y-97637762D01*
X93956752Y-97633882D01*
X93950724Y-97631198D01*
X93950722Y-97631197D01*
X93788319Y-97558891D01*
X93788318Y-97558891D01*
X93782288Y-97556206D01*
X93688888Y-97536353D01*
X93601944Y-97517872D01*
X93601939Y-97517872D01*
X93595487Y-97516500D01*
X93404513Y-97516500D01*
X93398061Y-97517872D01*
X93398056Y-97517872D01*
X93311112Y-97536353D01*
X93217712Y-97556206D01*
X93211682Y-97558891D01*
X93211681Y-97558891D01*
X93049278Y-97631197D01*
X93049276Y-97631198D01*
X93043248Y-97633882D01*
X93037907Y-97637762D01*
X93037906Y-97637763D01*
X92961561Y-97693231D01*
X92894693Y-97717090D01*
X92825542Y-97701009D01*
X92813439Y-97693231D01*
X92737094Y-97637763D01*
X92737093Y-97637762D01*
X92731752Y-97633882D01*
X92725724Y-97631198D01*
X92725722Y-97631197D01*
X92563319Y-97558891D01*
X92563318Y-97558891D01*
X92557288Y-97556206D01*
X92463888Y-97536353D01*
X92376944Y-97517872D01*
X92376939Y-97517872D01*
X92370487Y-97516500D01*
X92179513Y-97516500D01*
X92173061Y-97517872D01*
X92173056Y-97517872D01*
X92086112Y-97536353D01*
X91992712Y-97556206D01*
X91986682Y-97558891D01*
X91986681Y-97558891D01*
X91824278Y-97631197D01*
X91824276Y-97631198D01*
X91818248Y-97633882D01*
X91812907Y-97637762D01*
X91812906Y-97637763D01*
X91778497Y-97662763D01*
X91663747Y-97746134D01*
X91659326Y-97751044D01*
X91659325Y-97751045D01*
X91563745Y-97857198D01*
X91535960Y-97888056D01*
X91440473Y-98053444D01*
X91381458Y-98235072D01*
X91380768Y-98241633D01*
X91380768Y-98241635D01*
X91362186Y-98418435D01*
X91361496Y-98425000D01*
X65675000Y-98425000D01*
X65675000Y-97174000D01*
X79111500Y-97174000D01*
X79111860Y-97177346D01*
X79111860Y-97177351D01*
X79122774Y-97278866D01*
X79123234Y-97283149D01*
X79123952Y-97286449D01*
X79123952Y-97286450D01*
X79130961Y-97318669D01*
X79134620Y-97335491D01*
X79169290Y-97439657D01*
X79248308Y-97562612D01*
X79251250Y-97566007D01*
X79251252Y-97566010D01*
X79266746Y-97583891D01*
X79294801Y-97616268D01*
X79298194Y-97619208D01*
X79398450Y-97706081D01*
X79398453Y-97706083D01*
X79405261Y-97711982D01*
X79538210Y-97772698D01*
X79549609Y-97776045D01*
X79602008Y-97791431D01*
X79602012Y-97791432D01*
X79606331Y-97792700D01*
X79610780Y-97793340D01*
X79610786Y-97793341D01*
X79746553Y-97812861D01*
X79746558Y-97812861D01*
X79751000Y-97813500D01*
X84636016Y-97813500D01*
X84692098Y-97810428D01*
X84719457Y-97807422D01*
X84774880Y-97798241D01*
X84911581Y-97746523D01*
X84924379Y-97739457D01*
X84969795Y-97714381D01*
X84969802Y-97714377D01*
X84973733Y-97712206D01*
X85072213Y-97637763D01*
X85083126Y-97629514D01*
X85083128Y-97629512D01*
X85090314Y-97624080D01*
X85095681Y-97616841D01*
X85174679Y-97510281D01*
X85174682Y-97510276D01*
X85177357Y-97506668D01*
X85179494Y-97502711D01*
X85200372Y-97464049D01*
X85200373Y-97464047D01*
X85206141Y-97453365D01*
X85204397Y-97452423D01*
X85206083Y-97447552D01*
X85242838Y-97372796D01*
X85242842Y-97372786D01*
X85244825Y-97368753D01*
X85261928Y-97316118D01*
X85283070Y-97251049D01*
X85293784Y-97226985D01*
X85322057Y-97178015D01*
X85337540Y-97156705D01*
X85375374Y-97114686D01*
X85394948Y-97097060D01*
X85440701Y-97063818D01*
X85463514Y-97050647D01*
X85515169Y-97027649D01*
X85540216Y-97019511D01*
X85595534Y-97007753D01*
X85621730Y-97005000D01*
X85678270Y-97005000D01*
X85704466Y-97007753D01*
X85759784Y-97019511D01*
X85784831Y-97027649D01*
X85836486Y-97050647D01*
X85859299Y-97063818D01*
X85905052Y-97097060D01*
X85924626Y-97114686D01*
X85962460Y-97156705D01*
X85977943Y-97178015D01*
X86006216Y-97226985D01*
X86016930Y-97251049D01*
X86054485Y-97366631D01*
X86054490Y-97366644D01*
X86055175Y-97368753D01*
X86056010Y-97370814D01*
X86056033Y-97370871D01*
X86058898Y-97378671D01*
X86061771Y-97387369D01*
X86062404Y-97388983D01*
X86079998Y-97433854D01*
X86080000Y-97433859D01*
X86082274Y-97439657D01*
X86085641Y-97444897D01*
X86085643Y-97444900D01*
X86100999Y-97468794D01*
X86161292Y-97562612D01*
X86164234Y-97566007D01*
X86164236Y-97566010D01*
X86179730Y-97583891D01*
X86207785Y-97616268D01*
X86211178Y-97619208D01*
X86311434Y-97706081D01*
X86311437Y-97706083D01*
X86318245Y-97711982D01*
X86451194Y-97772698D01*
X86462593Y-97776045D01*
X86514992Y-97791431D01*
X86514996Y-97791432D01*
X86519315Y-97792700D01*
X86523764Y-97793340D01*
X86523770Y-97793341D01*
X86659537Y-97812861D01*
X86659542Y-97812861D01*
X86663984Y-97813500D01*
X90824000Y-97813500D01*
X90827346Y-97813140D01*
X90827351Y-97813140D01*
X90929785Y-97802128D01*
X90929792Y-97802127D01*
X90933149Y-97801766D01*
X90949354Y-97798241D01*
X90982210Y-97791094D01*
X90982215Y-97791093D01*
X90985491Y-97790380D01*
X91089657Y-97755710D01*
X91212612Y-97676692D01*
X91266268Y-97630199D01*
X91308721Y-97581206D01*
X91356081Y-97526550D01*
X91356083Y-97526547D01*
X91361982Y-97519739D01*
X91369759Y-97502711D01*
X91398554Y-97439657D01*
X91422698Y-97386790D01*
X91442700Y-97318669D01*
X91447333Y-97286450D01*
X91462861Y-97178447D01*
X91462861Y-97178442D01*
X91463500Y-97174000D01*
X91463500Y-96525000D01*
X99736496Y-96525000D01*
X99756458Y-96714928D01*
X99815473Y-96896556D01*
X99910960Y-97061944D01*
X99915378Y-97066851D01*
X99915379Y-97066852D01*
X100014873Y-97177351D01*
X100038747Y-97203866D01*
X100193248Y-97316118D01*
X100199276Y-97318802D01*
X100199278Y-97318803D01*
X100361681Y-97391109D01*
X100367712Y-97393794D01*
X100461113Y-97413647D01*
X100548056Y-97432128D01*
X100548061Y-97432128D01*
X100554513Y-97433500D01*
X100745487Y-97433500D01*
X100751939Y-97432128D01*
X100751944Y-97432128D01*
X100838887Y-97413647D01*
X100932288Y-97393794D01*
X100938319Y-97391109D01*
X101100722Y-97318803D01*
X101100724Y-97318802D01*
X101106752Y-97316118D01*
X101261253Y-97203866D01*
X101285127Y-97177351D01*
X101384621Y-97066852D01*
X101384622Y-97066851D01*
X101389040Y-97061944D01*
X101484527Y-96896556D01*
X101543542Y-96714928D01*
X101555621Y-96600000D01*
X103061496Y-96600000D01*
X103081458Y-96789928D01*
X103140473Y-96971556D01*
X103235960Y-97136944D01*
X103240378Y-97141851D01*
X103240379Y-97141852D01*
X103272940Y-97178015D01*
X103363747Y-97278866D01*
X103441684Y-97335491D01*
X103490381Y-97370871D01*
X103518248Y-97391118D01*
X103524276Y-97393802D01*
X103524278Y-97393803D01*
X103686681Y-97466109D01*
X103692712Y-97468794D01*
X103786112Y-97488647D01*
X103873056Y-97507128D01*
X103873061Y-97507128D01*
X103879513Y-97508500D01*
X104070487Y-97508500D01*
X104076939Y-97507128D01*
X104076944Y-97507128D01*
X104163887Y-97488647D01*
X104257288Y-97468794D01*
X104263319Y-97466109D01*
X104425722Y-97393803D01*
X104425724Y-97393802D01*
X104431752Y-97391118D01*
X104459620Y-97370871D01*
X104508316Y-97335491D01*
X104586253Y-97278866D01*
X104677060Y-97178015D01*
X104709621Y-97141852D01*
X104709622Y-97141851D01*
X104714040Y-97136944D01*
X104809527Y-96971556D01*
X104868542Y-96789928D01*
X104888504Y-96600000D01*
X104868542Y-96410072D01*
X104809527Y-96228444D01*
X104714040Y-96063056D01*
X104610549Y-95948117D01*
X104579833Y-95884112D01*
X104588597Y-95813658D01*
X104612691Y-95780161D01*
X104611253Y-95778866D01*
X104734621Y-95641852D01*
X104734625Y-95641847D01*
X104739040Y-95636944D01*
X104834527Y-95471556D01*
X104893542Y-95289928D01*
X104896860Y-95258365D01*
X104912814Y-95106565D01*
X104913504Y-95100000D01*
X104893542Y-94910072D01*
X104834527Y-94728444D01*
X104739040Y-94563056D01*
X104721679Y-94543774D01*
X104615675Y-94426045D01*
X104615674Y-94426044D01*
X104611253Y-94421134D01*
X104456752Y-94308882D01*
X104450724Y-94306198D01*
X104450722Y-94306197D01*
X104288319Y-94233891D01*
X104288318Y-94233891D01*
X104282288Y-94231206D01*
X104177305Y-94208891D01*
X104101944Y-94192872D01*
X104101939Y-94192872D01*
X104095487Y-94191500D01*
X103904513Y-94191500D01*
X103898061Y-94192872D01*
X103898056Y-94192872D01*
X103822695Y-94208891D01*
X103717712Y-94231206D01*
X103711682Y-94233891D01*
X103711681Y-94233891D01*
X103549278Y-94306197D01*
X103549276Y-94306198D01*
X103543248Y-94308882D01*
X103388747Y-94421134D01*
X103384326Y-94426044D01*
X103384325Y-94426045D01*
X103278322Y-94543774D01*
X103260960Y-94563056D01*
X103165473Y-94728444D01*
X103106458Y-94910072D01*
X103086496Y-95100000D01*
X103087186Y-95106565D01*
X103103141Y-95258365D01*
X103106458Y-95289928D01*
X103165473Y-95471556D01*
X103260960Y-95636944D01*
X103364451Y-95751883D01*
X103395167Y-95815888D01*
X103386403Y-95886342D01*
X103362309Y-95919839D01*
X103363747Y-95921134D01*
X103235960Y-96063056D01*
X103140473Y-96228444D01*
X103081458Y-96410072D01*
X103061496Y-96600000D01*
X101555621Y-96600000D01*
X101563504Y-96525000D01*
X101543542Y-96335072D01*
X101484527Y-96153444D01*
X101389040Y-95988056D01*
X101327617Y-95919839D01*
X101295627Y-95884310D01*
X101264909Y-95820303D01*
X101273674Y-95749849D01*
X101295627Y-95715690D01*
X101384621Y-95616852D01*
X101384622Y-95616851D01*
X101389040Y-95611944D01*
X101484527Y-95446556D01*
X101543542Y-95264928D01*
X101563504Y-95075000D01*
X101562814Y-95068435D01*
X101544232Y-94891635D01*
X101544232Y-94891633D01*
X101543542Y-94885072D01*
X101484527Y-94703444D01*
X101389040Y-94538056D01*
X101261253Y-94396134D01*
X101146503Y-94312763D01*
X101112094Y-94287763D01*
X101112093Y-94287762D01*
X101106752Y-94283882D01*
X101100724Y-94281198D01*
X101100722Y-94281197D01*
X100938319Y-94208891D01*
X100938318Y-94208891D01*
X100932288Y-94206206D01*
X100838887Y-94186353D01*
X100751944Y-94167872D01*
X100751939Y-94167872D01*
X100745487Y-94166500D01*
X100554513Y-94166500D01*
X100548061Y-94167872D01*
X100548056Y-94167872D01*
X100461113Y-94186353D01*
X100367712Y-94206206D01*
X100361682Y-94208891D01*
X100361681Y-94208891D01*
X100199278Y-94281197D01*
X100199276Y-94281198D01*
X100193248Y-94283882D01*
X100187907Y-94287762D01*
X100187906Y-94287763D01*
X100153497Y-94312763D01*
X100038747Y-94396134D01*
X99910960Y-94538056D01*
X99815473Y-94703444D01*
X99756458Y-94885072D01*
X99755768Y-94891633D01*
X99755768Y-94891635D01*
X99737186Y-95068435D01*
X99736496Y-95075000D01*
X99756458Y-95264928D01*
X99815473Y-95446556D01*
X99910960Y-95611944D01*
X99915378Y-95616851D01*
X99915379Y-95616852D01*
X100004373Y-95715690D01*
X100035091Y-95779697D01*
X100026326Y-95850151D01*
X100004373Y-95884310D01*
X99972383Y-95919839D01*
X99910960Y-95988056D01*
X99815473Y-96153444D01*
X99756458Y-96335072D01*
X99736496Y-96525000D01*
X91463500Y-96525000D01*
X91463500Y-92250000D01*
X92361496Y-92250000D01*
X92381458Y-92439928D01*
X92440473Y-92621556D01*
X92535960Y-92786944D01*
X92540378Y-92791851D01*
X92540379Y-92791852D01*
X92659325Y-92923955D01*
X92663747Y-92928866D01*
X92818248Y-93041118D01*
X92824276Y-93043802D01*
X92824278Y-93043803D01*
X92898299Y-93076759D01*
X92992712Y-93118794D01*
X93086112Y-93138647D01*
X93173056Y-93157128D01*
X93173061Y-93157128D01*
X93179513Y-93158500D01*
X93370487Y-93158500D01*
X93376939Y-93157128D01*
X93376944Y-93157128D01*
X93463888Y-93138647D01*
X93557288Y-93118794D01*
X93651701Y-93076759D01*
X93725722Y-93043803D01*
X93725724Y-93043802D01*
X93731752Y-93041118D01*
X93886253Y-92928866D01*
X93890675Y-92923955D01*
X94009621Y-92791852D01*
X94009622Y-92791851D01*
X94014040Y-92786944D01*
X94109527Y-92621556D01*
X94168542Y-92439928D01*
X94188504Y-92250000D01*
X94168542Y-92060072D01*
X94109527Y-91878444D01*
X94093105Y-91850000D01*
X95461835Y-91850000D01*
X95480465Y-92086711D01*
X95535895Y-92317594D01*
X95537788Y-92322165D01*
X95537789Y-92322167D01*
X95583849Y-92433365D01*
X95626760Y-92536963D01*
X95629346Y-92541183D01*
X95748241Y-92735202D01*
X95748245Y-92735208D01*
X95750824Y-92739416D01*
X95905031Y-92919969D01*
X96085584Y-93074176D01*
X96089792Y-93076755D01*
X96089798Y-93076759D01*
X96267247Y-93185500D01*
X96288037Y-93198240D01*
X96292607Y-93200133D01*
X96292611Y-93200135D01*
X96421739Y-93253621D01*
X96507406Y-93289105D01*
X96553262Y-93300114D01*
X96733476Y-93343380D01*
X96733482Y-93343381D01*
X96738289Y-93344535D01*
X96975000Y-93363165D01*
X97211711Y-93344535D01*
X97216518Y-93343381D01*
X97216524Y-93343380D01*
X97396738Y-93300114D01*
X97442594Y-93289105D01*
X97528261Y-93253621D01*
X97657389Y-93200135D01*
X97657393Y-93200133D01*
X97661963Y-93198240D01*
X97682753Y-93185500D01*
X97860202Y-93076759D01*
X97860208Y-93076755D01*
X97864416Y-93074176D01*
X98044969Y-92919969D01*
X98199176Y-92739416D01*
X98201755Y-92735208D01*
X98201759Y-92735202D01*
X98320654Y-92541183D01*
X98323240Y-92536963D01*
X98366152Y-92433365D01*
X98412211Y-92322167D01*
X98412212Y-92322165D01*
X98414105Y-92317594D01*
X98469535Y-92086711D01*
X98488165Y-91850000D01*
X98469535Y-91613289D01*
X98459415Y-91571134D01*
X98415260Y-91387218D01*
X98414105Y-91382406D01*
X98397730Y-91342872D01*
X98325135Y-91167611D01*
X98325133Y-91167607D01*
X98323240Y-91163037D01*
X98320654Y-91158817D01*
X98201759Y-90964798D01*
X98201755Y-90964792D01*
X98199176Y-90960584D01*
X98044969Y-90780031D01*
X97864416Y-90625824D01*
X97860208Y-90623245D01*
X97860202Y-90623241D01*
X97666183Y-90504346D01*
X97661963Y-90501760D01*
X97657393Y-90499867D01*
X97657389Y-90499865D01*
X97447167Y-90412789D01*
X97447165Y-90412788D01*
X97442594Y-90410895D01*
X97362391Y-90391640D01*
X97216524Y-90356620D01*
X97216518Y-90356619D01*
X97211711Y-90355465D01*
X96975000Y-90336835D01*
X96738289Y-90355465D01*
X96733482Y-90356619D01*
X96733476Y-90356620D01*
X96587609Y-90391640D01*
X96507406Y-90410895D01*
X96502835Y-90412788D01*
X96502833Y-90412789D01*
X96292611Y-90499865D01*
X96292607Y-90499867D01*
X96288037Y-90501760D01*
X96283817Y-90504346D01*
X96089798Y-90623241D01*
X96089792Y-90623245D01*
X96085584Y-90625824D01*
X95905031Y-90780031D01*
X95750824Y-90960584D01*
X95748245Y-90964792D01*
X95748241Y-90964798D01*
X95629346Y-91158817D01*
X95626760Y-91163037D01*
X95624867Y-91167607D01*
X95624865Y-91167611D01*
X95552270Y-91342872D01*
X95535895Y-91382406D01*
X95534740Y-91387218D01*
X95490586Y-91571134D01*
X95480465Y-91613289D01*
X95461835Y-91850000D01*
X94093105Y-91850000D01*
X94090259Y-91845070D01*
X94017341Y-91718774D01*
X94014040Y-91713056D01*
X93924210Y-91613289D01*
X93890675Y-91576045D01*
X93890674Y-91576044D01*
X93886253Y-91571134D01*
X93731752Y-91458882D01*
X93725724Y-91456198D01*
X93725722Y-91456197D01*
X93563319Y-91383891D01*
X93563318Y-91383891D01*
X93557288Y-91381206D01*
X93463887Y-91361353D01*
X93376944Y-91342872D01*
X93376939Y-91342872D01*
X93370487Y-91341500D01*
X93179513Y-91341500D01*
X93173061Y-91342872D01*
X93173056Y-91342872D01*
X93086113Y-91361353D01*
X92992712Y-91381206D01*
X92986682Y-91383891D01*
X92986681Y-91383891D01*
X92824278Y-91456197D01*
X92824276Y-91456198D01*
X92818248Y-91458882D01*
X92663747Y-91571134D01*
X92659326Y-91576044D01*
X92659325Y-91576045D01*
X92625791Y-91613289D01*
X92535960Y-91713056D01*
X92532659Y-91718774D01*
X92459742Y-91845070D01*
X92440473Y-91878444D01*
X92381458Y-92060072D01*
X92361496Y-92250000D01*
X91463500Y-92250000D01*
X91463500Y-89826000D01*
X91463140Y-89822649D01*
X91452128Y-89720215D01*
X91452127Y-89720208D01*
X91451766Y-89716851D01*
X91450816Y-89712484D01*
X91441094Y-89667790D01*
X91441093Y-89667785D01*
X91440380Y-89664509D01*
X91439320Y-89661326D01*
X91439317Y-89661313D01*
X91412017Y-89579290D01*
X91409483Y-89508339D01*
X91445711Y-89447281D01*
X91509198Y-89415502D01*
X91531569Y-89413500D01*
X99643723Y-89413500D01*
X99711844Y-89433502D01*
X99758337Y-89487158D01*
X99769634Y-89534773D01*
X99771751Y-89591158D01*
X99819093Y-89816791D01*
X99903776Y-90031221D01*
X100023377Y-90228317D01*
X100026874Y-90232347D01*
X100113438Y-90332103D01*
X100174477Y-90402445D01*
X100216030Y-90436516D01*
X100348627Y-90545240D01*
X100348633Y-90545244D01*
X100352755Y-90548624D01*
X100357391Y-90551263D01*
X100357394Y-90551265D01*
X100466422Y-90613327D01*
X100553114Y-90662675D01*
X100769825Y-90741337D01*
X100775074Y-90742286D01*
X100775077Y-90742287D01*
X100992608Y-90781623D01*
X100992615Y-90781624D01*
X100996692Y-90782361D01*
X101014414Y-90783197D01*
X101019356Y-90783430D01*
X101019363Y-90783430D01*
X101020844Y-90783500D01*
X101482890Y-90783500D01*
X101561581Y-90776823D01*
X101649409Y-90769371D01*
X101649413Y-90769370D01*
X101654720Y-90768920D01*
X101659875Y-90767582D01*
X101659881Y-90767581D01*
X101872703Y-90712343D01*
X101872707Y-90712342D01*
X101877872Y-90711001D01*
X101882738Y-90708809D01*
X101882741Y-90708808D01*
X102083202Y-90618507D01*
X102088075Y-90616312D01*
X102279319Y-90487559D01*
X102446135Y-90328424D01*
X102583754Y-90143458D01*
X102688240Y-89937949D01*
X102723002Y-89826000D01*
X102755024Y-89722871D01*
X102756607Y-89717773D01*
X102769893Y-89617529D01*
X102782429Y-89522945D01*
X102811208Y-89458043D01*
X102870507Y-89419003D01*
X102907337Y-89413500D01*
X114574000Y-89413500D01*
X114577346Y-89413140D01*
X114577351Y-89413140D01*
X114679785Y-89402128D01*
X114679792Y-89402127D01*
X114683149Y-89401766D01*
X114686450Y-89401048D01*
X114732210Y-89391094D01*
X114732215Y-89391093D01*
X114735491Y-89390380D01*
X114839657Y-89355710D01*
X114962612Y-89276692D01*
X115016268Y-89230199D01*
X115034100Y-89209620D01*
X115106081Y-89126550D01*
X115106083Y-89126547D01*
X115111982Y-89119739D01*
X115172698Y-88986790D01*
X115192700Y-88918669D01*
X115197333Y-88886450D01*
X115212861Y-88778447D01*
X115212861Y-88778442D01*
X115213500Y-88774000D01*
X115213500Y-74476000D01*
X115201766Y-74366851D01*
X115201048Y-74363550D01*
X115191094Y-74317790D01*
X115191093Y-74317785D01*
X115190380Y-74314509D01*
X115155710Y-74210343D01*
X115076692Y-74087388D01*
X115030199Y-74033732D01*
X115020933Y-74025703D01*
X114926550Y-73943919D01*
X114926547Y-73943917D01*
X114919739Y-73938018D01*
X114786790Y-73877302D01*
X114763036Y-73870327D01*
X114722992Y-73858569D01*
X114722988Y-73858568D01*
X114718669Y-73857300D01*
X114714220Y-73856660D01*
X114714214Y-73856659D01*
X114578447Y-73837139D01*
X114578442Y-73837139D01*
X114574000Y-73836500D01*
X101351000Y-73836500D01*
X101347654Y-73836860D01*
X101347649Y-73836860D01*
X101245215Y-73847872D01*
X101245208Y-73847873D01*
X101241851Y-73848234D01*
X101238551Y-73848952D01*
X101238550Y-73848952D01*
X101192790Y-73858906D01*
X101192785Y-73858907D01*
X101189509Y-73859620D01*
X101085343Y-73894290D01*
X100962388Y-73973308D01*
X100908732Y-74019801D01*
X100905792Y-74023194D01*
X100818919Y-74123450D01*
X100818917Y-74123453D01*
X100813018Y-74130261D01*
X100752302Y-74263210D01*
X100732300Y-74331331D01*
X100731660Y-74335780D01*
X100731659Y-74335786D01*
X100727193Y-74366851D01*
X100711500Y-74476000D01*
X100711500Y-85235500D01*
X100691498Y-85303621D01*
X100637842Y-85350114D01*
X100585500Y-85361500D01*
X89876000Y-85361500D01*
X89872654Y-85361860D01*
X89872649Y-85361860D01*
X89770215Y-85372872D01*
X89770208Y-85372873D01*
X89766851Y-85373234D01*
X89763551Y-85373952D01*
X89763550Y-85373952D01*
X89717790Y-85383906D01*
X89717785Y-85383907D01*
X89714509Y-85384620D01*
X89610343Y-85419290D01*
X89487388Y-85498308D01*
X89433732Y-85544801D01*
X89430792Y-85548194D01*
X89343919Y-85648450D01*
X89343917Y-85648453D01*
X89338018Y-85655261D01*
X89277302Y-85788210D01*
X89257300Y-85856331D01*
X89256660Y-85860780D01*
X89256659Y-85860786D01*
X89238361Y-85988056D01*
X89236500Y-86001000D01*
X89236500Y-88774000D01*
X89248234Y-88883149D01*
X89248952Y-88886449D01*
X89248952Y-88886450D01*
X89255961Y-88918669D01*
X89259620Y-88935491D01*
X89260680Y-88938674D01*
X89260683Y-88938687D01*
X89287983Y-89020710D01*
X89290517Y-89091661D01*
X89254289Y-89152719D01*
X89190802Y-89184498D01*
X89168431Y-89186500D01*
X88176000Y-89186500D01*
X88172654Y-89186860D01*
X88172649Y-89186860D01*
X88070215Y-89197872D01*
X88070208Y-89197873D01*
X88066851Y-89198234D01*
X88063551Y-89198952D01*
X88063550Y-89198952D01*
X88017790Y-89208906D01*
X88017785Y-89208907D01*
X88014509Y-89209620D01*
X87910343Y-89244290D01*
X87787388Y-89323308D01*
X87733732Y-89369801D01*
X87730792Y-89373194D01*
X87643919Y-89473450D01*
X87643917Y-89473453D01*
X87638018Y-89480261D01*
X87577302Y-89613210D01*
X87557300Y-89681331D01*
X87556660Y-89685780D01*
X87556659Y-89685786D01*
X87538574Y-89811572D01*
X87536500Y-89826000D01*
X87536500Y-93185500D01*
X87516498Y-93253621D01*
X87462842Y-93300114D01*
X87410500Y-93311500D01*
X79751000Y-93311500D01*
X79747654Y-93311860D01*
X79747649Y-93311860D01*
X79645215Y-93322872D01*
X79645208Y-93322873D01*
X79641851Y-93323234D01*
X79638551Y-93323952D01*
X79638550Y-93323952D01*
X79592790Y-93333906D01*
X79592785Y-93333907D01*
X79589509Y-93334620D01*
X79558554Y-93344923D01*
X79503746Y-93363165D01*
X79485343Y-93369290D01*
X79362388Y-93448308D01*
X79308732Y-93494801D01*
X79305792Y-93498194D01*
X79218919Y-93598450D01*
X79218917Y-93598453D01*
X79213018Y-93605261D01*
X79152302Y-93738210D01*
X79132300Y-93806331D01*
X79111500Y-93951000D01*
X79111500Y-97174000D01*
X65675000Y-97174000D01*
X65675000Y-86525000D01*
X78711496Y-86525000D01*
X78731458Y-86714928D01*
X78790473Y-86896556D01*
X78885960Y-87061944D01*
X79013747Y-87203866D01*
X79168248Y-87316118D01*
X79174276Y-87318802D01*
X79174278Y-87318803D01*
X79336681Y-87391109D01*
X79342712Y-87393794D01*
X79436113Y-87413647D01*
X79523056Y-87432128D01*
X79523061Y-87432128D01*
X79529513Y-87433500D01*
X79720487Y-87433500D01*
X79726939Y-87432128D01*
X79726944Y-87432128D01*
X79813887Y-87413647D01*
X79907288Y-87393794D01*
X79913319Y-87391109D01*
X80075722Y-87318803D01*
X80075724Y-87318802D01*
X80081752Y-87316118D01*
X80236253Y-87203866D01*
X80364040Y-87061944D01*
X80459527Y-86896556D01*
X80518542Y-86714928D01*
X80538504Y-86525000D01*
X80518542Y-86335072D01*
X80459527Y-86153444D01*
X80364040Y-85988056D01*
X80245435Y-85856331D01*
X80240675Y-85851045D01*
X80240674Y-85851044D01*
X80236253Y-85846134D01*
X80081752Y-85733882D01*
X80075724Y-85731198D01*
X80075722Y-85731197D01*
X79913319Y-85658891D01*
X79913318Y-85658891D01*
X79907288Y-85656206D01*
X79813887Y-85636353D01*
X79726944Y-85617872D01*
X79726939Y-85617872D01*
X79720487Y-85616500D01*
X79529513Y-85616500D01*
X79523061Y-85617872D01*
X79523056Y-85617872D01*
X79436113Y-85636353D01*
X79342712Y-85656206D01*
X79336682Y-85658891D01*
X79336681Y-85658891D01*
X79174278Y-85731197D01*
X79174276Y-85731198D01*
X79168248Y-85733882D01*
X79013747Y-85846134D01*
X79009326Y-85851044D01*
X79009325Y-85851045D01*
X79004566Y-85856331D01*
X78885960Y-85988056D01*
X78790473Y-86153444D01*
X78731458Y-86335072D01*
X78711496Y-86525000D01*
X65675000Y-86525000D01*
X65675000Y-83775000D01*
X82611496Y-83775000D01*
X82631458Y-83964928D01*
X82690473Y-84146556D01*
X82785960Y-84311944D01*
X82913747Y-84453866D01*
X83068248Y-84566118D01*
X83074276Y-84568802D01*
X83074278Y-84568803D01*
X83236681Y-84641109D01*
X83242712Y-84643794D01*
X83336112Y-84663647D01*
X83423056Y-84682128D01*
X83423061Y-84682128D01*
X83429513Y-84683500D01*
X83620487Y-84683500D01*
X83626939Y-84682128D01*
X83626944Y-84682128D01*
X83713888Y-84663647D01*
X83807288Y-84643794D01*
X83813319Y-84641109D01*
X83975722Y-84568803D01*
X83975724Y-84568802D01*
X83981752Y-84566118D01*
X84136253Y-84453866D01*
X84264040Y-84311944D01*
X84359527Y-84146556D01*
X84418542Y-83964928D01*
X84438504Y-83775000D01*
X84433847Y-83730690D01*
X84419232Y-83591635D01*
X84419232Y-83591633D01*
X84418542Y-83585072D01*
X84359527Y-83403444D01*
X84264040Y-83238056D01*
X84136253Y-83096134D01*
X84072755Y-83050000D01*
X85361496Y-83050000D01*
X85381458Y-83239928D01*
X85440473Y-83421556D01*
X85535960Y-83586944D01*
X85540378Y-83591851D01*
X85540379Y-83591852D01*
X85659325Y-83723955D01*
X85663747Y-83728866D01*
X85818248Y-83841118D01*
X85824276Y-83843802D01*
X85824278Y-83843803D01*
X85986681Y-83916109D01*
X85992712Y-83918794D01*
X86086113Y-83938647D01*
X86173056Y-83957128D01*
X86173061Y-83957128D01*
X86179513Y-83958500D01*
X86370487Y-83958500D01*
X86376939Y-83957128D01*
X86376944Y-83957128D01*
X86463887Y-83938647D01*
X86557288Y-83918794D01*
X86563319Y-83916109D01*
X86725722Y-83843803D01*
X86725724Y-83843802D01*
X86731752Y-83841118D01*
X86886253Y-83728866D01*
X86887578Y-83730690D01*
X86942206Y-83704479D01*
X87012659Y-83713248D01*
X87038178Y-83729649D01*
X87038747Y-83728866D01*
X87193248Y-83841118D01*
X87199276Y-83843802D01*
X87199278Y-83843803D01*
X87361681Y-83916109D01*
X87367712Y-83918794D01*
X87461113Y-83938647D01*
X87548056Y-83957128D01*
X87548061Y-83957128D01*
X87554513Y-83958500D01*
X87745487Y-83958500D01*
X87751939Y-83957128D01*
X87751944Y-83957128D01*
X87838887Y-83938647D01*
X87932288Y-83918794D01*
X87938319Y-83916109D01*
X88100722Y-83843803D01*
X88100724Y-83843802D01*
X88106752Y-83841118D01*
X88261253Y-83728866D01*
X88265675Y-83723955D01*
X88384621Y-83591852D01*
X88384622Y-83591851D01*
X88389040Y-83586944D01*
X88484527Y-83421556D01*
X88543542Y-83239928D01*
X88563504Y-83050000D01*
X88543542Y-82860072D01*
X88484527Y-82678444D01*
X88389040Y-82513056D01*
X88275316Y-82386752D01*
X88265675Y-82376045D01*
X88265674Y-82376044D01*
X88261253Y-82371134D01*
X88106752Y-82258882D01*
X88100724Y-82256198D01*
X88100722Y-82256197D01*
X87938319Y-82183891D01*
X87938318Y-82183891D01*
X87932288Y-82181206D01*
X87838887Y-82161353D01*
X87751944Y-82142872D01*
X87751939Y-82142872D01*
X87745487Y-82141500D01*
X87554513Y-82141500D01*
X87548061Y-82142872D01*
X87548056Y-82142872D01*
X87461113Y-82161353D01*
X87367712Y-82181206D01*
X87361682Y-82183891D01*
X87361681Y-82183891D01*
X87199278Y-82256197D01*
X87199276Y-82256198D01*
X87193248Y-82258882D01*
X87038747Y-82371134D01*
X87037422Y-82369310D01*
X86982794Y-82395521D01*
X86912341Y-82386752D01*
X86886822Y-82370351D01*
X86886253Y-82371134D01*
X86737094Y-82262763D01*
X86737093Y-82262762D01*
X86731752Y-82258882D01*
X86725724Y-82256198D01*
X86725722Y-82256197D01*
X86563319Y-82183891D01*
X86563318Y-82183891D01*
X86557288Y-82181206D01*
X86463887Y-82161353D01*
X86376944Y-82142872D01*
X86376939Y-82142872D01*
X86370487Y-82141500D01*
X86179513Y-82141500D01*
X86173061Y-82142872D01*
X86173056Y-82142872D01*
X86086113Y-82161353D01*
X85992712Y-82181206D01*
X85986682Y-82183891D01*
X85986681Y-82183891D01*
X85824278Y-82256197D01*
X85824276Y-82256198D01*
X85818248Y-82258882D01*
X85663747Y-82371134D01*
X85659326Y-82376044D01*
X85659325Y-82376045D01*
X85649685Y-82386752D01*
X85535960Y-82513056D01*
X85440473Y-82678444D01*
X85381458Y-82860072D01*
X85361496Y-83050000D01*
X84072755Y-83050000D01*
X83981752Y-82983882D01*
X83975724Y-82981198D01*
X83975722Y-82981197D01*
X83813319Y-82908891D01*
X83813318Y-82908891D01*
X83807288Y-82906206D01*
X83713887Y-82886353D01*
X83626944Y-82867872D01*
X83626939Y-82867872D01*
X83620487Y-82866500D01*
X83429513Y-82866500D01*
X83423061Y-82867872D01*
X83423056Y-82867872D01*
X83336113Y-82886353D01*
X83242712Y-82906206D01*
X83236682Y-82908891D01*
X83236681Y-82908891D01*
X83074278Y-82981197D01*
X83074276Y-82981198D01*
X83068248Y-82983882D01*
X82913747Y-83096134D01*
X82785960Y-83238056D01*
X82690473Y-83403444D01*
X82631458Y-83585072D01*
X82630768Y-83591633D01*
X82630768Y-83591635D01*
X82616153Y-83730690D01*
X82611496Y-83775000D01*
X65675000Y-83775000D01*
X65675000Y-68375000D01*
X72111496Y-68375000D01*
X72112186Y-68381565D01*
X72128141Y-68533365D01*
X72131458Y-68564928D01*
X72190473Y-68746556D01*
X72285960Y-68911944D01*
X72413747Y-69053866D01*
X72499429Y-69116118D01*
X72533839Y-69141118D01*
X72568248Y-69166118D01*
X72574276Y-69168802D01*
X72574278Y-69168803D01*
X72719591Y-69233500D01*
X72742712Y-69243794D01*
X72836112Y-69263647D01*
X72923056Y-69282128D01*
X72923061Y-69282128D01*
X72929513Y-69283500D01*
X73120487Y-69283500D01*
X73126939Y-69282128D01*
X73126944Y-69282128D01*
X73213888Y-69263647D01*
X73307288Y-69243794D01*
X73330409Y-69233500D01*
X73475722Y-69168803D01*
X73475724Y-69168802D01*
X73481752Y-69166118D01*
X73516162Y-69141118D01*
X73550571Y-69116118D01*
X73636253Y-69053866D01*
X73764040Y-68911944D01*
X73859527Y-68746556D01*
X73918542Y-68564928D01*
X73921860Y-68533365D01*
X73937814Y-68381565D01*
X73938504Y-68375000D01*
X73935876Y-68350000D01*
X74511496Y-68350000D01*
X74512186Y-68356565D01*
X74528141Y-68508365D01*
X74531458Y-68539928D01*
X74590473Y-68721556D01*
X74685960Y-68886944D01*
X74690378Y-68891851D01*
X74690379Y-68891852D01*
X74708470Y-68911944D01*
X74813747Y-69028866D01*
X74853501Y-69057749D01*
X74933839Y-69116118D01*
X74968248Y-69141118D01*
X74974276Y-69143802D01*
X74974278Y-69143803D01*
X75089642Y-69195166D01*
X75142712Y-69218794D01*
X75236112Y-69238647D01*
X75323056Y-69257128D01*
X75323061Y-69257128D01*
X75329513Y-69258500D01*
X75520487Y-69258500D01*
X75526939Y-69257128D01*
X75526944Y-69257128D01*
X75613888Y-69238647D01*
X75707288Y-69218794D01*
X75760358Y-69195166D01*
X75875722Y-69143803D01*
X75875724Y-69143802D01*
X75881752Y-69141118D01*
X75916162Y-69116118D01*
X75996499Y-69057749D01*
X76036253Y-69028866D01*
X76141530Y-68911944D01*
X76159621Y-68891852D01*
X76159622Y-68891851D01*
X76164040Y-68886944D01*
X76259527Y-68721556D01*
X76318542Y-68539928D01*
X76321860Y-68508365D01*
X76335877Y-68375000D01*
X76786496Y-68375000D01*
X76787186Y-68381565D01*
X76803141Y-68533365D01*
X76806458Y-68564928D01*
X76865473Y-68746556D01*
X76960960Y-68911944D01*
X77088747Y-69053866D01*
X77174429Y-69116118D01*
X77208839Y-69141118D01*
X77243248Y-69166118D01*
X77249276Y-69168802D01*
X77249278Y-69168803D01*
X77394591Y-69233500D01*
X77417712Y-69243794D01*
X77511112Y-69263647D01*
X77598056Y-69282128D01*
X77598061Y-69282128D01*
X77604513Y-69283500D01*
X77795487Y-69283500D01*
X77801939Y-69282128D01*
X77801944Y-69282128D01*
X77888888Y-69263647D01*
X77982288Y-69243794D01*
X78005409Y-69233500D01*
X78150722Y-69168803D01*
X78150724Y-69168802D01*
X78156752Y-69166118D01*
X78191162Y-69141118D01*
X78225571Y-69116118D01*
X78311253Y-69053866D01*
X78439040Y-68911944D01*
X78534527Y-68746556D01*
X78593542Y-68564928D01*
X78596860Y-68533365D01*
X78612814Y-68381565D01*
X78613504Y-68375000D01*
X78936496Y-68375000D01*
X78937186Y-68381565D01*
X78953141Y-68533365D01*
X78956458Y-68564928D01*
X79015473Y-68746556D01*
X79110960Y-68911944D01*
X79238747Y-69053866D01*
X79324429Y-69116118D01*
X79358839Y-69141118D01*
X79393248Y-69166118D01*
X79399276Y-69168802D01*
X79399278Y-69168803D01*
X79544591Y-69233500D01*
X79567712Y-69243794D01*
X79661112Y-69263647D01*
X79748056Y-69282128D01*
X79748061Y-69282128D01*
X79754513Y-69283500D01*
X79945487Y-69283500D01*
X79951939Y-69282128D01*
X79951944Y-69282128D01*
X80038888Y-69263647D01*
X80132288Y-69243794D01*
X80155409Y-69233500D01*
X80300722Y-69168803D01*
X80300724Y-69168802D01*
X80306752Y-69166118D01*
X80341162Y-69141118D01*
X80375571Y-69116118D01*
X80461253Y-69053866D01*
X80589040Y-68911944D01*
X80684527Y-68746556D01*
X80743542Y-68564928D01*
X80746860Y-68533365D01*
X80762814Y-68381565D01*
X80763504Y-68375000D01*
X80760876Y-68350000D01*
X81136496Y-68350000D01*
X81137186Y-68356565D01*
X81153141Y-68508365D01*
X81156458Y-68539928D01*
X81215473Y-68721556D01*
X81310960Y-68886944D01*
X81315378Y-68891851D01*
X81315379Y-68891852D01*
X81333470Y-68911944D01*
X81438747Y-69028866D01*
X81478501Y-69057749D01*
X81558839Y-69116118D01*
X81593248Y-69141118D01*
X81599276Y-69143802D01*
X81599278Y-69143803D01*
X81714642Y-69195166D01*
X81767712Y-69218794D01*
X81861112Y-69238647D01*
X81948056Y-69257128D01*
X81948061Y-69257128D01*
X81954513Y-69258500D01*
X82145487Y-69258500D01*
X82151939Y-69257128D01*
X82151944Y-69257128D01*
X82238888Y-69238647D01*
X82332288Y-69218794D01*
X82385358Y-69195166D01*
X82500722Y-69143803D01*
X82500724Y-69143802D01*
X82506752Y-69141118D01*
X82541162Y-69116118D01*
X82621499Y-69057749D01*
X82661253Y-69028866D01*
X82766530Y-68911944D01*
X82784621Y-68891852D01*
X82784622Y-68891851D01*
X82789040Y-68886944D01*
X82884527Y-68721556D01*
X82943542Y-68539928D01*
X82946860Y-68508365D01*
X82963504Y-68350000D01*
X82966447Y-68342846D01*
X82962242Y-68334495D01*
X82961905Y-68332152D01*
X83208553Y-68332152D01*
X83212758Y-68340503D01*
X83214122Y-68349989D01*
X83231458Y-68514928D01*
X83290473Y-68696556D01*
X83385960Y-68861944D01*
X83390378Y-68866851D01*
X83390379Y-68866852D01*
X83430980Y-68911944D01*
X83513747Y-69003866D01*
X83668248Y-69116118D01*
X83674276Y-69118802D01*
X83674278Y-69118803D01*
X83771833Y-69162237D01*
X83842712Y-69193794D01*
X83936113Y-69213647D01*
X84023056Y-69232128D01*
X84023061Y-69232128D01*
X84029513Y-69233500D01*
X84220487Y-69233500D01*
X84226939Y-69232128D01*
X84226944Y-69232128D01*
X84313887Y-69213647D01*
X84407288Y-69193794D01*
X84478167Y-69162237D01*
X84575722Y-69118803D01*
X84575724Y-69118802D01*
X84581752Y-69116118D01*
X84736253Y-69003866D01*
X84819020Y-68911944D01*
X84859621Y-68866852D01*
X84859622Y-68866851D01*
X84864040Y-68861944D01*
X84959527Y-68696556D01*
X85018542Y-68514928D01*
X85035876Y-68350000D01*
X85411496Y-68350000D01*
X85412186Y-68356565D01*
X85428141Y-68508365D01*
X85431458Y-68539928D01*
X85490473Y-68721556D01*
X85585960Y-68886944D01*
X85590378Y-68891851D01*
X85590379Y-68891852D01*
X85608470Y-68911944D01*
X85713747Y-69028866D01*
X85753501Y-69057749D01*
X85833839Y-69116118D01*
X85868248Y-69141118D01*
X85874276Y-69143802D01*
X85874278Y-69143803D01*
X85989642Y-69195166D01*
X86042712Y-69218794D01*
X86136112Y-69238647D01*
X86223056Y-69257128D01*
X86223061Y-69257128D01*
X86229513Y-69258500D01*
X86420487Y-69258500D01*
X86426939Y-69257128D01*
X86426944Y-69257128D01*
X86513888Y-69238647D01*
X86607288Y-69218794D01*
X86660358Y-69195166D01*
X86775722Y-69143803D01*
X86775724Y-69143802D01*
X86781752Y-69141118D01*
X86816162Y-69116118D01*
X86896499Y-69057749D01*
X86936253Y-69028866D01*
X87041530Y-68911944D01*
X87059621Y-68891852D01*
X87059622Y-68891851D01*
X87064040Y-68886944D01*
X87159527Y-68721556D01*
X87218542Y-68539928D01*
X87221860Y-68508365D01*
X87237814Y-68356565D01*
X87238504Y-68350000D01*
X87235186Y-68318435D01*
X87219232Y-68166635D01*
X87219232Y-68166633D01*
X87218542Y-68160072D01*
X87159527Y-67978444D01*
X87064040Y-67813056D01*
X87046679Y-67793774D01*
X86940675Y-67676045D01*
X86940674Y-67676044D01*
X86936253Y-67671134D01*
X86821503Y-67587763D01*
X86787094Y-67562763D01*
X86787093Y-67562762D01*
X86781752Y-67558882D01*
X86775724Y-67556198D01*
X86775722Y-67556197D01*
X86613319Y-67483891D01*
X86613318Y-67483891D01*
X86607288Y-67481206D01*
X86502305Y-67458891D01*
X86426944Y-67442872D01*
X86426939Y-67442872D01*
X86420487Y-67441500D01*
X86229513Y-67441500D01*
X86223061Y-67442872D01*
X86223056Y-67442872D01*
X86147695Y-67458891D01*
X86042712Y-67481206D01*
X86036682Y-67483891D01*
X86036681Y-67483891D01*
X85874278Y-67556197D01*
X85874276Y-67556198D01*
X85868248Y-67558882D01*
X85862907Y-67562762D01*
X85862906Y-67562763D01*
X85828497Y-67587763D01*
X85713747Y-67671134D01*
X85709326Y-67676044D01*
X85709325Y-67676045D01*
X85603322Y-67793774D01*
X85585960Y-67813056D01*
X85490473Y-67978444D01*
X85431458Y-68160072D01*
X85430768Y-68166633D01*
X85430768Y-68166635D01*
X85414814Y-68318435D01*
X85411496Y-68350000D01*
X85035876Y-68350000D01*
X85038504Y-68325000D01*
X85023137Y-68178794D01*
X85019232Y-68141635D01*
X85019232Y-68141633D01*
X85018542Y-68135072D01*
X84959527Y-67953444D01*
X84864040Y-67788056D01*
X84736253Y-67646134D01*
X84621503Y-67562763D01*
X84587094Y-67537763D01*
X84587093Y-67537762D01*
X84581752Y-67533882D01*
X84575724Y-67531198D01*
X84575722Y-67531197D01*
X84413319Y-67458891D01*
X84413318Y-67458891D01*
X84407288Y-67456206D01*
X84313887Y-67436353D01*
X84226944Y-67417872D01*
X84226939Y-67417872D01*
X84220487Y-67416500D01*
X84029513Y-67416500D01*
X84023061Y-67417872D01*
X84023056Y-67417872D01*
X83936113Y-67436353D01*
X83842712Y-67456206D01*
X83836682Y-67458891D01*
X83836681Y-67458891D01*
X83674278Y-67531197D01*
X83674276Y-67531198D01*
X83668248Y-67533882D01*
X83662907Y-67537762D01*
X83662906Y-67537763D01*
X83628497Y-67562763D01*
X83513747Y-67646134D01*
X83385960Y-67788056D01*
X83290473Y-67953444D01*
X83231458Y-68135072D01*
X83230769Y-68141631D01*
X83230768Y-68141634D01*
X83211496Y-68324999D01*
X83208553Y-68332152D01*
X82961905Y-68332152D01*
X82960876Y-68324998D01*
X82944232Y-68166635D01*
X82944232Y-68166633D01*
X82943542Y-68160072D01*
X82884527Y-67978444D01*
X82789040Y-67813056D01*
X82771679Y-67793774D01*
X82665675Y-67676045D01*
X82665674Y-67676044D01*
X82661253Y-67671134D01*
X82546503Y-67587763D01*
X82512094Y-67562763D01*
X82512093Y-67562762D01*
X82506752Y-67558882D01*
X82500724Y-67556198D01*
X82500722Y-67556197D01*
X82338319Y-67483891D01*
X82338318Y-67483891D01*
X82332288Y-67481206D01*
X82227305Y-67458891D01*
X82151944Y-67442872D01*
X82151939Y-67442872D01*
X82145487Y-67441500D01*
X81954513Y-67441500D01*
X81948061Y-67442872D01*
X81948056Y-67442872D01*
X81872695Y-67458891D01*
X81767712Y-67481206D01*
X81761682Y-67483891D01*
X81761681Y-67483891D01*
X81599278Y-67556197D01*
X81599276Y-67556198D01*
X81593248Y-67558882D01*
X81587907Y-67562762D01*
X81587906Y-67562763D01*
X81553497Y-67587763D01*
X81438747Y-67671134D01*
X81434326Y-67676044D01*
X81434325Y-67676045D01*
X81328322Y-67793774D01*
X81310960Y-67813056D01*
X81215473Y-67978444D01*
X81156458Y-68160072D01*
X81155768Y-68166633D01*
X81155768Y-68166635D01*
X81139814Y-68318435D01*
X81136496Y-68350000D01*
X80760876Y-68350000D01*
X80743542Y-68185072D01*
X80684527Y-68003444D01*
X80589040Y-67838056D01*
X80571679Y-67818774D01*
X80465675Y-67701045D01*
X80465674Y-67701044D01*
X80461253Y-67696134D01*
X80306752Y-67583882D01*
X80300724Y-67581198D01*
X80300722Y-67581197D01*
X80138319Y-67508891D01*
X80138318Y-67508891D01*
X80132288Y-67506206D01*
X80027305Y-67483891D01*
X79951944Y-67467872D01*
X79951939Y-67467872D01*
X79945487Y-67466500D01*
X79754513Y-67466500D01*
X79748061Y-67467872D01*
X79748056Y-67467872D01*
X79672695Y-67483891D01*
X79567712Y-67506206D01*
X79561682Y-67508891D01*
X79561681Y-67508891D01*
X79399278Y-67581197D01*
X79399276Y-67581198D01*
X79393248Y-67583882D01*
X79238747Y-67696134D01*
X79234326Y-67701044D01*
X79234325Y-67701045D01*
X79128322Y-67818774D01*
X79110960Y-67838056D01*
X79015473Y-68003444D01*
X78956458Y-68185072D01*
X78936496Y-68375000D01*
X78613504Y-68375000D01*
X78593542Y-68185072D01*
X78534527Y-68003444D01*
X78439040Y-67838056D01*
X78421679Y-67818774D01*
X78315675Y-67701045D01*
X78315674Y-67701044D01*
X78311253Y-67696134D01*
X78156752Y-67583882D01*
X78150724Y-67581198D01*
X78150722Y-67581197D01*
X77988319Y-67508891D01*
X77988318Y-67508891D01*
X77982288Y-67506206D01*
X77877305Y-67483891D01*
X77801944Y-67467872D01*
X77801939Y-67467872D01*
X77795487Y-67466500D01*
X77604513Y-67466500D01*
X77598061Y-67467872D01*
X77598056Y-67467872D01*
X77522695Y-67483891D01*
X77417712Y-67506206D01*
X77411682Y-67508891D01*
X77411681Y-67508891D01*
X77249278Y-67581197D01*
X77249276Y-67581198D01*
X77243248Y-67583882D01*
X77088747Y-67696134D01*
X77084326Y-67701044D01*
X77084325Y-67701045D01*
X76978322Y-67818774D01*
X76960960Y-67838056D01*
X76865473Y-68003444D01*
X76806458Y-68185072D01*
X76786496Y-68375000D01*
X76335877Y-68375000D01*
X76337814Y-68356565D01*
X76338504Y-68350000D01*
X76335186Y-68318435D01*
X76319232Y-68166635D01*
X76319232Y-68166633D01*
X76318542Y-68160072D01*
X76259527Y-67978444D01*
X76164040Y-67813056D01*
X76146679Y-67793774D01*
X76040675Y-67676045D01*
X76040674Y-67676044D01*
X76036253Y-67671134D01*
X75921503Y-67587763D01*
X75887094Y-67562763D01*
X75887093Y-67562762D01*
X75881752Y-67558882D01*
X75875724Y-67556198D01*
X75875722Y-67556197D01*
X75713319Y-67483891D01*
X75713318Y-67483891D01*
X75707288Y-67481206D01*
X75602305Y-67458891D01*
X75526944Y-67442872D01*
X75526939Y-67442872D01*
X75520487Y-67441500D01*
X75329513Y-67441500D01*
X75323061Y-67442872D01*
X75323056Y-67442872D01*
X75247695Y-67458891D01*
X75142712Y-67481206D01*
X75136682Y-67483891D01*
X75136681Y-67483891D01*
X74974278Y-67556197D01*
X74974276Y-67556198D01*
X74968248Y-67558882D01*
X74962907Y-67562762D01*
X74962906Y-67562763D01*
X74928497Y-67587763D01*
X74813747Y-67671134D01*
X74809326Y-67676044D01*
X74809325Y-67676045D01*
X74703322Y-67793774D01*
X74685960Y-67813056D01*
X74590473Y-67978444D01*
X74531458Y-68160072D01*
X74530768Y-68166633D01*
X74530768Y-68166635D01*
X74514814Y-68318435D01*
X74511496Y-68350000D01*
X73935876Y-68350000D01*
X73918542Y-68185072D01*
X73859527Y-68003444D01*
X73764040Y-67838056D01*
X73746679Y-67818774D01*
X73640675Y-67701045D01*
X73640674Y-67701044D01*
X73636253Y-67696134D01*
X73481752Y-67583882D01*
X73475724Y-67581198D01*
X73475722Y-67581197D01*
X73313319Y-67508891D01*
X73313318Y-67508891D01*
X73307288Y-67506206D01*
X73202305Y-67483891D01*
X73126944Y-67467872D01*
X73126939Y-67467872D01*
X73120487Y-67466500D01*
X72929513Y-67466500D01*
X72923061Y-67467872D01*
X72923056Y-67467872D01*
X72847695Y-67483891D01*
X72742712Y-67506206D01*
X72736682Y-67508891D01*
X72736681Y-67508891D01*
X72574278Y-67581197D01*
X72574276Y-67581198D01*
X72568248Y-67583882D01*
X72413747Y-67696134D01*
X72409326Y-67701044D01*
X72409325Y-67701045D01*
X72303322Y-67818774D01*
X72285960Y-67838056D01*
X72190473Y-68003444D01*
X72131458Y-68185072D01*
X72111496Y-68375000D01*
X65675000Y-68375000D01*
X65675000Y-60901000D01*
X65695002Y-60832879D01*
X65748658Y-60786386D01*
X65801000Y-60775000D01*
X206299000Y-60775000D01*
X206367121Y-60795002D01*
G37*
%TD.AperFunction*%
%TD*%
%TA.AperFunction,Conductor*%
%TO.N,BAT+*%
G36*
X107300000Y-88900000D02*
G01*
X102764010Y-88900000D01*
X102695889Y-88879998D01*
X102652700Y-88827454D01*
X102650555Y-88828519D01*
X102648184Y-88823743D01*
X102646224Y-88818779D01*
X102619052Y-88774000D01*
X102529390Y-88626243D01*
X102526623Y-88621683D01*
X102439755Y-88521576D01*
X102379023Y-88451588D01*
X102379021Y-88451586D01*
X102375523Y-88447555D01*
X102333970Y-88413484D01*
X102201373Y-88304760D01*
X102201367Y-88304756D01*
X102197245Y-88301376D01*
X102192609Y-88298737D01*
X102192606Y-88298735D01*
X102001529Y-88189968D01*
X101996886Y-88187325D01*
X101780175Y-88108663D01*
X101774926Y-88107714D01*
X101774923Y-88107713D01*
X101557392Y-88068377D01*
X101557385Y-88068376D01*
X101553308Y-88067639D01*
X101535586Y-88066803D01*
X101530644Y-88066570D01*
X101530637Y-88066570D01*
X101529156Y-88066500D01*
X101067110Y-88066500D01*
X101000191Y-88072178D01*
X100900591Y-88080629D01*
X100900587Y-88080630D01*
X100895280Y-88081080D01*
X100890125Y-88082418D01*
X100890119Y-88082419D01*
X100677297Y-88137657D01*
X100677293Y-88137658D01*
X100672128Y-88138999D01*
X100667262Y-88141191D01*
X100667259Y-88141192D01*
X100558980Y-88189968D01*
X100461925Y-88233688D01*
X100270681Y-88362441D01*
X100103865Y-88521576D01*
X99966246Y-88706542D01*
X99963830Y-88711293D01*
X99963828Y-88711297D01*
X99902915Y-88831105D01*
X99854212Y-88882763D01*
X99790598Y-88900000D01*
X89876000Y-88900000D01*
X89807879Y-88879998D01*
X89761386Y-88826342D01*
X89750000Y-88774000D01*
X89750000Y-86001000D01*
X89770002Y-85932879D01*
X89823658Y-85886386D01*
X89876000Y-85875000D01*
X107300000Y-85875000D01*
X107300000Y-88900000D01*
G37*
%TD.AperFunction*%
%TD*%
%TA.AperFunction,Conductor*%
%TO.N,/Inductor*%
G36*
X90950000Y-97174000D02*
G01*
X90929998Y-97242121D01*
X90876342Y-97288614D01*
X90824000Y-97300000D01*
X86663984Y-97300000D01*
X86595863Y-97279998D01*
X86549370Y-97226342D01*
X86543953Y-97209939D01*
X86543542Y-97210072D01*
X86486569Y-97034729D01*
X86484527Y-97028444D01*
X86389040Y-96863056D01*
X86261253Y-96721134D01*
X86106752Y-96608882D01*
X86100724Y-96606198D01*
X86100722Y-96606197D01*
X85938319Y-96533891D01*
X85938318Y-96533891D01*
X85932288Y-96531206D01*
X85838887Y-96511353D01*
X85751944Y-96492872D01*
X85751939Y-96492872D01*
X85745487Y-96491500D01*
X85554513Y-96491500D01*
X85548061Y-96492872D01*
X85548056Y-96492872D01*
X85461113Y-96511353D01*
X85367712Y-96531206D01*
X85361682Y-96533891D01*
X85361681Y-96533891D01*
X85199278Y-96606197D01*
X85199276Y-96606198D01*
X85193248Y-96608882D01*
X85038747Y-96721134D01*
X84910960Y-96863056D01*
X84815473Y-97028444D01*
X84756458Y-97210072D01*
X84754311Y-97209374D01*
X84725527Y-97262677D01*
X84663375Y-97296994D01*
X84636016Y-97300000D01*
X79751000Y-97300000D01*
X79682879Y-97279998D01*
X79636386Y-97226342D01*
X79625000Y-97174000D01*
X79625000Y-93951000D01*
X79645002Y-93882879D01*
X79698658Y-93836386D01*
X79751000Y-93825000D01*
X90950000Y-93825000D01*
X90950000Y-97174000D01*
G37*
%TD.AperFunction*%
%TD*%
M02*
